<?xml version="1.0" encoding="UTF-8"?>
<svg width="794px" height="209px" viewBox="0 0 794 209" version="1.1" xmlns="http://www.w3.org/2000/svg" xmlns:xlink="http://www.w3.org/1999/xlink">
    <title>asp-core-banner</title>
    <defs>
        <linearGradient x1="0%" y1="36.4588751%" x2="100%" y2="63.1592859%" id="linearGradient-1">
            <stop stop-color="#1A0FC7" offset="0%"></stop>
            <stop stop-color="#2979FF" offset="100%"></stop>
        </linearGradient>
        <path d="M293.656305,123.060974 C301.632666,123.060974 309.008622,125.643706 315.000897,130.022209 L315.001219,150.573165 C311.537214,142.062547 303.213774,136.066335 293.496403,136.066335 C280.670205,136.066335 270.272518,146.512941 270.272518,159.399483 C270.272518,169.157481 276.234427,177.516448 284.698164,181.000025 L264.252721,180.999661 C259.897133,174.980178 257.328058,167.571589 257.328058,159.560138 C257.328058,139.402206 273.592768,123.060974 293.656305,123.060974 Z M298.669583,28 C307.688639,28 315,36.8799133 315,47.8338843 L315.000312,111.865176 C314.496801,111.722796 314.002485,111.550986 313.520561,111.348962 C307.784091,108.924583 304.166693,103.084554 304.520698,96.8156393 C304.637213,94.8465475 303.204831,93.1344886 301.250861,92.9058488 C296.273965,92.3275246 291.253438,92.3095921 286.261667,92.8659988 C284.330009,93.0801929 282.897627,94.7519035 282.962577,96.6960891 C283.17974,102.903236 279.518712,108.641149 273.839259,110.978356 C268.392835,113.213447 261.309261,111.585073 257.345792,107.20555 C256.035873,105.762977 253.843917,105.585644 252.317828,106.780649 C248.32461,109.928306 244.692834,113.532746 241.539015,117.486869 C240.308921,119.024086 240.48989,121.252203 241.936651,122.574728 C246.57392,126.793854 248.071253,133.505603 245.662134,139.27689 C243.362092,144.779189 237.675202,148.325348 231.164779,148.325348 C229.052152,148.257104 227.547382,149.681745 227.316337,151.611485 C226.730294,156.640564 226.723353,161.764785 227.28758,166.834711 C227.49681,168.724601 229.747271,170.126327 231.656618,170.126327 C237.458535,169.977388 243.02891,173.58631 245.365642,179.299316 C245.593755,179.858072 245.785168,180.425886 245.940601,180.999568 L37.3304172,181 C28.3113611,181 21,172.120087 21,161.166116 L21,47.8338843 C21,36.8799133 28.3113611,28 37.3304172,28 L298.669583,28 Z M73.4615659,41.6034998 C48.507693,52.4006263 33,76.3452451 33,104.087267 C33,131.64948 48.6578367,155.281573 73.8733885,165.766173 C98.9473762,176.182275 126.47514,170.817961 145.727844,151.753884 C150.064851,147.455583 150.094879,139.9464 145.792192,135.61813 C141.35652,131.152863 134.102437,131.118614 129.623867,135.549632 C117.04612,148.003573 99.0589115,151.509857 82.6718057,144.698505 C69.7122647,139.308504 55.8690212,125.814237 55.8690212,104.082986 C55.8690212,85.5797423 66.1002378,69.6580478 82.5645603,62.5298893 C98.6513788,55.5686967 116.587109,58.659706 129.366478,70.5999066 C133.969453,74.8982075 141.214956,74.6584617 145.526223,70.0647595 C149.665898,65.6508668 149.417088,58.0731849 144.989996,53.9418498 C125.445584,35.6911954 98.0379348,30.9647768 73.4615659,41.6034998 Z M200.25,75.8 C194.65,75.8 194.65,75.8 190.25,77.95 C185.85,80.1 185.85,80.1 182.8,83.85 C179.75,87.6 179.75,87.6 178.1,92.6 C176.45,97.6 176.45,97.6 176.45,103.3 C176.45,109 176.45,109 177.85,113.95 C179.25,118.9 179.25,118.9 182.15,122.55 C185.05,126.2 185.05,126.2 189.55,128.3 C194.05,130.4 194.05,130.4 200.25,130.4 C205.15,130.4 205.15,130.4 208.85,129.1 C212.55,127.8 212.55,127.8 215.25,125.45 C217.95,123.1 217.95,123.1 219.75,119.95 C221.386364,117.086364 221.386364,117.086364 222.444215,113.768182 L222.65,113.1 L215.95,113.1 C214.55,118.8 214.55,118.8 210.35,121.9 C206.15,125 206.15,125 200.25,125 C195.95,125 195.95,125 192.65,123.35 C189.35,121.7 189.35,121.7 187.2,118.95 C185.05,116.2 185.05,116.2 183.95,112.45 C182.934615,108.988462 182.934615,108.988462 182.856509,105.143491 L182.85,104.5 L223.05,104.5 C223.15,90.5 223.15,90.5 217.05,83.15 C210.95,75.8 210.95,75.8 200.25,75.8 Z M171.05,75.8 C164.55,75.8 164.55,75.8 160.6,78.25 C156.796296,80.6092593 156.796296,80.6092593 154.337174,86.4458848 L154.15,86.9 L153.95,86.9 L153.95,77.2 L147.95,77.2 L147.95,129 L153.95,129 L153.95,103.6 C153.95,99.3 153.95,99.3 154.7,95.35 C155.45,91.4 155.45,91.4 157.4,88.5 C159.35,85.6 159.35,85.6 162.65,83.9 C165.785,82.285 165.785,82.285 170.5445,82.2945 L171.05,82.3 L171.05,75.8 Z M102,75 C87.0883118,75 75,87.0883118 75,102 C75,116.911688 87.0883118,129 102,129 C116.911688,129 129,116.911688 129,102 C129,87.0883118 116.911688,75 102,75 Z M200.25,81.2 C204.25,81.2 204.25,81.2 207.35,82.65 C210.45,84.1 210.45,84.1 212.5,86.55 C214.55,89 214.55,89 215.6,92.35 C216.65,95.7 216.65,95.7 216.65,99.5 L182.85,99.5 C183.25,95.8 183.25,95.8 184.55,92.5 C185.85,89.2 185.85,89.2 188,86.7 C190.15,84.2 190.15,84.2 193.2,82.7 C196.25,81.2 196.25,81.2 200.25,81.2 Z" id="path-2"></path>
        <filter x="-2.4%" y="-3.3%" width="104.8%" height="109.2%" filterUnits="objectBoundingBox" id="filter-3">
            <feOffset dx="0" dy="2" in="SourceAlpha" result="shadowOffsetOuter1"></feOffset>
            <feGaussianBlur stdDeviation="2" in="shadowOffsetOuter1" result="shadowBlurOuter1"></feGaussianBlur>
            <feColorMatrix values="0 0 0 0 0   0 0 0 0 0   0 0 0 0 0  0 0 0 0.5 0" type="matrix" in="shadowBlurOuter1"></feColorMatrix>
        </filter>
        <linearGradient x1="0.25781251%" y1="49.9960759%" x2="133.446935%" y2="50.4459058%" id="linearGradient-4">
            <stop stop-color="#1A0FC7" offset="0%"></stop>
            <stop stop-color="#53A0FD" offset="47.5247532%"></stop>
            <stop stop-color="#51D4EC" offset="100%"></stop>
        </linearGradient>
        <linearGradient x1="0.25781251%" y1="49.9934964%" x2="133.446935%" y2="50.7390322%" id="linearGradient-5">
            <stop stop-color="#1A0FC7" offset="0%"></stop>
            <stop stop-color="#53A0FD" offset="47.5247532%"></stop>
            <stop stop-color="#51D4EC" offset="100%"></stop>
        </linearGradient>
        <linearGradient x1="0%" y1="49.9989382%" x2="100%" y2="50.0010319%" id="linearGradient-6">
            <stop stop-color="#1A0FC7" offset="0%"></stop>
            <stop stop-color="#2979FF" offset="100%"></stop>
        </linearGradient>
    </defs>
    <g id="asp-core-banner" stroke="none" stroke-width="1" fill="none" fill-rule="evenodd">
        <g id="Combined-Shape" fill-rule="nonzero">
            <use fill="black" fill-opacity="1" filter="url(#filter-3)" xlink:href="#path-2"></use>
            <use fill="url(#linearGradient-1)" xlink:href="#path-2"></use>
        </g>
        <text id="Source-Deployment" fill="url(#linearGradient-4)" font-family="Futura-Bold, Futura" font-size="42" font-weight="bold">
            <tspan x="334.646" y="169">Source Deployment</tspan>
        </text>
        <text id="ASP-.NET-CORE" fill="url(#linearGradient-5)" font-family="Futura-Bold, Futura" font-size="50" font-weight="bold">
            <tspan x="355.85" y="88">ASP .NET CORE</tspan>
        </text>
        <line x1="340" y1="117" x2="773" y2="117" id="Line-6" stroke="url(#linearGradient-6)" stroke-width="2" stroke-linecap="round"></line>
    </g>
</svg>