<?xml version="1.0" encoding="UTF-8"?>
<svg width="794px" height="209px" viewBox="0 0 794 209" version="1.1" xmlns="http://www.w3.org/2000/svg" xmlns:xlink="http://www.w3.org/1999/xlink">
    <title>asp-core-banner</title>
    <defs>
        <filter x="-4.1%" y="-7.8%" width="108.2%" height="115.7%" filterUnits="objectBoundingBox" id="filter-1">
            <feOffset dx="0" dy="2" in="SourceAlpha" result="shadowOffsetOuter1"></feOffset>
            <feGaussianBlur stdDeviation="2" in="shadowOffsetOuter1" result="shadowBlurOuter1"></feGaussianBlur>
            <feColorMatrix values="0 0 0 0 0   0 0 0 0 0   0 0 0 0 0  0 0 0 0.5 0" type="matrix" in="shadowBlurOuter1" result="shadowMatrixOuter1"></feColorMatrix>
            <feMerge>
                <feMergeNode in="shadowMatrixOuter1"></feMergeNode>
                <feMergeNode in="SourceGraphic"></feMergeNode>
            </feMerge>
        </filter>
        <linearGradient x1="0%" y1="36.4588751%" x2="100%" y2="63.1592859%" id="linearGradient-2">
            <stop stop-color="#1A0FC7" offset="0%"></stop>
            <stop stop-color="#2979FF" offset="100%"></stop>
        </linearGradient>
        <linearGradient x1="0.25781251%" y1="49.9960759%" x2="133.446935%" y2="50.4459058%" id="linearGradient-3">
            <stop stop-color="#1A0FC7" offset="0%"></stop>
            <stop stop-color="#53A0FD" offset="47.5247532%"></stop>
            <stop stop-color="#51D4EC" offset="100%"></stop>
        </linearGradient>
        <linearGradient x1="0.25781251%" y1="49.9934964%" x2="133.446935%" y2="50.7390322%" id="linearGradient-4">
            <stop stop-color="#1A0FC7" offset="0%"></stop>
            <stop stop-color="#53A0FD" offset="47.5247532%"></stop>
            <stop stop-color="#51D4EC" offset="100%"></stop>
        </linearGradient>
        <linearGradient x1="0%" y1="49.9989382%" x2="100%" y2="50.0010319%" id="linearGradient-5">
            <stop stop-color="#1A0FC7" offset="0%"></stop>
            <stop stop-color="#2979FF" offset="100%"></stop>
        </linearGradient>
    </defs>
    <g id="asp-core-banner" stroke="none" stroke-width="1" fill="none" fill-rule="evenodd">
        <g id="Group" filter="url(#filter-1)" transform="translate(21.000000, 28.000000)" fill="url(#linearGradient-2)" fill-rule="nonzero">
            <path d="M272.656305,95.0609739 C280.632666,95.0609739 288.008622,97.6437062 294.000897,102.022209 L294.001219,122.573165 C290.537214,114.062547 282.213774,108.066335 272.496403,108.066335 C259.670205,108.066335 249.272518,118.512941 249.272518,131.399483 C249.272518,141.157481 255.234427,149.516448 263.698164,153.000025 L243.252721,152.999661 C238.897133,146.980178 236.328058,139.571589 236.328058,131.560138 C236.328058,111.402206 252.592768,95.0609739 272.656305,95.0609739 Z M277.669583,-1.02602371e-11 C286.688639,-1.02602371e-11 294,8.87991333 294,19.8338843 L294.000312,83.8651764 C293.496801,83.7227956 293.002485,83.550986 292.520561,83.3489615 C286.784091,80.9245826 283.166693,75.0845542 283.520698,68.8156393 C283.637213,66.8465475 282.204831,65.1344886 280.250861,64.9058488 C275.273965,64.3275246 270.253438,64.3095921 265.261667,64.8659988 C263.330009,65.0801929 261.897627,66.7519035 261.962577,68.6960891 C262.17974,74.9032363 258.518712,80.641149 252.839259,82.9783558 C247.392835,85.2134469 240.309261,83.5850732 236.345792,79.20555 C235.035873,77.7629773 232.843917,77.5856445 231.317828,78.7806486 C227.32461,81.9283064 223.692834,85.5327456 220.539015,89.4868693 C219.308921,91.0240859 219.48989,93.2522032 220.936651,94.5747276 C225.57392,98.7938542 227.071253,105.505603 224.662134,111.27689 C222.362092,116.779189 216.675202,120.325348 210.164779,120.325348 C208.052152,120.257104 206.547382,121.681745 206.316337,123.611485 C205.730294,128.640564 205.723353,133.764785 206.28758,138.834711 C206.49681,140.724601 208.747271,142.126327 210.656618,142.126327 C216.458535,141.977388 222.02891,145.58631 224.365642,151.299316 C224.593755,151.858072 224.785168,152.425886 224.940601,152.999568 L16.3304172,153 C7.31136107,153 0,144.120087 0,133.166116 L0,19.8338843 C0,8.87991333 7.31136107,-1.02602371e-11 16.3304172,-1.02602371e-11 L277.669583,-1.02602371e-11 Z M82.112,8.64 C51.72,8.64 51.72,8.64 32.348,28.012 C12.976,47.384 12.976,47.384 12.976,74.528 C12.976,101.672 12.976,101.672 32.116,120.464 C51.256,139.256 51.256,139.256 79.792,139.256 C97.888,139.256 97.888,139.256 113.548,132.064 C128.86,125.031822 128.86,125.031822 138.072405,112.010951 L138.488,111.416 L125.96,103.064 C108.56,124.64 108.56,124.64 81.416,124.64 C58.68,124.64 58.68,124.64 43.832,109.56 C28.984,94.48 28.984,94.48 28.984,73.368 C28.984,52.256 28.984,52.256 44.064,37.988 C59.144,23.72 59.144,23.72 81.416,23.72 C109.398364,23.72 109.398364,23.72 125.589351,44.8084225 L125.96,45.296 L138.488,37.408 C130.368,23.952 130.368,23.952 115.172,16.296 C99.976,8.64 99.976,8.64 82.112,8.64 Z M179.25,47.8 C173.65,47.8 173.65,47.8 169.25,49.95 C164.85,52.1 164.85,52.1 161.8,55.85 C158.75,59.6 158.75,59.6 157.1,64.6 C155.45,69.6 155.45,69.6 155.45,75.3 C155.45,81 155.45,81 156.85,85.95 C158.25,90.9 158.25,90.9 161.15,94.55 C164.05,98.2 164.05,98.2 168.55,100.3 C173.05,102.4 173.05,102.4 179.25,102.4 C184.15,102.4 184.15,102.4 187.85,101.1 C191.55,99.8 191.55,99.8 194.25,97.45 C196.95,95.1 196.95,95.1 198.75,91.95 C200.386364,89.0863636 200.386364,89.0863636 201.444215,85.7681818 L201.65,85.1 L194.95,85.1 C193.55,90.8 193.55,90.8 189.35,93.9 C185.15,97 185.15,97 179.25,97 C174.95,97 174.95,97 171.65,95.35 C168.35,93.7 168.35,93.7 166.2,90.95 C164.05,88.2 164.05,88.2 162.95,84.45 C161.934615,80.9884615 161.934615,80.9884615 161.856509,77.1434911 L161.85,76.5 L202.05,76.5 C202.15,62.5 202.15,62.5 196.05,55.15 C189.95,47.8 189.95,47.8 179.25,47.8 Z M150.05,47.8 C143.55,47.8 143.55,47.8 139.6,50.25 C135.796296,52.6092593 135.796296,52.6092593 133.337174,58.4458848 L133.15,58.9 L132.95,58.9 L132.95,49.2 L126.95,49.2 L126.95,101 L132.95,101 L132.95,75.6 C132.95,71.3 132.95,71.3 133.7,67.35 C134.45,63.4 134.45,63.4 136.4,60.5 C138.35,57.6 138.35,57.6 141.65,55.9 C144.785,54.285 144.785,54.285 149.5445,54.2945 L150.05,54.3 L150.05,47.8 Z M81,47 C66.0883118,47 54,59.0883118 54,74 C54,88.9116882 66.0883118,101 81,101 C95.9116882,101 108,88.9116882 108,74 C108,59.0883118 95.9116882,47 81,47 Z M179.25,53.2 C183.25,53.2 183.25,53.2 186.35,54.65 C189.45,56.1 189.45,56.1 191.5,58.55 C193.55,61 193.55,61 194.6,64.35 C195.65,67.7 195.65,67.7 195.65,71.5 L161.85,71.5 C162.25,67.8 162.25,67.8 163.55,64.5 C164.85,61.2 164.85,61.2 167,58.7 C169.15,56.2 169.15,56.2 172.2,54.7 C175.25,53.2 175.25,53.2 179.25,53.2 Z" id="Combined-Shape"></path>
        </g>
        <text id="Source-Deployment" fill="url(#linearGradient-3)" font-family="Futura-Bold, Futura" font-size="42" font-weight="bold">
            <tspan x="334.646" y="169">Source Deployment</tspan>
        </text>
        <text id="ASP-.NET-CORE" fill="url(#linearGradient-4)" font-family="Futura-Bold, Futura" font-size="50" font-weight="bold">
            <tspan x="355.85" y="88">ASP .NET CORE</tspan>
        </text>
        <line x1="340" y1="117" x2="773" y2="117" id="Line-6" stroke="url(#linearGradient-5)" stroke-width="2" stroke-linecap="round"></line>
    </g>
</svg>