<?xml version="1.0" encoding="UTF-8"?>
<svg width="753px" height="153px" viewBox="0 0 753 153" version="1.1" xmlns="http://www.w3.org/2000/svg" xmlns:xlink="http://www.w3.org/1999/xlink">
    <title>aps-net-banner</title>
    <defs>
        <linearGradient x1="0.25781251%" y1="49.9898758%" x2="133.446935%" y2="51.1504517%" id="linearGradient-1">
            <stop stop-color="#1A0FC7" offset="0%"></stop>
            <stop stop-color="#53A0FD" offset="47.5247532%"></stop>
            <stop stop-color="#51D4EC" offset="100%"></stop>
        </linearGradient>
        <linearGradient x1="0%" y1="49.9989382%" x2="100%" y2="50.0010319%" id="linearGradient-2">
            <stop stop-color="#1A0FC7" offset="0%"></stop>
            <stop stop-color="#2979FF" offset="100%"></stop>
        </linearGradient>
        <linearGradient x1="0.457860274%" y1="2.01816869e-07%" x2="99.5421397%" y2="98.5900763%" id="linearGradient-3">
            <stop stop-color="#1A0FC7" offset="0%"></stop>
            <stop stop-color="#2979FF" offset="100%"></stop>
        </linearGradient>
        <linearGradient x1="0%" y1="36.458796%" x2="100%" y2="63.1593628%" id="linearGradient-4">
            <stop stop-color="#1A0FC7" offset="0%"></stop>
            <stop stop-color="#2979FF" offset="100%"></stop>
        </linearGradient>
        <linearGradient x1="0.25781251%" y1="49.9960759%" x2="133.446935%" y2="50.4459058%" id="linearGradient-5">
            <stop stop-color="#1A0FC7" offset="0%"></stop>
            <stop stop-color="#53A0FD" offset="47.5247532%"></stop>
            <stop stop-color="#51D4EC" offset="100%"></stop>
        </linearGradient>
    </defs>
    <g id="aps-net-banner" stroke="none" stroke-width="1" fill="none" fill-rule="evenodd">
        <text id="ASP.NET-5.0" fill="url(#linearGradient-1)" fill-rule="nonzero" font-family="Futura-Bold, Futura" font-size="50" font-weight="bold">
            <tspan x="319" y="60">ASP.NET 5.0</tspan>
        </text>
        <line x1="319" y1="89.5" x2="752" y2="89.5" id="Line-6" stroke="url(#linearGradient-2)" stroke-width="2" stroke-linecap="round"></line>
        <g id="Group" fill-rule="nonzero">
            <path d="M272.656305,95.060974 C280.632666,95.060974 288.008622,97.643706 294.001219,102.022209 L294.001219,122.573165 C290.537214,114.062547 282.213774,108.066335 272.496403,108.066335 C259.670205,108.066335 249.272518,118.512941 249.272518,131.399483 C249.272518,141.157481 255.234427,149.516448 263.698164,153.000025 L243.252721,153.000025 C238.897133,146.980178 236.328058,139.571589 236.328058,131.560138 C236.328058,111.402206 252.592768,95.060974 272.656305,95.060974 Z" id="path-2-path" fill="url(#linearGradient-3)"></path>
            <path d="M277.669583,0 C286.688639,0 294.000312,8.8799133 294.000312,19.8338843 L294.000312,83.865176 C293.496801,83.722796 293.002485,83.550986 292.520561,83.348962 C286.784091,80.924583 283.166693,75.084554 283.520698,68.8156393 C283.637213,66.8465475 282.204831,65.1344886 280.250861,64.9058488 C275.273965,64.3275246 270.253438,64.3095921 265.261667,64.8659988 C263.330009,65.0801929 261.897627,66.7519035 261.962577,68.6960891 C262.17974,74.903236 258.518712,80.641149 252.839259,82.978356 C247.392835,85.213447 240.309261,83.585073 236.345792,79.20555 C235.035873,77.762977 232.843917,77.585644 231.317828,78.780649 C227.32461,81.928306 223.692834,85.532746 220.539015,89.486869 C219.308921,91.024086 219.48989,93.252203 220.936651,94.574728 C225.57392,98.793854 227.071253,105.505603 224.662134,111.27689 C222.362092,116.779189 216.675202,120.325348 210.164779,120.325348 C208.052152,120.257104 206.547382,121.681745 206.316337,123.611485 C205.730294,128.640564 205.723353,133.764785 206.28758,138.834711 C206.49681,140.724601 208.747271,142.126327 210.656618,142.126327 C216.458535,141.977388 222.02891,145.58631 224.365642,151.299316 C224.593755,151.858072 224.785168,152.425886 224.940601,153 L16.3304172,153 C7.3113611,153 1.13686838e-13,144.120087 1.13686838e-13,133.166116 L1.13686838e-13,19.8338843 C1.13686838e-13,8.8799133 7.3113611,0 16.3304172,0 L277.669583,0 Z M93.175,83.99 L80.435,83.99 L80.435,133 L93.175,133 L93.175,103.035 L116.705,133 L129.38,133 L129.38,83.99 L116.705,83.99 L116.705,113.955 L93.175,83.99 Z M167.535,83.99 L139.65,83.99 L139.65,133 L167.535,133 L167.535,122.21 L152.39,122.21 L152.39,113.76 L166.69,113.76 L166.69,102.97 L152.39,102.97 L152.39,94.78 L167.535,94.78 L167.535,83.99 Z M205.755,83.99 L172.085,83.99 L172.085,94.78 L182.55,94.78 L182.55,133 L195.29,133 L195.29,94.78 L205.755,94.78 L205.755,83.99 Z M83.035,22.625 C79.135,22.625 79.135,22.625 75.9825,23.795 C72.83,24.965 72.83,24.965 70.6525,27.0775 C68.475,29.19 68.475,29.19 67.2725,32.1475 C66.07,35.105 66.07,35.105 66.07,38.745 C66.07,42.385 66.07,42.385 67.2075,44.7575 C68.345,47.13 68.345,47.13 70.1975,48.69 C72.05,50.25 72.05,50.25 74.4225,51.1925 C76.795,52.135 76.795,52.135 79.265,52.915 C81.345,53.63 81.345,53.63 82.8075,54.215 C84.27,54.8 84.27,54.8 85.18,55.4825 C86.09,56.165 86.09,56.165 86.48,56.9775 C86.87,57.79 86.87,57.79 86.87,58.895 C86.87,60.715 86.87,60.715 85.3425,62.145 C83.815,63.575 83.815,63.575 80.695,63.575 C77.965,63.575 77.965,63.575 75.17,62.34 C72.5746429,61.1932143 72.5746429,61.1932143 69.9232398,58.9255102 L69.515,58.57 L64.055,68.84 C71.985,74.365 71.985,74.365 81.28,74.365 C85.765,74.365 85.765,74.365 89.3075,73.1625 C92.85,71.96 92.85,71.96 95.2875,69.7825 C97.725,67.605 97.725,67.605 98.9925,64.55 C100.26,61.495 100.26,61.495 100.26,57.725 C100.26,52.135 100.26,52.135 97.3675,48.6575 C94.475,45.18 94.475,45.18 88.235,43.1 C86.675,42.58 86.675,42.58 85.0825,42.125 C83.49,41.67 83.49,41.67 82.2225,41.0525 C80.955,40.435 80.955,40.435 80.175,39.59 C79.395,38.745 79.395,38.745 79.395,37.445 C79.395,35.56 79.395,35.56 80.955,34.39 C82.515,33.22 82.515,33.22 84.985,33.22 C86.935,33.22 86.935,33.22 89.015,34.0325 C90.9059091,34.7711364 90.9059091,34.7711364 92.7968182,36.2349793 L93.175,36.535 L98.245,26.59 C94.605,24.64 94.605,24.64 90.64,23.6325 C86.675,22.625 86.675,22.625 83.035,22.625 Z M154.145,59.155 C152.585,59.155 152.585,59.155 151.1875,59.74 C149.79,60.325 149.79,60.325 148.75,61.365 C147.71,62.405 147.71,62.405 147.125,63.8025 C146.54,65.2 146.54,65.2 146.54,66.76 C146.54,68.32 146.54,68.32 147.125,69.7175 C147.71,71.115 147.71,71.115 148.75,72.155 C149.79,73.195 149.79,73.195 151.1875,73.78 C152.585,74.365 152.585,74.365 154.145,74.365 C155.705,74.365 155.705,74.365 157.1025,73.78 C158.5,73.195 158.5,73.195 159.54,72.155 C160.58,71.115 160.58,71.115 161.165,69.7175 C161.75,68.32 161.75,68.32 161.75,66.76 C161.75,65.2 161.75,65.2 161.165,63.8025 C160.58,62.405 160.58,62.405 159.54,61.365 C158.5,60.325 158.5,60.325 157.1025,59.74 C155.705,59.155 155.705,59.155 154.145,59.155 Z M42.02,23.99 L28.11,23.99 L9.455,73 L23.04,73 L25.965,64.485 L44.165,64.485 L47.09,73 L60.675,73 L42.02,23.99 Z M128.535,23.99 L108.255,23.99 L108.255,73 L120.995,73 L120.995,56.75 L128.535,56.75 C136.79,56.75 136.79,56.75 141.1775,52.46 C145.565,48.17 145.565,48.17 145.565,40.37 C145.565,32.57 145.565,32.57 141.1775,28.28 C136.922955,24.12 136.922955,24.12 129.031752,23.9939394 L128.535,23.99 Z M35.065,38.485 L40.785,54.8 L29.345,54.8 L35.065,38.485 Z M125.22,34.26 C132.24,34.26 132.24,34.26 132.24,40.37 C132.24,46.48 132.24,46.48 125.22,46.48 L120.995,46.48 L120.995,34.26 L125.22,34.26 Z" id="Combined-Shape" fill="url(#linearGradient-4)"></path>
        </g>
        <text id="Source-Deployment" fill="url(#linearGradient-5)" fill-rule="nonzero" font-family="Futura-Bold, Futura" font-size="42" font-weight="bold">
            <tspan x="314" y="141">Source Deployment</tspan>
        </text>
    </g>
</svg>