<?xml version="1.0" encoding="UTF-8"?>
<svg width="794px" height="209px" viewBox="0 0 794 209" version="1.1" xmlns="http://www.w3.org/2000/svg" xmlns:xlink="http://www.w3.org/1999/xlink">
    <title>Django-project-banner</title>
    <defs>
        <filter x="-4.1%" y="-7.8%" width="108.2%" height="115.7%" filterUnits="objectBoundingBox" id="filter-1">
            <feOffset dx="0" dy="2" in="SourceAlpha" result="shadowOffsetOuter1"></feOffset>
            <feGaussianBlur stdDeviation="2" in="shadowOffsetOuter1" result="shadowBlurOuter1"></feGaussianBlur>
            <feColorMatrix values="0 0 0 0 0   0 0 0 0 0   0 0 0 0 0  0 0 0 0.5 0" type="matrix" in="shadowBlurOuter1" result="shadowMatrixOuter1"></feColorMatrix>
            <feMerge>
                <feMergeNode in="shadowMatrixOuter1"></feMergeNode>
                <feMergeNode in="SourceGraphic"></feMergeNode>
            </feMerge>
        </filter>
        <linearGradient x1="0%" y1="36.4588751%" x2="100%" y2="63.1592859%" id="linearGradient-2">
            <stop stop-color="#1A0FC7" offset="0%"></stop>
            <stop stop-color="#2979FF" offset="100%"></stop>
        </linearGradient>
        <linearGradient x1="0.25781251%" y1="49.9960759%" x2="133.446935%" y2="50.4459058%" id="linearGradient-3">
            <stop stop-color="#1A0FC7" offset="0%"></stop>
            <stop stop-color="#53A0FD" offset="47.5247532%"></stop>
            <stop stop-color="#51D4EC" offset="100%"></stop>
        </linearGradient>
        <linearGradient x1="0.25781251%" y1="49.9932783%" x2="133.446935%" y2="50.7638141%" id="linearGradient-4">
            <stop stop-color="#1A0FC7" offset="0%"></stop>
            <stop stop-color="#53A0FD" offset="47.5247532%"></stop>
            <stop stop-color="#51D4EC" offset="100%"></stop>
        </linearGradient>
        <linearGradient x1="0%" y1="49.9989382%" x2="100%" y2="50.0010319%" id="linearGradient-5">
            <stop stop-color="#1A0FC7" offset="0%"></stop>
            <stop stop-color="#2979FF" offset="100%"></stop>
        </linearGradient>
    </defs>
    <g id="Django-project-banner" stroke="none" stroke-width="1" fill="none" fill-rule="evenodd">
        <g id="Group-20" filter="url(#filter-1)" transform="translate(21.000000, 28.000000)" fill="url(#linearGradient-2)" fill-rule="nonzero">
            <path d="M272.656305,95.0609739 C280.632666,95.0609739 288.008622,97.6437062 294.000897,102.022209 L294.001219,122.573165 C290.537214,114.062547 282.213774,108.066335 272.496403,108.066335 C259.670205,108.066335 249.272518,118.512941 249.272518,131.399483 C249.272518,141.157481 255.234427,149.516448 263.698164,153.000025 L243.252721,152.999661 C238.897133,146.980178 236.328058,139.571589 236.328058,131.560138 C236.328058,111.402206 252.592768,95.0609739 272.656305,95.0609739 Z M277.669583,-2.55795385e-13 C286.688639,-2.55795385e-13 294,8.87991333 294,19.8338843 L294.000312,83.8651764 C293.496801,83.7227956 293.002485,83.550986 292.520561,83.3489615 C286.784091,80.9245826 283.166693,75.0845542 283.520698,68.8156393 C283.637213,66.8465475 282.204831,65.1344886 280.250861,64.9058488 C275.273965,64.3275246 270.253438,64.3095921 265.261667,64.8659988 C263.330009,65.0801929 261.897627,66.7519035 261.962577,68.6960891 C262.17974,74.9032363 258.518712,80.641149 252.839259,82.9783558 C247.392835,85.2134469 240.309261,83.5850732 236.345792,79.20555 C235.035873,77.7629773 232.843917,77.5856445 231.317828,78.7806486 C227.32461,81.9283064 223.692834,85.5327456 220.539015,89.4868693 C219.308921,91.0240859 219.48989,93.2522032 220.936651,94.5747276 C225.57392,98.7938542 227.071253,105.505603 224.662134,111.27689 C222.362092,116.779189 216.675202,120.325348 210.164779,120.325348 C208.052152,120.257104 206.547382,121.681745 206.316337,123.611485 C205.730294,128.640564 205.723353,133.764785 206.28758,138.834711 C206.49681,140.724601 208.747271,142.126327 210.656618,142.126327 C216.458535,141.977388 222.02891,145.58631 224.365642,151.299316 C224.593755,151.858072 224.785168,152.425886 224.940601,152.999568 L16.3304172,153 C7.31136107,153 0,144.120087 0,133.166116 L0,19.8338843 C0,8.87991333 7.31136107,-2.55795385e-13 16.3304172,-2.55795385e-13 L277.669583,-2.55795385e-13 Z M166.523899,56.7163401 C150.126264,56.7163401 140.869565,63.9565315 140.869565,76.7562653 C140.869565,87.0680531 147.138336,93.5778558 156.977575,93.5778558 C159.892157,93.5778558 162.078915,93.1385845 164.265204,92.0411139 L164.265204,92.0411139 L164.265204,92.2614573 C164.265204,99.4294592 161.131054,102.427451 153.770549,102.427451 C149.6166,102.427451 145.681281,101.476718 141.745021,99.4294592 L141.745021,99.4294592 L141.744551,99.4294592 L141.744551,109.81438 C145.680811,111.350179 149.469907,112.00885 153.842955,112.00885 C162.442827,112.00885 168.492029,109.302919 171.990561,103.816982 C174.395478,100.087658 175.197117,95.5529253 175.197117,85.898393 L175.197117,85.898393 L175.197117,82.825853 C175.123771,81.2905266 175.123771,79.7537848 175.050894,78.2189302 L175.050894,78.2189302 L174.978488,72.0747938 L174.833206,67.3216046 L174.833206,66.1514726 C177.09143,66.3708724 174.342349,65.8641297 177.330747,66.4496675 L177.330747,66.4496675 L181.173913,58.323856 C175.780598,57.227801 171.334674,56.7163401 166.523899,56.7163401 Z M64.7391304,57.3262358 L53.43384,57.3262358 L53.4333619,80.0608288 C53.4154545,89.4777238 52.8911699,93.1330814 51.3040637,96.292698 C49.7624977,99.437992 47.340037,101.483447 42.3478261,103.822727 L42.3478261,103.822727 L52.8461032,108.794169 C57.8378405,106.308212 60.2607748,104.042978 62.096446,100.460484 C64.0784593,96.731313 64.7391304,92.4182655 64.7391304,83.426658 L64.7391304,83.426658 L64.7391304,57.3262358 Z M199.02103,56.0734039 C187.639603,56.0734039 180.534629,63.4974741 180.534161,75.4080465 C180.534161,86.8756598 187.421197,94.0066372 198.586089,94.0066372 C209.895962,94.0066372 217,86.5816184 217,74.7455049 C217,63.2048556 210.184987,56.0734039 199.02103,56.0734039 Z M46.826087,40 L35.4740657,40 L35.4740657,57.0762342 C33.7782294,56.6408841 32.377714,56.4949855 30.5349306,56.4949855 C18.66693,56.4949855 11,63.9123574 11,75.3290397 C11,87.1834178 18.2241865,93.363701 32.0828687,93.363701 C36.7266828,93.363701 41.0024159,92.9274126 46.826087,91.8366916 L46.826087,91.8366916 L46.826087,40 Z M86.2821378,56.0734039 C81.1483471,56.0734039 76.4488249,57.0985196 71.5310022,59.4431941 L71.5310022,59.4431941 L71.5310022,68.1611676 C75.8699557,65.8897493 80.497644,64.718121 84.6187635,64.718121 C87.4389433,64.718121 88.4511481,65.4502115 88.4511481,67.5009155 L88.4511481,67.5009155 L88.4511481,69.9921027 C74.7849841,71.1651488 69.2173913,74.8274917 69.2173913,82.7410636 C69.2173913,90.0662219 73.411744,93.363701 82.7389546,93.363701 C87.3661765,93.363701 93.6563062,92.8513795 98.6459627,92.1178711 L98.6459627,92.1178711 L98.645156,68.768164 C98.6278383,64.3651575 98.3282935,62.2491471 97.4173234,60.6157677 C95.7539491,57.6117864 91.9943313,56.0734039 86.2821378,56.0734039 Z M122.136085,56.0734039 C116.56707,56.0734039 111.071324,56.8775025 104.403727,58.6338729 L104.403727,58.6338729 L104.404199,58.6338729 L104.404199,92.720293 L115.688299,92.720293 L115.688299,65.9481503 C117.960623,65.2898653 119.352759,65.1431079 120.891436,65.1431079 C124.921302,65.1431079 126.386708,66.7531927 126.386708,71.0686163 L126.386708,71.0686163 L126.386708,92.7207649 L137.670807,92.7207649 L137.670807,70.6302315 C137.670807,64.9963504 136.938577,62.3632106 134.593927,59.9504428 C132.101792,57.3890301 127.924912,56.0734039 122.136085,56.0734039 Z M88.9572505,77.3924077 L88.9572505,84.9392255 C86.7877738,85.3045618 85.269933,85.451547 83.6065587,85.451547 C80.5699443,85.451547 79.1957714,84.4254861 79.1957714,82.2277968 C79.1957714,79.2975444 81.5816827,78.1259161 88.9572505,77.3924077 L88.9572505,77.3924077 Z M198.876518,65.188212 C203.152971,65.188212 205.618105,68.8646776 205.618105,75.039072 C205.618105,81.2883996 203.080481,84.8908806 198.802624,84.8908806 C194.453681,84.8908806 191.916056,81.2888738 191.915589,75.039072 C191.915589,68.7916415 194.453681,65.188212 198.876518,65.188212 Z M162.513543,65.7792108 L162.881025,65.7853346 L164.047516,65.7853346 L164.047516,66.6634053 L164.120862,70.393201 L164.193268,75.5861333 C164.193268,77.1214597 164.265674,78.5850683 164.265674,79.9014667 L164.265674,79.9014667 L164.265674,83.7775288 C162.808619,84.2163283 161.569252,84.5088613 160.03885,84.5088613 C155.083262,84.5088613 152.313023,81.2914703 152.313023,75.6592666 C152.313023,71.7091276 153.698613,68.930536 156.394565,67.3937942 C158.144536,66.2967955 160.695206,65.7122013 162.881025,65.7853346 Z M31.6406007,65.5116124 C33.0411161,65.5116124 34.1467861,65.6570419 35.4735901,66.0928612 L35.4735901,66.0928612 L35.4735901,84.0562151 C33.8519408,84.2734211 32.8195065,84.3461358 31.5668893,84.3461358 C25.7432183,84.3461358 22.5731553,81.0739728 22.5731553,75.1099573 C22.5731553,69.0023888 25.8906409,65.5116124 31.6406007,65.5116124 Z M64.7391304,40 L53.43384,40 L53.43384,51.5516099 L64.7391304,51.5516099 L64.7391304,40 Z" id="Combined-Shape"></path>
        </g>
        <text id="Source-Deployment" fill="url(#linearGradient-3)" font-family="Futura-Bold, Futura" font-size="42" font-weight="bold">
            <tspan x="334.646" y="169">Source Deployment</tspan>
        </text>
        <text id="Django-Project" fill="url(#linearGradient-4)" font-family="Futura-Bold, Futura" font-size="55" font-weight="bold">
            <tspan x="340.92" y="87">Django Project</tspan>
        </text>
        <line x1="340" y1="117" x2="773" y2="117" id="Line-6" stroke="url(#linearGradient-5)" stroke-width="2" stroke-linecap="round"></line>
    </g>
</svg>