<?xml version="1.0" encoding="UTF-8"?>
<svg width="777px" height="248px" viewBox="0 0 777 248" version="1.1" xmlns="http://www.w3.org/2000/svg" xmlns:xlink="http://www.w3.org/1999/xlink">
    <title>External Default Domain</title>
    <defs>
        <rect id="path-1" x="1" y="0" width="707" height="51" rx="25.5"></rect>
        <filter x="-1.0%" y="-9.8%" width="102.0%" height="127.5%" filterUnits="objectBoundingBox" id="filter-2">
            <feOffset dx="0" dy="2" in="SourceAlpha" result="shadowOffsetOuter1"></feOffset>
            <feGaussianBlur stdDeviation="2" in="shadowOffsetOuter1" result="shadowBlurOuter1"></feGaussianBlur>
            <feColorMatrix values="0 0 0 0 0   0 0 0 0 0   0 0 0 0 0  0 0 0 0.5 0" type="matrix" in="shadowBlurOuter1"></feColorMatrix>
        </filter>
        <rect id="path-3" x="35" y="99" width="708" height="51" rx="25.5"></rect>
        <filter x="-1.0%" y="-9.8%" width="102.0%" height="127.5%" filterUnits="objectBoundingBox" id="filter-4">
            <feOffset dx="0" dy="2" in="SourceAlpha" result="shadowOffsetOuter1"></feOffset>
            <feGaussianBlur stdDeviation="2" in="shadowOffsetOuter1" result="shadowBlurOuter1"></feGaussianBlur>
            <feColorMatrix values="0 0 0 0 0   0 0 0 0 0   0 0 0 0 0  0 0 0 0.5 0" type="matrix" in="shadowBlurOuter1"></feColorMatrix>
        </filter>
        <rect id="path-5" x="35" y="159" width="708" height="51" rx="25.5"></rect>
        <filter x="-1.0%" y="-9.8%" width="102.0%" height="127.5%" filterUnits="objectBoundingBox" id="filter-6">
            <feOffset dx="0" dy="2" in="SourceAlpha" result="shadowOffsetOuter1"></feOffset>
            <feGaussianBlur stdDeviation="2" in="shadowOffsetOuter1" result="shadowBlurOuter1"></feGaussianBlur>
            <feColorMatrix values="0 0 0 0 0   0 0 0 0 0   0 0 0 0 0  0 0 0 0.5 0" type="matrix" in="shadowBlurOuter1"></feColorMatrix>
        </filter>
    </defs>
    <g id="External-Default-Domain" stroke="none" stroke-width="1" fill="none" fill-rule="evenodd">
        <g id="Group" transform="translate(35.000000, 39.000000)">
            <g id="Rectangle">
                <use fill="black" fill-opacity="1" filter="url(#filter-2)" xlink:href="#path-1"></use>
                <use fill="#D8D8D8" fill-rule="evenodd" xlink:href="#path-1"></use>
            </g>
            <g transform="translate(50.000000, 17.000000)" fill="#8E8E93" id="Glyphs/Search">
                <path d="M16.6880435,15.2684962 L12.0336864,10.6123177 C12.8679865,9.47441493 13.3149178,8.09871771 13.3086864,6.68774623 C13.2927674,3.0046425 10.3137988,0.0213403911 6.63072208,6.76573604e-05 C4.86816227,-0.00790691002 3.17561947,0.68936492 1.93014434,1.93655071 C0.684669219,3.18373649 -0.0102788419,4.87723474 0.00011493241,6.63978194 C0.0160338668,10.323221 2.99527435,13.3067949 6.67868636,13.3280677 C8.09540588,13.3342079 9.47612925,12.8820598 10.6147935,12.0391034 L10.6196506,12.0354605 L15.2697578,16.6879962 C15.5211743,16.9517555 15.895802,17.058519 16.2484902,16.966921 C16.6011784,16.8753229 16.8765096,16.599756 16.9678057,16.2469896 C17.0591019,15.8942231 16.9520178,15.5196869 16.6880435,15.2684962 L16.6880435,15.2684962 Z M6.67382922,11.9947819 C3.72726058,11.9778317 1.34390695,9.59122809 1.33097208,6.64463909 C1.32301922,5.23478394 1.87902341,3.88025743 2.87521592,2.88258249 C3.87140842,1.88490756 5.22510666,1.32688982 6.63497208,1.33274623 C9.58154071,1.34969643 11.9648943,3.73630008 11.9778292,6.68288909 C11.9857821,8.09274423 11.4297779,9.44727074 10.4335854,10.4449457 C9.43739287,11.4426206 8.08369463,12.0006383 6.67382922,11.9947819 Z" id="Search"></path>
            </g>
            <rect id="Rectangle" fill="#FFFFFF" x="81" y="7" width="602" height="37" rx="3"></rect>
            <g fill="#000000" fill-opacity="0.25" id="Overrides/Cell/Accessory/Disclosure-Indicator">
                <g transform="translate(14.000000, 25.500000) rotate(-180.000000) translate(-14.000000, -25.500000) ">
                    <polygon id="Disclosure-Indicator" points="4 19.9204545 5.5 18.4204545 12 24.9204545 5.5 31.4204545 4 29.9204545 9 24.9204545"></polygon>
                </g>
            </g>
            <g fill="#000000" fill-opacity="0.25" id="Overrides/Cell/Accessory/Disclosure-Indicator">
                <g transform="translate(14.000000, 25.500000) rotate(-180.000000) translate(-14.000000, -25.500000) ">
                    <polygon id="Disclosure-Indicator" points="4 19.9204545 5.5 18.4204545 12 24.9204545 5.5 31.4204545 4 29.9204545 9 24.9204545"></polygon>
                </g>
            </g>
            <g transform="translate(31.000000, 3.000000)" fill="#000000" fill-opacity="0.25" id="Overrides/Cell/Accessory/Disclosure-Indicator-Copy">
                <g>
                    <polygon id="Disclosure-Indicator" points="2 18.4545455 3.5 16.9545455 10 23.4545455 3.5 29.9545455 2 28.4545455 7 23.4545455"></polygon>
                </g>
            </g>
            <text id="https://serviceName-" font-family="ArialMT, Arial" font-size="13" font-weight="normal">
                <tspan x="128" y="30" fill="#1A0FC7">https://</tspan>
                <tspan x="167.019043" y="30" fill="#4A4A4A">serviceName-NameSpace.fandogh.cloud</tspan>
            </text>
            <g id="shield" transform="translate(88.000000, 13.000000)">
                <path d="M19.8907224,16.6948274 C19.2278988,18.5159648 18.2254792,20.0994466 16.9109323,21.4008312 C15.4146405,22.8820789 13.4553316,24.0591044 11.0873787,24.8987197 C11.0096761,24.9261856 10.928587,24.9486923 10.8471216,24.9652862 C10.7395044,24.9868393 10.6300059,24.9984741 10.5214481,25 L10.500188,25 C10.3844808,25 10.2682092,24.9881744 10.1528782,24.9652862 C10.0714128,24.9486923 9.99145253,24.9261856 9.91412628,24.8992919 C7.54335125,24.0610118 5.5815965,22.8845585 4.08379945,21.4033108 C2.76868817,20.1019261 1.76645669,18.5193981 1.1045738,16.6982607 C-0.0989694463,13.3871017 -0.0304857764,9.73948619 0.0246397642,6.80827124 L0.0255804613,6.76325779 C0.0366808406,6.52121513 0.0438302056,6.26696539 0.0477812199,5.98620352 C0.0679123583,4.60776196 1.14897527,3.4673576 2.50886433,3.39049139 C5.3441615,3.2300833 7.53751884,2.29262093 9.41159948,0.44077517 L9.42796783,0.425516372 C9.73915437,0.136171394 10.1312419,-0.00573542033 10.5214481,0 C10.8977317,0.0051365093 11.2725102,0.146852552 11.5725964,0.425516372 L11.5885885,0.44077517 C13.4630454,2.29262093 15.6564027,3.2300833 18.4916999,3.39049139 C19.8515889,3.4673576 20.9326518,4.60776196 20.952783,5.98620352 C20.956734,6.26887276 20.9638834,6.52274101 20.9749837,6.76325779 L20.9755482,6.78233129 C21.0304856,9.71907754 21.0985929,13.373941 19.8907224,16.6948274 Z" id="Path" fill="#463CE6"></path>
                <path d="M19.8884519,16.6947685 C19.2242716,18.5159188 18.2198002,20.0994118 16.9025626,21.4008056 C15.4032081,22.8820639 13.4398887,24.0590978 11.067089,24.898719 C10.9892274,24.926185 10.9079722,24.9486919 10.8263401,24.965286 C10.7185027,24.9868392 10.60878,24.9984741 10.5,25 L10.5,0 C10.8770538,0.00495915649 11.2525995,0.146676204 11.5532999,0.425342002 L11.5693247,0.440600908 C13.4476184,2.29245981 15.6454651,3.22992883 18.4865658,3.39033806 C19.8492383,3.46720481 20.932514,4.60761727 20.9526864,5.98606861 C20.9566454,6.26873986 20.9638094,6.52260991 20.9749325,6.76312839 L20.9754981,6.78220202 C21.030548,9.71896911 21.0987948,13.3738585 19.8884519,16.6947685 Z" id="Path" fill="#1A0FC7"></path>
                <path d="M16.1538462,12.903127 C16.1538462,16.4527831 13.4477129,19.3421988 10.1175723,19.3548387 L10.0962466,19.3548387 C6.75627761,19.3548387 4.03846154,16.4604855 4.03846154,12.903127 C4.03846154,9.34596602 6.75627761,6.4516129 10.0962466,6.4516129 L10.1175723,6.4516129 C13.4477129,6.46425286 16.1538462,9.3536685 16.1538462,12.903127 Z" id="Path" fill="#FFFFFF"></path>
                <path d="M16.9615385,12.903127 C16.9615385,16.4527831 14.064754,19.3421988 10.5,19.3548387 L10.5,6.4516129 C14.064754,6.46425286 16.9615385,9.3536685 16.9615385,12.903127 Z" id="Path" fill="#E1EBF0"></path>
                <path d="M13.5062497,11.7255466 L10.5740426,14.5083826 L9.94044511,15.109622 C9.79076541,15.2516575 9.59444786,15.3225806 9.39832961,15.3225806 C9.20201205,15.3225806 9.0058938,15.2516575 8.85601481,15.109622 L7.49375028,13.8163616 C7.19439093,13.5322907 7.19439093,13.0721412 7.49375028,12.7878811 C7.79271103,12.5038102 8.2782233,12.5038102 8.57758265,12.7878811 L9.39832961,13.5667121 L12.4224173,10.697066 C12.7217767,10.412806 13.207289,10.412806 13.5062497,10.697066 C13.8056091,10.981137 13.8056091,11.4418539 13.5062497,11.7255466 Z" id="Path" fill-opacity="0.570114357" fill="#463CE6"></path>
                <path d="M13.5009835,11.7279365 L10.5,14.516129 L10.5,12.4546403 L12.3917292,10.6974764 C12.6981103,10.4126692 13.1950105,10.4126692 13.5009835,10.6974764 C13.8073645,10.9820941 13.8073645,11.4436978 13.5009835,11.7279365 Z" id="Path" fill-opacity="0.928442029" fill="#463CE6"></path>
            </g>
            <line x1="118.5" y1="13" x2="118.5" y2="38" id="Line" stroke="#979797" stroke-linecap="square"></line>
        </g>
        <g id="Rectangle-Copy-2">
            <use fill="black" fill-opacity="1" filter="url(#filter-4)" xlink:href="#path-3"></use>
            <use fill="#D8D8D8" fill-rule="evenodd" xlink:href="#path-3"></use>
        </g>
        <g id="Glyphs/Search" transform="translate(84.000000, 116.000000)" fill="#8E8E93">
            <path d="M16.6880435,15.2684962 L12.0336864,10.6123177 C12.8679865,9.47441493 13.3149178,8.09871771 13.3086864,6.68774623 C13.2927674,3.0046425 10.3137988,0.0213403911 6.63072208,6.76573604e-05 C4.86816227,-0.00790691002 3.17561947,0.68936492 1.93014434,1.93655071 C0.684669219,3.18373649 -0.0102788419,4.87723474 0.00011493241,6.63978194 C0.0160338668,10.323221 2.99527435,13.3067949 6.67868636,13.3280677 C8.09540588,13.3342079 9.47612925,12.8820598 10.6147935,12.0391034 L10.6196506,12.0354605 L15.2697578,16.6879962 C15.5211743,16.9517555 15.895802,17.058519 16.2484902,16.966921 C16.6011784,16.8753229 16.8765096,16.599756 16.9678057,16.2469896 C17.0591019,15.8942231 16.9520178,15.5196869 16.6880435,15.2684962 L16.6880435,15.2684962 Z M6.67382922,11.9947819 C3.72726058,11.9778317 1.34390695,9.59122809 1.33097208,6.64463909 C1.32301922,5.23478394 1.87902341,3.88025743 2.87521592,2.88258249 C3.87140842,1.88490756 5.22510666,1.32688982 6.63497208,1.33274623 C9.58154071,1.34969643 11.9648943,3.73630008 11.9778292,6.68288909 C11.9857821,8.09274423 11.4297779,9.44727074 10.4335854,10.4449457 C9.43739287,11.4426206 8.08369463,12.0006383 6.67382922,11.9947819 Z" id="Search"></path>
        </g>
        <rect id="Rectangle-Copy" fill="#FFFFFF" x="115" y="106" width="603" height="37" rx="3"></rect>
        <g id="Group" transform="translate(34.000000, 99.000000)" fill="#000000" fill-opacity="0.25">
            <g id="Overrides/Cell/Accessory/Disclosure-Indicator" transform="translate(14.000000, 25.500000) rotate(-180.000000) translate(-14.000000, -25.500000) ">
                <polygon id="Disclosure-Indicator" points="4 19.9204545 5.5 18.4204545 12 24.9204545 5.5 31.4204545 4 29.9204545 9 24.9204545"></polygon>
            </g>
        </g>
        <g id="Group" transform="translate(34.000000, 99.000000)" fill="#000000" fill-opacity="0.25">
            <g id="Overrides/Cell/Accessory/Disclosure-Indicator" transform="translate(14.000000, 25.500000) rotate(-180.000000) translate(-14.000000, -25.500000) ">
                <polygon id="Disclosure-Indicator" points="4 19.9204545 5.5 18.4204545 12 24.9204545 5.5 31.4204545 4 29.9204545 9 24.9204545"></polygon>
            </g>
        </g>
        <g id="Group" transform="translate(65.000000, 102.000000)" fill="#000000" fill-opacity="0.25">
            <g id="Overrides/Cell/Accessory/Disclosure-Indicator-Copy">
                <polygon id="Disclosure-Indicator" points="2 18.4545455 3.5 16.9545455 10 23.4545455 3.5 29.9545455 2 28.4545455 7 23.4545455"></polygon>
            </g>
        </g>
        <text id="https://some-project" font-family="ArialMT, Arial" font-size="13" font-weight="normal">
            <tspan x="163" y="128" fill="#1A0FC7">https://</tspan>
            <tspan x="202.019043" y="128" fill="#4A4A4A">some-project.com</tspan>
        </text>
        <g id="shield-copy" transform="translate(122.000000, 112.000000)">
            <path d="M19.8907224,16.6948274 C19.2278988,18.5159648 18.2254792,20.0994466 16.9109323,21.4008312 C15.4146405,22.8820789 13.4553316,24.0591044 11.0873787,24.8987197 C11.0096761,24.9261856 10.928587,24.9486923 10.8471216,24.9652862 C10.7395044,24.9868393 10.6300059,24.9984741 10.5214481,25 L10.500188,25 C10.3844808,25 10.2682092,24.9881744 10.1528782,24.9652862 C10.0714128,24.9486923 9.99145253,24.9261856 9.91412628,24.8992919 C7.54335125,24.0610118 5.5815965,22.8845585 4.08379945,21.4033108 C2.76868817,20.1019261 1.76645669,18.5193981 1.1045738,16.6982607 C-0.0989694463,13.3871017 -0.0304857764,9.73948619 0.0246397642,6.80827124 L0.0255804613,6.76325779 C0.0366808406,6.52121513 0.0438302056,6.26696539 0.0477812199,5.98620352 C0.0679123583,4.60776196 1.14897527,3.4673576 2.50886433,3.39049139 C5.3441615,3.2300833 7.53751884,2.29262093 9.41159948,0.44077517 L9.42796783,0.425516372 C9.73915437,0.136171394 10.1312419,-0.00573542033 10.5214481,0 C10.8977317,0.0051365093 11.2725102,0.146852552 11.5725964,0.425516372 L11.5885885,0.44077517 C13.4630454,2.29262093 15.6564027,3.2300833 18.4916999,3.39049139 C19.8515889,3.4673576 20.9326518,4.60776196 20.952783,5.98620352 C20.956734,6.26887276 20.9638834,6.52274101 20.9749837,6.76325779 L20.9755482,6.78233129 C21.0304856,9.71907754 21.0985929,13.373941 19.8907224,16.6948274 Z" id="Path" fill="#463CE6"></path>
            <path d="M19.8884519,16.6947685 C19.2242716,18.5159188 18.2198002,20.0994118 16.9025626,21.4008056 C15.4032081,22.8820639 13.4398887,24.0590978 11.067089,24.898719 C10.9892274,24.926185 10.9079722,24.9486919 10.8263401,24.965286 C10.7185027,24.9868392 10.60878,24.9984741 10.5,25 L10.5,0 C10.8770538,0.00495915649 11.2525995,0.146676204 11.5532999,0.425342002 L11.5693247,0.440600908 C13.4476184,2.29245981 15.6454651,3.22992883 18.4865658,3.39033806 C19.8492383,3.46720481 20.932514,4.60761727 20.9526864,5.98606861 C20.9566454,6.26873986 20.9638094,6.52260991 20.9749325,6.76312839 L20.9754981,6.78220202 C21.030548,9.71896911 21.0987948,13.3738585 19.8884519,16.6947685 Z" id="Path" fill="#1A0FC7"></path>
            <path d="M16.1538462,12.903127 C16.1538462,16.4527831 13.4477129,19.3421988 10.1175723,19.3548387 L10.0962466,19.3548387 C6.75627761,19.3548387 4.03846154,16.4604855 4.03846154,12.903127 C4.03846154,9.34596602 6.75627761,6.4516129 10.0962466,6.4516129 L10.1175723,6.4516129 C13.4477129,6.46425286 16.1538462,9.3536685 16.1538462,12.903127 Z" id="Path" fill="#FFFFFF"></path>
            <path d="M16.9615385,12.903127 C16.9615385,16.4527831 14.064754,19.3421988 10.5,19.3548387 L10.5,6.4516129 C14.064754,6.46425286 16.9615385,9.3536685 16.9615385,12.903127 Z" id="Path" fill="#E1EBF0"></path>
            <path d="M13.5062497,11.7255466 L10.5740426,14.5083826 L9.94044511,15.109622 C9.79076541,15.2516575 9.59444786,15.3225806 9.39832961,15.3225806 C9.20201205,15.3225806 9.0058938,15.2516575 8.85601481,15.109622 L7.49375028,13.8163616 C7.19439093,13.5322907 7.19439093,13.0721412 7.49375028,12.7878811 C7.79271103,12.5038102 8.2782233,12.5038102 8.57758265,12.7878811 L9.39832961,13.5667121 L12.4224173,10.697066 C12.7217767,10.412806 13.207289,10.412806 13.5062497,10.697066 C13.8056091,10.981137 13.8056091,11.4418539 13.5062497,11.7255466 Z" id="Path" fill-opacity="0.570114357" fill="#463CE6"></path>
            <path d="M13.5009835,11.7279365 L10.5,14.516129 L10.5,12.4546403 L12.3917292,10.6974764 C12.6981103,10.4126692 13.1950105,10.4126692 13.5009835,10.6974764 C13.8073645,10.9820941 13.8073645,11.4436978 13.5009835,11.7279365 Z" id="Path" fill-opacity="0.928442029" fill="#463CE6"></path>
        </g>
        <line x1="152.5" y1="112" x2="152.5" y2="137" id="Line-Copy" stroke="#979797" stroke-linecap="square"></line>
        <g id="Rectangle-Copy-4">
            <use fill="black" fill-opacity="1" filter="url(#filter-6)" xlink:href="#path-5"></use>
            <use fill="#D8D8D8" fill-rule="evenodd" xlink:href="#path-5"></use>
        </g>
        <g id="Glyphs/Search" transform="translate(84.000000, 176.000000)" fill="#8E8E93">
            <path d="M16.6880435,15.2684962 L12.0336864,10.6123177 C12.8679865,9.47441493 13.3149178,8.09871771 13.3086864,6.68774623 C13.2927674,3.0046425 10.3137988,0.0213403911 6.63072208,6.76573604e-05 C4.86816227,-0.00790691002 3.17561947,0.68936492 1.93014434,1.93655071 C0.684669219,3.18373649 -0.0102788419,4.87723474 0.00011493241,6.63978194 C0.0160338668,10.323221 2.99527435,13.3067949 6.67868636,13.3280677 C8.09540588,13.3342079 9.47612925,12.8820598 10.6147935,12.0391034 L10.6196506,12.0354605 L15.2697578,16.6879962 C15.5211743,16.9517555 15.895802,17.058519 16.2484902,16.966921 C16.6011784,16.8753229 16.8765096,16.599756 16.9678057,16.2469896 C17.0591019,15.8942231 16.9520178,15.5196869 16.6880435,15.2684962 L16.6880435,15.2684962 Z M6.67382922,11.9947819 C3.72726058,11.9778317 1.34390695,9.59122809 1.33097208,6.64463909 C1.32301922,5.23478394 1.87902341,3.88025743 2.87521592,2.88258249 C3.87140842,1.88490756 5.22510666,1.32688982 6.63497208,1.33274623 C9.58154071,1.34969643 11.9648943,3.73630008 11.9778292,6.68288909 C11.9857821,8.09274423 11.4297779,9.44727074 10.4335854,10.4449457 C9.43739287,11.4426206 8.08369463,12.0006383 6.67382922,11.9947819 Z" id="Search"></path>
        </g>
        <rect id="Rectangle-Copy-3" fill="#FFFFFF" x="115" y="166" width="603" height="37" rx="3"></rect>
        <g id="Group" transform="translate(34.000000, 159.000000)" fill="#000000" fill-opacity="0.25">
            <g id="Overrides/Cell/Accessory/Disclosure-Indicator" transform="translate(14.000000, 25.500000) rotate(-180.000000) translate(-14.000000, -25.500000) ">
                <polygon id="Disclosure-Indicator" points="4 19.9204545 5.5 18.4204545 12 24.9204545 5.5 31.4204545 4 29.9204545 9 24.9204545"></polygon>
            </g>
        </g>
        <g id="Group" transform="translate(34.000000, 159.000000)" fill="#000000" fill-opacity="0.25">
            <g id="Overrides/Cell/Accessory/Disclosure-Indicator" transform="translate(14.000000, 25.500000) rotate(-180.000000) translate(-14.000000, -25.500000) ">
                <polygon id="Disclosure-Indicator" points="4 19.9204545 5.5 18.4204545 12 24.9204545 5.5 31.4204545 4 29.9204545 9 24.9204545"></polygon>
            </g>
        </g>
        <g id="Group" transform="translate(65.000000, 162.000000)" fill="#000000" fill-opacity="0.25">
            <g id="Overrides/Cell/Accessory/Disclosure-Indicator-Copy">
                <polygon id="Disclosure-Indicator" points="2 18.4545455 3.5 16.9545455 10 23.4545455 3.5 29.9545455 2 28.4545455 7 23.4545455"></polygon>
            </g>
        </g>
        <text id="https://api.some-pro" font-family="ArialMT, Arial" font-size="13" font-weight="normal">
            <tspan x="163" y="188" fill="#1A0FC7">https://</tspan>
            <tspan x="202.019043" y="188" fill="#4A4A4A">api.some-project.com</tspan>
        </text>
        <g id="shield-copy-2" transform="translate(122.000000, 172.000000)">
            <path d="M19.8907224,16.6948274 C19.2278988,18.5159648 18.2254792,20.0994466 16.9109323,21.4008312 C15.4146405,22.8820789 13.4553316,24.0591044 11.0873787,24.8987197 C11.0096761,24.9261856 10.928587,24.9486923 10.8471216,24.9652862 C10.7395044,24.9868393 10.6300059,24.9984741 10.5214481,25 L10.500188,25 C10.3844808,25 10.2682092,24.9881744 10.1528782,24.9652862 C10.0714128,24.9486923 9.99145253,24.9261856 9.91412628,24.8992919 C7.54335125,24.0610118 5.5815965,22.8845585 4.08379945,21.4033108 C2.76868817,20.1019261 1.76645669,18.5193981 1.1045738,16.6982607 C-0.0989694463,13.3871017 -0.0304857764,9.73948619 0.0246397642,6.80827124 L0.0255804613,6.76325779 C0.0366808406,6.52121513 0.0438302056,6.26696539 0.0477812199,5.98620352 C0.0679123583,4.60776196 1.14897527,3.4673576 2.50886433,3.39049139 C5.3441615,3.2300833 7.53751884,2.29262093 9.41159948,0.44077517 L9.42796783,0.425516372 C9.73915437,0.136171394 10.1312419,-0.00573542033 10.5214481,0 C10.8977317,0.0051365093 11.2725102,0.146852552 11.5725964,0.425516372 L11.5885885,0.44077517 C13.4630454,2.29262093 15.6564027,3.2300833 18.4916999,3.39049139 C19.8515889,3.4673576 20.9326518,4.60776196 20.952783,5.98620352 C20.956734,6.26887276 20.9638834,6.52274101 20.9749837,6.76325779 L20.9755482,6.78233129 C21.0304856,9.71907754 21.0985929,13.373941 19.8907224,16.6948274 Z" id="Path" fill="#463CE6"></path>
            <path d="M19.8884519,16.6947685 C19.2242716,18.5159188 18.2198002,20.0994118 16.9025626,21.4008056 C15.4032081,22.8820639 13.4398887,24.0590978 11.067089,24.898719 C10.9892274,24.926185 10.9079722,24.9486919 10.8263401,24.965286 C10.7185027,24.9868392 10.60878,24.9984741 10.5,25 L10.5,0 C10.8770538,0.00495915649 11.2525995,0.146676204 11.5532999,0.425342002 L11.5693247,0.440600908 C13.4476184,2.29245981 15.6454651,3.22992883 18.4865658,3.39033806 C19.8492383,3.46720481 20.932514,4.60761727 20.9526864,5.98606861 C20.9566454,6.26873986 20.9638094,6.52260991 20.9749325,6.76312839 L20.9754981,6.78220202 C21.030548,9.71896911 21.0987948,13.3738585 19.8884519,16.6947685 Z" id="Path" fill="#1A0FC7"></path>
            <path d="M16.1538462,12.903127 C16.1538462,16.4527831 13.4477129,19.3421988 10.1175723,19.3548387 L10.0962466,19.3548387 C6.75627761,19.3548387 4.03846154,16.4604855 4.03846154,12.903127 C4.03846154,9.34596602 6.75627761,6.4516129 10.0962466,6.4516129 L10.1175723,6.4516129 C13.4477129,6.46425286 16.1538462,9.3536685 16.1538462,12.903127 Z" id="Path" fill="#FFFFFF"></path>
            <path d="M16.9615385,12.903127 C16.9615385,16.4527831 14.064754,19.3421988 10.5,19.3548387 L10.5,6.4516129 C14.064754,6.46425286 16.9615385,9.3536685 16.9615385,12.903127 Z" id="Path" fill="#E1EBF0"></path>
            <path d="M13.5062497,11.7255466 L10.5740426,14.5083826 L9.94044511,15.109622 C9.79076541,15.2516575 9.59444786,15.3225806 9.39832961,15.3225806 C9.20201205,15.3225806 9.0058938,15.2516575 8.85601481,15.109622 L7.49375028,13.8163616 C7.19439093,13.5322907 7.19439093,13.0721412 7.49375028,12.7878811 C7.79271103,12.5038102 8.2782233,12.5038102 8.57758265,12.7878811 L9.39832961,13.5667121 L12.4224173,10.697066 C12.7217767,10.412806 13.207289,10.412806 13.5062497,10.697066 C13.8056091,10.981137 13.8056091,11.4418539 13.5062497,11.7255466 Z" id="Path" fill-opacity="0.570114357" fill="#463CE6"></path>
            <path d="M13.5009835,11.7279365 L10.5,14.516129 L10.5,12.4546403 L12.3917292,10.6974764 C12.6981103,10.4126692 13.1950105,10.4126692 13.5009835,10.6974764 C13.8073645,10.9820941 13.8073645,11.4436978 13.5009835,11.7279365 Z" id="Path" fill-opacity="0.928442029" fill="#463CE6"></path>
        </g>
        <line x1="152.5" y1="172" x2="152.5" y2="197" id="Line-Copy-2" stroke="#979797" stroke-linecap="square"></line>
    </g>
</svg>