<?xml version="1.0" encoding="UTF-8"?>
<svg width="753px" height="153px" viewBox="0 0 753 153" version="1.1" xmlns="http://www.w3.org/2000/svg" xmlns:xlink="http://www.w3.org/1999/xlink">
    <title>fastapi-banner</title>
    <defs>
        <linearGradient x1="0.25781251%" y1="49.9733279%" x2="133.446935%" y2="53.0308699%" id="linearGradient-1">
            <stop stop-color="#1A0FC7" offset="0%"></stop>
            <stop stop-color="#53A0FD" offset="47.5247532%"></stop>
            <stop stop-color="#51D4EC" offset="100%"></stop>
        </linearGradient>
        <linearGradient x1="0%" y1="49.9989382%" x2="100%" y2="50.0010319%" id="linearGradient-2">
            <stop stop-color="#1A0FC7" offset="0%"></stop>
            <stop stop-color="#2979FF" offset="100%"></stop>
        </linearGradient>
        <linearGradient x1="0%" y1="36.4588751%" x2="100%" y2="63.1592859%" id="linearGradient-3">
            <stop stop-color="#1A0FC7" offset="0%"></stop>
            <stop stop-color="#2979FF" offset="100%"></stop>
        </linearGradient>
        <path d="M272.656305,95.060974 C280.632666,95.060974 288.008622,97.643706 294.001219,102.022209 L294.001219,122.573165 C290.537214,114.062547 282.213774,108.066335 272.496403,108.066335 C259.670205,108.066335 249.272518,118.512941 249.272518,131.399483 C249.272518,141.157481 255.234427,149.516448 263.698164,153.000025 L243.252721,153.000025 C238.897133,146.980178 236.328058,139.571589 236.328058,131.560138 C236.328058,111.402206 252.592768,95.060974 272.656305,95.060974 Z M277.669583,0 C286.688639,0 294.000312,8.8799133 294.000312,19.8338843 L294.000312,83.865176 C293.496801,83.722796 293.002485,83.550986 292.520561,83.348962 C286.784091,80.924583 283.166693,75.084554 283.520698,68.8156393 C283.637213,66.8465475 282.204831,65.1344886 280.250861,64.9058488 C275.273965,64.3275246 270.253438,64.3095921 265.261667,64.8659988 C263.330009,65.0801929 261.897627,66.7519035 261.962577,68.6960891 C262.17974,74.903236 258.518712,80.641149 252.839259,82.978356 C247.392835,85.213447 240.309261,83.585073 236.345792,79.20555 C235.035873,77.762977 232.843917,77.585644 231.317828,78.780649 C227.32461,81.928306 223.692834,85.532746 220.539015,89.486869 C219.308921,91.024086 219.48989,93.252203 220.936651,94.574728 C225.57392,98.793854 227.071253,105.505603 224.662134,111.27689 C222.362092,116.779189 216.675202,120.325348 210.164779,120.325348 C208.052152,120.257104 206.547382,121.681745 206.316337,123.611485 C205.730294,128.640564 205.723353,133.764785 206.28758,138.834711 C206.49681,140.724601 208.747271,142.126327 210.656618,142.126327 C216.458535,141.977388 222.02891,145.58631 224.365642,151.299316 C224.593755,151.858072 224.785168,152.425886 224.940601,153 L16.3304172,153 C7.3113611,153 1.13686838e-13,144.120087 1.13686838e-13,133.166116 L1.13686838e-13,19.8338843 C1.13686838e-13,8.8799133 7.3113611,0 16.3304172,0 L277.669583,0 Z M114.5,15 C80.5344879,15 53,42.5344879 53,76.5 C53,110.465512 80.5344879,138 114.5,138 C148.465512,138 176,110.465512 176,76.5 C176,42.5344879 148.465512,15 114.5,15 Z M139.628751,67.1903212 C139.32516,66.6591449 138.756933,66.3308426 138.14113,66.3308247 L115.741318,66.3308247 L119.496706,37.883103 C119.579649,37.0994247 119.110122,36.3614825 118.361019,36.0981731 C117.611915,35.8348637 116.778399,36.1147875 116.344916,36.7752511 L89.1043497,84.0907845 C88.7799875,84.613835 88.7662437,85.2698877 89.0684206,85.8058397 C89.3705976,86.3417918 89.9414577,86.6738608 90.560765,86.6739358 L112.625863,86.6739358 L109.649766,115.164463 C109.589593,115.945154 110.07333,116.666176 110.82282,116.912929 C111.572309,117.159683 112.394987,116.86877 112.8178,116.207471 L139.608232,68.8970234 C139.924507,68.3732776 139.932344,67.7213922 139.628751,67.1903212 L139.628751,67.1903212 Z" id="path-4"></path>
        <filter x="-2.4%" y="-3.3%" width="104.8%" height="109.2%" filterUnits="objectBoundingBox" id="filter-5">
            <feOffset dx="0" dy="2" in="SourceAlpha" result="shadowOffsetOuter1"></feOffset>
            <feGaussianBlur stdDeviation="2" in="shadowOffsetOuter1" result="shadowBlurOuter1"></feGaussianBlur>
            <feColorMatrix values="0 0 0 0 0   0 0 0 0 0   0 0 0 0 0  0 0 0 0.5 0" type="matrix" in="shadowBlurOuter1"></feColorMatrix>
        </filter>
        <linearGradient x1="0.25781251%" y1="49.9960759%" x2="133.446935%" y2="50.4459058%" id="linearGradient-6">
            <stop stop-color="#1A0FC7" offset="0%"></stop>
            <stop stop-color="#53A0FD" offset="47.5247532%"></stop>
            <stop stop-color="#51D4EC" offset="100%"></stop>
        </linearGradient>
    </defs>
    <g id="fastapi-banner" stroke="none" stroke-width="1" fill="none" fill-rule="evenodd">
        <text id="FastAPI" fill="url(#linearGradient-1)" fill-rule="nonzero" font-family="Futura-Bold, Futura" font-size="50" font-weight="bold">
            <tspan x="319" y="60">FastAPI</tspan>
        </text>
        <line x1="319" y1="89.5" x2="752" y2="89.5" id="Line-6" stroke="url(#linearGradient-2)" stroke-width="2" stroke-linecap="round"></line>
        <g id="Combined-Shape" fill-rule="nonzero">
            <use fill="black" fill-opacity="1" filter="url(#filter-5)" xlink:href="#path-4"></use>
            <use fill="url(#linearGradient-3)" xlink:href="#path-4"></use>
        </g>
        <text id="Source-Deployment" fill="url(#linearGradient-6)" fill-rule="nonzero" font-family="Futura-Bold, Futura" font-size="42" font-weight="bold">
            <tspan x="314" y="141">Source Deployment</tspan>
        </text>
    </g>
</svg>