<?xml version="1.0" encoding="UTF-8"?>
<svg width="794px" height="292px" viewBox="0 0 794 292" version="1.1" xmlns="http://www.w3.org/2000/svg" xmlns:xlink="http://www.w3.org/1999/xlink">
    <title>file-browser-managed-service</title>
    <defs>
        <linearGradient x1="0.25781251%" y1="49.9903495%" x2="133.446935%" y2="51.0966169%" id="linearGradient-1">
            <stop stop-color="#1A0FC7" offset="0%"></stop>
            <stop stop-color="#53A0FD" offset="47.5247532%"></stop>
            <stop stop-color="#51D4EC" offset="100%"></stop>
        </linearGradient>
        <linearGradient x1="0.25781251%" y1="49.9954156%" x2="133.446935%" y2="50.5209439%" id="linearGradient-2">
            <stop stop-color="#1A0FC7" offset="0%"></stop>
            <stop stop-color="#53A0FD" offset="47.5247532%"></stop>
            <stop stop-color="#51D4EC" offset="100%"></stop>
        </linearGradient>
        <linearGradient x1="92.6698647%" y1="96.6822363%" x2="8.19699352%" y2="8.94420173%" id="linearGradient-3">
            <stop stop-color="#1A0FC7" offset="0%"></stop>
            <stop stop-color="#53A0FD" offset="47.5247532%"></stop>
            <stop stop-color="#51D4EC" offset="100%"></stop>
        </linearGradient>
        <path d="M129.399145,35.6150372 C136.996929,34.7720967 144.638483,34.7992639 152.213628,35.6754089 C155.187691,36.0217918 157.367866,38.615513 157.190524,41.598632 C156.651706,51.0958625 162.15761,59.943342 170.888874,63.6162082 C179.279037,67.1170149 190.136896,64.6289442 196.181617,57.9344721 C198.185959,55.7150558 201.577342,55.4569665 203.888825,57.3118885 C209.791673,62.0405056 215.197963,67.4966022 219.954502,73.5367955 C221.783011,75.854316 221.51813,79.1906097 219.337955,81.183632 C212.411807,87.5370037 210.133528,97.6175762 213.666784,106.261301 C217.125331,114.700517 225.372112,120.157368 234.665587,120.157368 C237.540037,120.157368 240.864257,122.29981 241.184981,125.150866 C242.04377,132.831662 242.033204,140.587922 241.139703,148.213628 C240.972818,149.619104 240.28507,150.861282 239.298427,151.754572 C228.405679,137.898137 211.491975,129 192.5,129 C191.560972,129 190.627024,129.021753 189.698633,129.064782 C186.997319,104.837531 166.44853,86 141.5,86 C114.71419,86 93,107.71419 93,134.5 C93,158.497778 110.429146,178.424761 133.319507,182.313017 C133.107745,184.345418 133,186.410126 133,188.5 C133,207.298109 141.717404,224.06016 155.330146,234.964086 C154.426771,236.180518 153.039387,237.027564 151.421249,237.206112 C147.710651,237.618903 143.999297,237.822658 140.288699,237.822658 C136.379628,237.822658 132.481123,237.597019 128.606011,237.144985 C125.644022,236.803885 123.453283,234.205636 123.629115,231.221007 C124.167933,221.718494 118.66203,212.87177 109.908881,209.210223 C101.551922,205.702625 90.6948178,208.186167 84.6274572,214.897242 C82.6133048,217.116658 79.232487,217.380784 76.9089294,215.508506 C70.9849517,210.740647 65.5779071,205.279268 60.8658922,199.277561 C59.0373829,196.960041 59.312829,193.62903 61.4824387,191.636007 C68.4191524,185.277353 70.6981859,175.202818 67.152855,166.559093 C63.5962045,157.904048 55.1177472,152.436632 46.2868699,152.662271 C43.3807249,152.662271 39.9553829,150.538695 39.6369219,147.675565 C38.7781338,139.99477 38.7886989,132.231717 39.6806914,124.612803 C40.0323569,121.689301 42.32271,119.531011 45.5382602,119.634398 C55.4475279,119.634398 64.1033271,114.262067 67.6041338,105.926238 C71.2709628,97.1828996 68.9919294,87.0147881 61.9337175,80.6229294 C59.731658,78.619342 59.4562119,75.2438067 61.3284907,72.9149665 C66.1287993,66.9245799 71.6565874,61.4639554 77.734513,56.695342 C80.057316,54.8849442 83.3936097,55.1535985 85.3873866,57.3390558 C91.4200335,63.9739108 102.201673,66.4408513 110.491468,63.0547509 C119.135948,59.513948 124.70826,50.821171 124.377725,41.4175167 C124.278866,38.4721301 126.459041,35.9395353 129.399145,35.6150372 Z" id="path-4"></path>
        <filter x="-3.5%" y="-2.5%" width="106.9%" height="106.9%" filterUnits="objectBoundingBox" id="filter-5">
            <feOffset dx="0" dy="2" in="SourceAlpha" result="shadowOffsetOuter1"></feOffset>
            <feGaussianBlur stdDeviation="2" in="shadowOffsetOuter1" result="shadowBlurOuter1"></feGaussianBlur>
            <feColorMatrix values="0 0 0 0 0   0 0 0 0 0   0 0 0 0 0  0 0 0 0.5 0" type="matrix" in="shadowBlurOuter1"></feColorMatrix>
        </filter>
        <linearGradient x1="80.8786136%" y1="91.4956164%" x2="-69.457174%" y2="-68.1707838%" id="linearGradient-6">
            <stop stop-color="#1A0FC7" offset="0%"></stop>
            <stop stop-color="#53A0FD" offset="47.5247532%"></stop>
            <stop stop-color="#51D4EC" offset="100%"></stop>
        </linearGradient>
        <path d="M193,134 C223.375661,134 248,158.624339 248,189 C248,219.375661 223.375661,244 193,244 C162.624339,244 138,219.375661 138,189 C138,158.624339 162.624339,134 193,134 Z M213.472441,160 L166.795276,160 C165.673228,160 165,160.669065 165,161.784173 L165.005021,161.623343 L165,161.784173 L165.000654,220.425432 C165.002965,220.538151 165.013433,220.65087 165.061977,220.764571 C165.252268,221.546738 165.871744,222 166.795276,222 L166.795276,222 L220.204724,222 L220.369637,221.99501 C221.392411,221.931978 222,221.27518 222,220.215827 L222,220.215827 L222,165.352518 L213.472441,160 Z" id="path-7"></path>
        <filter x="-6.4%" y="-4.5%" width="112.7%" height="112.7%" filterUnits="objectBoundingBox" id="filter-8">
            <feOffset dx="0" dy="2" in="SourceAlpha" result="shadowOffsetOuter1"></feOffset>
            <feGaussianBlur stdDeviation="2" in="shadowOffsetOuter1" result="shadowBlurOuter1"></feGaussianBlur>
            <feColorMatrix values="0 0 0 0 0   0 0 0 0 0   0 0 0 0 0  0 0 0 0.5 0" type="matrix" in="shadowBlurOuter1"></feColorMatrix>
        </filter>
        <linearGradient x1="100%" y1="50.2222222%" x2="0%" y2="49.7777778%" id="linearGradient-9">
            <stop stop-color="#1A0FC7" offset="0%"></stop>
            <stop stop-color="#2979FF" offset="100%"></stop>
        </linearGradient>
        <polygon id="path-10" points="6 58 51 58 51 61 6 61"></polygon>
        <filter x="-15.6%" y="-166.7%" width="131.1%" height="566.7%" filterUnits="objectBoundingBox" id="filter-11">
            <feOffset dx="0" dy="2" in="SourceAlpha" result="shadowOffsetOuter1"></feOffset>
            <feGaussianBlur stdDeviation="2" in="shadowOffsetOuter1" result="shadowBlurOuter1"></feGaussianBlur>
            <feColorMatrix values="0 0 0 0 0   0 0 0 0 0   0 0 0 0 0  0 0 0 0.5 0" type="matrix" in="shadowBlurOuter1"></feColorMatrix>
        </filter>
        <linearGradient x1="133.157629%" y1="577.434735%" x2="-88.5395138%" y2="-155.025859%" id="linearGradient-12">
            <stop stop-color="#1A0FC7" offset="0%"></stop>
            <stop stop-color="#2979FF" offset="100%"></stop>
        </linearGradient>
        <path d="M35.3636364,3 L37.6363636,3 C38.3181818,3 39,3.47058824 39,4.17647059 L39,13.5882353 C39,14.2941176 38.3181818,15 37.6363636,15 L35.3636364,15 C34.6818182,15 34,14.2941176 34,13.5882353 L34,4.17647059 C34,3.47058824 34.6818182,3 35.3636364,3 Z" id="path-13"></path>
        <filter x="-140.0%" y="-41.7%" width="380.0%" height="216.7%" filterUnits="objectBoundingBox" id="filter-14">
            <feOffset dx="0" dy="2" in="SourceAlpha" result="shadowOffsetOuter1"></feOffset>
            <feGaussianBlur stdDeviation="2" in="shadowOffsetOuter1" result="shadowBlurOuter1"></feGaussianBlur>
            <feColorMatrix values="0 0 0 0 0   0 0 0 0 0   0 0 0 0 0  0 0 0 0.5 0" type="matrix" in="shadowBlurOuter1"></feColorMatrix>
        </filter>
        <linearGradient x1="100%" y1="50.1385042%" x2="0%" y2="49.8614958%" id="linearGradient-15">
            <stop stop-color="#1A0FC7" offset="0%"></stop>
            <stop stop-color="#2979FF" offset="100%"></stop>
        </linearGradient>
        <path d="M9.66666667,53 L46.3333333,53 C46.7777778,53 47,53.3333333 47,54 C47,54.3333333 46.7777778,55 46.3333333,55 L9.66666667,55 C9.22222222,55 9,54.3333333 9,54 C9,53.3333333 9.22222222,53 9.66666667,53 Z" id="path-16"></path>
        <filter x="-18.4%" y="-250.0%" width="136.8%" height="800.0%" filterUnits="objectBoundingBox" id="filter-17">
            <feOffset dx="0" dy="2" in="SourceAlpha" result="shadowOffsetOuter1"></feOffset>
            <feGaussianBlur stdDeviation="2" in="shadowOffsetOuter1" result="shadowBlurOuter1"></feGaussianBlur>
            <feColorMatrix values="0 0 0 0 0   0 0 0 0 0   0 0 0 0 0  0 0 0 0.5 0" type="matrix" in="shadowBlurOuter1"></feColorMatrix>
        </filter>
        <linearGradient x1="100%" y1="50.034626%" x2="0%" y2="49.965374%" id="linearGradient-18">
            <stop stop-color="#1A0FC7" offset="0%"></stop>
            <stop stop-color="#2979FF" offset="100%"></stop>
        </linearGradient>
        <path d="M9.66666667,46 L46.3333333,46 C46.7777778,46 47,46.2 47,46.6 L47,46.6 C47,46.8 46.7777778,47 46.3333333,47 L9.66666667,47 C9.22222222,47 9,46.8 9,46.6 L9,46.6 C9,46.2 9.22222222,46 9.66666667,46 Z" id="path-19"></path>
        <filter x="-18.4%" y="-500.0%" width="136.8%" height="1500.0%" filterUnits="objectBoundingBox" id="filter-20">
            <feOffset dx="0" dy="2" in="SourceAlpha" result="shadowOffsetOuter1"></feOffset>
            <feGaussianBlur stdDeviation="2" in="shadowOffsetOuter1" result="shadowBlurOuter1"></feGaussianBlur>
            <feColorMatrix values="0 0 0 0 0   0 0 0 0 0   0 0 0 0 0  0 0 0 0.5 0" type="matrix" in="shadowBlurOuter1"></feColorMatrix>
        </filter>
        <path d="M9.66666667,38 L46.3333333,38 C46.7777778,38 47,38.6666667 47,39 L47,39 C47,39.6666667 46.7777778,40 46.3333333,40 L9.66666667,40 C9.22222222,40 9,39.6666667 9,39 L9,39 C9,38.6666667 9.22222222,38 9.66666667,38 Z" id="path-21"></path>
        <filter x="-18.4%" y="-250.0%" width="136.8%" height="800.0%" filterUnits="objectBoundingBox" id="filter-22">
            <feOffset dx="0" dy="2" in="SourceAlpha" result="shadowOffsetOuter1"></feOffset>
            <feGaussianBlur stdDeviation="2" in="shadowOffsetOuter1" result="shadowBlurOuter1"></feGaussianBlur>
            <feColorMatrix values="0 0 0 0 0   0 0 0 0 0   0 0 0 0 0  0 0 0 0.5 0" type="matrix" in="shadowBlurOuter1"></feColorMatrix>
        </filter>
        <linearGradient x1="85.3943671%" y1="333.042303%" x2="24.756709%" y2="-16.7628275%" id="linearGradient-23">
            <stop stop-color="#1A0FC7" offset="0%"></stop>
            <stop stop-color="#2979FF" offset="100%"></stop>
        </linearGradient>
        <polygon id="path-24" points="18 0 14 0 14 22 18 22"></polygon>
        <filter x="-175.0%" y="-22.7%" width="450.0%" height="163.6%" filterUnits="objectBoundingBox" id="filter-25">
            <feOffset dx="0" dy="2" in="SourceAlpha" result="shadowOffsetOuter1"></feOffset>
            <feGaussianBlur stdDeviation="2" in="shadowOffsetOuter1" result="shadowBlurOuter1"></feGaussianBlur>
            <feColorMatrix values="0 0 0 0 0   0 0 0 0 0   0 0 0 0 0  0 0 0 0.5 0" type="matrix" in="shadowBlurOuter1"></feColorMatrix>
        </filter>
    </defs>
    <g id="file-browser-managed-service" stroke="none" stroke-width="1" fill="none" fill-rule="evenodd">
        <text id="File-Browser" fill="url(#linearGradient-1)" font-family="Futura-Bold, Futura" font-size="60" font-weight="bold">
            <tspan x="290.76" y="97">File Browser</tspan>
        </text>
        <text id="File-Management" fill="url(#linearGradient-2)" font-family="Futura-Bold, Futura" font-size="40" font-weight="bold">
            <tspan x="289.96" y="202">File Management </tspan>
        </text>
        <g id="Combined-Shape" fill-rule="nonzero">
            <use fill="black" fill-opacity="1" filter="url(#filter-5)" xlink:href="#path-4"></use>
            <use fill="url(#linearGradient-3)" xlink:href="#path-4"></use>
        </g>
        <g id="Combined-Shape">
            <use fill="black" fill-opacity="1" filter="url(#filter-8)" xlink:href="#path-7"></use>
            <use fill="url(#linearGradient-6)" fill-rule="evenodd" xlink:href="#path-7"></use>
        </g>
        <g id="download-copy" transform="translate(165.000000, 160.000000)">
            <path d="M1.79527559,0 L48.4724409,0 L57,5.35251799 L57,60.2158273 C57,61.3309353 56.3267717,62 55.2047244,62 L1.79527559,62 C0.673228346,62 0,61.3309353 0,60.2158273 L0,1.78417266 C0,0.669064748 0.673228346,0 1.79527559,0 Z" id="path13"></path>
            <path d="M1.79527559,0 L48.4724409,0 L57,5.36263736 L57,5.80952381 L48.6968504,0.67032967 L1.79527559,0.67032967 C0.897637795,0.67032967 0.224409449,1.34065934 0.224409449,2.23443223 L0.224409449,61 C0,60.7765568 0,60.5531136 0,60.3296703 L0,1.78754579 C0,0.67032967 0.673228346,0 1.79527559,0 Z" id="path15"></path>
            <g id="polygon21">
                <use fill="black" fill-opacity="1" filter="url(#filter-11)" xlink:href="#path-10"></use>
                <use fill="url(#linearGradient-9)" fill-rule="evenodd" xlink:href="#path-10"></use>
            </g>
            <g id="path23">
                <use fill="black" fill-opacity="1" filter="url(#filter-14)" xlink:href="#path-13"></use>
                <use fill="url(#linearGradient-12)" fill-rule="evenodd" xlink:href="#path-13"></use>
            </g>
            <g id="path27">
                <use fill="black" fill-opacity="1" filter="url(#filter-17)" xlink:href="#path-16"></use>
                <use fill="url(#linearGradient-15)" fill-rule="evenodd" xlink:href="#path-16"></use>
            </g>
            <g id="path29">
                <use fill="black" fill-opacity="1" filter="url(#filter-20)" xlink:href="#path-19"></use>
                <use fill="url(#linearGradient-18)" fill-rule="evenodd" xlink:href="#path-19"></use>
            </g>
            <g id="path31">
                <use fill="black" fill-opacity="1" filter="url(#filter-22)" xlink:href="#path-21"></use>
                <use fill="url(#linearGradient-15)" fill-rule="evenodd" xlink:href="#path-21"></use>
            </g>
            <g id="polygon37">
                <use fill="black" fill-opacity="1" filter="url(#filter-25)" xlink:href="#path-24"></use>
                <use fill="url(#linearGradient-23)" fill-rule="evenodd" xlink:href="#path-24"></use>
            </g>
            <path d="M57,59 L57,59.6 C57,61.1 56.3267717,62 55.2047244,62 L1.79527559,62 C0.673228346,62 0,61.1 0,59.6 L0,59 C0,60.2 0.673228346,61.4 1.79527559,61.4 L55.2047244,61.4 C56.3267717,61.4 57,60.2 57,59 Z" id="path39"></path>
        </g>
    </g>
</svg>