<?xml version="1.0" encoding="UTF-8"?>
<svg width="753px" height="153px" viewBox="0 0 753 153" version="1.1" xmlns="http://www.w3.org/2000/svg" xmlns:xlink="http://www.w3.org/1999/xlink">
    <title>flask-banner</title>
    <defs>
        <linearGradient x1="0.25781251%" y1="49.9453319%" x2="133.446935%" y2="56.2121775%" id="linearGradient-1">
            <stop stop-color="#1A0FC7" offset="0%"></stop>
            <stop stop-color="#53A0FD" offset="47.5247532%"></stop>
            <stop stop-color="#51D4EC" offset="100%"></stop>
        </linearGradient>
        <linearGradient x1="0%" y1="49.9989382%" x2="100%" y2="50.0010319%" id="linearGradient-2">
            <stop stop-color="#1A0FC7" offset="0%"></stop>
            <stop stop-color="#2979FF" offset="100%"></stop>
        </linearGradient>
        <linearGradient x1="0.457860274%" y1="2.01816869e-07%" x2="99.5421397%" y2="98.5900763%" id="linearGradient-3">
            <stop stop-color="#1A0FC7" offset="0%"></stop>
            <stop stop-color="#2979FF" offset="100%"></stop>
        </linearGradient>
        <linearGradient x1="0%" y1="36.458796%" x2="100%" y2="63.1593628%" id="linearGradient-4">
            <stop stop-color="#1A0FC7" offset="0%"></stop>
            <stop stop-color="#2979FF" offset="100%"></stop>
        </linearGradient>
        <linearGradient x1="0.25781251%" y1="49.9960759%" x2="133.446935%" y2="50.4459058%" id="linearGradient-5">
            <stop stop-color="#1A0FC7" offset="0%"></stop>
            <stop stop-color="#53A0FD" offset="47.5247532%"></stop>
            <stop stop-color="#51D4EC" offset="100%"></stop>
        </linearGradient>
    </defs>
    <g id="flask-banner" stroke="none" stroke-width="1" fill="none" fill-rule="evenodd">
        <text id="Flask" fill="url(#linearGradient-1)" fill-rule="nonzero" font-family="Futura-Bold, Futura" font-size="50" font-weight="bold">
            <tspan x="319" y="60">Flask</tspan>
        </text>
        <line x1="319" y1="89.5" x2="752" y2="89.5" id="Line-6" stroke="url(#linearGradient-2)" stroke-width="2" stroke-linecap="round"></line>
        <g id="Group" fill-rule="nonzero">
            <path d="M272.656305,95.060974 C280.632666,95.060974 288.008622,97.643706 294.001219,102.022209 L294.001219,122.573165 C290.537214,114.062547 282.213774,108.066335 272.496403,108.066335 C259.670205,108.066335 249.272518,118.512941 249.272518,131.399483 C249.272518,141.157481 255.234427,149.516448 263.698164,153.000025 L243.252721,153.000025 C238.897133,146.980178 236.328058,139.571589 236.328058,131.560138 C236.328058,111.402206 252.592768,95.060974 272.656305,95.060974 Z" id="path-2-path" fill="url(#linearGradient-3)"></path>
            <path d="M277.669583,0 C286.688639,0 294.000312,8.8799133 294.000312,19.8338843 L294.000312,83.865176 C293.496801,83.722796 293.002485,83.550986 292.520561,83.348962 C286.784091,80.924583 283.166693,75.084554 283.520698,68.8156393 C283.637213,66.8465475 282.204831,65.1344886 280.250861,64.9058488 C275.273965,64.3275246 270.253438,64.3095921 265.261667,64.8659988 C263.330009,65.0801929 261.897627,66.7519035 261.962577,68.6960891 C262.17974,74.903236 258.518712,80.641149 252.839259,82.978356 C247.392835,85.213447 240.309261,83.585073 236.345792,79.20555 C235.035873,77.762977 232.843917,77.585644 231.317828,78.780649 C227.32461,81.928306 223.692834,85.532746 220.539015,89.486869 C219.308921,91.024086 219.48989,93.252203 220.936651,94.574728 C225.57392,98.793854 227.071253,105.505603 224.662134,111.27689 C222.362092,116.779189 216.675202,120.325348 210.164779,120.325348 C208.052152,120.257104 206.547382,121.681745 206.316337,123.611485 C205.730294,128.640564 205.723353,133.764785 206.28758,138.834711 C206.49681,140.724601 208.747271,142.126327 210.656618,142.126327 C216.458535,141.977388 222.02891,145.58631 224.365642,151.299316 C224.593755,151.858072 224.785168,152.425886 224.940601,153 L16.3304172,153 C7.3113611,153 1.13686838e-13,144.120087 1.13686838e-13,133.166116 L1.13686838e-13,19.8338843 C1.13686838e-13,8.8799133 7.3113611,0 16.3304172,0 L277.669583,0 Z M135.445,69.42 C132.065,69.42 132.065,69.42 129.3025,70.265 C126.54,71.11 126.54,71.11 124.59,72.67 C122.64,74.23 122.64,74.23 121.6,76.4725 C120.56,78.715 120.56,78.715 120.56,81.51 C120.56,85.345 120.56,85.345 122.7375,87.5225 C124.915,89.7 124.915,89.7 130.375,90.805 C132,91.13 132,91.13 133.0075,91.4225 C134.015,91.715 134.015,91.715 134.535,92.0725 C135.055,92.43 135.055,92.43 135.2175,92.8525 C135.38,93.275 135.38,93.275 135.38,93.925 C135.38,95.03 135.38,95.03 134.34,95.745 C133.3,96.46 133.3,96.46 131.675,96.46 C127.4318,96.46 127.4318,96.46 122.709368,93.344992 L122.315,93.08 L118.025,101.4 C124.59,105.235 124.59,105.235 131.35,105.235 C134.86,105.235 134.86,105.235 137.785,104.3575 C140.71,103.48 140.71,103.48 142.79,101.8875 C144.87,100.295 144.87,100.295 146.04,97.955 C147.21,95.615 147.21,95.615 147.21,92.69 C147.21,88.79 147.21,88.79 144.805,86.2875 C142.4,83.785 142.4,83.785 137.525,82.81 C135.77,82.42 135.77,82.42 134.6975,82.16 C133.625,81.9 133.625,81.9 133.0725,81.575 C132.52,81.25 132.52,81.25 132.3575,80.8925 C132.195,80.535 132.195,80.535 132.195,79.95 C132.195,78.845 132.195,78.845 133.2025,78.195 C134.21,77.545 134.21,77.545 135.835,77.545 C138.76,77.545 138.76,77.545 141.799258,79.0303516 L142.205,79.235 L146.17,71.565 C140.97,69.42 140.97,69.42 135.445,69.42 Z M89.945,69.615 C86.24,69.615 86.24,69.615 83.185,71.0125 C80.13,72.41 80.13,72.41 77.92,74.815 C75.71,77.22 75.71,77.22 74.475,80.4375 C73.24,83.655 73.24,83.655 73.24,87.23 C73.24,91.065 73.24,91.065 74.5075,94.315 C75.775,97.565 75.775,97.565 78.05,99.97 C80.325,102.375 80.325,102.375 83.38,103.7075 C86.435,105.04 86.435,105.04 90.075,105.04 C96.3089063,105.04 96.3089063,105.04 100.041772,100.586929 L100.28,100.295 L100.28,104 L112.11,104 L112.11,70.655 L100.28,70.655 L100.28,73.97 C96.185,69.615 96.185,69.615 89.945,69.615 Z M48.215,54.99 L20.135,54.99 L20.135,104 L32.875,104 L32.875,84.76 L46.85,84.76 L46.85,73.97 L32.875,73.97 L32.875,65.78 L48.215,65.78 L48.215,54.99 Z M66.48,50.05 L54.715,50.05 L54.715,104 L66.48,104 L66.48,50.05 Z M164.955,50.05 L153.19,50.05 L153.19,104 L164.955,104 L164.955,90.415 L177.89,104 L194.4,104 L176.72,86.06 L193.425,70.655 L177.305,70.655 L164.955,82.68 L164.955,50.05 Z M93.065,79.755 C94.625,79.755 94.625,79.755 96.0225,80.34 C97.42,80.925 97.42,80.925 98.4275,81.965 C99.435,83.005 99.435,83.005 100.0525,84.4025 C100.67,85.8 100.67,85.8 100.67,87.36 C100.67,88.92 100.67,88.92 100.0525,90.285 C99.435,91.65 99.435,91.65 98.4275,92.69 C97.42,93.73 97.42,93.73 96.0225,94.315 C94.625,94.9 94.625,94.9 93.065,94.9 C91.44,94.9 91.44,94.9 90.0425,94.315 C88.645,93.73 88.645,93.73 87.6375,92.69 C86.63,91.65 86.63,91.65 86.045,90.2525 C85.46,88.855 85.46,88.855 85.46,87.23 C85.46,85.67 85.46,85.67 86.045,84.3375 C86.63,83.005 86.63,83.005 87.6375,81.965 C88.645,80.925 88.645,80.925 90.0425,80.34 C91.44,79.755 91.44,79.755 93.065,79.755 Z" id="Combined-Shape" fill="url(#linearGradient-4)"></path>
        </g>
        <text id="Source-Deployment" fill="url(#linearGradient-5)" fill-rule="nonzero" font-family="Futura-Bold, Futura" font-size="42" font-weight="bold">
            <tspan x="314" y="141">Source Deployment</tspan>
        </text>
    </g>
</svg>