<?xml version="1.0" encoding="UTF-8"?>
<svg width="794px" height="292px" viewBox="0 0 794 292" version="1.1" xmlns="http://www.w3.org/2000/svg" xmlns:xlink="http://www.w3.org/1999/xlink">
    <title>gitlab-managed-service</title>
    <defs>
        <linearGradient x1="0.25781251%" y1="49.9608081%" x2="133.446935%" y2="54.453521%" id="linearGradient-1">
            <stop stop-color="#1A0FC7" offset="0%"></stop>
            <stop stop-color="#53A0FD" offset="47.5247532%"></stop>
            <stop stop-color="#51D4EC" offset="100%"></stop>
        </linearGradient>
        <linearGradient x1="0.25781251%" y1="49.9965083%" x2="133.446935%" y2="50.3967785%" id="linearGradient-2">
            <stop stop-color="#1A0FC7" offset="0%"></stop>
            <stop stop-color="#53A0FD" offset="47.5247532%"></stop>
            <stop stop-color="#51D4EC" offset="100%"></stop>
        </linearGradient>
        <linearGradient x1="92.6698647%" y1="96.6822363%" x2="8.19699352%" y2="8.94420173%" id="linearGradient-3">
            <stop stop-color="#1A0FC7" offset="0%"></stop>
            <stop stop-color="#53A0FD" offset="47.5247532%"></stop>
            <stop stop-color="#51D4EC" offset="100%"></stop>
        </linearGradient>
        <path d="M129.399145,35.6150372 C136.996929,34.7720967 144.638483,34.7992639 152.213628,35.6754089 C155.187691,36.0217918 157.367866,38.615513 157.190524,41.598632 C156.651706,51.0958625 162.15761,59.943342 170.888874,63.6162082 C179.279037,67.1170149 190.136896,64.6289442 196.181617,57.9344721 C198.185959,55.7150558 201.577342,55.4569665 203.888825,57.3118885 C209.791673,62.0405056 215.197963,67.4966022 219.954502,73.5367955 C221.783011,75.854316 221.51813,79.1906097 219.337955,81.183632 C212.411807,87.5370037 210.133528,97.6175762 213.666784,106.261301 C217.125331,114.700517 225.372112,120.157368 234.665587,120.157368 C237.540037,120.157368 240.864257,122.29981 241.184981,125.150866 C242.04377,132.831662 242.033204,140.587922 241.139703,148.213628 C240.972818,149.619104 240.28507,150.861282 239.298427,151.754572 C228.405679,137.898137 211.491975,129 192.5,129 C191.560972,129 190.627024,129.021753 189.698633,129.064782 C186.997319,104.837531 166.44853,86 141.5,86 C114.71419,86 93,107.71419 93,134.5 C93,158.497778 110.429146,178.424761 133.319507,182.313017 C133.107745,184.345418 133,186.410126 133,188.5 C133,207.298109 141.717404,224.06016 155.330146,234.964086 C154.426771,236.180518 153.039387,237.027564 151.421249,237.206112 C147.710651,237.618903 143.999297,237.822658 140.288699,237.822658 C136.379628,237.822658 132.481123,237.597019 128.606011,237.144985 C125.644022,236.803885 123.453283,234.205636 123.629115,231.221007 C124.167933,221.718494 118.66203,212.87177 109.908881,209.210223 C101.551922,205.702625 90.6948178,208.186167 84.6274572,214.897242 C82.6133048,217.116658 79.232487,217.380784 76.9089294,215.508506 C70.9849517,210.740647 65.5779071,205.279268 60.8658922,199.277561 C59.0373829,196.960041 59.312829,193.62903 61.4824387,191.636007 C68.4191524,185.277353 70.6981859,175.202818 67.152855,166.559093 C63.5962045,157.904048 55.1177472,152.436632 46.2868699,152.662271 C43.3807249,152.662271 39.9553829,150.538695 39.6369219,147.675565 C38.7781338,139.99477 38.7886989,132.231717 39.6806914,124.612803 C40.0323569,121.689301 42.32271,119.531011 45.5382602,119.634398 C55.4475279,119.634398 64.1033271,114.262067 67.6041338,105.926238 C71.2709628,97.1828996 68.9919294,87.0147881 61.9337175,80.6229294 C59.731658,78.619342 59.4562119,75.2438067 61.3284907,72.9149665 C66.1287993,66.9245799 71.6565874,61.4639554 77.734513,56.695342 C80.057316,54.8849442 83.3936097,55.1535985 85.3873866,57.3390558 C91.4200335,63.9739108 102.201673,66.4408513 110.491468,63.0547509 C119.135948,59.513948 124.70826,50.821171 124.377725,41.4175167 C124.278866,38.4721301 126.459041,35.9395353 129.399145,35.6150372 Z" id="path-4"></path>
        <filter x="-3.5%" y="-2.5%" width="106.9%" height="106.9%" filterUnits="objectBoundingBox" id="filter-5">
            <feOffset dx="0" dy="2" in="SourceAlpha" result="shadowOffsetOuter1"></feOffset>
            <feGaussianBlur stdDeviation="2" in="shadowOffsetOuter1" result="shadowBlurOuter1"></feGaussianBlur>
            <feColorMatrix values="0 0 0 0 0   0 0 0 0 0   0 0 0 0 0  0 0 0 0.5 0" type="matrix" in="shadowBlurOuter1"></feColorMatrix>
        </filter>
        <linearGradient x1="80.8786136%" y1="91.4956164%" x2="-69.457174%" y2="-68.1707838%" id="linearGradient-6">
            <stop stop-color="#1A0FC7" offset="0%"></stop>
            <stop stop-color="#53A0FD" offset="47.5247532%"></stop>
            <stop stop-color="#51D4EC" offset="100%"></stop>
        </linearGradient>
        <path d="M193,134 C223.375661,134 248,158.624339 248,189 C248,219.375661 223.375661,244 193,244 C162.624339,244 138,219.375661 138,189 C138,158.624339 162.624339,134 193,134 Z M155.625738,180 L151.149489,193.892152 L151.094633,194.083021 C150.787477,195.296461 151.24182,196.586416 152.257305,197.330305 L152.257305,197.330305 L191,225.714286 L155.625738,180 Z M231.374262,180 L196,225.714286 L234.742695,197.330305 C235.811627,196.547264 236.258795,195.159163 235.850511,193.892152 L235.850511,193.892152 L231.374262,180 Z M177.425625,180 L157,180 L192,225.405405 L177.425625,180 Z M230,180 L209.574375,180 L195,225.405405 L230,180 Z M208,180 L179,180 L193.5,224.903226 L208,180 Z M167.784225,152.869612 C167.285639,151.66537 165.570139,151.712015 165.165162,153.008565 L165.165162,153.008565 L157,179.142857 L176,179.142857 L167.834487,153.008565 Z M220.834838,153.008565 C220.414862,151.663994 218.585489,151.663629 218.165513,153.008565 L218.165513,153.008565 L210,179.142857 L229,179.142857 Z" id="path-7"></path>
        <filter x="-6.4%" y="-4.5%" width="112.7%" height="112.7%" filterUnits="objectBoundingBox" id="filter-8">
            <feOffset dx="0" dy="2" in="SourceAlpha" result="shadowOffsetOuter1"></feOffset>
            <feGaussianBlur stdDeviation="2" in="shadowOffsetOuter1" result="shadowBlurOuter1"></feGaussianBlur>
            <feColorMatrix values="0 0 0 0 0   0 0 0 0 0   0 0 0 0 0  0 0 0 0.5 0" type="matrix" in="shadowBlurOuter1"></feColorMatrix>
        </filter>
    </defs>
    <g id="gitlab-managed-service" stroke="none" stroke-width="1" fill="none" fill-rule="evenodd">
        <text id="Gitlab" fill="url(#linearGradient-1)" font-family="Futura-Bold, Futura" font-size="60" font-weight="bold">
            <tspan x="290.08" y="107">Gitlab</tspan>
        </text>
        <text id="Repositroy-Manager" fill="url(#linearGradient-2)" font-family="Futura-Bold, Futura" font-size="40" font-weight="bold">
            <tspan x="296.12" y="202">Repositroy Manager</tspan>
        </text>
        <g id="Combined-Shape" fill-rule="nonzero">
            <use fill="black" fill-opacity="1" filter="url(#filter-5)" xlink:href="#path-4"></use>
            <use fill="url(#linearGradient-3)" xlink:href="#path-4"></use>
        </g>
        <g id="Combined-Shape">
            <use fill="black" fill-opacity="1" filter="url(#filter-8)" xlink:href="#path-7"></use>
            <use fill="url(#linearGradient-6)" fill-rule="evenodd" xlink:href="#path-7"></use>
        </g>
    </g>
</svg>