<?xml version="1.0" encoding="UTF-8"?>
<svg width="794px" height="292px" viewBox="0 0 794 292" version="1.1" xmlns="http://www.w3.org/2000/svg" xmlns:xlink="http://www.w3.org/1999/xlink">
    <title>gitlab-runner-managed-service</title>
    <defs>
        <linearGradient x1="0.25781251%" y1="49.9925073%" x2="133.446935%" y2="50.8514221%" id="linearGradient-1">
            <stop stop-color="#1A0FC7" offset="0%"></stop>
            <stop stop-color="#53A0FD" offset="47.5247532%"></stop>
            <stop stop-color="#51D4EC" offset="100%"></stop>
        </linearGradient>
        <linearGradient x1="0.25781251%" y1="49.996222%" x2="133.446935%" y2="50.4293117%" id="linearGradient-2">
            <stop stop-color="#1A0FC7" offset="0%"></stop>
            <stop stop-color="#53A0FD" offset="47.5247532%"></stop>
            <stop stop-color="#51D4EC" offset="100%"></stop>
        </linearGradient>
        <linearGradient x1="92.6698647%" y1="96.6822363%" x2="8.19699352%" y2="8.94420173%" id="linearGradient-3">
            <stop stop-color="#1A0FC7" offset="0%"></stop>
            <stop stop-color="#53A0FD" offset="47.5247532%"></stop>
            <stop stop-color="#51D4EC" offset="100%"></stop>
        </linearGradient>
        <path d="M129.399145,35.6150372 C136.996929,34.7720967 144.638483,34.7992639 152.213628,35.6754089 C155.187691,36.0217918 157.367866,38.615513 157.190524,41.598632 C156.651706,51.0958625 162.15761,59.943342 170.888874,63.6162082 C179.279037,67.1170149 190.136896,64.6289442 196.181617,57.9344721 C198.185959,55.7150558 201.577342,55.4569665 203.888825,57.3118885 C209.791673,62.0405056 215.197963,67.4966022 219.954502,73.5367955 C221.783011,75.854316 221.51813,79.1906097 219.337955,81.183632 C212.411807,87.5370037 210.133528,97.6175762 213.666784,106.261301 C217.125331,114.700517 225.372112,120.157368 234.665587,120.157368 C237.540037,120.157368 240.864257,122.29981 241.184981,125.150866 C242.04377,132.831662 242.033204,140.587922 241.139703,148.213628 C240.972818,149.619104 240.28507,150.861282 239.298427,151.754572 C228.405679,137.898137 211.491975,129 192.5,129 C191.560972,129 190.627024,129.021753 189.698633,129.064782 C186.997319,104.837531 166.44853,86 141.5,86 C114.71419,86 93,107.71419 93,134.5 C93,158.497778 110.429146,178.424761 133.319507,182.313017 C133.107745,184.345418 133,186.410126 133,188.5 C133,207.298109 141.717404,224.06016 155.330146,234.964086 C154.426771,236.180518 153.039387,237.027564 151.421249,237.206112 C147.710651,237.618903 143.999297,237.822658 140.288699,237.822658 C136.379628,237.822658 132.481123,237.597019 128.606011,237.144985 C125.644022,236.803885 123.453283,234.205636 123.629115,231.221007 C124.167933,221.718494 118.66203,212.87177 109.908881,209.210223 C101.551922,205.702625 90.6948178,208.186167 84.6274572,214.897242 C82.6133048,217.116658 79.232487,217.380784 76.9089294,215.508506 C70.9849517,210.740647 65.5779071,205.279268 60.8658922,199.277561 C59.0373829,196.960041 59.312829,193.62903 61.4824387,191.636007 C68.4191524,185.277353 70.6981859,175.202818 67.152855,166.559093 C63.5962045,157.904048 55.1177472,152.436632 46.2868699,152.662271 C43.3807249,152.662271 39.9553829,150.538695 39.6369219,147.675565 C38.7781338,139.99477 38.7886989,132.231717 39.6806914,124.612803 C40.0323569,121.689301 42.32271,119.531011 45.5382602,119.634398 C55.4475279,119.634398 64.1033271,114.262067 67.6041338,105.926238 C71.2709628,97.1828996 68.9919294,87.0147881 61.9337175,80.6229294 C59.731658,78.619342 59.4562119,75.2438067 61.3284907,72.9149665 C66.1287993,66.9245799 71.6565874,61.4639554 77.734513,56.695342 C80.057316,54.8849442 83.3936097,55.1535985 85.3873866,57.3390558 C91.4200335,63.9739108 102.201673,66.4408513 110.491468,63.0547509 C119.135948,59.513948 124.70826,50.821171 124.377725,41.4175167 C124.278866,38.4721301 126.459041,35.9395353 129.399145,35.6150372 Z" id="path-4"></path>
        <filter x="-3.5%" y="-2.5%" width="106.9%" height="106.9%" filterUnits="objectBoundingBox" id="filter-5">
            <feOffset dx="0" dy="2" in="SourceAlpha" result="shadowOffsetOuter1"></feOffset>
            <feGaussianBlur stdDeviation="2" in="shadowOffsetOuter1" result="shadowBlurOuter1"></feGaussianBlur>
            <feColorMatrix values="0 0 0 0 0   0 0 0 0 0   0 0 0 0 0  0 0 0 0.5 0" type="matrix" in="shadowBlurOuter1"></feColorMatrix>
        </filter>
        <linearGradient x1="80.8786136%" y1="91.4956164%" x2="-69.457174%" y2="-68.1707838%" id="linearGradient-6">
            <stop stop-color="#1A0FC7" offset="0%"></stop>
            <stop stop-color="#53A0FD" offset="47.5247532%"></stop>
            <stop stop-color="#51D4EC" offset="100%"></stop>
        </linearGradient>
        <path d="M193,134 C223.375661,134 248,158.624339 248,189 C248,219.375661 223.375661,244 193,244 C162.624339,244 138,219.375661 138,189 C138,158.624339 162.624339,134 193,134 Z M167.968569,165.692044 C161.864634,171.974918 158,180.556861 158,189.960052 C158,209.218229 173.744983,225 192.958269,225 C199.717778,225 206.06762,222.892342 211.434367,219.525008 L211.434367,219.525008 L211.926181,220.099775 L214.302037,222.727664 L215.98178,216.117039 L217.947969,208.39698 L211.106313,209.382372 L203.32317,210.532441 L205.821713,213.283303 C202.012021,215.459933 197.628369,216.650637 192.958269,216.650637 C178.291863,216.650637 166.3299,204.660726 166.3299,189.960052 C166.3299,183.562957 168.582862,177.671744 172.36938,173.083017 L172.36938,173.083017 L172.597,172.811 L172.318088,172.871546 C169.346699,173.513183 166.71381,174.080775 166.533519,174.116682 C166.607632,173.670438 167.138175,170.72407 167.702871,167.602449 L167.702871,167.602449 L167.922262,166.390321 C167.958809,166.188505 167.995271,165.987209 168.031535,165.787056 L168.031535,165.787056 Z M194.054291,154 C186.150767,154 178.820466,156.797576 172.964009,161.259944 L172.964009,161.259944 L170.178953,158.598835 C170.097369,159.008236 167.721833,172.109079 167.558665,173.091536 C167.968185,173.009975 181.031767,170.185213 181.97345,169.980512 L181.97345,169.980512 L181.62637,169.633776 C181.585317,169.592796 181.541703,169.549271 181.495882,169.503558 L181.197306,169.205899 C180.398816,168.410437 179.263022,167.28376 178.984167,167.032609 C183.243069,164.04366 188.484712,162.324494 194.054291,162.324494 C208.715428,162.324494 220.673093,174.278693 220.673093,188.935581 C220.673093,196.591599 217.437991,203.510375 212.196348,208.300051 L212.196348,208.300051 L219.035013,207.317594 L217.06953,215.014659 C224.317714,208.627892 229,199.334268 229,188.935581 C229,169.734765 213.260674,154 194.054291,154 Z M177.122397,185.864865 L175.068589,192.247745 L175.032278,192.382921 C174.914512,192.92636 175.124157,193.495337 175.576881,193.827437 L175.576881,193.827437 L193.352941,206.868726 L177.122397,185.864865 Z M211.877603,185.864865 L195.647059,206.868726 L213.423119,193.827437 C213.91357,193.467662 214.118741,192.829886 213.931411,192.247745 L213.931411,192.247745 L211.877603,185.864865 Z M187.124698,185.864865 L177.752941,185.864865 L193.811765,206.726808 L187.124698,185.864865 Z M211.247059,185.864865 L201.875302,185.864865 L195.188235,206.726808 L211.247059,185.864865 Z M201.152941,185.864865 L187.847059,185.864865 L194.5,206.496077 L201.152941,185.864865 Z M182.683604,173.360762 C182.434853,172.847608 181.68067,172.881959 181.499309,173.463395 L181.499309,173.463395 L177.752941,185.471042 L186.470588,185.471042 L182.724059,173.463395 Z M207.041867,173.463395 C206.849172,172.845619 206.009813,172.845451 205.817118,173.463395 L205.817118,173.463395 L202.070588,185.471042 L210.788235,185.471042 Z" id="path-7"></path>
        <filter x="-6.4%" y="-4.5%" width="112.7%" height="112.7%" filterUnits="objectBoundingBox" id="filter-8">
            <feOffset dx="0" dy="2" in="SourceAlpha" result="shadowOffsetOuter1"></feOffset>
            <feGaussianBlur stdDeviation="2" in="shadowOffsetOuter1" result="shadowBlurOuter1"></feGaussianBlur>
            <feColorMatrix values="0 0 0 0 0   0 0 0 0 0   0 0 0 0 0  0 0 0 0.5 0" type="matrix" in="shadowBlurOuter1"></feColorMatrix>
        </filter>
    </defs>
    <g id="gitlab-runner-managed-service" stroke="none" stroke-width="1" fill="none" fill-rule="evenodd">
        <text id="Gitlab-Runner" fill="url(#linearGradient-1)" fill-rule="nonzero" font-family="Futura-Bold, Futura" font-size="59" font-weight="bold">
            <tspan x="296.335" y="107">Gitlab Runner</tspan>
        </text>
        <text id="Gitlab-CI/CD-Helper" fill="url(#linearGradient-2)" font-family="Futura-Bold, Futura" font-size="40" font-weight="bold">
            <tspan x="296.68" y="202">Gitlab CI/CD Helper</tspan>
        </text>
        <g id="Combined-Shape" fill-rule="nonzero">
            <use fill="black" fill-opacity="1" filter="url(#filter-5)" xlink:href="#path-4"></use>
            <use fill="url(#linearGradient-3)" xlink:href="#path-4"></use>
        </g>
        <g id="Combined-Shape">
            <use fill="black" fill-opacity="1" filter="url(#filter-8)" xlink:href="#path-7"></use>
            <use fill="url(#linearGradient-6)" fill-rule="evenodd" xlink:href="#path-7"></use>
        </g>
    </g>
</svg>