<?xml version="1.0" encoding="UTF-8"?>
<svg width="1355px" height="464px" viewBox="0 0 1355 464" version="1.1" xmlns="http://www.w3.org/2000/svg" xmlns:xlink="http://www.w3.org/1999/xlink">
    <title>Image Publish</title>
    <defs>
        <rect id="path-1" x="16" y="151.5" width="173" height="144" rx="4"></rect>
        <filter x="-4.0%" y="-3.5%" width="108.1%" height="109.7%" filterUnits="objectBoundingBox" id="filter-2">
            <feOffset dx="0" dy="2" in="SourceAlpha" result="shadowOffsetOuter1"></feOffset>
            <feGaussianBlur stdDeviation="2" in="shadowOffsetOuter1" result="shadowBlurOuter1"></feGaussianBlur>
            <feComposite in="shadowBlurOuter1" in2="SourceAlpha" operator="out" result="shadowBlurOuter1"></feComposite>
            <feColorMatrix values="0 0 0 0 0   0 0 0 0 0   0 0 0 0 0  0 0 0 0.5 0" type="matrix" in="shadowBlurOuter1"></feColorMatrix>
        </filter>
        <filter x="-6.2%" y="-7.5%" width="112.4%" height="114.9%" filterUnits="objectBoundingBox" id="filter-3">
            <feOffset dx="0" dy="2" in="SourceAlpha" result="shadowOffsetOuter1"></feOffset>
            <feGaussianBlur stdDeviation="2" in="shadowOffsetOuter1" result="shadowBlurOuter1"></feGaussianBlur>
            <feColorMatrix values="0 0 0 0 0   0 0 0 0 0   0 0 0 0 0  0 0 0 0.5 0" type="matrix" in="shadowBlurOuter1" result="shadowMatrixOuter1"></feColorMatrix>
            <feMerge>
                <feMergeNode in="shadowMatrixOuter1"></feMergeNode>
                <feMergeNode in="SourceGraphic"></feMergeNode>
            </feMerge>
        </filter>
        <path d="M605.369219,199.5 C607.026073,199.5 608.369219,200.843146 608.369219,202.5 L608.369219,204.726077 C608.369219,204.885602 608.356767,205.04222 608.332784,205.195011 L660.386719,205.194976 C661.491288,205.194976 662.386719,206.090407 662.386719,207.194976 L662.386719,260.144737 C662.386719,261.249306 661.491288,262.144737 660.386719,262.144737 L579.984375,262.144737 C578.879806,262.144737 577.984375,261.249306 577.984375,260.144737 L577.984375,207.194976 C577.984375,206.78847 578.105652,206.410289 578.313999,206.094643 C578.103347,205.684512 577.984375,205.219188 577.984375,204.726077 L577.984375,202.5 C577.984375,200.843146 579.327521,199.5 580.984375,199.5 L605.369219,199.5 Z" id="path-4"></path>
        <filter x="-8.3%" y="-8.0%" width="116.6%" height="122.3%" filterUnits="objectBoundingBox" id="filter-5">
            <feOffset dx="0" dy="2" in="SourceAlpha" result="shadowOffsetOuter1"></feOffset>
            <feGaussianBlur stdDeviation="2" in="shadowOffsetOuter1" result="shadowBlurOuter1"></feGaussianBlur>
            <feComposite in="shadowBlurOuter1" in2="SourceAlpha" operator="out" result="shadowBlurOuter1"></feComposite>
            <feColorMatrix values="0 0 0 0 0   0 0 0 0 0   0 0 0 0 0  0 0 0 0.5 0" type="matrix" in="shadowBlurOuter1"></feColorMatrix>
        </filter>
        <path d="M106,0 C108.209139,-4.05812251e-16 110,1.790861 110,4 L110,149 C110,151.209139 108.209139,153 106,153 L4,153 C1.790861,153 2.705415e-16,151.209139 0,149 L0,4 C-2.705415e-16,1.790861 1.790861,4.05812251e-16 4,0 L106,0 Z M101,86 L9,86 C6.790861,86 5,87.790861 5,90 L5,90 L5,142 C5,144.209139 6.790861,146 9,146 L9,146 L101,146 C103.209139,146 105,144.209139 105,142 L105,142 L105,90 C105,87.790861 103.209139,86 101,86 L101,86 Z" id="path-6"></path>
        <filter x="-6.4%" y="-3.3%" width="112.7%" height="109.2%" filterUnits="objectBoundingBox" id="filter-7">
            <feOffset dx="0" dy="2" in="SourceAlpha" result="shadowOffsetOuter1"></feOffset>
            <feGaussianBlur stdDeviation="2" in="shadowOffsetOuter1" result="shadowBlurOuter1"></feGaussianBlur>
            <feColorMatrix values="0 0 0 0 0   0 0 0 0 0   0 0 0 0 0  0 0 0 0.5 0" type="matrix" in="shadowBlurOuter1"></feColorMatrix>
        </filter>
        <filter x="-4.4%" y="-33.3%" width="108.8%" height="166.7%" filterUnits="objectBoundingBox" id="filter-8">
            <feOffset dx="0" dy="2" in="SourceAlpha" result="shadowOffsetOuter1"></feOffset>
            <feGaussianBlur stdDeviation="2" in="shadowOffsetOuter1" result="shadowBlurOuter1"></feGaussianBlur>
            <feColorMatrix values="0 0 0 0 0   0 0 0 0 0   0 0 0 0 0  0 0 0 0.5 0" type="matrix" in="shadowBlurOuter1" result="shadowMatrixOuter1"></feColorMatrix>
            <feMerge>
                <feMergeNode in="shadowMatrixOuter1"></feMergeNode>
                <feMergeNode in="SourceGraphic"></feMergeNode>
            </feMerge>
        </filter>
    </defs>
    <g id="Image-Publish" stroke="none" stroke-width="1" fill="none" fill-rule="evenodd">
        <g id="Rectangle">
            <use fill="black" fill-opacity="1" filter="url(#filter-2)" xlink:href="#path-1"></use>
            <rect stroke="#1A0FC7" stroke-width="2" stroke-linejoin="square" fill="#DADADA" fill-rule="evenodd" x="17" y="152.5" width="171" height="142" rx="4"></rect>
        </g>
        <text id="Local-Directory" font-family="ArialMT, Arial" font-size="17" font-weight="normal" fill="#BDBDBD">
            <tspan x="46.6279297" y="330">Local Directory</tspan>
        </text>
        <rect id="Rectangle" fill="#FFFFFF" x="32" y="164.5" width="39" height="52" rx="3"></rect>
        <rect id="Rectangle-Copy" fill="#FFFFFF" x="59" y="228.5" width="39" height="52" rx="3"></rect>
        <line x1="66.3427527" y1="241.841204" x2="88.6216782" y2="241.841204" id="Line-2" stroke="#979797" stroke-linecap="square"></line>
        <line x1="67.3382353" y1="249" x2="89.3235294" y2="249" id="Line-2-Copy" stroke="#979797" stroke-linecap="square"></line>
        <line x1="67.3382353" y1="257" x2="89.3235294" y2="257" id="Line-2-Copy-2" stroke="#979797" stroke-linecap="square"></line>
        <rect id="Rectangle-Copy-2" fill="#FFFFFF" x="85" y="164.5" width="39" height="52" rx="3"></rect>
        <rect id="Rectangle-Copy-3" fill="#FFFFFF" x="108" y="228.5" width="39" height="52" rx="3"></rect>
        <line x1="115.342753" y1="241.841204" x2="137.621678" y2="241.841204" id="Line-2" stroke="#979797" stroke-linecap="square"></line>
        <line x1="114.338235" y1="249" x2="136.323529" y2="249" id="Line-2-Copy" stroke="#979797" stroke-linecap="square"></line>
        <line x1="114.338235" y1="257" x2="136.323529" y2="257" id="Line-2-Copy-2" stroke="#979797" stroke-linecap="square"></line>
        <rect id="Rectangle-Copy-4" fill="#FFFFFF" x="135" y="164.5" width="39" height="52" rx="3"></rect>
        <line x1="142.342753" y1="179.841204" x2="164.621678" y2="179.841204" id="Line-2" stroke="#979797" stroke-linecap="square"></line>
        <line x1="142.338235" y1="187" x2="164.323529" y2="187" id="Line-2-Copy" stroke="#979797" stroke-linecap="square"></line>
        <line x1="142.338235" y1="196" x2="164.323529" y2="196" id="Line-2-Copy-2" stroke="#979797" stroke-linecap="square"></line>
        <line x1="41.3382353" y1="179" x2="63.3235294" y2="179" id="Line-2" stroke="#979797" stroke-linecap="square"></line>
        <line x1="41.3382353" y1="186" x2="63.3235294" y2="186" id="Line-2-Copy" stroke="#979797" stroke-linecap="square"></line>
        <line x1="41.3382353" y1="193" x2="63.3235294" y2="193" id="Line-2-Copy-2" stroke="#979797" stroke-linecap="square"></line>
        <text id="Dockerfile" font-family="ArialMT, Arial" font-size="8" font-weight="normal" fill="#000000">
            <tspan x="86.4335938" y="190.5">Dockerfile</tspan>
        </text>
        <g id="Group-2" filter="url(#filter-3)" transform="translate(1146.000000, 150.500000)">
            <rect id="Rectangle-Copy-52" stroke="#1A0FC7" stroke-width="2" fill="#DADADA" x="1" y="1" width="191" height="159" rx="4"></rect>
            <rect id="Rectangle-Copy-27" fill="#FFFFFF" x="72.7579365" y="41.2037915" width="44.4206349" height="57.9905213" rx="3"></rect>
            <text id="HelloApplication:1.0" font-family="ArialMT, Arial" font-size="12" font-weight="normal" fill="#000000">
                <tspan x="43.4931176" y="117.981043">HelloApplication:1.0</tspan>
            </text>
        </g>
        <text id="Image-Respository" font-family="ArialMT, Arial" font-size="17" font-weight="normal" fill="#BDBDBD">
            <tspan x="1172.27246" y="346.5">Image Respository</tspan>
        </text>
        <path id="Line-3" d="M218.894531,222.5 L232.894531,229.5 L218.894531,236.5 L218.894,230.5 L198.539063,230.5 L198.539063,228.5 L218.894,228.5 L218.894531,222.5 Z" fill="#BDBDBD" fill-rule="nonzero"></path>
        <path id="Line-3-Copy" d="M548.894531,222.5 L562.894531,229.5 L548.894531,236.5 L548.894,230.5 L528.539063,230.5 L528.539063,228.5 L548.894,228.5 L548.894531,222.5 Z" fill="#BDBDBD" fill-rule="nonzero"></path>
        <path id="Line-3-Copy-2" d="M720.59375,222.5 L734.59375,229.5 L720.59375,236.5 L720.593,230.5 L668.5,230.5 L668.5,228.5 L720.593,228.5 L720.59375,222.5 Z" fill="#BDBDBD" fill-rule="nonzero"></path>
        <path id="Line-3-Copy-3" d="M1120.09375,223.5 L1134.09375,230.5 L1120.09375,237.5 L1120.093,231.5 L861.707031,231.5 L861.707031,229.5 L1120.093,229.5 L1120.09375,223.5 Z" fill="#BDBDBD" fill-rule="nonzero"></path>
        <g id="Combined-Shape">
            <use fill="black" fill-opacity="1" filter="url(#filter-5)" xlink:href="#path-4"></use>
            <use fill-opacity="0.986243207" fill="#EEE13E" fill-rule="evenodd" xlink:href="#path-4"></use>
        </g>
        <text id="HelloApplication" font-family="ArialMT, Arial" font-size="17" font-weight="normal" fill="#BDBDBD">
            <tspan x="47.0947266" y="128">HelloApplication</tspan>
        </text>
        <g id="Group" transform="translate(633.984375, 205.500000)" fill="#4A4A4A">
            <path d="M-3.19744231e-14,-7.32747196e-15 L3.71229576,-7.32747196e-15 C4.06130798,-7.59054728e-15 4.34423828,0.282930304 4.34423828,0.631942521 C4.34423828,0.980954738 4.06130798,1.26388504 3.71229576,1.26388504 L-3.19744231e-14,1.26388504 L-3.19744231e-14,1.26388504 L-3.19744231e-14,-7.32747196e-15 Z" id="Rectangle"></path>
            <path d="M-3.19744231e-14,2.52777008 L3.71229576,2.52777008 C4.06130798,2.52777008 4.34423828,2.81070039 4.34423828,3.1597126 C4.34423828,3.50872482 4.06130798,3.79165512 3.71229576,3.79165512 L-3.19744231e-14,3.79165512 L-3.19744231e-14,3.79165512 L-3.19744231e-14,2.52777008 Z" id="Rectangle-Copy-5"></path>
            <path d="M1.44807943,1.26388504 L5.16037519,1.26388504 C5.5093874,1.26388504 5.79231771,1.54681535 5.79231771,1.89582756 C5.79231771,2.24483978 5.5093874,2.52777008 5.16037519,2.52777008 L1.44807943,2.52777008 L1.44807943,2.52777008 L1.44807943,1.26388504 Z" id="Rectangle-Copy-31" transform="translate(3.620199, 1.895828) rotate(-180.000000) translate(-3.620199, -1.895828) "></path>
            <path d="M1.44807943,3.79165512 L5.16037519,3.79165512 C5.5093874,3.79165512 5.79231771,4.07458543 5.79231771,4.42359765 C5.79231771,4.77260986 5.5093874,5.05554017 5.16037519,5.05554017 L1.44807943,5.05554017 L1.44807943,5.05554017 L1.44807943,3.79165512 Z" id="Rectangle-Copy-32" transform="translate(3.620199, 4.423598) rotate(-180.000000) translate(-3.620199, -4.423598) "></path>
            <path d="M1.44807943,6.31942521 L5.16037519,6.31942521 C5.5093874,6.31942521 5.79231771,6.60235551 5.79231771,6.95136773 C5.79231771,7.30037995 5.5093874,7.58331025 5.16037519,7.58331025 L1.44807943,7.58331025 L1.44807943,7.58331025 L1.44807943,6.31942521 Z" id="Rectangle-Copy-35" transform="translate(3.620199, 6.951368) rotate(-180.000000) translate(-3.620199, -6.951368) "></path>
            <path d="M-3.19744231e-14,5.05554017 L3.71229576,5.05554017 C4.06130798,5.05554017 4.34423828,5.33847047 4.34423828,5.68748269 C4.34423828,6.0364949 4.06130798,6.31942521 3.71229576,6.31942521 L-3.19744231e-14,6.31942521 L-3.19744231e-14,6.31942521 L-3.19744231e-14,5.05554017 Z" id="Rectangle-Copy-6"></path>
            <path d="M-3.19744231e-14,7.58331025 L3.71229576,7.58331025 C4.06130798,7.58331025 4.34423828,7.86624055 4.34423828,8.21525277 C4.34423828,8.56426499 4.06130798,8.84719529 3.71229576,8.84719529 L-3.19744231e-14,8.84719529 L-3.19744231e-14,8.84719529 L-3.19744231e-14,7.58331025 Z" id="Rectangle-Copy-9"></path>
            <path d="M-3.19744231e-14,10.1110803 L3.71229576,10.1110803 C4.06130798,10.1110803 4.34423828,10.3940106 4.34423828,10.7430229 C4.34423828,11.0920351 4.06130798,11.3749654 3.71229576,11.3749654 L-3.19744231e-14,11.3749654 L-3.19744231e-14,11.3749654 L-3.19744231e-14,10.1110803 Z" id="Rectangle-Copy-8"></path>
            <path d="M1.44807943,8.84719529 L5.16037519,8.84719529 C5.5093874,8.84719529 5.79231771,9.13012559 5.79231771,9.47913781 C5.79231771,9.82815003 5.5093874,10.1110803 5.16037519,10.1110803 L1.44807943,10.1110803 L1.44807943,10.1110803 L1.44807943,8.84719529 Z" id="Rectangle-Copy-34" transform="translate(3.620199, 9.479138) rotate(-180.000000) translate(-3.620199, -9.479138) "></path>
            <path d="M1.44807943,11.3749654 L5.16037519,11.3749654 C5.5093874,11.3749654 5.79231771,11.6578957 5.79231771,12.0069079 C5.79231771,12.3559201 5.5093874,12.6388504 5.16037519,12.6388504 L1.44807943,12.6388504 L1.44807943,12.6388504 L1.44807943,11.3749654 Z" id="Rectangle-Copy-33" transform="translate(3.620199, 12.006908) rotate(-180.000000) translate(-3.620199, -12.006908) "></path>
            <path d="M-3.19744231e-14,12.6388504 L3.71229576,12.6388504 C4.06130798,12.6388504 4.34423828,12.9217807 4.34423828,13.2707929 C4.34423828,13.6198052 4.06130798,13.9027355 3.71229576,13.9027355 L-3.19744231e-14,13.9027355 L-3.19744231e-14,13.9027355 L-3.19744231e-14,12.6388504 Z" id="Rectangle-Copy-7"></path>
            <path d="M-3.19744231e-14,15.1666205 L3.71229576,15.1666205 C4.06130798,15.1666205 4.34423828,15.4495508 4.34423828,15.798563 C4.34423828,16.1475752 4.06130798,16.4305055 3.71229576,16.4305055 L-3.19744231e-14,16.4305055 L-3.19744231e-14,16.4305055 L-3.19744231e-14,15.1666205 Z" id="Rectangle-Copy-14"></path>
            <path d="M1.44807943,13.9027355 L5.16037519,13.9027355 C5.5093874,13.9027355 5.79231771,14.1856658 5.79231771,14.534678 C5.79231771,14.8836902 5.5093874,15.1666205 5.16037519,15.1666205 L1.44807943,15.1666205 L1.44807943,15.1666205 L1.44807943,13.9027355 Z" id="Rectangle-Copy-40" transform="translate(3.620199, 14.534678) rotate(-180.000000) translate(-3.620199, -14.534678) "></path>
            <path d="M1.44807943,16.4305055 L5.16037519,16.4305055 C5.5093874,16.4305055 5.79231771,16.7134358 5.79231771,17.0624481 C5.79231771,17.4114603 5.5093874,17.6943906 5.16037519,17.6943906 L1.44807943,17.6943906 L1.44807943,17.6943906 L1.44807943,16.4305055 Z" id="Rectangle-Copy-39" transform="translate(3.620199, 17.062448) rotate(-180.000000) translate(-3.620199, -17.062448) "></path>
            <path d="M1.44807943,18.9582756 L5.16037519,18.9582756 C5.5093874,18.9582756 5.79231771,19.2412059 5.79231771,19.5902181 C5.79231771,19.9392304 5.5093874,20.2221607 5.16037519,20.2221607 L1.44807943,20.2221607 L1.44807943,20.2221607 L1.44807943,18.9582756 Z" id="Rectangle-Copy-38" transform="translate(3.620199, 19.590218) rotate(-180.000000) translate(-3.620199, -19.590218) "></path>
            <path d="M-3.19744231e-14,17.6943906 L3.71229576,17.6943906 C4.06130798,17.6943906 4.34423828,17.9773209 4.34423828,18.3263331 C4.34423828,18.6753453 4.06130798,18.9582756 3.71229576,18.9582756 L-3.19744231e-14,18.9582756 L-3.19744231e-14,18.9582756 L-3.19744231e-14,17.6943906 Z" id="Rectangle-Copy-13"></path>
            <path d="M-3.19744231e-14,20.2221607 L3.71229576,20.2221607 C4.06130798,20.2221607 4.34423828,20.505091 4.34423828,20.8541032 C4.34423828,21.2031154 4.06130798,21.4860457 3.71229576,21.4860457 L-3.19744231e-14,21.4860457 L-3.19744231e-14,21.4860457 L-3.19744231e-14,20.2221607 Z" id="Rectangle-Copy-12"></path>
            <path d="M-3.19744231e-14,22.7499307 L3.71229576,22.7499307 C4.06130798,22.7499307 4.34423828,23.0328611 4.34423828,23.3818733 C4.34423828,23.7308855 4.06130798,24.0138158 3.71229576,24.0138158 L-3.19744231e-14,24.0138158 L-3.19744231e-14,24.0138158 L-3.19744231e-14,22.7499307 Z" id="Rectangle-Copy-11"></path>
            <path d="M1.44807943,21.4860457 L5.16037519,21.4860457 C5.5093874,21.4860457 5.79231771,21.768976 5.79231771,22.1179882 C5.79231771,22.4670004 5.5093874,22.7499307 5.16037519,22.7499307 L1.44807943,22.7499307 L1.44807943,22.7499307 L1.44807943,21.4860457 Z" id="Rectangle-Copy-37" transform="translate(3.620199, 22.117988) rotate(-180.000000) translate(-3.620199, -22.117988) "></path>
            <path d="M1.44807943,24.0138158 L5.16037519,24.0138158 C5.5093874,24.0138158 5.79231771,24.2967461 5.79231771,24.6457583 C5.79231771,24.9947705 5.5093874,25.2777008 5.16037519,25.2777008 L1.44807943,25.2777008 L1.44807943,25.2777008 L1.44807943,24.0138158 Z" id="Rectangle-Copy-36" transform="translate(3.620199, 24.645758) rotate(-180.000000) translate(-3.620199, -24.645758) "></path>
            <path d="M-3.19744231e-14,25.2777008 L3.71229576,25.2777008 C4.06130798,25.2777008 4.34423828,25.5606311 4.34423828,25.9096434 C4.34423828,26.2586556 4.06130798,26.5415859 3.71229576,26.5415859 L-3.19744231e-14,26.5415859 L-3.19744231e-14,26.5415859 L-3.19744231e-14,25.2777008 Z" id="Rectangle-Copy-10"></path>
            <path d="M-3.19744231e-14,27.8054709 L3.71229576,27.8054709 C4.06130798,27.8054709 4.34423828,28.0884012 4.34423828,28.4374134 C4.34423828,28.7864257 4.06130798,29.069356 3.71229576,29.069356 L-3.19744231e-14,29.069356 L-3.19744231e-14,29.069356 L-3.19744231e-14,27.8054709 Z" id="Rectangle-Copy-19"></path>
            <path d="M1.44807943,26.5415859 L5.16037519,26.5415859 C5.5093874,26.5415859 5.79231771,26.8245162 5.79231771,27.1735284 C5.79231771,27.5225406 5.5093874,27.8054709 5.16037519,27.8054709 L1.44807943,27.8054709 L1.44807943,27.8054709 L1.44807943,26.5415859 Z" id="Rectangle-Copy-45" transform="translate(3.620199, 27.173528) rotate(-180.000000) translate(-3.620199, -27.173528) "></path>
            <path d="M1.44807943,29.069356 L5.16037519,29.069356 C5.5093874,29.069356 5.79231771,29.3522863 5.79231771,29.7012985 C5.79231771,30.0503107 5.5093874,30.333241 5.16037519,30.333241 L1.44807943,30.333241 L1.44807943,30.333241 L1.44807943,29.069356 Z" id="Rectangle-Copy-44" transform="translate(3.620199, 29.701298) rotate(-180.000000) translate(-3.620199, -29.701298) "></path>
            <path d="M1.44807943,31.597126 L5.16037519,31.597126 C5.5093874,31.597126 5.79231771,31.8800563 5.79231771,32.2290686 C5.79231771,32.5780808 5.5093874,32.8610111 5.16037519,32.8610111 L1.44807943,32.8610111 L1.44807943,32.8610111 L1.44807943,31.597126 Z" id="Rectangle-Copy-43" transform="translate(3.620199, 32.229069) rotate(-180.000000) translate(-3.620199, -32.229069) "></path>
            <path d="M-3.19744231e-14,30.333241 L3.71229576,30.333241 C4.06130798,30.333241 4.34423828,30.6161713 4.34423828,30.9651835 C4.34423828,31.3141957 4.06130798,31.597126 3.71229576,31.597126 L-3.19744231e-14,31.597126 L-3.19744231e-14,31.597126 L-3.19744231e-14,30.333241 Z" id="Rectangle-Copy-18"></path>
            <path d="M-3.19744231e-14,32.8610111 L3.71229576,32.8610111 C4.06130798,32.8610111 4.34423828,33.1439414 4.34423828,33.4929536 C4.34423828,33.8419658 4.06130798,34.1248961 3.71229576,34.1248961 L-3.19744231e-14,34.1248961 L-3.19744231e-14,34.1248961 L-3.19744231e-14,32.8610111 Z" id="Rectangle-Copy-17"></path>
            <path d="M-3.19744231e-14,35.3887812 L3.71229576,35.3887812 C4.06130798,35.3887812 4.34423828,35.6717115 4.34423828,36.0207237 C4.34423828,36.3697359 4.06130798,36.6526662 3.71229576,36.6526662 L-3.19744231e-14,36.6526662 L-3.19744231e-14,36.6526662 L-3.19744231e-14,35.3887812 Z" id="Rectangle-Copy-16"></path>
            <path d="M1.44807943,34.1248961 L5.16037519,34.1248961 C5.5093874,34.1248961 5.79231771,34.4078264 5.79231771,34.7568386 C5.79231771,35.1058509 5.5093874,35.3887812 5.16037519,35.3887812 L1.44807943,35.3887812 L1.44807943,35.3887812 L1.44807943,34.1248961 Z" id="Rectangle-Copy-42" transform="translate(3.620199, 34.756839) rotate(-180.000000) translate(-3.620199, -34.756839) "></path>
            <path d="M1.44807943,36.6526662 L5.16037519,36.6526662 C5.5093874,36.6526662 5.79231771,36.9355965 5.79231771,37.2846087 C5.79231771,37.6336209 5.5093874,37.9165512 5.16037519,37.9165512 L1.44807943,37.9165512 L1.44807943,37.9165512 L1.44807943,36.6526662 Z" id="Rectangle-Copy-41" transform="translate(3.620199, 37.284609) rotate(-180.000000) translate(-3.620199, -37.284609) "></path>
            <path d="M-3.19744231e-14,37.9165512 L3.71229576,37.9165512 C4.06130798,37.9165512 4.34423828,38.1994816 4.34423828,38.5484938 C4.34423828,38.897506 4.06130798,39.1804363 3.71229576,39.1804363 L-3.19744231e-14,39.1804363 L-3.19744231e-14,39.1804363 L-3.19744231e-14,37.9165512 Z" id="Rectangle-Copy-15"></path>
            <path d="M-3.19744231e-14,40.4443213 L3.71229576,40.4443213 C4.06130798,40.4443213 4.34423828,40.7272516 4.34423828,41.0762639 C4.34423828,41.4252761 4.06130798,41.7082064 3.71229576,41.7082064 L-3.19744231e-14,41.7082064 L-3.19744231e-14,41.7082064 L-3.19744231e-14,40.4443213 Z" id="Rectangle-Copy-24"></path>
            <path d="M1.44807943,39.1804363 L5.16037519,39.1804363 C5.5093874,39.1804363 5.79231771,39.4633666 5.79231771,39.8123788 C5.79231771,40.161391 5.5093874,40.4443213 5.16037519,40.4443213 L1.44807943,40.4443213 L1.44807943,40.4443213 L1.44807943,39.1804363 Z" id="Rectangle-Copy-50" transform="translate(3.620199, 39.812379) rotate(-180.000000) translate(-3.620199, -39.812379) "></path>
            <path d="M1.44807943,41.7082064 L5.16037519,41.7082064 C5.5093874,41.7082064 5.79231771,41.9911367 5.79231771,42.3401489 C5.79231771,42.6891611 5.5093874,42.9720914 5.16037519,42.9720914 L1.44807943,42.9720914 L1.44807943,42.9720914 L1.44807943,41.7082064 Z" id="Rectangle-Copy-49" transform="translate(3.620199, 42.340149) rotate(-180.000000) translate(-3.620199, -42.340149) "></path>
            <path d="M1.44807943,44.2359765 L5.16037519,44.2359765 C5.5093874,44.2359765 5.79231771,44.5189068 5.79231771,44.867919 C5.79231771,45.2169312 5.5093874,45.4998615 5.16037519,45.4998615 L1.44807943,45.4998615 L1.44807943,45.4998615 L1.44807943,44.2359765 Z" id="Rectangle-Copy-48" transform="translate(3.620199, 44.867919) rotate(-180.000000) translate(-3.620199, -44.867919) "></path>
            <path d="M-3.19744231e-14,42.9720914 L3.71229576,42.9720914 C4.06130798,42.9720914 4.34423828,43.2550217 4.34423828,43.6040339 C4.34423828,43.9530462 4.06130798,44.2359765 3.71229576,44.2359765 L-3.19744231e-14,44.2359765 L-3.19744231e-14,44.2359765 L-3.19744231e-14,42.9720914 Z" id="Rectangle-Copy-23"></path>
            <path d="M-3.19744231e-14,45.4998615 L3.71229576,45.4998615 C4.06130798,45.4998615 4.34423828,45.7827918 4.34423828,46.131804 C4.34423828,46.4808162 4.06130798,46.7637465 3.71229576,46.7637465 L-3.19744231e-14,46.7637465 L-3.19744231e-14,46.7637465 L-3.19744231e-14,45.4998615 Z" id="Rectangle-Copy-22"></path>
            <path d="M-3.19744231e-14,48.0276316 L3.71229576,48.0276316 C4.06130798,48.0276316 4.34423828,48.3105619 4.34423828,48.6595741 C4.34423828,49.0085863 4.06130798,49.2915166 3.71229576,49.2915166 L-3.19744231e-14,49.2915166 L-3.19744231e-14,49.2915166 L-3.19744231e-14,48.0276316 Z" id="Rectangle-Copy-21"></path>
            <path d="M1.44807943,46.7637465 L5.16037519,46.7637465 C5.5093874,46.7637465 5.79231771,47.0466768 5.79231771,47.3956891 C5.79231771,47.7447013 5.5093874,48.0276316 5.16037519,48.0276316 L1.44807943,48.0276316 L1.44807943,48.0276316 L1.44807943,46.7637465 Z" id="Rectangle-Copy-47" transform="translate(3.620199, 47.395689) rotate(-180.000000) translate(-3.620199, -47.395689) "></path>
            <path d="M1.44807943,49.2915166 L5.16037519,49.2915166 C5.5093874,49.2915166 5.79231771,49.5744469 5.79231771,49.9234591 C5.79231771,50.2724714 5.5093874,50.5554017 5.16037519,50.5554017 L1.44807943,50.5554017 L1.44807943,50.5554017 L1.44807943,49.2915166 Z" id="Rectangle-Copy-46" transform="translate(3.620199, 49.923459) rotate(-180.000000) translate(-3.620199, -49.923459) "></path>
            <path d="M-3.19744231e-14,50.5554017 L3.71229576,50.5554017 C4.06130798,50.5554017 4.34423828,50.838332 4.34423828,51.1873442 C4.34423828,51.5363564 4.06130798,51.8192867 3.71229576,51.8192867 L-3.19744231e-14,51.8192867 L-3.19744231e-14,51.8192867 L-3.19744231e-14,50.5554017 Z" id="Rectangle-Copy-20"></path>
            <path d="M-3.19744231e-14,53.0831717 L3.71229576,53.0831717 C4.06130798,53.0831717 4.34423828,53.366102 4.34423828,53.7151143 C4.34423828,54.0641265 4.06130798,54.3470568 3.71229576,54.3470568 L-3.19744231e-14,54.3470568 L-3.19744231e-14,54.3470568 L-3.19744231e-14,53.0831717 Z" id="Rectangle-Copy-29"></path>
            <path d="M1.44807943,51.8192867 L5.16037519,51.8192867 C5.5093874,51.8192867 5.79231771,52.102217 5.79231771,52.4512292 C5.79231771,52.8002414 5.5093874,53.0831717 5.16037519,53.0831717 L1.44807943,53.0831717 L1.44807943,53.0831717 L1.44807943,51.8192867 Z" id="Rectangle-Copy-55" transform="translate(3.620199, 52.451229) rotate(-180.000000) translate(-3.620199, -52.451229) "></path>
            <path d="M1.44807943,54.3470568 L5.16037519,54.3470568 C5.5093874,54.3470568 5.79231771,54.6299871 5.79231771,54.9789993 C5.79231771,55.3280115 5.5093874,55.6109418 5.16037519,55.6109418 L1.44807943,55.6109418 L1.44807943,55.6109418 L1.44807943,54.3470568 Z" id="Rectangle-Copy-54" transform="translate(3.620199, 54.978999) rotate(-180.000000) translate(-3.620199, -54.978999) "></path>
            <path d="M-3.19744231e-14,55.6109418 L3.71229576,55.6109418 C4.06130798,55.6109418 4.34423828,55.8938721 4.34423828,56.2428843 C4.34423828,56.5918966 4.06130798,56.8748269 3.71229576,56.8748269 L-3.19744231e-14,56.8748269 L-3.19744231e-14,56.8748269 L-3.19744231e-14,55.6109418 Z" id="Rectangle-Copy-28"></path>
        </g>
        <text id="Zipped-HelloAplicati" font-family="ArialMT, Arial" font-size="13" font-weight="normal" fill="#BDBDBD">
            <tspan x="555.647461" y="292.5">Zipped HelloAplication</tspan>
        </text>
        <g id="Group-2" transform="translate(745.593750, 147.500000)">
            <g id="Combined-Shape">
                <use fill="black" fill-opacity="1" filter="url(#filter-7)" xlink:href="#path-6"></use>
                <use fill="#1A0FC7" fill-rule="evenodd" xlink:href="#path-6"></use>
            </g>
            <rect id="Rectangle-Copy" stroke="#FFFFFF" stroke-width="2" x="6" y="8" width="98" height="17" rx="4"></rect>
            <rect id="Rectangle-Copy-2" stroke="#FFFFFF" stroke-width="2" x="6" y="34" width="98" height="17" rx="4"></rect>
            <rect id="Rectangle-Copy-3" stroke="#FFFFFF" stroke-width="2" x="6" y="61" width="98" height="17" rx="4"></rect>
            <text id="Server" font-family="ArialMT, Arial" font-size="17" font-weight="normal" fill="#BDBDBD">
                <tspan x="30.9296875" y="175">Server</tspan>
            </text>
            <circle id="Oval" fill="#FFFFFF" cx="16" cy="16" r="4"></circle>
            <circle id="Oval-Copy" fill="#FFFFFF" cx="16" cy="43" r="4"></circle>
            <circle id="Oval-Copy-2" fill="#FFFFFF" cx="16" cy="69" r="4"></circle>
        </g>
        <text id="Image" font-family="ArialMT, Arial" font-size="12" font-weight="normal" fill="#000000">
            <tspan x="1224.64844" y="220.5">Image</tspan>
        </text>
        <text id="Creates-Docker-Image" font-family="ArialMT, Arial" font-size="15" font-weight="normal" fill="#BDBDBD">
            <tspan x="872.926758" y="211.5">Creates Docker Image From Project</tspan>
        </text>
        <text id="And-Push-To-The-Imag" font-family="ArialMT, Arial" font-size="15" font-weight="normal" fill="#BDBDBD">
            <tspan x="876.75" y="257.5">And Push To The Image Repository</tspan>
        </text>
        <g id="Group" filter="url(#filter-8)" transform="translate(242.000000, 211.500000)">
            <rect id="Rectangle" fill="#D8D8D8" x="0" y="0" width="274" height="36" rx="5"></rect>
            <text id="fandogh-image-publis" font-family="ArialMT, Arial" font-size="16" font-weight="normal" fill="#000000">
                <tspan x="10.625" y="22">fandogh image publish --version 1.0</tspan>
            </text>
        </g>
    </g>
</svg>