<?xml version="1.0" encoding="UTF-8"?>
<svg width="794px" height="209px" viewBox="0 0 794 209" version="1.1" xmlns="http://www.w3.org/2000/svg" xmlns:xlink="http://www.w3.org/1999/xlink">
    <title>Laravel-Framework-Banner Copy</title>
    <defs>
        <linearGradient x1="0%" y1="36.4587672%" x2="100%" y2="63.1593908%" id="linearGradient-1">
            <stop stop-color="#1A0FC7" offset="0%"></stop>
            <stop stop-color="#2979FF" offset="100%"></stop>
        </linearGradient>
        <path d="M293.656305,123.060974 C301.632666,123.060974 309.008622,125.643706 315.000897,130.022209 L315.001219,150.573165 C311.537214,142.062547 303.213774,136.066335 293.496403,136.066335 C280.670205,136.066335 270.272518,146.512941 270.272518,159.399483 C270.272518,169.157481 276.234427,177.516448 284.698164,181.000025 L264.252721,180.999661 C259.897133,174.980178 257.328058,167.571589 257.328058,159.560138 C257.328058,139.402206 273.592768,123.060974 293.656305,123.060974 Z M298.669583,28 C307.688639,28 315,36.8799133 315,47.8338843 L315.000312,111.865176 C314.496801,111.722796 314.002485,111.550986 313.520561,111.348962 C307.784091,108.924583 304.166693,103.084554 304.520698,96.8156393 C304.637213,94.8465475 303.204831,93.1344886 301.250861,92.9058488 C296.273965,92.3275246 291.253438,92.3095921 286.261667,92.8659988 C284.330009,93.0801929 282.897627,94.7519035 282.962577,96.6960891 C283.17974,102.903236 279.518712,108.641149 273.839259,110.978356 C268.392835,113.213447 261.309261,111.585073 257.345792,107.20555 C256.035873,105.762977 253.843917,105.585644 252.317828,106.780649 C248.32461,109.928306 244.692834,113.532746 241.539015,117.486869 C240.308921,119.024086 240.48989,121.252203 241.936651,122.574728 C246.57392,126.793854 248.071253,133.505603 245.662134,139.27689 C243.362092,144.779189 237.675202,148.325348 231.164779,148.325348 C229.052152,148.257104 227.547382,149.681745 227.316337,151.611485 C226.730294,156.640564 226.723353,161.764785 227.28758,166.834711 C227.49681,168.724601 229.747271,170.126327 231.656618,170.126327 C237.458535,169.977388 243.02891,173.58631 245.365642,179.299316 C245.593755,179.858072 245.785168,180.425886 245.940601,180.999568 L37.3304172,181 C28.3113611,181 21,172.120087 21,161.166116 L21,47.8338843 C21,36.8799133 28.3113611,28 37.3304172,28 L298.669583,28 Z M77.764171,42.0290403 C74.4295419,42.1714444 52.4408562,43.9885204 44.2132621,44.6668195 L43.3858681,44.7350086 C42.2710696,44.8268396 41.5135945,44.8889888 41.2335971,44.9110275 C39.0797714,45.0805562 36.6725544,46.055346 38.868612,51.1835879 C41.0224377,56.3118299 75.5681133,130.989205 76.5394465,133.150695 C77.5107797,135.312185 80.0024605,138.829905 85.8726914,137.431294 C86.4108771,137.301974 87.0684491,137.140226 87.8278557,136.950769 L88.5033053,136.781701 C92.7007253,135.727895 99.4589309,133.976839 106.390485,132.170224 L107.54694,131.868717 L107.54694,131.868717 L108.704149,131.566842 C114.295189,130.10795 119.826579,128.659272 124.050308,127.556249 C126.329141,131.711397 129.516617,137.48222 132.715924,143.215222 L133.221045,144.119878 C138.270626,153.158468 143.232027,161.885803 144.575001,163.793 C147.615696,168.031217 149.685058,167.31072 154.330564,165.912109 C157.962506,164.810172 211.090208,145.653434 213.497425,144.636262 C215.904642,143.661472 217.382757,142.940975 215.735714,140.525192 C215.049868,139.492762 210.045154,132.728874 204.528427,125.302589 L203.956061,124.532197 L203.956061,124.532197 L203.380978,123.758327 L203.380978,123.758327 L202.804116,122.982225 C202.419156,122.464357 202.033634,121.945833 201.648798,121.428314 L201.072215,120.653 C198.193437,116.782279 195.388396,113.014928 193.183892,110.052415 C195.318048,109.476482 199.76742,108.289113 204.32957,107.071278 L205.655238,106.717383 C211.396228,105.184693 216.978373,103.692768 218.016235,103.398415 C220.212293,102.847447 220.507916,101.745511 219.283192,100.389282 C218.058467,99.0330522 201.419108,78.0962627 198.462876,74.5361609 C195.506645,70.976059 194.112993,71.6117915 192.297022,71.9084666 C190.481051,72.2051418 169.407345,75.7228615 166.957896,76.1466831 C164.508447,76.5705048 162.988099,77.5452946 164.466215,79.6644028 L164.517095,79.7348559 L164.517095,79.7348559 L164.647089,79.916161 C165.661207,81.3351106 169.216341,86.3899226 172.954822,91.7115332 L173.502952,92.491819 L173.502952,92.491819 L174.052058,93.2735676 C174.235073,93.5341335 174.417978,93.7945522 174.600497,94.0544325 L175.146628,94.8320674 C178.413205,99.4834941 181.466465,103.833796 182.710386,105.602288 L127.597786,118.867905 L83.8455613,45.3348492 C82.1140543,42.7495371 81.7339674,41.8171295 77.764171,42.0290403 Z M187.947139,112.129141 C188.378256,112.821383 192.979308,119.166935 197.44856,125.315808 L197.994864,126.067351 C202.082816,131.69058 205.911524,136.946548 206.149078,137.304147 C206.65586,138.067026 207.120411,138.575612 205.600064,139.12658 C204.881277,139.380026 193.769614,143.148953 181.88407,147.186743 L180.330184,147.714669 L180.330184,147.714669 L178.772263,148.244044 C165.785961,152.657087 152.873565,157.054236 152.387898,157.266147 C151.416565,157.689969 150.614159,157.817115 149.347203,155.994682 C148.789742,155.192811 145.288888,149.197057 141.542752,142.73328 L141.030648,141.849398 C140.859609,141.5541 140.688317,141.258278 140.517024,140.962378 L140.0034,140.074881 C135.727423,132.684491 131.609815,125.521905 131.609815,125.521905 L185.328762,111.493409 C186.680182,111.069587 187.102501,110.772912 187.947139,112.129141 Z M78.3554172,47.9201612 C78.3554172,47.9201612 118.771324,117.935498 119.489266,119.164581 C120.207208,120.436046 119.784889,120.817485 119.109179,120.944632 C118.771324,121.008205 110.895079,122.894211 102.897417,124.812004 L101.937589,125.042177 C94.2619018,126.882949 86.7477359,128.687005 85.9571552,128.870096 C84.3101119,129.251536 84.3101119,129.039625 84.1411844,128.488657 C84.0600992,128.224192 75.6012907,110.675942 66.7700092,92.3941553 L65.6647381,90.1063087 C65.480396,89.7247633 65.2960369,89.3431988 65.1117334,88.9617649 L64.0071571,86.6759254 C55.3689316,68.801214 47.1730883,51.8761125 46.9349005,51.4378809 C46.428118,50.5054733 46.4703499,49.7425943 46.9349005,49.7425943 C47.1504137,49.7425943 53.4374606,49.1861848 60.2174752,48.5853905 L61.1239087,48.5050665 C61.2753046,48.4916503 61.4268215,48.4782234 61.5783981,48.4647915 L62.4880858,48.3841842 C62.7912277,48.3573248 63.0941189,48.3304901 63.3962698,48.303725 L64.3000116,48.2236839 C70.7538903,47.6521973 76.6391486,47.1336881 77.0884609,47.1149001 C78.102026,47.0725179 77.9753303,47.2844288 78.3554172,47.9201612 Z M195.63334,77.8843519 C196.109594,78.5415308 199.439065,82.8013167 202.892222,87.2033806 L203.690058,88.2201921 L203.690058,88.2201921 L204.220707,88.8962059 C207.660714,93.2778754 210.874469,97.3581908 211.132439,97.676823 C211.681454,98.3549376 210.794584,98.7787593 209.56986,99.0330522 C209.034043,99.1443054 204.957677,100.147902 200.541301,101.241747 L199.781475,101.429997 C196.098654,102.342702 192.307965,103.285898 190.229999,103.803323 L189.825111,103.904151 C189.0666,104.093059 188.622849,104.203676 188.622849,104.203676 L172.490272,81.9954219 C172.025721,81.3596894 171.645634,80.723957 172.785895,80.5544283 C173.926156,80.3848996 192.25479,77.0790908 193.057196,76.9095621 C193.901834,76.7400334 194.619775,76.4857405 195.63334,77.8843519 Z" id="path-2"></path>
        <filter x="-2.4%" y="-3.3%" width="104.8%" height="109.2%" filterUnits="objectBoundingBox" id="filter-3">
            <feOffset dx="0" dy="2" in="SourceAlpha" result="shadowOffsetOuter1"></feOffset>
            <feGaussianBlur stdDeviation="2" in="shadowOffsetOuter1" result="shadowBlurOuter1"></feGaussianBlur>
            <feColorMatrix values="0 0 0 0 0   0 0 0 0 0   0 0 0 0 0  0 0 0 0.5 0" type="matrix" in="shadowBlurOuter1"></feColorMatrix>
        </filter>
        <linearGradient x1="0.25781251%" y1="49.9960759%" x2="133.446935%" y2="50.4459058%" id="linearGradient-4">
            <stop stop-color="#1A0FC7" offset="0%"></stop>
            <stop stop-color="#53A0FD" offset="47.5247532%"></stop>
            <stop stop-color="#51D4EC" offset="100%"></stop>
        </linearGradient>
        <linearGradient x1="0.25781251%" y1="49.9781522%" x2="133.446935%" y2="52.482651%" id="linearGradient-5">
            <stop stop-color="#1A0FC7" offset="0%"></stop>
            <stop stop-color="#53A0FD" offset="47.5247532%"></stop>
            <stop stop-color="#51D4EC" offset="100%"></stop>
        </linearGradient>
        <linearGradient x1="0%" y1="49.9989382%" x2="100%" y2="50.0010319%" id="linearGradient-6">
            <stop stop-color="#1A0FC7" offset="0%"></stop>
            <stop stop-color="#2979FF" offset="100%"></stop>
        </linearGradient>
    </defs>
    <g id="Laravel-Framework-Banner-Copy" stroke="none" stroke-width="1" fill="none" fill-rule="evenodd">
        <g id="Combined-Shape" fill-rule="nonzero">
            <use fill="black" fill-opacity="1" filter="url(#filter-3)" xlink:href="#path-2"></use>
            <use fill="url(#linearGradient-1)" xlink:href="#path-2"></use>
        </g>
        <text id="Source-Deployment" fill="url(#linearGradient-4)" font-family="Futura-Bold, Futura" font-size="42" font-weight="bold">
            <tspan x="334.646" y="169">Source Deployment</tspan>
        </text>
        <text id="Laravel" fill="url(#linearGradient-5)" font-family="Futura-Bold, Futura" font-size="63" font-weight="bold">
            <tspan x="439.252" y="88">Laravel </tspan>
        </text>
        <line x1="340" y1="117" x2="773" y2="117" id="Line-6" stroke="url(#linearGradient-6)" stroke-width="2" stroke-linecap="round"></line>
    </g>
</svg>