<?xml version="1.0" encoding="UTF-8"?>
<svg width="794px" height="292px" viewBox="0 0 794 292" version="1.1" xmlns="http://www.w3.org/2000/svg" xmlns:xlink="http://www.w3.org/1999/xlink">
    <title>mariadb-phpmyadmin</title>
    <defs>
        <linearGradient x1="0.25781251%" y1="49.9805995%" x2="133.446935%" y2="52.2045497%" id="linearGradient-1">
            <stop stop-color="#1A0FC7" offset="0%"></stop>
            <stop stop-color="#53A0FD" offset="47.5247532%"></stop>
            <stop stop-color="#51D4EC" offset="100%"></stop>
        </linearGradient>
        <linearGradient x1="0.25781251%" y1="49.9929048%" x2="133.446935%" y2="50.8062579%" id="linearGradient-2">
            <stop stop-color="#1A0FC7" offset="0%"></stop>
            <stop stop-color="#53A0FD" offset="47.5247532%"></stop>
            <stop stop-color="#51D4EC" offset="100%"></stop>
        </linearGradient>
        <linearGradient x1="92.6698647%" y1="96.6822363%" x2="8.19699352%" y2="8.94420173%" id="linearGradient-3">
            <stop stop-color="#1A0FC7" offset="0%"></stop>
            <stop stop-color="#53A0FD" offset="47.5247532%"></stop>
            <stop stop-color="#51D4EC" offset="100%"></stop>
        </linearGradient>
        <path d="M118.788445,0.708524877 C121.909013,1.07197097 124.196586,3.79346168 124.010508,6.92353231 C123.445147,16.8886067 129.222277,26.1719226 138.383653,30.0257182 C147.187125,33.6989784 158.579854,31.0883427 164.922344,24.0640936 C167.025422,21.7353464 170.583868,21.4645435 173.009218,23.4108409 C179.202846,28.3723948 184.875456,34.0972647 189.866307,40.4350044 C191.784891,42.8666884 191.506961,46.3673316 189.219389,48.4585323 C181.952051,55.124878 179.561541,65.7020305 183.26885,74.7715546 C186.897768,83.6264951 195.550794,89.3521568 205.302077,89.3521568 C208.318125,89.3521568 211.806099,91.6001383 212.142623,94.5916401 C213.043716,102.6508 213.032631,110.789142 212.095114,118.790499 C211.901581,120.4204 211.04045,121.840998 209.826158,122.789391 C198.477543,108.306312 180.824488,98.9998446 160.99779,98.9998446 C159.590455,98.9998446 158.194071,99.0467345 156.810116,99.1390372 C154.601111,73.2901783 132.918981,52.9998446 106.49779,52.9998446 C78.6074105,52.9998446 55.9977904,75.6094647 55.9977904,103.499845 C55.9977904,128.997396 74.8942898,150.081433 99.446857,153.511525 C99.1499357,155.965273 98.9977904,158.464791 98.9977904,160.999845 C98.9977904,180.607432 108.099698,198.089155 122.308864,209.450365 C121.377603,210.920471 119.811787,211.962192 117.957032,212.166848 C114.063645,212.599975 110.169467,212.813767 106.27608,212.813767 C102.174445,212.813767 98.0838945,212.577012 94.0178908,212.102711 C90.9099912,211.744807 88.6113332,209.018566 88.7958276,205.886911 C89.3611882,195.916294 83.5840581,186.63377 74.3997198,182.791852 C65.6310878,179.111465 54.239151,181.71735 47.8729057,188.759019 C45.7595339,191.087767 42.2121733,191.364904 39.7741547,189.400395 C33.5583555,184.397666 27.884954,178.667254 22.9408202,172.369897 C21.0222365,169.938213 21.3112514,166.443112 23.5877384,164.351911 C30.8661622,157.680023 33.2574633,147.109205 29.5374856,138.039681 C25.8056306,128.95828 16.9095153,123.221532 7.64361941,123.458287 C4.59431458,123.458287 1.00023651,121.230101 0.666087812,118.22593 C-0.235005125,110.16677 -0.223919623,102.021302 0.712013463,94.0270713 C1.08100231,90.9595546 3.48418075,88.694945 6.85813242,88.8034245 C17.2555413,88.8034245 26.3377347,83.1664468 30.0109949,74.4199858 C33.8584558,65.2459412 31.4671547,54.5769375 24.0612477,47.8702089 C21.7507123,45.7679226 21.4616975,42.2261048 23.4262068,39.7825435 C28.4629837,33.4970639 34.2630767,27.7674431 40.6404075,22.7639226 C43.0776343,20.8643427 46.5782774,21.1462312 48.67027,23.4393464 C55.0000915,30.4010416 66.3128462,32.9895063 75.011006,29.4366029 C84.081322,25.7213762 89.9281324,16.6003836 89.5813146,6.73349514 C89.477586,3.64301558 91.7651584,0.985662423 94.8500952,0.645179152 C102.822155,-0.239285532 110.84014,-0.210779956 118.788445,0.708524877 Z" id="path-4"></path>
        <filter x="-3.3%" y="-2.3%" width="106.6%" height="106.6%" filterUnits="objectBoundingBox" id="filter-5">
            <feOffset dx="0" dy="2" in="SourceAlpha" result="shadowOffsetOuter1"></feOffset>
            <feGaussianBlur stdDeviation="2" in="shadowOffsetOuter1" result="shadowBlurOuter1"></feGaussianBlur>
            <feColorMatrix values="0 0 0 0 0   0 0 0 0 0   0 0 0 0 0  0 0 0 0.5 0" type="matrix" in="shadowBlurOuter1"></feColorMatrix>
        </filter>
        <linearGradient x1="80.8786136%" y1="91.4956164%" x2="-69.457174%" y2="-68.1707838%" id="linearGradient-6">
            <stop stop-color="#1A0FC7" offset="0%"></stop>
            <stop stop-color="#53A0FD" offset="47.5247532%"></stop>
            <stop stop-color="#51D4EC" offset="100%"></stop>
        </linearGradient>
        <path d="M161.49779,103.999845 C193.254164,103.999845 218.99779,129.743471 218.99779,161.499845 C218.99779,193.256218 193.254164,218.999845 161.49779,218.999845 C129.741417,218.999845 103.99779,193.256218 103.99779,161.499845 C103.99779,129.743471 129.741417,103.999845 161.49779,103.999845 Z M196.977977,137.999845 C196.280793,137.999845 195.38231,138.472847 194.901155,138.738682 L194.70722,138.837139 C193.896123,139.231232 193.012941,139.454084 192.112419,139.49188 C191.189387,139.521418 190.394008,139.575569 189.358052,139.681411 C183.220871,140.316461 180.483688,145.032568 177.847155,149.593605 C176.413509,152.07473 174.930766,154.639544 172.898131,156.625921 C172.476174,157.034223 172.028464,157.41489 171.557771,157.765565 C169.453945,159.338422 166.812502,160.448528 164.747954,161.24111 C162.766872,161.999232 160.609039,162.681049 158.519943,163.340713 C156.610052,163.943764 154.803266,164.512356 153.143772,165.132637 C152.395035,165.410779 151.759223,165.624924 151.197058,165.811993 C149.687311,166.304279 148.594893,166.680879 147.004135,167.78114 C146.383052,168.206968 145.759515,168.667256 145.334822,169.011857 C144.070236,170.022975 142.951615,171.205057 142.010924,172.524323 C141.200959,173.742594 140.265413,174.872045 139.219734,175.894026 C138.885872,176.223858 138.286883,176.386313 137.395764,176.386313 C136.347533,176.386313 135.080819,176.169706 133.735549,175.940793 C132.390279,175.71188 130.922265,175.448506 129.694829,175.448506 C128.695695,175.448506 127.934685,175.610961 127.3627,175.940793 C127.3627,175.940793 126.405299,176.502 125.99779,177.228123 L126.39548,177.407808 C127.012542,177.743684 127.584251,178.157275 128.096706,178.638524 C128.627372,179.134427 129.220818,179.55815 129.86176,179.898779 C130.068131,179.977488 130.25554,180.099126 130.411651,180.255687 C130.242265,180.50183 129.996778,180.819355 129.739016,181.159033 C128.322555,183.017415 127.497718,184.191519 127.971508,184.831492 C128.198318,184.950506 128.452147,185.008194 128.70797,184.99887 C131.798654,184.99887 133.455693,184.193981 135.557064,183.174947 C136.163418,182.879575 136.784501,182.574357 137.520962,182.264217 C138.748399,181.730085 140.06912,180.878429 141.468398,179.977545 C143.321826,178.783749 145.239082,177.548109 147.094966,176.949981 C148.624222,176.482409 150.217141,176.258156 151.815686,176.285394 C153.779584,176.285394 155.846586,176.548767 157.839943,176.804756 C159.327596,176.996748 160.864346,177.193663 162.374093,177.297043 C162.960807,177.331503 163.503334,177.348733 164.033586,177.348733 C164.739627,177.350673 165.44524,177.313696 166.147232,177.237969 L166.314163,177.178894 C167.374668,176.526614 167.870552,175.126058 168.349253,173.77227 C168.658566,172.900922 168.918783,172.118186 169.331202,171.620977 C169.35584,171.596074 169.382989,171.573801 169.412212,171.554518 C169.452011,171.532318 169.501811,171.54047 169.532501,171.574209 C169.536804,171.586982 169.536804,171.600819 169.532501,171.613592 C169.287014,176.908136 167.158639,180.267994 165.010626,183.256174 L163.552431,184.789648 L163.592604,184.789391 C163.881112,184.786571 165.655848,184.752726 166.704488,184.34659 C170.877771,183.096181 174.029828,180.339375 176.322679,175.943254 C176.887828,174.814954 177.392611,173.65726 177.83488,172.475094 C177.874158,172.376637 178.237479,172.194491 178.200656,172.704007 C178.200656,172.804106 178.191928,172.911862 178.182472,173.024359 L178.168743,173.196294 C178.168743,173.299674 178.154014,173.405516 178.149104,173.511358 C178.087732,174.249788 177.903617,175.810337 177.903617,175.810337 L179.192425,175.118674 C182.300294,173.149527 184.696249,169.176773 186.512855,162.996112 C187.271411,160.421452 187.823757,157.864023 188.312277,155.611811 C188.896536,152.904233 189.399785,150.583101 189.97668,149.682217 C190.882528,148.269353 192.264621,147.314317 193.602527,146.386357 C193.786642,146.260823 193.968303,146.140213 194.147509,146.007296 C195.831551,144.823346 197.50332,143.45725 197.869096,140.909666 L197.869096,140.853053 C198.148951,138.952826 197.920648,138.480231 197.675161,138.246395 C197.481091,138.080774 197.232724,137.993087 196.977977,137.999845 Z" id="path-7"></path>
        <filter x="-6.1%" y="-4.3%" width="112.2%" height="112.2%" filterUnits="objectBoundingBox" id="filter-8">
            <feOffset dx="0" dy="2" in="SourceAlpha" result="shadowOffsetOuter1"></feOffset>
            <feGaussianBlur stdDeviation="2" in="shadowOffsetOuter1" result="shadowBlurOuter1"></feGaussianBlur>
            <feColorMatrix values="0 0 0 0 0   0 0 0 0 0   0 0 0 0 0  0 0 0 0.5 0" type="matrix" in="shadowBlurOuter1"></feColorMatrix>
        </filter>
    </defs>
    <g id="mariadb-phpmyadmin" stroke="none" stroke-width="1" fill="none" fill-rule="evenodd">
        <text id="MariaDB" fill="url(#linearGradient-1)" font-family="Futura-Bold, Futura" font-size="60" font-weight="bold">
            <tspan x="292.46" y="113">MariaDB</tspan>
        </text>
        <text id="PHP-MyAdmin" fill="url(#linearGradient-2)" font-family="Futura-Bold, Futura" font-size="60" font-weight="bold">
            <tspan x="292.22" y="208">PHP MyAdmin</tspan>
        </text>
        <g id="Group" transform="translate(39.002210, 35.000155)">
            <g id="Combined-Shape" fill-rule="nonzero">
                <use fill="black" fill-opacity="1" filter="url(#filter-5)" xlink:href="#path-4"></use>
                <use fill="url(#linearGradient-3)" xlink:href="#path-4"></use>
            </g>
            <g id="Combined-Shape">
                <use fill="black" fill-opacity="1" filter="url(#filter-8)" xlink:href="#path-7"></use>
                <use fill="url(#linearGradient-6)" fill-rule="evenodd" xlink:href="#path-7"></use>
            </g>
        </g>
    </g>
</svg>