<?xml version="1.0" encoding="UTF-8"?>
<svg width="794px" height="292px" viewBox="0 0 794 292" version="1.1" xmlns="http://www.w3.org/2000/svg" xmlns:xlink="http://www.w3.org/1999/xlink">
    <title>memcached-managed-service</title>
    <defs>
        <linearGradient x1="0.25781251%" y1="49.9895768%" x2="133.446935%" y2="51.1844295%" id="linearGradient-1">
            <stop stop-color="#1A0FC7" offset="0%"></stop>
            <stop stop-color="#53A0FD" offset="47.5247532%"></stop>
            <stop stop-color="#51D4EC" offset="100%"></stop>
        </linearGradient>
        <linearGradient x1="0.25781251%" y1="49.997066%" x2="133.446935%" y2="50.3334041%" id="linearGradient-2">
            <stop stop-color="#1A0FC7" offset="0%"></stop>
            <stop stop-color="#53A0FD" offset="47.5247532%"></stop>
            <stop stop-color="#51D4EC" offset="100%"></stop>
        </linearGradient>
        <linearGradient x1="92.6698647%" y1="96.6822363%" x2="8.19699352%" y2="8.94420173%" id="linearGradient-3">
            <stop stop-color="#1A0FC7" offset="0%"></stop>
            <stop stop-color="#53A0FD" offset="47.5247532%"></stop>
            <stop stop-color="#51D4EC" offset="100%"></stop>
        </linearGradient>
        <path d="M90.3970391,0.614889051 C97.9948235,-0.22805147 105.636377,-0.200884183 113.211522,0.675260798 C116.185586,1.0216437 118.36576,3.61536489 118.188418,6.59848385 C117.6496,16.0957143 123.155504,24.9431939 131.886768,28.6160601 C140.276931,32.1168667 151.13479,29.6287961 157.179511,22.934324 C159.183853,20.7149076 162.575236,20.4568184 164.886719,22.3117404 C170.789567,27.0403575 176.195857,32.4964541 180.952396,38.5366474 C182.780905,40.8541679 182.516024,44.1904615 180.33585,46.1834838 C173.409701,52.5368556 171.131422,62.6174281 174.664679,71.261153 C178.123225,79.7003686 186.370006,85.1572199 195.663482,85.1572199 C198.537931,85.1572199 201.862151,87.2996623 202.182876,90.150718 C203.041664,97.8315136 203.031099,105.587774 202.137597,113.21348 C201.970712,114.618956 201.282964,115.861133 200.296321,116.754424 C189.403573,102.897989 172.489869,93.9998519 153.497894,93.9998519 C152.558866,93.9998519 151.624918,94.0216047 150.696527,94.064634 C147.995213,69.8373826 127.446424,50.9998519 102.497894,50.9998519 C75.7120838,50.9998519 53.9978942,72.7140415 53.9978942,99.4998519 C53.9978942,123.49763 71.4270405,143.424613 94.3174015,147.312869 C94.1056396,149.34527 93.9978942,151.409978 93.9978942,153.499852 C93.9978942,172.297961 102.715298,189.060011 116.32804,199.963938 C115.424665,201.18037 114.037281,202.027416 112.419143,202.205963 C108.708545,202.618755 104.997192,202.82251 101.286593,202.82251 C97.3775224,202.82251 93.4790168,202.59687 89.6039053,202.144837 C86.6419165,201.803737 84.4511767,199.205488 84.6270094,196.220859 C85.1658272,186.718346 79.6599239,177.871621 70.9067752,174.210075 C62.5498161,170.702476 51.692712,173.186019 45.6253514,179.897094 C43.611199,182.11651 40.2303811,182.380636 37.9068235,180.508357 C31.9828458,175.740499 26.5758012,170.27912 21.8637863,164.277413 C20.0352771,161.959893 20.3107231,158.628882 22.4803328,156.635859 C29.4170466,150.277205 31.69608,140.20267 28.1507492,131.558945 C24.5940986,122.9039 16.1156414,117.436484 7.28476404,117.662123 C4.37861906,117.662123 0.95327705,115.538547 0.634816084,112.675417 C-0.22397202,104.994621 -0.213406965,97.2315693 0.6785856,89.6126548 C1.03025103,86.689153 3.32060419,84.530863 6.53615437,84.6342496 C16.445422,84.6342496 25.1012213,79.2619188 28.602028,70.9260898 C32.268857,62.1827515 29.9898235,52.01464 22.9316116,45.6227812 C20.7295521,43.6191939 20.454106,40.2436586 22.3263849,37.9148184 C27.1266934,31.9244318 32.6544815,26.4638073 38.7324072,21.6951939 C41.0552101,19.8847961 44.3915038,20.1534504 46.3852808,22.3389076 C52.4179276,28.9737627 63.199567,31.4407032 71.4893626,28.0546028 C80.1338421,24.5137998 85.7061544,15.8210229 85.3756191,6.4173686 C85.2767603,3.47198199 87.456935,0.939387192 90.3970391,0.614889051 Z" id="path-4"></path>
        <filter x="-3.5%" y="-2.5%" width="106.9%" height="106.9%" filterUnits="objectBoundingBox" id="filter-5">
            <feOffset dx="0" dy="2" in="SourceAlpha" result="shadowOffsetOuter1"></feOffset>
            <feGaussianBlur stdDeviation="2" in="shadowOffsetOuter1" result="shadowBlurOuter1"></feGaussianBlur>
            <feColorMatrix values="0 0 0 0 0   0 0 0 0 0   0 0 0 0 0  0 0 0 0.5 0" type="matrix" in="shadowBlurOuter1"></feColorMatrix>
        </filter>
        <linearGradient x1="80.8786136%" y1="91.4956164%" x2="-69.457174%" y2="-68.1707838%" id="linearGradient-6">
            <stop stop-color="#1A0FC7" offset="0%"></stop>
            <stop stop-color="#53A0FD" offset="47.5247532%"></stop>
            <stop stop-color="#51D4EC" offset="100%"></stop>
        </linearGradient>
        <path d="M153.997894,98.9998519 C184.373555,98.9998519 208.997894,123.624191 208.997894,153.999852 C208.997894,184.375513 184.373555,208.999852 153.997894,208.999852 C123.622233,208.999852 98.9978942,184.375513 98.9978942,153.999852 C98.9978942,123.624191 123.622233,98.9998519 153.997894,98.9998519 Z M147.496765,176.999852 C145.565426,176.999852 143.997894,178.569641 143.997894,180.500981 C143.997894,182.43232 145.563169,183.999852 147.496765,183.999852 C149.430362,183.999852 150.997894,182.434389 150.997894,180.500981 C150.997894,178.567196 149.428105,176.999852 147.496765,176.999852 Z M160.497894,176.999852 C158.563525,176.999852 156.997894,178.569641 156.997894,180.500981 C156.997894,182.43232 158.565407,183.999852 160.497142,183.999852 C162.428877,183.999852 163.996389,182.434389 163.996389,180.500981 L163.996389,180.500981 C163.997894,178.567196 162.432263,176.999852 160.497894,176.999852 Z M182.070662,123.999852 L168.269315,123.999852 L168.184947,124.006507 C166.970817,124.178768 164.382032,127.64932 161.771419,131.471801 L161.771419,131.471801 L161.299812,132.165603 L160.829503,132.863202 C157.858729,137.285201 155.072725,141.70333 154.4983,141.70333 C153.349452,141.70333 143.354092,124.032916 140.727286,124.001763 L140.727286,124.001763 L126.923285,124.001572 L126.766329,125.021242 C124.606573,139.285405 124.019088,153.056976 123.998463,163.59649 L123.998463,163.59649 L123.99884,164.92744 C124.026471,175.8681 124.650044,182.999852 124.650044,182.999852 L124.650044,182.999852 L139.556636,182.999852 L139.513007,182.763561 C138.037752,174.701277 133.092614,140.638411 137.283016,140.525264 C138.305701,140.68897 140.973913,146.697264 143.596132,153.247164 L143.881928,153.963592 C144.072229,154.442303 144.261961,154.922859 144.450474,155.403219 L144.450474,155.403219 L144.793944,156.281599 C146.389074,160.375363 147.86633,164.36414 148.820445,166.977398 L148.820445,166.977398 L149.016743,167.515865 C149.580729,169.065326 149.916557,170.008828 149.916557,170.008828 C149.916557,170.008828 152.199087,169.722148 154.495836,169.722148 C155.921404,169.722148 157.34186,169.832593 158.214342,169.916379 L158.214342,169.916379 L158.484129,169.943132 C158.856132,169.981217 159.076063,170.008828 159.076063,170.008828 C159.076063,170.008828 169.44224,140.88782 171.709604,140.525264 C173.911905,140.584695 173.592877,150.010521 172.579944,160.115222 L172.579944,160.115222 L172.460091,161.283668 L172.460091,161.283668 L172.39805,161.869223 L172.270129,163.041146 C172.212946,163.55527 172.154435,164.068992 172.094832,164.581186 L171.974242,165.603202 C171.08028,173.078142 169.985623,180.062629 169.438448,182.999852 L169.438448,182.999852 L184.345609,182.999852 C184.363565,182.792321 184.969818,175.709056 184.996955,164.926508 L184.996955,164.926508 L184.997319,163.595504 C184.976086,152.804616 184.360351,138.625971 182.070662,123.999852 L182.070662,123.999852 Z" id="path-7"></path>
        <filter x="-6.4%" y="-4.5%" width="112.7%" height="112.7%" filterUnits="objectBoundingBox" id="filter-8">
            <feOffset dx="0" dy="2" in="SourceAlpha" result="shadowOffsetOuter1"></feOffset>
            <feGaussianBlur stdDeviation="2" in="shadowOffsetOuter1" result="shadowBlurOuter1"></feGaussianBlur>
            <feColorMatrix values="0 0 0 0 0   0 0 0 0 0   0 0 0 0 0  0 0 0 0.5 0" type="matrix" in="shadowBlurOuter1"></feColorMatrix>
        </filter>
    </defs>
    <g id="memcached-managed-service" stroke="none" stroke-width="1" fill="none" fill-rule="evenodd">
        <text id="Memcached" fill="url(#linearGradient-1)" font-family="Futura-Bold, Futura" font-size="60" font-weight="bold">
            <tspan x="290.1" y="97">Memcached</tspan>
        </text>
        <text id="In-Memory-Data-Store" fill="url(#linearGradient-2)" font-family="Futura-Bold, Futura" font-size="40" font-weight="bold">
            <tspan x="290.08" y="202">In Memory Data Store</tspan>
        </text>
        <g id="Group" transform="translate(39.002106, 35.000148)">
            <g id="Combined-Shape" fill-rule="nonzero">
                <use fill="black" fill-opacity="1" filter="url(#filter-5)" xlink:href="#path-4"></use>
                <use fill="url(#linearGradient-3)" xlink:href="#path-4"></use>
            </g>
            <g id="Combined-Shape">
                <use fill="black" fill-opacity="1" filter="url(#filter-8)" xlink:href="#path-7"></use>
                <use fill="url(#linearGradient-6)" fill-rule="evenodd" xlink:href="#path-7"></use>
            </g>
        </g>
    </g>
</svg>