<?xml version="1.0" encoding="UTF-8"?>
<svg width="794px" height="292px" viewBox="0 0 794 292" version="1.1" xmlns="http://www.w3.org/2000/svg" xmlns:xlink="http://www.w3.org/1999/xlink">
    <title>mssql-managed-service</title>
    <defs>
        <linearGradient x1="0.25781251%" y1="49.9928119%" x2="133.446935%" y2="50.8168086%" id="linearGradient-1">
            <stop stop-color="#1A0FC7" offset="0%"></stop>
            <stop stop-color="#53A0FD" offset="47.5247532%"></stop>
            <stop stop-color="#51D4EC" offset="100%"></stop>
        </linearGradient>
        <linearGradient x1="0.25781251%" y1="49.9798876%" x2="133.446935%" y2="52.2854439%" id="linearGradient-2">
            <stop stop-color="#1A0FC7" offset="0%"></stop>
            <stop stop-color="#53A0FD" offset="47.5247532%"></stop>
            <stop stop-color="#51D4EC" offset="100%"></stop>
        </linearGradient>
        <linearGradient x1="92.6698647%" y1="96.6822363%" x2="8.19699352%" y2="8.94420173%" id="linearGradient-3">
            <stop stop-color="#1A0FC7" offset="0%"></stop>
            <stop stop-color="#53A0FD" offset="47.5247532%"></stop>
            <stop stop-color="#51D4EC" offset="100%"></stop>
        </linearGradient>
        <path d="M129.399145,35.6150372 C136.996929,34.7720967 144.638483,34.7992639 152.213628,35.6754089 C155.187691,36.0217918 157.367866,38.615513 157.190524,41.598632 C156.651706,51.0958625 162.15761,59.943342 170.888874,63.6162082 C179.279037,67.1170149 190.136896,64.6289442 196.181617,57.9344721 C198.185959,55.7150558 201.577342,55.4569665 203.888825,57.3118885 C209.791673,62.0405056 215.197963,67.4966022 219.954502,73.5367955 C221.783011,75.854316 221.51813,79.1906097 219.337955,81.183632 C212.411807,87.5370037 210.133528,97.6175762 213.666784,106.261301 C217.125331,114.700517 225.372112,120.157368 234.665587,120.157368 C237.540037,120.157368 240.864257,122.29981 241.184981,125.150866 C242.04377,132.831662 242.033204,140.587922 241.139703,148.213628 C240.972818,149.619104 240.28507,150.861282 239.298427,151.754572 C228.405679,137.898137 211.491975,129 192.5,129 C191.560972,129 190.627024,129.021753 189.698633,129.064782 C186.997319,104.837531 166.44853,86 141.5,86 C114.71419,86 93,107.71419 93,134.5 C93,158.497778 110.429146,178.424761 133.319507,182.313017 C133.107745,184.345418 133,186.410126 133,188.5 C133,207.298109 141.717404,224.06016 155.330146,234.964086 C154.426771,236.180518 153.039387,237.027564 151.421249,237.206112 C147.710651,237.618903 143.999297,237.822658 140.288699,237.822658 C136.379628,237.822658 132.481123,237.597019 128.606011,237.144985 C125.644022,236.803885 123.453283,234.205636 123.629115,231.221007 C124.167933,221.718494 118.66203,212.87177 109.908881,209.210223 C101.551922,205.702625 90.6948178,208.186167 84.6274572,214.897242 C82.6133048,217.116658 79.232487,217.380784 76.9089294,215.508506 C70.9849517,210.740647 65.5779071,205.279268 60.8658922,199.277561 C59.0373829,196.960041 59.312829,193.62903 61.4824387,191.636007 C68.4191524,185.277353 70.6981859,175.202818 67.152855,166.559093 C63.5962045,157.904048 55.1177472,152.436632 46.2868699,152.662271 C43.3807249,152.662271 39.9553829,150.538695 39.6369219,147.675565 C38.7781338,139.99477 38.7886989,132.231717 39.6806914,124.612803 C40.0323569,121.689301 42.32271,119.531011 45.5382602,119.634398 C55.4475279,119.634398 64.1033271,114.262067 67.6041338,105.926238 C71.2709628,97.1828996 68.9919294,87.0147881 61.9337175,80.6229294 C59.731658,78.619342 59.4562119,75.2438067 61.3284907,72.9149665 C66.1287993,66.9245799 71.6565874,61.4639554 77.734513,56.695342 C80.057316,54.8849442 83.3936097,55.1535985 85.3873866,57.3390558 C91.4200335,63.9739108 102.201673,66.4408513 110.491468,63.0547509 C119.135948,59.513948 124.70826,50.821171 124.377725,41.4175167 C124.278866,38.4721301 126.459041,35.9395353 129.399145,35.6150372 Z" id="path-4"></path>
        <filter x="-3.5%" y="-2.5%" width="106.9%" height="106.9%" filterUnits="objectBoundingBox" id="filter-5">
            <feOffset dx="0" dy="2" in="SourceAlpha" result="shadowOffsetOuter1"></feOffset>
            <feGaussianBlur stdDeviation="2" in="shadowOffsetOuter1" result="shadowBlurOuter1"></feGaussianBlur>
            <feColorMatrix values="0 0 0 0 0   0 0 0 0 0   0 0 0 0 0  0 0 0 0.5 0" type="matrix" in="shadowBlurOuter1"></feColorMatrix>
        </filter>
        <linearGradient x1="80.8786136%" y1="91.4956164%" x2="-69.457174%" y2="-68.1707838%" id="linearGradient-6">
            <stop stop-color="#1A0FC7" offset="0%"></stop>
            <stop stop-color="#53A0FD" offset="47.5247532%"></stop>
            <stop stop-color="#51D4EC" offset="100%"></stop>
        </linearGradient>
        <path d="M193,134 C223.375661,134 248,158.624339 248,189 C248,219.375661 223.375661,244 193,244 C162.624339,244 138,219.375661 138,189 C138,158.624339 162.624339,134 193,134 Z M188.783417,152.036703 C188.618498,152.014339 186.741861,152.665236 184.771433,153.404333 L184.277809,153.590606 L184.277809,153.590606 L183.785894,153.778522 C183.215175,153.997927 182.659417,154.21654 182.158764,154.419844 C178.780778,155.797403 176.157332,157.109277 174.539367,158.245926 C174.017497,158.616202 173.380094,159.233425 173.143535,159.582137 C173.142329,159.577669 173.141144,159.573186 173.136037,159.575394 L173.136037,159.575394 L173.106976,159.63516 L173.106976,159.63516 C173.08651,159.672499 173.073149,159.698535 173.06371,159.721734 C173.020004,159.831074 172.998025,159.962241 172.998025,160.093408 L172.998025,160.093408 L173.033693,160.127659 C173.043138,160.244431 173.071132,160.376248 173.129142,160.519929 C173.2714,160.869624 173.686729,161.295893 174.156703,161.733251 L174.156703,161.733251 L174.190369,161.766096 C174.488585,162.057099 176.703098,164.219178 178.223976,165.736092 L178.223976,165.736092 L178.701664,166.214384 C179.146503,166.661877 179.482049,167.00662 179.611638,167.15542 C182.300719,170.259931 183.470487,173.320836 183.579826,177.540521 C183.64541,180.25158 183.131478,182.63467 181.852572,185.400425 C179.578771,190.363457 174.779672,195.840271 167.378955,201.918326 L167.378955,201.918326 L167.494489,201.880748 C167.436634,201.927173 167.379889,201.972483 167.32431,202.016626 C166.438906,202.716319 165.127082,204.028093 164.460306,204.858751 C163.465462,206.104941 162.678407,207.427654 162.3395,208.444427 C161.738207,210.281021 162.03351,212.139342 163.192238,213.855758 C164.678935,216.041996 167.641491,218.271991 171.095797,219.791505 C172.855919,220.567822 175.818374,221.562515 178.048369,222.119951 C181.754121,223.060151 188.925422,224.076823 192.871682,224.22997 C193.220759,224.244305 193.622192,224.252369 193.967004,224.254161 L193.967004,224.254161 L194.24615,224.254161 C194.549712,224.252369 194.765519,224.244305 194.784596,224.22997 C194.872159,224.175123 195.48434,223.005557 196.195023,221.551727 C198.621869,216.599533 200.370901,211.95353 201.321889,207.985392 C201.890314,205.580524 202.33846,202.377462 202.633511,198.584298 C202.677325,197.978339 202.706768,196.558541 202.711721,195.228482 L202.711721,195.228482 L202.71211,194.575113 C202.710073,193.831336 202.699128,193.169338 202.677267,192.768476 C202.578816,190.800816 202.403893,189.20488 202.130821,187.64161 C202.106264,187.512743 202.091996,187.390767 202.087318,187.307625 C210.871289,184.698519 220.584577,182.340307 227.022154,181.355663 L227.022154,181.355663 L228.0171,181.202517 L227.863954,180.96201 L227.650821,180.633493 C226.888515,179.465776 226.328015,178.690083 225.666574,177.868388 C223.567848,175.266619 221.020924,173.156902 217.905222,171.40777 C213.620005,169.013842 208.077457,167.144531 201.059504,165.756185 C200.114709,165.568695 198.361165,165.2586 196.575766,164.965246 L196.575766,164.965246 L195.861749,164.849127 C195.388105,164.772918 194.919539,164.699209 194.470686,164.630626 L194.470686,164.630626 L194.249341,164.236621 L193.989808,163.774997 C192.772487,161.590797 191.482848,159.015562 190.707472,157.240243 C190.062575,155.764435 189.450343,154.05926 189.111385,152.834848 C188.925523,152.091499 188.903746,152.047794 188.783669,152.036653 Z M196.916443,216.675854 C196.941277,216.737969 196.381581,218.349474 195.774902,220.015391 L195.774902,220.015391 L195.600752,220.491556 C195.193584,221.600037 194.788289,222.66942 194.54414,223.256751 C194.402235,223.606547 194.347742,223.69416 194.271068,223.683019 C194.235325,223.680954 194.111454,223.665944 193.923553,223.64141 L193.66888,223.607618 C193.151287,223.538088 192.370444,223.429091 191.58295,223.31707 L191.15429,223.255886 C190.728055,223.194841 190.313722,223.134867 189.952933,223.081878 C187.231086,222.666498 182.661555,221.868354 181.513816,221.60612 L181.513816,221.60612 L181.251481,221.551526 L182.880083,221.1796 L183.275779,221.090361 C186.249308,220.41807 187.857941,220.014288 189.373097,219.561108 L189.373097,219.561108 L189.76707,219.441558 L190.573741,219.187869 C192.453981,218.577789 194.321667,217.840045 196.205911,216.960117 C196.544768,216.807021 196.829031,216.686793 196.905554,216.675854 L196.905554,216.675854 Z M185.21972,213.429187 C185.230457,213.418348 185.711471,213.593121 186.301724,213.812001 C187.723039,214.347559 188.848799,214.686366 190.357525,215.06903 C192.215946,215.539155 194.905077,215.998291 196.490275,216.129408 C196.730782,216.151185 196.861949,216.173164 196.818193,216.205981 C196.807738,216.211947 196.76883,216.227061 196.70643,216.249659 L196.70643,216.249659 L196.551778,216.304339 C196.033178,216.484748 194.866414,216.869867 193.954089,217.157069 C192.531083,217.603709 188.898305,218.682694 185.187539,219.763941 L184.391958,219.995442 C183.4642,220.265031 182.541085,220.531949 181.655922,220.78635 C180.792295,221.037745 180.048896,221.245486 180.005191,221.256324 C179.896002,221.278303 179.535116,221.179751 179.535116,221.136045 C179.535116,221.114318 179.79745,220.775461 180.11453,220.403737 C181.688588,218.523437 183.251959,216.42461 184.552844,214.435021 C184.691549,214.224733 184.822208,214.029031 184.930492,213.867181 L184.930492,213.867181 L185.048776,213.690442 C185.066394,213.664104 185.082888,213.639429 185.098143,213.61657 L185.098143,213.61657 L185.173889,213.502448 C185.183729,213.487472 185.192102,213.47462 185.198892,213.464047 L185.198892,213.464047 Z M183.295677,213.483982 C183.306452,213.494871 182.530387,214.741011 181.175009,216.883594 C180.595494,217.790927 179.950496,218.818488 179.720877,219.179273 C179.502248,219.52907 179.17433,220.075768 178.988569,220.381758 L178.988569,220.381758 L178.671489,220.939345 L178.507555,220.895589 L178.439586,220.87547 C177.86668,220.699194 175.314955,219.799818 174.615789,219.518131 C173.708405,219.157345 172.768306,218.720188 172.068613,218.348514 C171.194198,217.878389 170.101104,217.178695 170.188465,217.156969 C170.210292,217.14608 171.707979,216.741437 173.511604,216.249636 C178.299764,214.9486 180.956078,214.194413 182.694372,213.647866 C183.011452,213.549465 183.284675,213.472892 183.295677,213.483982 Z M176.496088,207.187298 L176.845783,207.5808 L177.183756,207.95103 C178.651433,209.525851 180.166057,210.723097 181.972901,211.778556 C182.322798,211.975458 182.585082,212.15023 182.563104,212.161371 C182.514819,212.19591 179.823633,213.157971 177.069586,214.131421 L177.069586,214.131421 L176.536453,214.319727 L176.005906,214.506841 C174.774216,214.940902 173.597604,215.353177 172.713712,215.659282 C170.97567,216.271413 169.543517,216.763316 169.532729,216.763316 C169.521841,216.763316 169.423389,216.697833 169.313899,216.62126 L169.313899,216.62126 L169.117249,216.479103 L169.434228,216.020068 L169.537901,215.87086 C170.549436,214.422782 171.845533,212.791607 174.561295,209.515744 L174.561295,209.515744 L176.496088,207.187298 Z M175.096903,206.65164 C175.118781,206.673417 173.730435,208.673995 171.784501,211.395943 C171.106787,212.347031 170.319733,213.462004 170.024632,213.877383 C169.72943,214.292814 169.281283,214.948751 169.029837,215.342303 L169.029837,215.342303 L168.5705,216.052885 L168.078547,215.637505 L167.910698,215.4935 C167.320906,214.973364 166.452805,214.0772 166.045353,213.560404 C165.105153,212.390838 164.471245,211.155537 164.219799,210.029676 C164.099521,209.504855 164.099521,209.24237 164.208709,209.209754 C164.341905,209.174243 166.293743,208.7129 168.486966,208.200996 L168.996661,208.082137 L168.996661,208.082137 L169.767849,207.902726 L169.767849,207.902726 L170.024531,207.843135 C170.203297,207.801994 170.38539,207.759944 170.568585,207.717519 L170.568585,207.717519 L171.119253,207.589654 C172.30989,207.31249 173.453105,207.042049 173.937973,206.925014 C174.572083,206.771717 175.086015,206.65164 175.096903,206.65164 Z M200.032094,205.798901 C200.039934,205.979942 199.753102,207.198057 199.420471,208.473899 L199.308239,208.899974 C199.213868,209.254579 199.118097,209.605242 199.02626,209.930973 C198.643697,211.297441 198.315577,212.368859 197.714486,214.259896 C197.592063,214.647701 197.476809,215.004471 197.387567,215.274717 L197.387567,215.274717 L197.317884,215.483872 C197.255449,215.669249 197.216081,215.77941 197.211645,215.77941 C197.200756,215.77941 197.135172,215.768521 197.069589,215.746794 C193.822922,215.15629 190.915061,214.336469 188.182124,213.243375 C188.038625,213.185964 187.883603,213.122022 187.725992,213.055658 L187.725992,213.055658 L187.409964,212.920914 C186.833956,212.672424 186.303208,212.42817 186.258119,212.390636 C186.236342,212.368557 186.892279,212.062668 187.723039,211.701882 L187.723039,211.701882 L188.509418,211.356193 C193.230702,209.270325 197.949896,207.000077 199.627552,205.995652 C199.835192,205.864434 199.999226,205.798901 200.032094,205.798901 Z M189.231563,202.027464 C189.242653,202.038605 189.155091,202.267971 189.045701,202.530306 C188.094713,204.836873 186.848321,207.351333 185.252386,210.171631 C185.171507,210.315945 185.093247,210.454573 185.019703,210.584017 L185.019703,210.584017 L184.879526,210.829622 C184.658453,211.215099 184.50534,211.472617 184.497947,211.472617 C184.48721,211.472617 184.15914,211.275714 183.765638,211.035258 C181.44798,209.614094 179.392909,207.865063 178.048419,206.170626 L178.048419,206.170626 L177.851567,205.930119 L178.846261,205.656795 L179.659397,205.430864 C182.875767,204.521104 185.669254,203.535318 188.444358,202.344645 C188.870777,202.169671 189.220674,202.027464 189.231563,202.027464 Z M190.969706,201.458938 C190.980594,201.44805 191.242929,201.590257 191.559908,201.776018 C193.899343,203.131598 197.15695,204.388777 199.933441,205.033675 L199.933441,205.033675 L200.185038,205.08842 L199.835141,205.284969 L199.713519,205.351268 C198.215412,206.152797 193.969744,207.925741 189.487937,209.619761 L189.487937,209.619761 L188.717783,209.909195 L188.55423,209.969621 C187.90284,210.210581 187.297453,210.438115 187.176189,210.488509 C187.045022,210.543103 186.924743,210.575971 186.924743,210.565082 C186.924743,210.553992 187.121645,210.171429 187.37289,209.701455 C188.739358,207.143441 190.116866,204.027941 190.816459,201.863429 C190.904122,201.655739 190.958616,201.469978 190.969706,201.458938 Z M173.916196,198.408971 C173.959902,198.408971 173.948963,198.496433 173.883379,198.889985 C173.839623,199.174299 173.785029,199.699018 173.763302,200.059602 C173.675639,201.655689 173.938175,202.836396 174.725229,204.45421 C174.943858,204.902457 175.118882,205.274131 175.107792,205.284969 C175.06472,205.321917 172.75616,206.009134 170.339699,206.714261 L169.801809,206.870993 C168.098419,207.366619 166.42074,207.847918 165.520634,208.09453 C164.84292,208.280292 164.252717,208.444326 164.20876,208.455114 C164.132388,208.477093 164.121399,208.466204 164.154165,208.280191 C164.405561,206.673366 165.629974,204.574438 167.335249,202.803428 C168.4722,201.622872 169.379583,200.934219 170.931864,200.048613 C171.222739,199.883245 171.554531,199.696303 171.888425,199.509518 L171.888425,199.509518 L172.221582,199.32359 C172.501767,199.167604 172.774187,199.016922 173.014904,198.885656 C173.301294,198.731554 173.589724,198.578106 173.883539,198.424044 C173.887866,198.422246 173.891467,198.420864 173.895289,198.417383 C173.900285,198.414756 173.905281,198.41213 173.916196,198.408971 Z M201.026888,195.173394 L201.026888,195.63248 L201.021505,196.259778 C200.982329,198.621477 200.732657,201.618491 200.381789,203.85322 C200.316206,204.279488 200.261359,204.629184 200.250622,204.640274 L200.250622,204.640274 L200.20654,204.628047 C200.107041,204.600354 199.851049,204.528582 199.561969,204.443422 C197.922277,203.929591 196.140378,203.175304 194.533352,202.29 C193.472823,201.710586 191.931582,200.759396 191.975389,200.71564 C191.977178,200.713834 191.991426,200.705648 192.016409,200.691943 L192.121841,200.635131 C192.300764,200.539602 192.623882,200.369541 192.98092,200.180032 C195.123807,199.06506 197.178777,197.862576 198.960676,196.67103 C199.13851,196.551498 199.340426,196.412543 199.545084,196.269292 L199.851463,196.053084 C200.306113,195.72961 200.720636,195.422673 200.851965,195.304562 L200.851965,195.304562 L201.026888,195.173394 Z M182.149378,194.484277 C182.055645,194.730111 181.672959,195.531427 181.262092,196.347833 L181.262092,196.347833 L181.098386,196.670929 L180.851792,197.147348 C179.857363,199.052414 178.759823,200.960475 177.326949,203.240938 C177.064614,203.667206 176.813269,204.060859 176.780401,204.104565 C176.725807,204.181138 176.703828,204.159159 176.528955,203.820352 C176.157281,203.087892 175.85109,202.147692 175.687156,201.284065 C175.523121,200.431327 175.555989,198.944731 175.741901,198.026509 C175.823615,197.636397 175.854717,197.474469 175.927004,197.376514 C177.886894,196.398004 179.948761,195.44011 182.149378,194.484277 Z M184.401,193.531 C184.435836,193.592429 184.498191,193.741258 184.552844,193.905175 C184.902539,194.856264 185.689492,196.255499 186.367459,197.151943 C187.110807,198.135849 188.083824,199.185187 188.892555,199.873891 C189.12223,200.065191 189.334961,200.248078 189.406473,200.312829 L189.406473,200.312829 L189.441282,200.346661 C189.45597,200.363987 189.45536,200.379561 189.393672,200.413296 L189.335238,200.442314 C189.156948,200.524928 188.723697,200.688895 187.733726,201.065487 C185.667866,201.852541 183.415792,202.639595 180.835849,203.470354 C180.219558,203.669047 179.603829,203.869478 178.988669,204.071647 C178.890118,204.104514 178.922985,204.049769 179.207198,203.601673 C180.486154,201.601095 182.431936,197.676663 183.525182,194.89997 C183.711044,194.418956 183.896856,193.938043 183.929723,193.828703 C183.944031,193.778627 183.959492,193.739087 183.978789,193.705871 L183.978789,193.705871 L184.401,193.531 Z M193.181566,190.162584 C193.32972,190.232184 193.575004,190.377891 193.975866,190.625741 C196.227739,192.035916 199.288745,193.741342 200.600519,194.309868 C201.004909,194.484741 201.048514,194.419057 200.119505,195.053217 C198.129916,196.408696 195.648274,197.742297 192.609246,199.086938 C192.073689,199.327445 191.625542,199.513206 191.614654,199.513206 C191.592876,199.513206 191.658258,199.240084 191.745619,198.912065 C192.478079,196.189865 192.89356,193.435151 192.915538,191.226933 C192.921242,190.654281 192.923958,190.381589 192.937636,190.247852 L192.937636,190.247852 L193.137381,190.177881 Z M191.519505,190.754733 C191.563239,191.151845 191.519913,193.261093 191.43968,193.872409 C191.242929,195.468496 190.936838,196.955142 190.434148,198.627852 C190.313869,199.032041 190.204379,199.37115 190.182753,199.392928 C190.158776,199.422706 189.702299,199.000428 189.212447,198.51814 L189.212447,198.51814 L188.845036,198.151298 C188.564106,197.866754 188.305771,197.59514 188.149257,197.414278 C187.296518,196.430372 186.629844,195.446517 186.137891,194.48459 C185.922444,194.06307 185.602743,193.296551 185.53547,193.066013 C187.08556,192.43637 188.700847,191.806517 190.390291,191.172339 L190.390291,191.172339 L191.052205,190.925863 Z M187.497837,186.09985 L187.514685,186.106228 C187.568524,186.136066 187.656447,186.266897 187.897811,186.624736 C188.520931,187.553745 189.001945,188.800137 189.122375,189.80582 L189.122375,189.80582 L189.144001,190.02455 L187.646566,190.603964 L187.176179,190.787048 C184.680247,191.762356 182.399324,192.71503 180.824961,193.4351 C180.355037,193.65383 179.535116,194.047282 178.999558,194.309818 C178.463849,194.58294 178.026591,194.79068 178.026591,194.779792 C178.026591,194.768903 178.365398,194.517457 178.780778,194.211266 C182.049575,191.839215 184.880762,189.237344 187.001467,186.635675 C187.231086,186.362301 187.438876,186.110855 187.460553,186.099967 L187.460553,186.099967 L187.497837,186.09985 Z M185.788145,186.515397 C185.816681,186.5439 185.296564,187.153584 184.694764,187.81381 L184.694764,187.81381 L184.450795,188.079339 C184.204683,188.345047 183.955463,188.607522 183.733023,188.832803 C181.623206,190.986477 179.535217,192.670025 176.944335,194.309818 C176.616417,194.517457 176.321316,194.703219 176.288449,194.725198 C176.211875,194.768903 176.310226,194.659513 177.447177,193.424212 C178.168748,192.648046 178.715245,191.99216 179.338365,191.183328 C179.753745,190.647771 179.830318,190.571198 180.431661,190.144677 C180.982624,189.747382 181.7803,189.190742 182.592512,188.632491 L182.592512,188.632491 L182.998755,188.353962 C184.417319,187.38375 185.761891,186.489113 185.788145,186.515397 Z M200.443386,187.800545 C200.538119,188.17317 200.682321,189.397099 200.797563,190.723459 L200.797563,190.723459 L200.835856,191.181517 C200.891237,191.871273 200.936569,192.565473 200.961153,193.161978 C200.983132,193.610125 200.972042,193.905276 200.950265,193.905276 C200.862904,193.905276 199.102782,192.866877 197.845855,192.079823 C197.275466,191.720473 196.437301,191.17365 195.719474,190.695539 L195.719474,190.695539 L195.372385,190.463396 C194.881803,190.133791 194.491332,189.864467 194.355724,189.757905 C196.168424,189.141352 198.100917,188.519683 200.100667,187.906925 L200.100667,187.906925 Z M197.616186,179.825211 C197.637964,179.846988 196.140378,181.956754 195.243884,183.14835 C194.172617,184.569514 192.270439,186.952554 190.958666,188.504733 C190.41222,189.149832 189.942246,189.68544 189.920267,189.69643 C189.887399,189.707319 189.876511,189.543385 189.876511,189.291939 C189.876511,187.969075 189.537704,186.558901 188.9473,185.356517 C188.695854,184.853676 188.652098,184.733397 188.706944,184.678803 C188.856185,184.545178 190.541512,183.570137 192.224538,182.630434 L192.224538,182.630434 L192.662525,182.386673 C193.171088,182.104564 193.667047,181.832791 194.107033,181.59607 C194.458467,181.409022 194.861322,181.198462 195.26589,180.989536 L195.26589,180.989536 L195.611923,180.811443 C195.898701,180.664342 196.179106,180.521741 196.435024,180.392802 L196.865318,180.177446 C197.305342,179.958956 197.603939,179.817108 197.616186,179.825211 Z M199.900977,179.256785 L200.436686,179.606481 L200.852048,179.881698 C201.977219,180.638624 203.226391,181.568142 204.208022,182.394063 C204.830941,182.907742 206.033375,183.99015 206.274083,184.252484 L206.274083,184.252484 L206.405049,184.394742 L205.519796,184.646087 L204.593912,184.904723 C200.026764,186.19036 196.361042,187.373441 192.128384,188.931304 C191.625542,189.117066 191.199173,189.270111 191.166305,189.270111 L191.166305,189.270111 L191.144567,189.270428 C191.130951,189.269116 191.132045,189.259469 191.181466,189.208519 L191.236447,189.153965 C191.361818,189.032586 191.630248,188.785957 192.17219,188.286155 C195.058223,185.629992 197.616085,182.700103 199.518263,179.846937 L199.518263,179.846937 L199.900977,179.256785 Z M183.798405,183.214034 C183.831272,183.214034 184.082718,183.345101 184.366981,183.498247 C185.066574,183.88081 185.689694,184.307129 186.24718,184.766365 C186.268957,184.788143 185.984845,185.017811 185.613171,185.290934 C184.574621,186.034282 183.000513,187.225928 182.082392,187.958388 C181.120163,188.723614 181.087598,188.745442 181.196786,188.581508 C181.918358,187.477374 182.278941,186.854254 182.661706,186.056311 C183.000513,185.34583 183.339319,184.504031 183.579826,183.771571 C183.667238,183.454541 183.776628,183.214034 183.798405,183.214034 Z M216.134464,172.708756 C216.15609,172.730483 215.434721,173.867383 214.975635,174.512281 C214.319849,175.45238 213.357569,176.698822 211.182169,179.431709 C211.06741,179.575993 210.951226,179.722138 210.834622,179.868876 L210.834622,179.868876 L210.484561,180.309598 C209.553081,181.482834 208.6592,182.612813 208.318266,183.05005 C207.880807,183.596597 207.520223,184.055632 207.509132,184.055632 C207.498244,184.055632 207.356339,183.858982 207.203193,183.618526 C205.97878,181.781932 204.513861,180.174956 202.775718,178.732016 C202.4478,178.458641 202.087216,178.16349 201.966937,178.076028 C201.846658,177.988617 201.748207,177.901155 201.748207,177.890266 C201.748207,177.864094 202.937468,177.348014 204.135311,176.851648 L204.49374,176.703838 C204.671903,176.630739 204.847602,176.55923 205.016853,176.491031 C207.487456,175.485248 210.854049,174.282814 213.379498,173.506598 L213.379498,173.506598 L213.560278,173.450068 L213.921765,173.338349 C215.061053,172.988883 216.115483,172.689774 216.134464,172.708756 Z M216.976113,172.927234 C217.019717,172.916396 217.282203,173.047563 217.599233,173.233223 C220.255698,174.752737 222.857266,176.70961 224.912589,178.721077 L224.912589,178.721077 L224.996656,178.804069 L225.191302,178.998805 C225.855425,179.667623 226.920958,180.777784 226.901977,180.787188 C226.901977,180.787188 226.399135,180.830894 225.808933,180.874549 C221.206686,181.224496 215.314644,182.197261 209.651918,183.563679 C209.269355,183.65104 208.930548,183.727613 208.908569,183.727613 C208.899301,183.727613 208.97228,183.649319 209.100886,183.519401 L209.100886,183.519401 L209.247046,183.373262 C209.409777,183.211891 209.619259,183.007785 209.84887,182.787615 C213.17201,179.584653 214.691624,177.562298 216.48426,173.954744 C216.71466,173.463863 216.917654,173.037154 216.96666,172.944129 L216.96666,172.944129 Z M191.210061,175.682049 C191.231329,175.703316 191.08322,176.27374 190.913858,176.872176 L190.913858,176.872176 L190.820261,177.198242 C190.757645,177.413295 190.69578,177.619522 190.641788,177.791866 C190.19344,179.180212 189.439203,180.918305 188.706894,182.230129 C188.531769,182.536068 188.269485,182.984315 188.127379,183.235711 L188.127379,183.235711 L187.854155,183.672969 L187.241974,183.082817 L187.009594,182.862652 C186.400691,182.299863 185.8694,181.92522 185.208781,181.58503 C184.913428,181.432136 184.68396,181.300817 184.68396,181.27909 C184.68396,181.213494 185.735447,180.244003 186.865338,179.246829 L186.865338,179.246829 L187.189457,178.961925 C187.459932,178.72514 187.729599,178.491516 187.985323,178.27288 C189.012833,177.387375 191.177345,175.649282 191.210061,175.682049 Z M192.631225,175.419815 C192.677169,175.4296 192.83723,175.496486 193.067727,175.599791 L193.320085,175.714469 C193.865286,175.965041 194.633991,176.333711 195.276751,176.655016 C196.260606,177.146767 197.736465,177.934023 197.812937,177.999505 C197.823826,178.010394 197.299006,178.283718 196.65431,178.600798 C194.598986,179.628359 192.839066,180.601174 191.002422,181.716247 C190.477753,182.033327 190.040495,182.295813 190.029606,182.295813 C189.98585,182.295813 189.996739,182.251856 190.291941,181.716247 C191.275847,179.923611 192.0628,177.780977 192.511148,175.692937 C192.554702,175.529004 192.598509,175.419815 192.631225,175.419815 Z M184.2202,172.673894 L184.260202,172.677984 C184.547869,172.71753 185.84158,173.028001 186.575149,173.233223 C186.97571,173.345707 187.520829,173.513506 188.076192,173.691621 L188.446478,173.811399 C189.491569,174.152301 190.466713,174.494329 190.466713,174.534209 C190.466713,174.545098 190.171662,174.796544 189.821967,175.102735 C188.389915,176.29428 187.012406,177.551258 185.361624,179.147345 C184.869672,179.617571 184.454393,180.000134 184.432615,180.000134 C184.410636,180.000134 184.399899,179.934399 184.410636,179.846988 C184.662032,178.010394 184.607539,175.649232 184.257692,173.255202 C184.224774,172.949011 184.192058,172.686777 184.202997,172.675889 L184.202997,172.675889 L184.2202,172.673894 Z M203.18031,167.997119 C203.213177,168.029885 203.07097,168.915441 202.939803,169.44006 C202.546301,171.068913 201.485974,173.484972 200.18524,175.758622 C199.95547,176.163113 199.747831,176.491082 199.725802,176.50197 C199.704176,176.512859 199.408974,176.348824 199.070016,176.152073 C197.801998,175.408725 196.359057,174.709133 194.784798,174.053145 C194.347691,173.867383 193.964977,173.714237 193.954038,173.692561 C193.877365,173.626876 197.397457,171.298431 199.255878,170.183408 C200.731686,169.287065 203.136554,167.953312 203.18031,167.997119 Z M204.01107,168.128236 C204.070996,168.128236 204.831609,168.330774 205.651872,168.558315 L206.005197,168.656845 C206.417309,168.772376 206.821439,168.887816 207.137458,168.980974 C209.706512,169.746251 212.657977,170.828406 214.581982,171.702922 L214.581982,171.702922 L215.379874,172.063808 L214.82254,172.194875 L213.949006,172.399743 C209.619731,173.434109 205.856558,174.621803 202.218282,176.097529 C201.901253,176.228697 201.61699,176.338036 201.595364,176.338036 C201.573385,176.338036 201.682725,176.086641 201.824831,175.78045 C202.994549,173.299009 203.748836,170.708178 203.934497,168.499859 C203.945637,168.292119 203.978202,168.128236 204.01107,168.128236 Z M190.805671,165.59215 C190.871255,165.613927 190.980594,165.985652 191.199173,166.805473 C191.603715,168.390671 191.789577,170.16158 191.723993,171.812261 C191.702014,172.271397 191.680237,172.697666 191.658258,172.752462 L191.658258,172.752462 L191.625542,172.86165 L191.057117,172.675889 L190.77464,172.586946 C189.596397,172.219007 187.860084,171.711267 186.35662,171.287542 C185.427258,171.036096 184.673173,170.806528 184.673173,170.784701 C184.673173,170.755143 184.947678,170.464401 185.302423,170.106713 L185.548676,169.860468 C185.590988,169.818485 185.633759,169.776208 185.67672,169.733904 L185.934652,169.481884 C186.190614,169.233802 186.434272,169.003926 186.608066,168.849807 C187.711948,167.876739 190.70722,165.559283 190.805671,165.59215 Z M191.570358,165.700381 C191.722638,165.704315 193.494002,166.00235 195.282777,166.318386 L195.282777,166.318386 L195.767322,166.404366 C196.652095,166.562056 197.50534,166.718022 198.129967,166.83829 C198.43389,166.89731 198.765353,166.962894 199.102232,167.030492 L199.102232,167.030492 L199.507671,167.112287 C200.72329,167.358827 201.894411,167.607906 201.988815,167.647323 C202.016922,167.656656 201.990809,167.686081 201.89413,167.742475 L201.773324,167.808113 C201.627785,167.88325 201.406232,167.987649 201.092321,168.128185 C198.206439,169.429171 196.063704,170.598687 193.932261,172.019951 C193.374725,172.391626 192.904599,172.697666 192.893711,172.697666 C192.882822,172.697666 192.871883,172.380737 192.871883,171.998073 C192.871883,169.921124 192.456453,167.822195 191.691075,166.051286 C191.614603,165.876363 191.549019,165.712429 191.559958,165.701339 L191.559958,165.701339 Z M181.338893,163.788424 C181.393588,163.788424 181.634095,163.821241 181.929095,163.886774 C183.787516,164.302154 187.121746,164.936213 189.25334,165.296999 C189.614126,165.351593 189.898439,165.417328 189.898439,165.439054 C189.898439,165.461033 189.767121,165.537405 189.603086,165.624967 C189.242502,165.810729 187.788471,166.674255 187.307608,167.002274 C186.094084,167.811206 185.00104,168.685722 184.213886,169.472776 C183.896906,169.789856 183.623482,170.05219 183.623482,170.05219 C183.623482,170.05219 183.5581,169.866429 183.503203,169.63671 C183.109903,168.117196 182.28988,165.865222 181.546532,164.280225 L181.546532,164.280225 L181.5026,164.187353 C181.417382,164.005099 181.349829,163.848152 181.330471,163.789834 L181.330471,163.789834 Z M175.974881,162.301578 L176.007413,162.309619 C176.075723,162.329214 176.211825,162.378199 176.37591,162.432894 C176.79129,162.574849 177.326898,162.738884 177.961108,162.913908 C178.440898,163.045879 178.921899,163.173405 179.404049,163.296471 C180.059936,163.460354 180.606433,163.61345 180.617321,163.61345 C180.693995,163.690023 181.798129,167.220701 182.169803,168.576281 C182.311708,169.090213 182.421249,169.52737 182.41031,169.52737 C182.399069,169.53846 182.278992,169.352497 182.136936,169.101102 C180.857879,166.849128 178.835523,164.564438 176.496088,162.727844 C176.190149,162.509417 175.96053,162.312616 175.96053,162.301727 L175.96053,162.301727 L175.974881,162.301578 Z M190.715435,160.450163 L190.729199,160.454194 C190.773005,160.454194 190.827499,160.552544 190.958666,160.847696 C191.33034,161.667517 192.48932,163.875835 192.773281,164.302103 C192.79192,164.332333 192.813498,164.356631 192.819437,164.373392 C190.430582,163.999183 188.449434,163.679302 186.586856,163.370777 C186.618651,163.343486 186.711962,163.281717 186.826594,163.219948 C187.974485,162.58604 189.133162,161.777007 190.160824,160.91338 C190.41227,160.70564 190.641838,160.508889 190.685443,160.476022 C190.696331,160.454194 190.71831,160.443306 190.729199,160.454194 Z M178.070196,157.491739 L178.496717,157.633694 L178.74871,157.716251 C181.212791,158.496787 186.751362,159.545019 189.854633,159.798307 C190.215267,159.831124 190.521509,159.863992 190.532246,159.863992 C190.543135,159.87488 190.237246,160.038865 189.843593,160.224626 C188.291464,161.000792 186.586037,161.95188 185.40538,162.68434 C185.11713,162.864471 184.850972,163.015042 184.7439,163.061321 L184.7439,163.061321 L183.986602,162.932873 C183.887758,162.916053 183.788861,162.899205 183.689866,162.88232 L183.689866,162.88232 L182.650868,161.864267 L182.412568,161.63287 C180.602757,159.876369 179.194095,158.529338 178.638823,158.005419 L178.638823,158.005419 L178.070196,157.491739 Z M177.63309,157.830546 L179.174431,159.754602 L179.322934,159.941339 C180.114089,160.934351 180.879709,161.866927 181.054781,162.082896 C181.2052,162.269011 181.334277,162.426372 181.371751,162.484014 C180.291233,162.295465 179.088408,162.077585 178.201313,161.886448 C177.545426,161.74419 176.288398,161.449089 175.304543,161.110232 C175.200678,161.069819 175.09072,161.029408 174.977531,160.987567 L174.977531,160.987567 L174.976675,160.869524 L174.985162,160.756992 C175.082107,160.0277 175.995581,158.988223 177.490983,157.929048 L177.490983,157.929048 L177.63309,157.830546 Z M188.619533,152.594391 C188.63027,152.605179 188.674026,152.911471 188.717833,153.272005 C188.903494,154.802659 189.242653,156.278215 189.778211,157.874302 C190.182601,159.076837 190.182601,159.011304 189.712627,158.869097 C188.597605,158.563107 183.601856,157.69948 179.983464,157.196638 C179.404049,157.120065 178.912096,157.043593 178.912096,157.032704 C178.885561,157.006169 179.854313,156.483931 180.881361,155.955399 L180.881361,155.955399 L181.244744,155.769394 C181.788871,155.492384 182.318441,155.229749 182.694422,155.054105 C183.256036,154.795784 184.185054,154.392984 185.143081,153.987512 L185.143081,153.987512 L185.622944,153.785209 C187.060388,153.181573 188.436201,152.6251 188.608292,152.594391 L188.608292,152.594391 Z" id="path-7"></path>
        <filter x="-6.4%" y="-4.5%" width="112.7%" height="112.7%" filterUnits="objectBoundingBox" id="filter-8">
            <feOffset dx="0" dy="2" in="SourceAlpha" result="shadowOffsetOuter1"></feOffset>
            <feGaussianBlur stdDeviation="2" in="shadowOffsetOuter1" result="shadowBlurOuter1"></feGaussianBlur>
            <feColorMatrix values="0 0 0 0 0   0 0 0 0 0   0 0 0 0 0  0 0 0 0.5 0" type="matrix" in="shadowBlurOuter1"></feColorMatrix>
        </filter>
    </defs>
    <g id="mssql-managed-service" stroke="none" stroke-width="1" fill="none" fill-rule="evenodd">
        <text id="MSSQL-Server" fill="url(#linearGradient-1)" font-family="Futura-Bold, Futura" font-size="60" font-weight="bold">
            <tspan x="290.76" y="97">MSSQL Server</tspan>
        </text>
        <text id="Adminer" fill="url(#linearGradient-2)" font-family="Futura-Bold, Futura" font-size="60" font-weight="bold">
            <tspan x="290.62" y="202">Adminer</tspan>
        </text>
        <g id="Combined-Shape" fill-rule="nonzero">
            <use fill="black" fill-opacity="1" filter="url(#filter-5)" xlink:href="#path-4"></use>
            <use fill="url(#linearGradient-3)" xlink:href="#path-4"></use>
        </g>
        <g id="Combined-Shape">
            <use fill="black" fill-opacity="1" filter="url(#filter-8)" xlink:href="#path-7"></use>
            <use fill="url(#linearGradient-6)" fill-rule="evenodd" xlink:href="#path-7"></use>
        </g>
    </g>
</svg>