<?xml version="1.0" encoding="UTF-8"?>
<svg width="794px" height="292px" viewBox="0 0 794 292" version="1.1" xmlns="http://www.w3.org/2000/svg" xmlns:xlink="http://www.w3.org/1999/xlink">
    <title>mysql-phpmyadmin</title>
    <defs>
        <linearGradient x1="0.25781251%" y1="49.9712477%" x2="133.446935%" y2="53.2672344%" id="linearGradient-1">
            <stop stop-color="#1A0FC7" offset="0%"></stop>
            <stop stop-color="#53A0FD" offset="47.5247532%"></stop>
            <stop stop-color="#51D4EC" offset="100%"></stop>
        </linearGradient>
        <linearGradient x1="0.25781251%" y1="49.9929048%" x2="133.446935%" y2="50.8062579%" id="linearGradient-2">
            <stop stop-color="#1A0FC7" offset="0%"></stop>
            <stop stop-color="#53A0FD" offset="47.5247532%"></stop>
            <stop stop-color="#51D4EC" offset="100%"></stop>
        </linearGradient>
        <linearGradient x1="92.6698647%" y1="96.6822363%" x2="8.19699352%" y2="8.94420173%" id="linearGradient-3">
            <stop stop-color="#1A0FC7" offset="0%"></stop>
            <stop stop-color="#53A0FD" offset="47.5247532%"></stop>
            <stop stop-color="#51D4EC" offset="100%"></stop>
        </linearGradient>
        <path d="M157.790654,35.7086803 C160.911223,36.0721264 163.198796,38.7936171 163.012717,41.9236877 C162.447357,51.8887621 168.224487,61.1720781 177.385862,65.0258736 C186.189335,68.6991338 197.582063,66.0884981 203.924554,59.0642491 C206.027632,56.7355019 209.586078,56.4646989 212.011428,58.4109963 C218.205056,63.3725502 223.877665,69.0974201 228.868517,75.4351599 C230.7871,77.8668439 230.509171,81.367487 228.221599,83.4586877 C220.95426,90.1250335 218.563751,100.702186 222.271059,109.77171 C225.899978,118.626651 234.553004,124.352312 244.304286,124.352312 C247.320335,124.352312 250.808309,126.600294 251.144833,129.591796 C252.045926,137.650955 252.03484,145.789297 251.097323,153.790654 C250.903791,155.420555 250.042659,156.841153 248.828368,157.789546 C237.479753,143.306467 219.826697,134 200,134 C198.592665,134 197.196281,134.04689 195.812326,134.139193 C193.603321,108.290334 171.921191,88 145.5,88 C117.60962,88 95,110.60962 95,138.5 C95,163.997551 113.896499,185.081589 138.449067,188.511681 C138.152145,190.965428 138,193.464946 138,196 C138,215.607587 147.101907,233.08931 161.311074,244.45052 C160.379813,245.920626 158.813997,246.962348 156.959242,247.167004 C153.065855,247.60013 149.171677,247.813922 145.27829,247.813922 C141.176654,247.813922 137.086104,247.577167 133.0201,247.102866 C129.912201,246.744963 127.613543,244.018721 127.798037,240.887067 C128.363398,230.91645 122.586268,221.633926 113.401929,217.792007 C104.633297,214.111621 93.2413606,216.717506 86.8751152,223.759175 C84.7617435,226.087922 81.2143829,226.365059 78.7763643,224.40055 C72.5605651,219.397822 66.8871636,213.667409 61.9430297,207.370052 C60.0244461,204.938368 60.313461,201.443268 62.589948,199.352067 C69.8683717,192.680178 72.2596729,182.109361 68.5396952,173.039836 C64.8078401,163.958435 55.9117249,158.221688 46.645829,158.458442 C43.5965242,158.458442 40.0024461,156.230257 39.6682974,153.226086 C38.7672045,145.166926 38.77829,137.021457 39.714223,129.027227 C40.0832119,125.95971 42.4863903,123.6951 45.860342,123.80358 C56.2577509,123.80358 65.3399442,118.166602 69.0132045,109.420141 C72.8606654,100.246097 70.4693643,89.5770929 63.0634572,82.8703643 C60.7529219,80.7680781 60.4639071,77.2262602 62.4284164,74.7826989 C67.4651933,68.4972193 73.2652862,62.7675985 79.6426171,57.7640781 C82.0798439,55.8644981 85.580487,56.1463866 87.6724796,58.4395019 C94.0023011,65.401197 105.315056,67.9896617 114.013216,64.4367584 C123.083532,60.7215316 128.930342,51.600539 128.583524,41.7336506 C128.479796,38.643171 130.767368,35.9858178 133.852305,35.6453346 C141.824364,34.7608699 149.842349,34.7893755 157.790654,35.7086803 Z" id="path-4"></path>
        <filter x="-3.3%" y="-2.3%" width="106.6%" height="106.6%" filterUnits="objectBoundingBox" id="filter-5">
            <feOffset dx="0" dy="2" in="SourceAlpha" result="shadowOffsetOuter1"></feOffset>
            <feGaussianBlur stdDeviation="2" in="shadowOffsetOuter1" result="shadowBlurOuter1"></feGaussianBlur>
            <feColorMatrix values="0 0 0 0 0   0 0 0 0 0   0 0 0 0 0  0 0 0 0.5 0" type="matrix" in="shadowBlurOuter1"></feColorMatrix>
        </filter>
        <linearGradient x1="80.8786136%" y1="91.4956164%" x2="-69.457174%" y2="-68.1707838%" id="linearGradient-6">
            <stop stop-color="#1A0FC7" offset="0%"></stop>
            <stop stop-color="#53A0FD" offset="47.5247532%"></stop>
            <stop stop-color="#51D4EC" offset="100%"></stop>
        </linearGradient>
        <path d="M200.5,139 C232.256373,139 258,164.743627 258,196.5 C258,228.256373 232.256373,254 200.5,254 C168.743627,254 143,228.256373 143,196.5 C143,164.743627 168.743627,139 200.5,139 Z M173.812477,166 C171.279932,166 170.12318,167.024628 170.009383,169.406693 C170.003109,169.537904 170,169.673234 170,169.812738 C170,171.113396 171.058564,172.633631 172.784912,175.007746 C173.628785,176.168176 175.041197,178.110406 175.083373,178.708611 C175.083373,180.145946 176.235478,183.805733 177.748035,186.88038 C177.886562,187.161981 178.028113,187.438676 178.172128,187.708503 C178.47358,188.273081 178.785622,188.806691 179.102885,189.28975 C179.373504,189.701857 179.647769,190.076974 179.922209,190.402788 C179.852751,190.550523 179.783173,190.695636 179.714906,190.839677 C178.640145,193.104545 177.624954,195.244077 177.624954,200.312567 C177.624954,200.676625 177.634465,201.031215 177.652963,201.376287 L177.652963,201.376287 L177.674483,201.718353 C177.733564,202.537513 177.844178,203.300908 177.999012,204.008411 C178.062756,204.299594 178.133984,204.581193 178.212226,204.853322 C178.256627,205.007758 178.303274,205.159087 178.352329,205.308077 C178.516483,205.806535 178.704961,206.269753 178.914199,206.697541 C180.136248,209.19572 182.064979,210.479365 183.979127,210.479365 L183.979127,210.479365 L184.19208,210.470213 C184.67989,210.428427 185.103157,210.242672 185.470192,209.94488 C186.47076,209.132538 187.052726,207.48637 187.383227,205.651507 L187.383227,205.651507 L187.574117,206.034192 C187.645358,206.175337 187.718291,206.317964 187.793276,206.46264 C187.895342,206.65949 188.000577,206.858791 188.108775,207.059667 C188.187966,207.206727 188.268852,207.354863 188.351494,207.504054 C190.109606,210.676944 192.636575,214.259236 195.953913,216.601267 C196.146912,216.736323 196.364548,216.810614 196.583024,216.828152 C197.016917,216.863061 197.457383,216.675492 197.726287,216.296049 C198.130889,215.721434 197.994354,214.929625 197.42093,214.523832 C196.610052,213.9515 195.848237,213.28724 195.13648,212.564171 C194.994882,212.420329 194.855251,212.274149 194.717743,212.126037 C192.632176,209.879861 190.999392,207.156165 189.838453,204.852281 C189.703978,204.585416 189.575828,204.324174 189.453967,204.069727 C189.05489,203.23671 188.724037,202.479019 188.46245,201.845786 C188.301012,201.454929 188.165944,201.111409 188.057316,200.826173 C187.844571,200.267738 187.73431,199.935979 187.728363,199.917906 C187.694451,199.813999 187.647821,199.717019 187.591005,199.628713 C187.548087,199.561926 187.499238,199.499794 187.445144,199.442648 C187.243577,199.229663 186.972305,199.089668 186.681333,199.051718 L186.681333,199.051718 L186.562278,199.041819 C186.48242,199.039161 186.401617,199.044249 186.320856,199.057656 C185.704069,199.155709 185.249788,199.68815 185.249788,200.312329 C185.249788,203.802203 184.58463,207.520351 183.978923,207.937344 L183.978923,207.937344 L183.85383,207.932996 C183.767586,207.926807 183.681125,207.914259 183.594649,207.895326 C183.3524,207.842683 183.110176,207.741024 182.872036,207.592522 C182.394285,207.294149 181.93622,206.807524 181.537436,206.153732 C181.039428,205.337481 180.633379,204.260336 180.39587,202.962799 C180.248989,202.160493 180.166508,201.273883 180.166508,200.3125 C180.166508,195.816133 180.980596,194.101104 182.010686,191.92917 C182.203098,191.523377 182.401586,191.106385 182.599002,190.662109 C182.75039,190.320414 182.741282,189.939535 182.592571,189.614909 C182.518255,189.452693 182.409056,189.304587 182.267597,189.182547 C181.12609,188.199581 179.73789,185.377127 178.778509,182.859583 C178.541523,182.237688 178.330696,181.634383 178.156354,181.08239 C177.825259,180.034276 177.624954,179.169348 177.624954,178.708279 C177.624954,178.249322 177.493149,177.763024 177.246298,177.220735 C176.79423,176.22785 175.956894,175.049343 174.840088,173.513484 C174.778177,173.428349 174.713206,173.339006 174.646358,173.246685 C173.796749,172.075676 172.5807,170.366804 172.541612,169.812388 C172.541612,169.151533 172.541612,168.834322 172.720305,168.682061 L172.720305,168.682061 L172.764813,168.650004 C172.940173,168.541746 173.253316,168.541746 173.8125,168.541746 C174.84259,168.541746 178.199615,170.40451 180.718963,172.132049 C180.891479,172.249998 181.091277,172.324461 181.300965,172.34674 C185.353502,172.786279 188.871587,173.858063 191.936549,175.358877 C194.18108,176.458074 196.182695,177.787457 197.972899,179.266981 C198.922448,180.051655 199.812691,180.878639 200.648705,181.736348 C200.722252,181.811808 200.795375,181.887503 200.868067,181.963424 C201.090695,182.195901 201.309393,182.430512 201.524601,182.667411 C201.950448,183.136191 202.361222,183.612439 202.75785,184.094545 C202.953843,184.332793 203.146329,184.572424 203.335265,184.813107 C203.694632,185.270797 204.041648,185.732692 204.376916,186.197287 L204.376916,186.197287 L204.620989,186.538786 C205.483058,187.757296 206.265757,188.991772 206.97983,190.215428 C207.858634,191.721166 208.633581,193.210345 209.325029,194.633015 C209.752019,195.511743 210.147055,196.365021 210.515078,197.181845 C210.922292,198.085272 211.29615,198.943011 211.643089,199.739023 C211.924955,200.385746 212.190195,200.994319 212.44156,201.552956 L212.44156,201.552956 L212.582383,201.863749 C212.675304,202.067268 212.766327,202.263312 212.85561,202.451156 C212.910744,202.567312 212.965208,202.680393 213.018976,202.790488 C213.109942,202.976126 213.199097,203.152557 213.286609,203.319058 L213.286609,203.319058 L213.359682,203.456145 C213.362104,203.460655 213.364552,203.465148 213.367026,203.469623 L213.430911,203.573389 L213.430911,203.573389 L213.513961,203.681564 L213.607919,203.779925 C213.739534,203.90387 213.897091,203.999222 214.070832,204.058043 L214.070832,204.058043 L214.153,204.086 L214.66399,204.266034 C216.625944,204.977569 218.425657,205.862121 220.035326,206.803934 L220.512497,207.08808 C221.428972,207.643384 222.279775,208.214201 223.059038,208.777389 C224.926845,210.127112 226.385826,211.433926 227.359668,212.381655 C225.195253,212.988559 221.739005,213.9119 219.353705,214.308997 C219.003672,214.367376 218.693431,214.569677 218.499829,214.866218 C218.305035,215.162879 218.242963,215.526497 218.329816,215.870218 C218.487956,216.503796 218.737014,217.097748 219.055927,217.658113 C219.193586,217.900158 219.344228,218.135908 219.506245,218.366289 C219.721402,218.671801 219.956441,218.96704 220.206936,219.252472 C220.358664,219.425519 220.516188,219.595216 220.678476,219.76185 C220.931197,220.021048 221.195784,220.272734 221.468868,220.517838 L221.468868,220.517838 L221.729712,220.7477 C222.035094,221.012391 222.349442,221.269499 222.667977,221.520128 C223.35543,222.06077 224.06383,222.571893 224.748479,223.06585 C226.365564,224.232477 227.891985,225.33453 228.691295,226.463866 C228.911889,226.775009 229.246292,226.956621 229.597693,226.993138 L229.597693,226.993138 L229.730437,227.000119 L229.857341,226.993681 L229.857341,226.993681 L229.983664,226.974734 C230.151451,226.940666 230.314843,226.871993 230.463867,226.766842 C230.996589,226.388989 231.151649,225.675413 230.843016,225.116817 C230.820049,225.075123 230.794507,225.034284 230.766354,224.994502 L230.766354,224.994502 L230.691673,224.890753 C230.341574,224.414885 229.924174,223.964797 229.458797,223.529922 C229.37574,223.45226 229.291145,223.375063 229.205372,223.298301 C228.96668,223.085231 228.716969,222.875259 228.458656,222.667292 C228.08673,222.36761 227.696728,222.071551 227.295487,221.775087 L227.295487,221.775087 L226.947123,221.519312 C226.713007,221.348514 226.475825,221.177201 226.236877,221.004605 C225.328717,220.349921 224.409027,219.686424 223.585974,218.993953 C222.736039,218.278715 221.989584,217.532699 221.466227,216.733824 L221.466227,216.733824 L221.332215,216.519437 L221.332215,216.519437 L221.448026,216.495112 L221.331904,216.519298 C221.510925,216.481902 221.692203,216.443063 221.874424,216.40336 C221.918403,216.393728 221.962479,216.384025 222.007139,216.373934 C222.394254,216.28828 222.788117,216.197394 223.183169,216.103284 L223.183169,216.103284 L223.721253,215.973346 C223.781117,215.958701 223.840951,215.944003 223.900338,215.929578 L223.900338,215.929578 L223.998088,215.90542 L224.548094,215.767629 C224.574915,215.760835 224.601711,215.754037 224.628534,215.746997 C224.682251,215.733349 224.73586,215.719686 224.789349,215.706013 L224.789349,215.706013 L224.82074,215.698211 C225.092388,215.628695 225.360828,215.558962 225.624146,215.489705 L225.624146,215.489705 L225.82589,215.436241 C225.858701,215.427557 225.891423,215.418882 225.923893,215.410493 C226.170293,215.345077 226.411399,215.280328 226.645568,215.216841 L226.645568,215.216841 L226.805926,215.173032 C226.884548,215.151622 226.962321,215.130373 227.039181,215.109311 L227.039181,215.109311 L227.127287,215.085375 C227.284071,215.04231 227.436879,215.000069 227.585141,214.958857 L227.585141,214.958857 L227.704504,214.925388 C227.717715,214.921705 227.730886,214.91803 227.74379,214.91467 C228.698013,214.648358 229.446315,214.429873 229.827902,214.317047 C229.872428,214.30391 229.911888,214.292237 229.946453,214.282245 C230.024757,214.259038 230.075011,214.244034 230.094055,214.238371 C230.50366,214.115537 230.824982,213.794096 230.946625,213.38449 C231.069459,212.974885 230.977602,212.530609 230.702148,212.202973 C230.658127,212.150736 230.436909,211.890686 230.049876,211.479859 L230.049876,211.479859 L229.949306,211.373895 C229.620885,211.028859 229.189007,210.59219 228.659177,210.091914 C228.586976,210.023768 228.512957,209.954446 228.43698,209.884053 C228.350376,209.803609 228.26142,209.721726 228.170204,209.638406 C226.571761,208.181318 224.25887,206.315593 221.345806,204.615365 C221.123941,204.48587 220.898596,204.357335 220.669957,204.230085 C220.450662,204.108044 220.228216,203.98712 220.00236,203.867371 C219.739734,203.72813 219.472897,203.590706 219.20195,203.455483 C218.004773,202.857948 216.726763,202.302759 215.373992,201.820344 C215.12333,201.318292 214.855102,200.72983 214.563083,200.070486 C214.515375,199.962696 214.467033,199.853004 214.418032,199.741041 C214.346585,199.578434 214.273735,199.411926 214.199434,199.242253 C214.125339,199.072609 214.049766,198.899295 213.972632,198.722513 L213.972632,198.722513 L213.859163,198.461781 C213.681491,198.054348 213.494957,197.627555 213.298709,197.184324 C213.156234,196.862229 213.00863,196.531229 212.855564,196.192265 L212.855564,196.192265 L212.648778,195.736917 L212.577112,195.579967 C212.434794,195.269708 212.28798,194.953567 212.136435,194.632211 L212.136435,194.632211 L211.98305,194.308959 C211.784119,193.891412 211.577238,193.465613 211.361728,193.032303 C211.24634,192.800481 211.128526,192.566696 211.008434,192.33191 C210.800753,191.925346 210.585612,191.513584 210.362861,191.097936 C210.262193,190.910215 210.159925,190.721664 210.055832,190.532297 C209.89957,190.24764 209.739605,189.961339 209.575754,189.673411 C209.179295,188.977308 208.760415,188.273626 208.317368,187.567535 C207.364152,186.047966 206.299021,184.516357 205.104472,183.022294 L205.104472,183.022294 L204.818117,182.667877 C204.432749,182.196057 204.034226,181.728409 203.62199,181.266514 L203.62199,181.266514 L203.310031,180.920986 C203.148237,180.743829 202.984378,180.567588 202.818191,180.392109 C202.519401,180.076627 202.213816,179.764409 201.901055,179.455775 C200.621439,178.19312 199.224794,176.99408 197.697723,175.89479 C197.36695,175.65667 197.030079,175.423248 196.686817,175.194673 C192.67624,172.525357 187.814563,170.548476 181.892902,169.855875 C181.729204,169.7453 181.538974,169.618282 181.327001,169.479214 L181.327001,169.479214 L181.108025,169.336524 C180.852077,169.170437 180.570275,168.990767 180.269523,168.80367 C179.806145,168.515701 179.29791,168.210647 178.769717,167.91176 C178.330257,167.662927 177.877365,167.418468 177.425767,167.191892 L177.425767,167.191892 L177.115525,167.038813 C175.876971,166.440021 174.673763,166 173.812477,166 Z M182.708415,174.89589 C182.005847,174.895771 181.437431,175.464192 181.437431,176.166647 C181.437431,176.245394 181.444574,176.322457 181.458176,176.39666 C181.566172,176.989224 182.084393,177.437738 182.708373,177.437738 L182.708373,177.437738 L182.859933,177.446504 C182.959368,177.458367 183.055239,177.481751 183.146051,177.515294 C183.320774,177.579509 183.477569,177.681041 183.606738,177.810202 L183.606738,177.810202 L183.688718,177.900261 C183.730827,177.95127 183.769038,178.005613 183.802602,178.062418 C183.830459,178.10944 183.855372,178.158407 183.87744,178.209873 C183.942909,178.362985 183.979161,178.531503 183.979161,178.708398 C183.979161,179.366949 184.478746,179.907697 185.119994,179.972718 L185.119994,179.972718 L185.250119,179.979484 L185.380059,179.972718 C185.465559,179.964049 185.54854,179.946922 185.628155,179.922186 L185.628155,179.922186 L185.74504,179.879693 C186.201256,179.686897 186.520992,179.235451 186.520992,178.708611 C186.520992,178.443331 186.493763,178.184295 186.442055,177.934909 C186.346857,177.474677 186.168454,177.04453 185.923083,176.660635 C185.674362,176.271577 185.356992,175.930452 184.988184,175.65447 L184.988184,175.65447 L184.838588,175.547859 C184.596967,175.384489 184.335696,175.248073 184.058441,175.142888 C183.87085,175.07164 183.676222,175.014792 183.475917,174.9737 L183.475917,174.9737 L183.288272,174.939896 C183.099157,174.910921 182.90551,174.89589 182.708415,174.89589 Z" id="path-7"></path>
        <filter x="-6.1%" y="-4.3%" width="112.2%" height="112.2%" filterUnits="objectBoundingBox" id="filter-8">
            <feOffset dx="0" dy="2" in="SourceAlpha" result="shadowOffsetOuter1"></feOffset>
            <feGaussianBlur stdDeviation="2" in="shadowOffsetOuter1" result="shadowBlurOuter1"></feGaussianBlur>
            <feColorMatrix values="0 0 0 0 0   0 0 0 0 0   0 0 0 0 0  0 0 0 0.5 0" type="matrix" in="shadowBlurOuter1"></feColorMatrix>
        </filter>
    </defs>
    <g id="mysql-phpmyadmin" stroke="none" stroke-width="1" fill="none" fill-rule="evenodd">
        <text id="MySQL" fill="url(#linearGradient-1)" font-family="Futura-Bold, Futura" font-size="60" font-weight="bold">
            <tspan x="292.44" y="113">MySQL</tspan>
        </text>
        <text id="PHP-MyAdmin" fill="url(#linearGradient-2)" font-family="Futura-Bold, Futura" font-size="60" font-weight="bold">
            <tspan x="292.22" y="208">PHP MyAdmin</tspan>
        </text>
        <g id="Combined-Shape" fill-rule="nonzero">
            <use fill="black" fill-opacity="1" filter="url(#filter-5)" xlink:href="#path-4"></use>
            <use fill="url(#linearGradient-3)" xlink:href="#path-4"></use>
        </g>
        <g id="Combined-Shape">
            <use fill="black" fill-opacity="1" filter="url(#filter-8)" xlink:href="#path-7"></use>
            <use fill="url(#linearGradient-6)" fill-rule="evenodd" xlink:href="#path-7"></use>
        </g>
    </g>
</svg>