<?xml version="1.0" encoding="UTF-8"?>
<svg width="794px" height="209px" viewBox="0 0 794 209" version="1.1" xmlns="http://www.w3.org/2000/svg" xmlns:xlink="http://www.w3.org/1999/xlink">
    <title>node-js-banner copy</title>
    <defs>
        <linearGradient x1="0%" y1="36.4587672%" x2="100%" y2="63.1593908%" id="linearGradient-1">
            <stop stop-color="#1A0FC7" offset="0%"></stop>
            <stop stop-color="#2979FF" offset="100%"></stop>
        </linearGradient>
        <path d="M293.656305,123.060974 C301.632666,123.060974 309.008622,125.643706 315.000897,130.022209 L315.001219,150.573165 C311.537214,142.062547 303.213774,136.066335 293.496403,136.066335 C280.670205,136.066335 270.272518,146.512941 270.272518,159.399483 C270.272518,169.157481 276.234427,177.516448 284.698164,181.000025 L264.252721,180.999661 C259.897133,174.980178 257.328058,167.571589 257.328058,159.560138 C257.328058,139.402206 273.592768,123.060974 293.656305,123.060974 Z M298.669583,28 C307.688639,28 315,36.8799133 315,47.8338843 L315.000312,111.865176 C314.496801,111.722796 314.002485,111.550986 313.520561,111.348962 C307.784091,108.924583 304.166693,103.084554 304.520698,96.8156393 C304.637213,94.8465475 303.204831,93.1344886 301.250861,92.9058488 C296.273965,92.3275246 291.253438,92.3095921 286.261667,92.8659988 C284.330009,93.0801929 282.897627,94.7519035 282.962577,96.6960891 C283.17974,102.903236 279.518712,108.641149 273.839259,110.978356 C268.392835,113.213447 261.309261,111.585073 257.345792,107.20555 C256.035873,105.762977 253.843917,105.585644 252.317828,106.780649 C248.32461,109.928306 244.692834,113.532746 241.539015,117.486869 C240.308921,119.024086 240.48989,121.252203 241.936651,122.574728 C246.57392,126.793854 248.071253,133.505603 245.662134,139.27689 C243.362092,144.779189 237.675202,148.325348 231.164779,148.325348 C229.052152,148.257104 227.547382,149.681745 227.316337,151.611485 C226.730294,156.640564 226.723353,161.764785 227.28758,166.834711 C227.49681,168.724601 229.747271,170.126327 231.656618,170.126327 C237.458535,169.977388 243.02891,173.58631 245.365642,179.299316 C245.593755,179.858072 245.785168,180.425886 245.940601,180.999568 L37.3304172,181 C28.3113611,181 21,172.120087 21,161.166116 L21,47.8338843 C21,36.8799133 28.3113611,28 37.3304172,28 L298.669583,28 Z M138.000293,111.000596 L137.999707,111 L137.757439,111.005746 C137.113811,111.036594 136.491335,111.193237 135.933243,111.514174 L135.933243,111.514174 L116.06705,123.173945 L115.878025,123.291849 C114.705255,124.069419 114,125.424245 114,126.86134 L114,126.86134 L114,150.13858 L114.005826,150.364551 C114.079405,151.790436 114.845726,153.107651 116.06705,153.824783 L116.06705,153.824783 L121.255194,156.868716 L121.528824,157.003783 C123.666937,158.043168 124.600436,158.107586 125.600325,158.111346 L125.600325,158.111346 L125.852416,158.111551 L126.10438,158.107992 C129.680123,158.006057 131.715312,155.719083 131.715312,151.810389 L131.715312,151.810389 L131.715312,128.832836 L131.70725,128.738333 C131.659602,128.463977 131.407247,128.275765 131.124977,128.275765 L131.124977,128.275765 L128.636427,128.275765 L128.542403,128.282596 C128.265947,128.32316 128.046092,128.540597 128.046092,128.832836 L128.046092,128.832836 L128.046092,151.810389 L128.043152,151.934028 C127.960954,153.664055 126.160201,155.331266 123.280035,153.867681 L123.280035,153.867681 L117.880849,150.652754 L117.801969,150.602729 C117.650855,150.493286 117.54318,150.329065 117.54318,150.13858 L117.54318,150.13858 L117.54318,126.860744 L117.551763,126.766352 C117.585532,126.578421 117.715531,126.399681 117.880849,126.303673 L117.880849,126.303673 L137.704833,114.687395 L137.799215,114.642273 C137.961193,114.582111 138.143206,114.597151 138.295167,114.687395 L138.295167,114.687395 L158.119738,126.304268 L158.197879,126.359579 C158.348009,126.481257 158.457407,126.666344 158.457407,126.861936 L158.457407,126.861936 L158.457407,150.139176 L158.450762,150.23438 C158.424386,150.423979 158.320731,150.604324 158.161946,150.696247 L158.161946,150.696247 L138.295167,162.31312 L138.205314,162.356067 C138.048348,162.41333 137.859695,162.399014 137.704833,162.31312 L137.704833,162.31312 L132.601107,159.226886 L132.50305,159.185135 C132.368486,159.143384 132.221414,159.157301 132.095189,159.226886 C130.686476,160.038363 130.4215,160.132499 129.100136,160.598413 C128.774777,160.713998 128.280585,160.893333 129.26897,161.456362 L129.26897,161.456362 L135.933243,165.442252 L136.145739,165.558519 C136.720251,165.851037 137.355473,166.002775 138.000293,166 C138.725629,166.004516 139.439018,165.812203 140.066757,165.442848 L140.066757,165.442848 L159.933536,153.825379 L160.122557,153.706587 C161.295274,152.923993 162,151.575139 162,150.139176 L162,150.139176 L162,126.86134 L161.994178,126.635288 C161.920652,125.208946 161.15486,123.892269 159.933536,123.175136 L159.933536,123.175136 L140.066757,111.515365 L139.855948,111.402463 C139.285311,111.12158 138.649055,111.000596 138.000293,111.000596 L138.000293,111.000596 Z M142.97898,128 C137.159717,128 133.69409,130.41034 133.69409,134.41877 C133.69409,138.766419 137.133787,139.961319 142.719073,140.498906 C149.400672,141.135677 149.921089,142.09054 149.921089,143.370538 C149.921089,145.590727 148.102343,146.537374 143.803928,146.537374 C138.402567,146.537374 137.215799,145.225097 136.818401,142.610521 C136.771365,142.32999 136.548846,142.103452 136.253963,142.103452 L136.253963,142.103452 L133.607254,142.103452 L133.511121,142.111428 C133.228109,142.158596 133,142.40875 133,142.695033 C133,146.042042 134.870606,150 143.803928,150 C150.270245,150 154,147.529798 154,143.201515 C154,138.91138 150.98725,137.759323 144.714507,136.952356 C138.376637,136.135997 137.772398,135.736328 137.772398,134.292002 C137.772398,133.09945 138.284976,131.504295 142.97898,131.504295 C147.172467,131.504295 148.722261,132.384624 149.357254,135.136531 C149.412733,135.394761 149.646709,135.600758 149.921089,135.600758 L149.921089,135.600758 L152.568401,135.600758 L152.66519,135.589715 C152.792609,135.561131 152.911768,135.480563 153.001981,135.389479 C153.112939,135.267993 153.191334,135.131249 153.175655,134.967508 C152.765593,130.228992 149.518866,128 142.97898,128 Z M174.690726,46 C174.488445,46 174.289686,46.0531494 174.114023,46.1533543 C173.758895,46.3609539 173.539845,46.7404246 173.537853,47.1514804 L173.537853,47.1514804 L173.537853,76.5148455 L173.531606,76.6213096 C173.502535,76.865695 173.372584,77.0791922 173.153918,77.2056917 C172.904576,77.3507929 172.596408,77.3507929 172.347066,77.2056917 L172.347066,77.2056917 L167.544405,74.4423068 L167.377062,74.3545088 C166.697105,74.0325828 165.897372,74.0618488 165.239192,74.4423068 L165.239192,74.4423068 L146.067527,85.4963799 L145.918324,85.5906775 C145.290895,86.0234638 144.915188,86.7632234 144.915188,87.531042 L144.915188,87.531042 L144.915188,109.639722 L144.921808,109.815521 C144.978939,110.571852 145.402602,111.251531 146.067527,111.63544 L146.067527,111.63544 L165.239192,122.690047 L165.406481,122.778081 C166.08628,123.100872 166.8865,123.071528 167.544405,122.690047 L167.544405,122.690047 L186.716069,111.63544 L186.864903,111.542147 C187.491106,111.115539 187.870236,110.404451 187.868946,109.639722 L187.868946,109.639722 L187.868946,54.5213959 L187.862734,54.3537592 C187.805986,53.5763668 187.363999,52.873499 186.678156,52.4867337 L186.678156,52.4867337 L175.266896,46.1149443 L175.157353,46.0644503 C175.008554,46.0089442 174.84964,45.9980644 174.690726,46 Z M109.441028,74 C109.042274,74 108.647785,74.1017253 108.290612,74.3083759 L108.290612,74.3083759 L89.1509493,85.363645 L89.0018888,85.4580867 C88.3750804,85.8917435 88,86.6354407 88,87.4049884 L88,87.4049884 L88,109.592084 L88.0066097,109.768704 C88.0636476,110.528447 88.4866384,111.209648 89.1509493,111.595416 L89.1509493,111.595416 L108.290612,122.688696 L108.457606,122.777114 C109.136223,123.101312 109.935254,123.071839 110.591978,122.688696 L110.591978,122.688696 L129.731641,111.595416 L129.880215,111.501743 C130.505316,111.073408 130.883627,110.3596 130.882062,109.592084 L130.882062,109.592084 L130.882062,87.4049884 L130.87546,87.2277909 C130.818487,86.4631764 130.395952,85.7479218 129.731641,85.363645 L129.731641,85.363645 L110.591978,74.3083759 L110.4133,74.2150097 C110.109568,74.0729733 109.777708,73.9992229 109.441028,74 Z M223.637929,73.8661571 C223.237441,73.8661571 222.844962,73.9675167 222.48559,74.1734369 L222.48559,74.1734369 L203.313925,85.2280435 L203.165059,85.3213057 C202.538719,85.7477971 202.159552,86.4589782 202.161047,87.2237622 L202.161047,87.2237622 L202.161047,109.332442 L202.168145,109.509363 C202.229316,110.269989 202.681458,110.946766 203.351838,111.328694 L203.351838,111.328694 L222.370249,122.152841 L222.534912,122.238585 C223.203484,122.555116 223.984403,122.553109 224.637015,122.190184 L224.637015,122.190184 L236.163082,115.780518 L236.280444,115.706615 C236.58077,115.493167 236.776275,115.152799 236.777699,114.782925 C236.781707,114.370272 236.561045,113.98801 236.201529,113.784799 L236.201529,113.784799 L216.914524,102.730192 L216.798375,102.654041 C216.500316,102.431718 216.299907,102.061633 216.299907,101.693656 L216.299907,101.693656 L216.299907,94.7851941 L216.309189,94.6488543 C216.358125,94.2897172 216.596032,93.9701082 216.914524,93.787068 L216.914524,93.787068 L222.907972,90.3323034 L223.029683,90.2712118 C223.361241,90.1286646 223.743884,90.1490284 224.060845,90.3323034 L224.060845,90.3323034 L230.053759,93.787068 L230.167695,93.8617486 C230.457347,94.0771767 230.631145,94.4186194 230.630463,94.7846606 L230.630463,94.7846606 L230.630463,100.235144 L230.638167,100.371046 C230.679927,100.72933 230.888972,101.05042 231.206633,101.232737 C231.566005,101.440257 232.000669,101.440791 232.358973,101.232737 L232.358973,101.232737 L243.847126,94.5552677 L243.995717,94.4616913 C244.620937,94.0339863 245,93.3234559 245,92.5590155 L245,92.5590155 L245,87.2242956 L244.993357,87.0487921 C244.936033,86.2935422 244.51106,85.6124481 243.847126,85.2280435 L243.847126,85.2280435 L224.790803,74.1734369 L224.611871,74.0803137 C224.307676,73.9386902 223.97518,73.8653941 223.637929,73.8666905 Z M51.5922279,73.5978207 L51.3615464,73.5978207 L51.1806788,73.6095101 C50.8821169,73.6370605 50.5977698,73.7078937 50.3245475,73.8661571 L50.3245475,73.8661571 L31.1523494,84.9207636 L31.0034271,85.0139598 C30.3768701,85.4402047 29.9977883,86.1516359 30,86.9164823 L30,86.9164823 L30.0384566,116.587661 L30.0462613,116.723842 C30.0876558,117.083026 30.2918622,117.406007 30.6146265,117.585253 C30.9693635,117.798191 31.412763,117.798191 31.7675001,117.585253 L31.7675001,117.585253 L43.1397791,111.060357 L43.2902334,110.963928 C43.9249305,110.525862 44.3305657,109.829942 44.3305657,109.064105 L44.3305657,109.064105 L44.3305657,95.2077039 L44.3371712,95.031662 C44.394178,94.2742259 44.817026,93.5928842 45.4834393,93.2114517 L45.4834393,93.2114517 L50.3240135,90.4096569 L50.5028208,90.3161574 C50.8068707,90.173996 51.1395177,90.1006148 51.4768872,90.102377 C51.8720361,90.102377 52.2778647,90.2010693 52.6292269,90.4096569 L52.6292269,90.4096569 L57.470335,93.2114517 L57.6194016,93.3045817 C58.2465601,93.7305928 58.6259207,94.4424677 58.6232087,95.2077039 L58.6232087,95.2077039 L58.6232087,109.063572 L58.6303973,109.239053 C58.6923271,109.993653 59.1495654,110.667493 59.8139953,111.059824 L59.8139953,111.059824 L71.1862742,117.585253 L71.3075605,117.648346 C71.6384499,117.795562 72.0238261,117.774531 72.3391479,117.585253 C72.6957551,117.379057 72.9154855,116.99876 72.9158517,116.587127 L72.9158517,116.587127 L72.9532669,86.9164823 L72.947502,86.7408997 C72.893537,85.9850451 72.4662504,85.3002379 71.800891,84.9207636 L71.800891,84.9207636 L52.6292269,73.8661571 L52.4654171,73.7813745 C52.1894754,73.6564285 51.8988243,73.6102683 51.5922279,73.5978207 L51.5922279,73.5978207 Z M166.315,90.371 L166.419061,90.3795256 C166.490259,90.3906297 166.562407,90.4130355 166.622213,90.4475334 L166.622213,90.4475334 L173.192365,94.2474543 L173.265559,94.2967251 C173.405,94.4051334 173.49994,94.5702049 173.49994,94.7462506 L173.49994,94.7462506 L173.49994,102.346093 L173.492318,102.433355 C173.462278,102.605033 173.346152,102.757171 173.192365,102.845422 L173.192365,102.845422 L166.622213,106.645343 L166.529942,106.687778 C166.371774,106.744358 166.194817,106.730213 166.046043,106.645343 L166.046043,106.645343 L159.476425,102.845422 L159.403062,102.79601 C159.263398,102.687471 159.16885,102.523053 159.16885,102.346093 L159.16885,102.346093 L159.16885,94.7462506 L159.176528,94.6592418 C159.206774,94.4881046 159.323553,94.3366204 159.476425,94.2474543 L159.476425,94.2474543 L166.046043,90.4480668 L166.101617,90.418164 C166.139746,90.400618 166.179879,90.3878946 166.221076,90.3802597 L166.221076,90.3802597 L166.315,90.371 Z M223.895712,93.7993775 C223.819479,93.7993775 223.734717,93.7993775 223.665948,93.8379237 L223.665948,93.8379237 L219.98387,95.9949058 L219.918462,96.0393835 C219.817182,96.122235 219.755846,96.2465635 219.753574,96.380368 L219.753574,96.380368 L219.753574,100.61724 L219.761007,100.695648 C219.785441,100.823652 219.868366,100.936227 219.98387,101.002702 L219.98387,101.002702 L223.665948,103.121138 L223.749721,103.159684 C223.862447,103.19823 223.978448,103.185381 224.087625,103.121138 L224.087625,103.121138 L227.769704,101.002166 L227.834834,100.957566 C227.93572,100.874624 227.99703,100.750727 228,100.61724 L228,100.61724 L228,96.3798326 L227.991367,96.3011419 C227.965812,96.1727453 227.885669,96.0602125 227.769704,95.9949058 L227.769704,95.9949058 L224.087625,93.8373884 L224.024602,93.809827 C223.984798,93.7987232 223.946889,93.7999129 223.895712,93.7999129 Z" id="path-2"></path>
        <filter x="-2.4%" y="-3.3%" width="104.8%" height="109.2%" filterUnits="objectBoundingBox" id="filter-3">
            <feOffset dx="0" dy="2" in="SourceAlpha" result="shadowOffsetOuter1"></feOffset>
            <feGaussianBlur stdDeviation="2" in="shadowOffsetOuter1" result="shadowBlurOuter1"></feGaussianBlur>
            <feColorMatrix values="0 0 0 0 0   0 0 0 0 0   0 0 0 0 0  0 0 0 0.5 0" type="matrix" in="shadowBlurOuter1"></feColorMatrix>
        </filter>
        <linearGradient x1="0.25781251%" y1="49.9960759%" x2="133.446935%" y2="50.4459058%" id="linearGradient-4">
            <stop stop-color="#1A0FC7" offset="0%"></stop>
            <stop stop-color="#53A0FD" offset="47.5247532%"></stop>
            <stop stop-color="#51D4EC" offset="100%"></stop>
        </linearGradient>
        <linearGradient x1="0.25781251%" y1="49.9810355%" x2="133.446935%" y2="52.1550108%" id="linearGradient-5">
            <stop stop-color="#1A0FC7" offset="0%"></stop>
            <stop stop-color="#53A0FD" offset="47.5247532%"></stop>
            <stop stop-color="#51D4EC" offset="100%"></stop>
        </linearGradient>
        <linearGradient x1="0%" y1="49.9989382%" x2="100%" y2="50.0010319%" id="linearGradient-6">
            <stop stop-color="#1A0FC7" offset="0%"></stop>
            <stop stop-color="#2979FF" offset="100%"></stop>
        </linearGradient>
    </defs>
    <g id="node-js-banner-copy" stroke="none" stroke-width="1" fill="none" fill-rule="evenodd">
        <g id="Combined-Shape" fill-rule="nonzero">
            <use fill="black" fill-opacity="1" filter="url(#filter-3)" xlink:href="#path-2"></use>
            <use fill="url(#linearGradient-1)" xlink:href="#path-2"></use>
        </g>
        <text id="Source-Deployment" fill="url(#linearGradient-4)" font-family="Futura-Bold, Futura" font-size="42" font-weight="bold">
            <tspan x="334.646" y="169">Source Deployment</tspan>
        </text>
        <text id="NODE.JS" fill="url(#linearGradient-5)" font-family="Futura-Bold, Futura" font-size="50" font-weight="bold">
            <tspan x="436.15" y="88">NODE.JS</tspan>
        </text>
        <line x1="340" y1="117" x2="773" y2="117" id="Line-6" stroke="url(#linearGradient-6)" stroke-width="2" stroke-linecap="round"></line>
    </g>
</svg>