<?xml version="1.0" encoding="UTF-8"?>
<svg width="794px" height="292px" viewBox="0 0 794 292" version="1.1" xmlns="http://www.w3.org/2000/svg" xmlns:xlink="http://www.w3.org/1999/xlink">
    <title>postgresql-adminer</title>
    <defs>
        <linearGradient x1="0.25781251%" y1="49.9890089%" x2="133.446935%" y2="51.2489645%" id="linearGradient-1">
            <stop stop-color="#1A0FC7" offset="0%"></stop>
            <stop stop-color="#53A0FD" offset="47.5247532%"></stop>
            <stop stop-color="#51D4EC" offset="100%"></stop>
        </linearGradient>
        <linearGradient x1="0.25781251%" y1="49.9798876%" x2="133.446935%" y2="52.2854439%" id="linearGradient-2">
            <stop stop-color="#1A0FC7" offset="0%"></stop>
            <stop stop-color="#53A0FD" offset="47.5247532%"></stop>
            <stop stop-color="#51D4EC" offset="100%"></stop>
        </linearGradient>
        <linearGradient x1="92.6698647%" y1="96.6822363%" x2="8.19699352%" y2="8.94420173%" id="linearGradient-3">
            <stop stop-color="#1A0FC7" offset="0%"></stop>
            <stop stop-color="#53A0FD" offset="47.5247532%"></stop>
            <stop stop-color="#51D4EC" offset="100%"></stop>
        </linearGradient>
        <path d="M129.399145,35.6150372 C136.996929,34.7720967 144.638483,34.7992639 152.213628,35.6754089 C155.187691,36.0217918 157.367866,38.615513 157.190524,41.598632 C156.651706,51.0958625 162.15761,59.943342 170.888874,63.6162082 C179.279037,67.1170149 190.136896,64.6289442 196.181617,57.9344721 C198.185959,55.7150558 201.577342,55.4569665 203.888825,57.3118885 C209.791673,62.0405056 215.197963,67.4966022 219.954502,73.5367955 C221.783011,75.854316 221.51813,79.1906097 219.337955,81.183632 C212.411807,87.5370037 210.133528,97.6175762 213.666784,106.261301 C217.125331,114.700517 225.372112,120.157368 234.665587,120.157368 C237.540037,120.157368 240.864257,122.29981 241.184981,125.150866 C242.04377,132.831662 242.033204,140.587922 241.139703,148.213628 C240.972818,149.619104 240.28507,150.861282 239.298427,151.754572 C228.405679,137.898137 211.491975,129 192.5,129 C191.560972,129 190.627024,129.021753 189.698633,129.064782 C186.997319,104.837531 166.44853,86 141.5,86 C114.71419,86 93,107.71419 93,134.5 C93,158.497778 110.429146,178.424761 133.319507,182.313017 C133.107745,184.345418 133,186.410126 133,188.5 C133,207.298109 141.717404,224.06016 155.330146,234.964086 C154.426771,236.180518 153.039387,237.027564 151.421249,237.206112 C147.710651,237.618903 143.999297,237.822658 140.288699,237.822658 C136.379628,237.822658 132.481123,237.597019 128.606011,237.144985 C125.644022,236.803885 123.453283,234.205636 123.629115,231.221007 C124.167933,221.718494 118.66203,212.87177 109.908881,209.210223 C101.551922,205.702625 90.6948178,208.186167 84.6274572,214.897242 C82.6133048,217.116658 79.232487,217.380784 76.9089294,215.508506 C70.9849517,210.740647 65.5779071,205.279268 60.8658922,199.277561 C59.0373829,196.960041 59.312829,193.62903 61.4824387,191.636007 C68.4191524,185.277353 70.6981859,175.202818 67.152855,166.559093 C63.5962045,157.904048 55.1177472,152.436632 46.2868699,152.662271 C43.3807249,152.662271 39.9553829,150.538695 39.6369219,147.675565 C38.7781338,139.99477 38.7886989,132.231717 39.6806914,124.612803 C40.0323569,121.689301 42.32271,119.531011 45.5382602,119.634398 C55.4475279,119.634398 64.1033271,114.262067 67.6041338,105.926238 C71.2709628,97.1828996 68.9919294,87.0147881 61.9337175,80.6229294 C59.731658,78.619342 59.4562119,75.2438067 61.3284907,72.9149665 C66.1287993,66.9245799 71.6565874,61.4639554 77.734513,56.695342 C80.057316,54.8849442 83.3936097,55.1535985 85.3873866,57.3390558 C91.4200335,63.9739108 102.201673,66.4408513 110.491468,63.0547509 C119.135948,59.513948 124.70826,50.821171 124.377725,41.4175167 C124.278866,38.4721301 126.459041,35.9395353 129.399145,35.6150372 Z" id="path-4"></path>
        <filter x="-3.5%" y="-2.5%" width="106.9%" height="106.9%" filterUnits="objectBoundingBox" id="filter-5">
            <feOffset dx="0" dy="2" in="SourceAlpha" result="shadowOffsetOuter1"></feOffset>
            <feGaussianBlur stdDeviation="2" in="shadowOffsetOuter1" result="shadowBlurOuter1"></feGaussianBlur>
            <feColorMatrix values="0 0 0 0 0   0 0 0 0 0   0 0 0 0 0  0 0 0 0.5 0" type="matrix" in="shadowBlurOuter1"></feColorMatrix>
        </filter>
        <linearGradient x1="80.8786136%" y1="91.4956164%" x2="-69.457174%" y2="-68.1707838%" id="linearGradient-6">
            <stop stop-color="#1A0FC7" offset="0%"></stop>
            <stop stop-color="#53A0FD" offset="47.5247532%"></stop>
            <stop stop-color="#51D4EC" offset="100%"></stop>
        </linearGradient>
        <circle id="path-7" cx="193" cy="189" r="55"></circle>
        <filter x="-6.4%" y="-4.5%" width="112.7%" height="112.7%" filterUnits="objectBoundingBox" id="filter-8">
            <feOffset dx="0" dy="2" in="SourceAlpha" result="shadowOffsetOuter1"></feOffset>
            <feGaussianBlur stdDeviation="2" in="shadowOffsetOuter1" result="shadowBlurOuter1"></feGaussianBlur>
            <feColorMatrix values="0 0 0 0 0   0 0 0 0 0   0 0 0 0 0  0 0 0 0.5 0" type="matrix" in="shadowBlurOuter1"></feColorMatrix>
        </filter>
        <filter x="-25.0%" y="-24.1%" width="150.0%" height="148.1%" filterUnits="objectBoundingBox" id="filter-9">
            <feOffset dx="0" dy="2" in="SourceAlpha" result="shadowOffsetOuter1"></feOffset>
            <feGaussianBlur stdDeviation="2" in="shadowOffsetOuter1" result="shadowBlurOuter1"></feGaussianBlur>
            <feColorMatrix values="0 0 0 0 0   0 0 0 0 0   0 0 0 0 0  0 0 0 0.5 0" type="matrix" in="shadowBlurOuter1" result="shadowMatrixOuter1"></feColorMatrix>
            <feMerge>
                <feMergeNode in="shadowMatrixOuter1"></feMergeNode>
                <feMergeNode in="SourceGraphic"></feMergeNode>
            </feMerge>
        </filter>
    </defs>
    <g id="postgresql-adminer" stroke="none" stroke-width="1" fill="none" fill-rule="evenodd">
        <text id="PostgreSQL" fill="url(#linearGradient-1)" font-family="Futura-Bold, Futura" font-size="60" font-weight="bold">
            <tspan x="290.24" y="113">PostgreSQL</tspan>
        </text>
        <text id="Adminer" fill="url(#linearGradient-2)" font-family="Futura-Bold, Futura" font-size="60" font-weight="bold">
            <tspan x="290.62" y="208">Adminer</tspan>
        </text>
        <g id="Combined-Shape" fill-rule="nonzero">
            <use fill="black" fill-opacity="1" filter="url(#filter-5)" xlink:href="#path-4"></use>
            <use fill="url(#linearGradient-3)" xlink:href="#path-4"></use>
        </g>
        <g id="Oval-Copy">
            <use fill="black" fill-opacity="1" filter="url(#filter-8)" xlink:href="#path-7"></use>
            <use fill="url(#linearGradient-6)" fill-rule="evenodd" xlink:href="#path-7"></use>
        </g>
        <g id="Postgresql_elephant" filter="url(#filter-9)" transform="translate(167.000000, 162.000000)">
            <path d="M25.982404,35.2554747 C25.8005354,41.7575758 26.028101,48.3049798 26.6643131,49.8962323 C27.3009192,51.4874848 28.6632929,54.5825354 33.3481515,53.5789091 C37.2620707,52.7398182 38.6861616,51.116 39.3041212,47.5318081 C39.7592525,44.8947778 40.6366869,37.5711818 40.7492222,36.0706667" id="Path" stroke="#FFFFFF" stroke-width="1.3876" stroke-linecap="round" stroke-linejoin="round"></path>
            <path d="M20.3671919,2.65987879 C20.3671919,2.65987879 -0.842636364,-6.00888889 0.143393939,13.7044949 C0.35310101,17.8983737 6.15477778,45.4381515 13.0741919,37.1197273 C15.6027576,34.0777273 17.8895758,31.691899 17.8895758,31.691899" id="Path" stroke="#FFFFFF" stroke-width="1.3876" stroke-linecap="round" stroke-linejoin="round"></path>
            <path d="M31.8236061,1.07768687 C31.0894343,1.30787879 43.6218283,-3.50369697 50.7441212,5.59709091 C53.2599495,8.81216162 50.3445354,21.9480707 43.3704949,32.2968586" id="Path" stroke="#FFFFFF" stroke-width="1.3876" stroke-linecap="round" stroke-linejoin="round"></path>
            <path d="M43.3703636,32.2968586 C43.3703636,32.2968586 43.8248384,34.5339091 50.4302828,33.1704848 C53.3244242,32.5727475 51.5826869,34.8478788 48.6474444,36.2110404 C46.2385051,37.3290404 40.8377273,37.6155657 40.7494848,36.0706667 C40.5224444,32.0846566 43.5920202,33.2956263 43.3704949,32.2968586 C43.1702424,31.3973636 41.7974949,30.5145455 40.8894646,28.3130808 C40.0967273,26.3915758 30.0172626,11.6561414 43.6847273,13.8446061 C44.1854242,13.741 40.120101,0.844343434 27.3292828,0.634636364 C14.5413535,0.424929293 14.960899,16.3609596 14.960899,16.3609596" id="Path" stroke="#FFFFFF" stroke-width="1.3876" stroke-linecap="round" stroke-linejoin="bevel"></path>
            <path d="M22.4025455,33.6600202 C20.6197071,35.6515152 21.1440404,36.001202 17.5803333,36.7349798 C13.9746061,37.4782121 16.0930808,38.8009293 17.4756768,39.1465455 C19.1522828,39.5660909 23.0311414,40.1600202 25.6520202,36.4902121 C26.4501414,35.3728687 25.6472929,33.5900303 24.5509596,33.1355556 C24.0212424,32.9161313 23.3129394,32.6411616 22.4025455,33.6600202 L22.4025455,33.6600202 Z" id="Path" stroke="#FFFFFF" stroke-width="1.3876" stroke-linecap="round" stroke-linejoin="round"></path>
            <path d="M22.2858081,33.6252222 C22.1061717,32.454303 22.6705556,31.0609394 23.2753838,29.4308182 C24.1843333,26.9849798 26.2815354,24.5387475 24.6038788,16.7802424 C23.3533838,10.9986566 14.9660202,15.5770202 14.9607677,16.3609596 C14.9556465,17.1446364 15.3401313,20.3344949 14.8206566,24.0490808 C14.1428182,28.8962424 17.9049394,32.9957071 22.2370909,32.5762929" id="Path" stroke="#FFFFFF" stroke-width="1.3876" stroke-linecap="round" stroke-linejoin="round"></path>
            <path d="M20.2901111,16.2434343 C20.2522929,16.5111818 20.780303,17.2256566 21.4687778,17.3211212 C22.1560707,17.4169798 22.7443535,16.8586364 22.7816465,16.5911515 C22.8189394,16.323404 22.2915859,16.0284747 21.6028485,15.9326162 C20.9151616,15.8366263 20.3266162,15.9763434 20.2902424,16.2434343 L20.2901111,16.2434343 Z" id="Path" stroke="#FFFFFF" stroke-width="2.0775" fill="#FFFFFF" fill-rule="nonzero"></path>
            <path d="M41.2245758,15.6975657 C41.2618687,15.9653131 40.7345152,16.6797879 40.0459091,16.7752525 C39.3580909,16.8711111 38.7698081,16.3127677 38.7321212,16.0452828 C38.6957475,15.7775354 39.2232323,15.4826061 39.9111818,15.3867475 C40.5991313,15.2908889 41.1872828,15.4304747 41.2245758,15.697697 L41.2245758,15.6975657 Z" id="Path" fill="#FFFFFF" fill-rule="nonzero"></path>
            <path d="M43.6847273,13.8446061 C43.7980505,15.9448283 43.2323535,17.3753535 43.1610505,19.6110909 C43.0554747,22.8608283 44.7104141,26.580404 42.2167778,30.3045758" id="Path" stroke="#FFFFFF" stroke-width="1.3876" stroke-linecap="round" stroke-linejoin="round"></path>
        </g>
    </g>
</svg>