<?xml version="1.0" encoding="UTF-8"?>
<svg width="794px" height="292px" viewBox="0 0 794 292" version="1.1" xmlns="http://www.w3.org/2000/svg" xmlns:xlink="http://www.w3.org/1999/xlink">
    <title>rabbitmq-managed-service</title>
    <defs>
        <linearGradient x1="0.25781251%" y1="49.9857756%" x2="133.446935%" y2="51.6163688%" id="linearGradient-1">
            <stop stop-color="#1A0FC7" offset="0%"></stop>
            <stop stop-color="#53A0FD" offset="47.5247532%"></stop>
            <stop stop-color="#51D4EC" offset="100%"></stop>
        </linearGradient>
        <linearGradient x1="0.25781251%" y1="49.99445%" x2="133.446935%" y2="50.6306706%" id="linearGradient-2">
            <stop stop-color="#1A0FC7" offset="0%"></stop>
            <stop stop-color="#53A0FD" offset="47.5247532%"></stop>
            <stop stop-color="#51D4EC" offset="100%"></stop>
        </linearGradient>
        <linearGradient x1="92.6698647%" y1="96.6822363%" x2="8.19699352%" y2="8.94420173%" id="linearGradient-3">
            <stop stop-color="#1A0FC7" offset="0%"></stop>
            <stop stop-color="#53A0FD" offset="47.5247532%"></stop>
            <stop stop-color="#51D4EC" offset="100%"></stop>
        </linearGradient>
        <path d="M129.399145,35.6150372 C136.996929,34.7720967 144.638483,34.7992639 152.213628,35.6754089 C155.187691,36.0217918 157.367866,38.615513 157.190524,41.598632 C156.651706,51.0958625 162.15761,59.943342 170.888874,63.6162082 C179.279037,67.1170149 190.136896,64.6289442 196.181617,57.9344721 C198.185959,55.7150558 201.577342,55.4569665 203.888825,57.3118885 C209.791673,62.0405056 215.197963,67.4966022 219.954502,73.5367955 C221.783011,75.854316 221.51813,79.1906097 219.337955,81.183632 C212.411807,87.5370037 210.133528,97.6175762 213.666784,106.261301 C217.125331,114.700517 225.372112,120.157368 234.665587,120.157368 C237.540037,120.157368 240.864257,122.29981 241.184981,125.150866 C242.04377,132.831662 242.033204,140.587922 241.139703,148.213628 C240.972818,149.619104 240.28507,150.861282 239.298427,151.754572 C228.405679,137.898137 211.491975,129 192.5,129 C191.560972,129 190.627024,129.021753 189.698633,129.064782 C186.997319,104.837531 166.44853,86 141.5,86 C114.71419,86 93,107.71419 93,134.5 C93,158.497778 110.429146,178.424761 133.319507,182.313017 C133.107745,184.345418 133,186.410126 133,188.5 C133,207.298109 141.717404,224.06016 155.330146,234.964086 C154.426771,236.180518 153.039387,237.027564 151.421249,237.206112 C147.710651,237.618903 143.999297,237.822658 140.288699,237.822658 C136.379628,237.822658 132.481123,237.597019 128.606011,237.144985 C125.644022,236.803885 123.453283,234.205636 123.629115,231.221007 C124.167933,221.718494 118.66203,212.87177 109.908881,209.210223 C101.551922,205.702625 90.6948178,208.186167 84.6274572,214.897242 C82.6133048,217.116658 79.232487,217.380784 76.9089294,215.508506 C70.9849517,210.740647 65.5779071,205.279268 60.8658922,199.277561 C59.0373829,196.960041 59.312829,193.62903 61.4824387,191.636007 C68.4191524,185.277353 70.6981859,175.202818 67.152855,166.559093 C63.5962045,157.904048 55.1177472,152.436632 46.2868699,152.662271 C43.3807249,152.662271 39.9553829,150.538695 39.6369219,147.675565 C38.7781338,139.99477 38.7886989,132.231717 39.6806914,124.612803 C40.0323569,121.689301 42.32271,119.531011 45.5382602,119.634398 C55.4475279,119.634398 64.1033271,114.262067 67.6041338,105.926238 C71.2709628,97.1828996 68.9919294,87.0147881 61.9337175,80.6229294 C59.731658,78.619342 59.4562119,75.2438067 61.3284907,72.9149665 C66.1287993,66.9245799 71.6565874,61.4639554 77.734513,56.695342 C80.057316,54.8849442 83.3936097,55.1535985 85.3873866,57.3390558 C91.4200335,63.9739108 102.201673,66.4408513 110.491468,63.0547509 C119.135948,59.513948 124.70826,50.821171 124.377725,41.4175167 C124.278866,38.4721301 126.459041,35.9395353 129.399145,35.6150372 Z" id="path-4"></path>
        <filter x="-3.5%" y="-2.5%" width="106.9%" height="106.9%" filterUnits="objectBoundingBox" id="filter-5">
            <feOffset dx="0" dy="2" in="SourceAlpha" result="shadowOffsetOuter1"></feOffset>
            <feGaussianBlur stdDeviation="2" in="shadowOffsetOuter1" result="shadowBlurOuter1"></feGaussianBlur>
            <feColorMatrix values="0 0 0 0 0   0 0 0 0 0   0 0 0 0 0  0 0 0 0.5 0" type="matrix" in="shadowBlurOuter1"></feColorMatrix>
        </filter>
        <linearGradient x1="80.8786136%" y1="91.4956164%" x2="-69.457174%" y2="-68.1707838%" id="linearGradient-6">
            <stop stop-color="#1A0FC7" offset="0%"></stop>
            <stop stop-color="#53A0FD" offset="47.5247532%"></stop>
            <stop stop-color="#51D4EC" offset="100%"></stop>
        </linearGradient>
        <path d="M193,134 C223.375661,134 248,158.624339 248,189 C248,219.375661 223.375661,244 193,244 C162.624339,244 138,219.375661 138,189 C138,158.624339 162.624339,134 193,134 Z M174.405,159 L167.647383,159 C166.184754,159 165,160.180411 165,161.635595 L165,216.660007 C165,217.952764 166.052273,219 167.350137,219 L219.64875,219 C220.947727,219 222,217.952764 222,216.660007 L222,185.339993 C222,184.047236 220.947727,183 219.64875,183 L200.70293,183 C199.751999,182.999633 198.981175,182.232599 198.980684,181.286221 L198.980684,161.635595 C198.980684,160.180411 197.795039,159 196.333523,159 L189.57034,159 C188.107934,159 186.922957,160.180411 186.922957,161.635595 L186.922957,181.167227 C186.922957,182.180559 186.099797,183.00421 185.08159,183.008642 L178.87282,183.038114 C177.84593,183.043653 177.011637,182.214462 177.013641,181.193374 L177.05216,161.640027 C177.0555,160.182627 175.86941,159 174.405,159 Z M207.68209,195.272556 C209.384297,195.272556 210.76432,196.645973 210.76432,198.340252 L210.76432,203.659527 C210.76432,205.353584 209.384297,206.727222 207.68209,206.727222 L202.337227,206.727222 C200.634797,206.727222 199.254773,205.353584 199.254773,203.659527 L199.254773,198.340252 C199.254773,196.645973 200.634797,195.272556 202.337227,195.272556 L207.68209,195.272556 Z" id="path-7"></path>
        <filter x="-6.4%" y="-4.5%" width="112.7%" height="112.7%" filterUnits="objectBoundingBox" id="filter-8">
            <feOffset dx="0" dy="2" in="SourceAlpha" result="shadowOffsetOuter1"></feOffset>
            <feGaussianBlur stdDeviation="2" in="shadowOffsetOuter1" result="shadowBlurOuter1"></feGaussianBlur>
            <feColorMatrix values="0 0 0 0 0   0 0 0 0 0   0 0 0 0 0  0 0 0 0.5 0" type="matrix" in="shadowBlurOuter1"></feColorMatrix>
        </filter>
    </defs>
    <g id="rabbitmq-managed-service" stroke="none" stroke-width="1" fill="none" fill-rule="evenodd">
        <text id="RabbitMQ" fill="url(#linearGradient-1)" font-family="Futura-Bold, Futura" font-size="60" font-weight="bold">
            <tspan x="290.72" y="97">RabbitMQ</tspan>
        </text>
        <text id="Message-Broker" fill="url(#linearGradient-2)" font-family="Futura-Bold, Futura" font-size="40" font-weight="bold">
            <tspan x="290.56" y="202">Message Broker</tspan>
        </text>
        <g id="Combined-Shape" fill-rule="nonzero">
            <use fill="black" fill-opacity="1" filter="url(#filter-5)" xlink:href="#path-4"></use>
            <use fill="url(#linearGradient-3)" xlink:href="#path-4"></use>
        </g>
        <g id="Combined-Shape">
            <use fill="black" fill-opacity="1" filter="url(#filter-8)" xlink:href="#path-7"></use>
            <use fill="url(#linearGradient-6)" fill-rule="evenodd" xlink:href="#path-7"></use>
        </g>
    </g>
</svg>