<?xml version="1.0" encoding="UTF-8"?>
<svg width="753px" height="153px" viewBox="0 0 753 153" version="1.1" xmlns="http://www.w3.org/2000/svg" xmlns:xlink="http://www.w3.org/1999/xlink">
    <title>reactjs-banner</title>
    <defs>
        <linearGradient x1="0.25781251%" y1="49.9785682%" x2="133.446935%" y2="52.4353843%" id="linearGradient-1">
            <stop stop-color="#1A0FC7" offset="0%"></stop>
            <stop stop-color="#53A0FD" offset="47.5247532%"></stop>
            <stop stop-color="#51D4EC" offset="100%"></stop>
        </linearGradient>
        <linearGradient x1="0%" y1="49.9989382%" x2="100%" y2="50.0010319%" id="linearGradient-2">
            <stop stop-color="#1A0FC7" offset="0%"></stop>
            <stop stop-color="#2979FF" offset="100%"></stop>
        </linearGradient>
        <linearGradient x1="0.457860274%" y1="2.01816869e-07%" x2="99.5421397%" y2="98.5900763%" id="linearGradient-3">
            <stop stop-color="#1A0FC7" offset="0%"></stop>
            <stop stop-color="#2979FF" offset="100%"></stop>
        </linearGradient>
        <linearGradient x1="0%" y1="36.458796%" x2="100%" y2="63.1593628%" id="linearGradient-4">
            <stop stop-color="#1A0FC7" offset="0%"></stop>
            <stop stop-color="#2979FF" offset="100%"></stop>
        </linearGradient>
        <linearGradient x1="0.25781251%" y1="49.9960759%" x2="133.446935%" y2="50.4459058%" id="linearGradient-5">
            <stop stop-color="#1A0FC7" offset="0%"></stop>
            <stop stop-color="#53A0FD" offset="47.5247532%"></stop>
            <stop stop-color="#51D4EC" offset="100%"></stop>
        </linearGradient>
    </defs>
    <g id="reactjs-banner" stroke="none" stroke-width="1" fill="none" fill-rule="evenodd">
        <text id="React.JS" fill="url(#linearGradient-1)" fill-rule="nonzero" font-family="Futura-Bold, Futura" font-size="50" font-weight="bold">
            <tspan x="319" y="60">React.JS</tspan>
        </text>
        <line x1="319" y1="89.5" x2="752" y2="89.5" id="Line-6" stroke="url(#linearGradient-2)" stroke-width="2" stroke-linecap="round"></line>
        <g id="Group" fill-rule="nonzero">
            <path d="M272.656305,95.060974 C280.632666,95.060974 288.008622,97.643706 294.001219,102.022209 L294.001219,122.573165 C290.537214,114.062547 282.213774,108.066335 272.496403,108.066335 C259.670205,108.066335 249.272518,118.512941 249.272518,131.399483 C249.272518,141.157481 255.234427,149.516448 263.698164,153.000025 L243.252721,153.000025 C238.897133,146.980178 236.328058,139.571589 236.328058,131.560138 C236.328058,111.402206 252.592768,95.060974 272.656305,95.060974 Z" id="path-2-path" fill="url(#linearGradient-3)"></path>
            <path d="M277.669583,0 C286.688639,0 294.000312,8.8799133 294.000312,19.8338843 L294.000312,83.865176 C293.496801,83.722796 293.002485,83.550986 292.520561,83.348962 C286.784091,80.924583 283.166693,75.084554 283.520698,68.8156393 C283.637213,66.8465475 282.204831,65.1344886 280.250861,64.9058488 C275.273965,64.3275246 270.253438,64.3095921 265.261667,64.8659988 C263.330009,65.0801929 261.897627,66.7519035 261.962577,68.6960891 C262.17974,74.903236 258.518712,80.641149 252.839259,82.978356 C247.392835,85.213447 240.309261,83.585073 236.345792,79.20555 C235.035873,77.762977 232.843917,77.585644 231.317828,78.780649 C227.32461,81.928306 223.692834,85.532746 220.539015,89.486869 C219.308921,91.024086 219.48989,93.252203 220.936651,94.574728 C225.57392,98.793854 227.071253,105.505603 224.662134,111.27689 C222.362092,116.779189 216.675202,120.325348 210.164779,120.325348 C208.052152,120.257104 206.547382,121.681745 206.316337,123.611485 C205.730294,128.640564 205.723353,133.764785 206.28758,138.834711 C206.49681,140.724601 208.747271,142.126327 210.656618,142.126327 C216.458535,141.977388 222.02891,145.58631 224.365642,151.299316 C224.593755,151.858072 224.785168,152.425886 224.940601,153 L16.3304172,153 C7.3113611,153 1.13686838e-13,144.120087 1.13686838e-13,133.166116 L1.13686838e-13,19.8338843 C1.13686838e-13,8.8799133 7.3113611,0 16.3304172,0 L277.669583,0 Z M118.499831,18 C113.861322,18 107.222663,21.1635703 101.93399,36.239203 C100.885635,39.266578 100.006489,42.349711 99.2993093,45.4730625 C95.7321448,44.338711 92.2882081,43.4072812 89.0226755,42.7061953 C75.7315626,39.8470078 66.8849213,41.0837345 63.4400648,46.2810937 C62.4312534,47.8020937 61.4288794,50.4208828 62.3861926,54.2434922 C64.1012639,61.101703 71.2337535,68.5549688 76.9150998,73.5987655 C78.0048367,74.5667578 79.1377954,75.532922 80.3176539,76.5 C79.1414738,77.46525 78.0066758,78.4332422 76.9150998,79.4012345 C71.2337535,84.4450312 64.1012639,91.898297 62.3861926,98.7565078 C61.4288794,102.579117 62.4312534,105.196992 63.4400648,106.718906 C65.675635,110.091797 70.1863185,111.796523 76.7109464,111.796523 C80.240407,111.796523 84.3593368,111.297445 89.0245148,110.293805 C92.290967,109.592719 95.7330644,108.661289 99.3002289,107.526938 C100.007408,110.650289 100.886555,113.733422 101.935829,116.760797 C107.222663,131.83643 113.861322,135 118.499831,135 C123.136502,135 129.775161,131.83643 135.063834,116.760797 C136.112188,113.733422 136.993174,110.650289 137.698515,107.526938 C141.265679,108.661289 144.709616,109.592719 147.975148,110.293805 C152.641246,111.297445 156.758337,111.796523 160.287797,111.796523 C166.811505,111.796523 171.323109,110.091797 173.559598,106.718906 C174.56841,105.197906 175.570784,102.579117 174.61439,98.7565078 C172.899319,91.898297 165.76591,84.4450312 160.085483,79.4012345 C158.995746,78.4332422 157.860948,77.467078 156.682929,76.5 C157.85727,75.53475 158.992067,74.5667578 160.085483,73.5987655 C165.76499,68.5549688 172.89656,61.101703 174.612551,54.2434922 C175.568945,50.4208828 174.56657,47.8030078 173.558679,46.2810937 C170.112903,41.0837345 161.267181,39.8460937 147.975148,42.7061953 C144.708696,43.4072812 141.265679,44.338711 137.698515,45.4730625 C136.993174,42.349711 136.112188,39.266578 135.063834,36.239203 C129.775161,21.1635703 123.136502,18 118.499831,18 Z M118.500751,99.971297 C123.11627,102.111117 127.680291,104.005055 132.105451,105.616547 C131.418503,108.737156 130.551311,111.814805 129.504796,114.834867 C126.362491,123.79725 122.247239,129.15 118.499831,129.15 C114.752424,129.15 110.637172,123.79725 107.493028,114.834867 C106.448352,111.814805 105.58116,108.737156 104.896051,105.616547 C109.320292,104.004141 113.885232,102.110203 118.500751,99.971297 Z M85.0472045,80.2120078 C88.585861,82.863703 92.4123552,85.4834062 96.4715107,88.0281562 C96.8172838,92.805047 97.3773258,97.41375 98.1378427,101.763773 C81.9021408,107.00318 70.6994606,107.037 68.3544568,103.500492 C68.1585801,103.204336 67.5626732,102.304898 68.0969662,100.168734 C68.7094261,97.7236172 71.1776574,92.339789 80.835394,83.7631405 C82.1688276,82.5785155 83.5785885,81.3938905 85.0472045,80.2120078 Z M151.94878,80.2120078 C153.420155,81.3938905 154.828996,82.5785155 156.16243,83.7631405 L156.160591,83.7631405 C165.820167,92.339789 168.288398,97.7236172 168.899938,100.168734 C169.434231,102.304898 168.837405,103.204336 168.642447,103.500492 C167.589495,105.088219 164.75158,105.956578 160.46896,105.956578 C155.22075,105.956578 147.801342,104.645812 138.859981,101.761031 C139.620498,97.412836 140.17962,92.8032187 140.525393,88.0281562 C144.584549,85.4843203 148.411963,82.863703 151.94878,80.2120078 Z M102.702783,91.7721563 C104.130936,92.5948125 105.580241,93.405586 107.051615,94.2053905 C108.583685,95.0390155 110.119432,95.849789 111.656099,96.6331405 L111.656099,96.6349687 C108.936815,97.8113672 106.307652,98.8680235 103.76953,99.8067655 C103.340072,97.2181405 102.983264,94.532625 102.702783,91.7721563 Z M134.29688,91.7721563 C134.015479,94.532625 133.66051,97.2172265 133.229213,99.8049375 C130.69477,98.8652813 128.066527,97.807711 125.343564,96.6331405 C126.878392,95.848875 128.414139,95.0390155 129.947128,94.2053905 C131.418503,93.405586 132.868727,92.5948125 134.29688,91.7721563 Z M118.497992,59.5020938 C121.30464,60.8558203 124.178419,62.3311172 127.122088,63.9261563 C129.770563,65.3667188 132.344549,66.8429297 134.842208,68.355703 C134.981069,71.0256797 135.052799,73.7468438 135.052799,76.5 C135.052799,79.2531563 134.981069,81.9743203 134.842208,84.644297 C132.347308,86.1525 129.774241,87.629625 127.123008,89.0738438 C124.183017,90.672539 121.309238,92.147836 118.500751,93.4997345 C115.695943,92.1450938 112.819405,90.669797 109.874816,89.0738438 C107.226341,87.6332813 104.652355,86.1570703 102.154696,84.644297 C102.015835,81.9743203 101.944106,79.2531563 101.944106,76.5 C101.944106,73.7468438 102.015835,71.0256797 102.154696,68.355703 C104.650516,66.8475 107.222663,65.371289 109.874816,63.9261563 C112.817566,62.326547 115.691345,60.85125 118.497992,59.5020938 Z M140.880363,72.171 C143.041444,73.5987655 145.117922,75.0420703 147.109796,76.500914 C145.119761,77.9579297 143.044203,79.4021485 140.880363,80.8317422 C140.918067,79.397578 140.938298,77.9542735 140.938298,76.500914 C140.939218,75.0484687 140.919906,73.60425 140.880363,72.171 Z M96.1174612,72.169172 C96.0797573,73.603336 96.0595258,75.0475547 96.0586062,76.5 C96.0579932,77.4682968 96.0663718,78.4329374 96.0840147,79.3933801 L96.117,80.829 L94.8314427,79.971858 C93.1292091,78.824205 91.4817108,77.667075 89.8889473,76.5 C91.8780623,75.0429845 93.9536206,73.6005938 96.1174612,72.169172 Z M160.46896,47.043422 C164.748822,47.043422 167.590414,47.9117812 168.642447,49.4995078 C168.837405,49.795664 169.434231,50.6951015 168.899938,52.8312655 C168.288398,55.277297 165.820167,60.660211 156.160591,69.2368595 C154.827157,70.4214845 153.419235,71.6061095 151.94878,72.7889062 C148.412882,70.136297 144.585468,67.5165937 140.526313,64.9718437 L140.525393,64.9718437 C140.17962,60.1967812 139.620498,55.587164 138.859981,51.2389687 C147.801342,48.3541875 155.22075,47.043422 160.46896,47.043422 Z M76.5288636,47.043422 C81.7779937,47.043422 89.1974012,48.3541875 98.1378427,51.2389687 C97.3782454,55.587164 96.8182034,60.1967813 96.4724303,64.9718438 C92.413275,67.5156797 88.5867806,70.136297 85.0490438,72.7879922 C83.577669,71.6061095 82.1688276,70.4214845 80.835394,69.2368595 L80.8372333,69.2368595 C71.1785769,60.660211 68.7103456,55.2763828 68.0978857,52.8312655 C67.5635928,50.6951015 68.1604194,49.795664 68.3553763,49.4995078 C69.4092487,47.9117812 72.2480826,47.043422 76.5288636,47.043422 Z M133.230133,53.1932345 C133.66143,55.7827735 134.016399,58.467375 134.298719,61.2278437 C132.869646,60.4070155 131.418503,59.595328 129.946208,58.7946095 L129.948967,58.7946095 C128.415978,57.9609845 126.880231,57.151125 125.344483,56.3668595 C128.064688,55.189547 130.693851,54.1328905 133.230133,53.1932345 Z M103.76953,53.1932345 C106.303973,54.1347187 108.933136,55.192289 111.656099,56.3668595 C110.120352,57.151125 108.584604,57.9609845 107.051615,58.7946095 C106.070699,59.3278125 105.098774,59.8658906 104.136931,60.4091146 L102.702,61.226 L102.827652,60.0494866 C103.086692,57.702286 103.401423,55.4128394 103.76953,53.1932345 Z M118.499831,23.85 C122.247239,23.85 126.362491,29.20275 129.504796,38.1651328 C130.549472,41.1851953 131.416664,44.2628438 132.101772,47.383453 C127.677532,48.9958595 123.112592,50.889797 118.497992,53.028703 C113.883393,50.8888828 109.317533,48.9949453 104.894212,47.383453 C105.580241,44.2628438 106.448352,41.1851953 107.493028,38.1651328 C110.637172,29.20275 114.750584,23.85 118.499831,23.85 Z" id="Combined-Shape" fill="url(#linearGradient-4)"></path>
        </g>
        <text id="Source-Deployment" fill="url(#linearGradient-5)" fill-rule="nonzero" font-family="Futura-Bold, Futura" font-size="42" font-weight="bold">
            <tspan x="314" y="141">Source Deployment</tspan>
        </text>
    </g>
</svg>