<?xml version="1.0" encoding="UTF-8"?>
<svg width="794px" height="292px" viewBox="0 0 794 292" version="1.1" xmlns="http://www.w3.org/2000/svg" xmlns:xlink="http://www.w3.org/1999/xlink">
    <title>redis-managed-service</title>
    <defs>
        <linearGradient x1="0.25781251%" y1="49.9485871%" x2="133.446935%" y2="55.8422356%" id="linearGradient-1">
            <stop stop-color="#1A0FC7" offset="0%"></stop>
            <stop stop-color="#53A0FD" offset="47.5247532%"></stop>
            <stop stop-color="#51D4EC" offset="100%"></stop>
        </linearGradient>
        <linearGradient x1="0.25781251%" y1="49.9949425%" x2="133.446935%" y2="50.5746998%" id="linearGradient-2">
            <stop stop-color="#1A0FC7" offset="0%"></stop>
            <stop stop-color="#53A0FD" offset="47.5247532%"></stop>
            <stop stop-color="#51D4EC" offset="100%"></stop>
        </linearGradient>
        <linearGradient x1="92.6698647%" y1="96.6822363%" x2="8.19699352%" y2="8.94420173%" id="linearGradient-3">
            <stop stop-color="#1A0FC7" offset="0%"></stop>
            <stop stop-color="#53A0FD" offset="47.5247532%"></stop>
            <stop stop-color="#51D4EC" offset="100%"></stop>
        </linearGradient>
        <path d="M157.790654,35.7086803 C160.911223,36.0721264 163.198796,38.7936171 163.012717,41.9236877 C162.447357,51.8887621 168.224487,61.1720781 177.385862,65.0258736 C186.189335,68.6991338 197.582063,66.0884981 203.924554,59.0642491 C206.027632,56.7355019 209.586078,56.4646989 212.011428,58.4109963 C218.205056,63.3725502 223.877665,69.0974201 228.868517,75.4351599 C230.7871,77.8668439 230.509171,81.367487 228.221599,83.4586877 C220.95426,90.1250335 218.563751,100.702186 222.271059,109.77171 C225.899978,118.626651 234.553004,124.352312 244.304286,124.352312 C247.320335,124.352312 250.808309,126.600294 251.144833,129.591796 C252.045926,137.650955 252.03484,145.789297 251.097323,153.790654 C250.903791,155.420555 250.042659,156.841153 248.828368,157.789546 C237.479753,143.306467 219.826697,134 200,134 C198.592665,134 197.196281,134.04689 195.812326,134.139193 C193.603321,108.290334 171.921191,88 145.5,88 C117.60962,88 95,110.60962 95,138.5 C95,163.997551 113.896499,185.081589 138.449067,188.511681 C138.152145,190.965428 138,193.464946 138,196 C138,215.607587 147.101907,233.08931 161.311074,244.45052 C160.379813,245.920626 158.813997,246.962348 156.959242,247.167004 C153.065855,247.60013 149.171677,247.813922 145.27829,247.813922 C141.176654,247.813922 137.086104,247.577167 133.0201,247.102866 C129.912201,246.744963 127.613543,244.018721 127.798037,240.887067 C128.363398,230.91645 122.586268,221.633926 113.401929,217.792007 C104.633297,214.111621 93.2413606,216.717506 86.8751152,223.759175 C84.7617435,226.087922 81.2143829,226.365059 78.7763643,224.40055 C72.5605651,219.397822 66.8871636,213.667409 61.9430297,207.370052 C60.0244461,204.938368 60.313461,201.443268 62.589948,199.352067 C69.8683717,192.680178 72.2596729,182.109361 68.5396952,173.039836 C64.8078401,163.958435 55.9117249,158.221688 46.645829,158.458442 C43.5965242,158.458442 40.0024461,156.230257 39.6682974,153.226086 C38.7672045,145.166926 38.77829,137.021457 39.714223,129.027227 C40.0832119,125.95971 42.4863903,123.6951 45.860342,123.80358 C56.2577509,123.80358 65.3399442,118.166602 69.0132045,109.420141 C72.8606654,100.246097 70.4693643,89.5770929 63.0634572,82.8703643 C60.7529219,80.7680781 60.4639071,77.2262602 62.4284164,74.7826989 C67.4651933,68.4972193 73.2652862,62.7675985 79.6426171,57.7640781 C82.0798439,55.8644981 85.580487,56.1463866 87.6724796,58.4395019 C94.0023011,65.401197 105.315056,67.9896617 114.013216,64.4367584 C123.083532,60.7215316 128.930342,51.600539 128.583524,41.7336506 C128.479796,38.643171 130.767368,35.9858178 133.852305,35.6453346 C141.824364,34.7608699 149.842349,34.7893755 157.790654,35.7086803 Z" id="path-4"></path>
        <filter x="-3.3%" y="-2.3%" width="106.6%" height="106.6%" filterUnits="objectBoundingBox" id="filter-5">
            <feOffset dx="0" dy="2" in="SourceAlpha" result="shadowOffsetOuter1"></feOffset>
            <feGaussianBlur stdDeviation="2" in="shadowOffsetOuter1" result="shadowBlurOuter1"></feGaussianBlur>
            <feColorMatrix values="0 0 0 0 0   0 0 0 0 0   0 0 0 0 0  0 0 0 0.5 0" type="matrix" in="shadowBlurOuter1"></feColorMatrix>
        </filter>
        <linearGradient x1="80.8786136%" y1="91.4956164%" x2="-69.457174%" y2="-68.1707838%" id="linearGradient-6">
            <stop stop-color="#1A0FC7" offset="0%"></stop>
            <stop stop-color="#53A0FD" offset="47.5247532%"></stop>
            <stop stop-color="#51D4EC" offset="100%"></stop>
        </linearGradient>
        <circle id="path-7" cx="200.5" cy="196.5" r="57.5"></circle>
        <filter x="-6.1%" y="-4.3%" width="112.2%" height="112.2%" filterUnits="objectBoundingBox" id="filter-8">
            <feOffset dx="0" dy="2" in="SourceAlpha" result="shadowOffsetOuter1"></feOffset>
            <feGaussianBlur stdDeviation="2" in="shadowOffsetOuter1" result="shadowBlurOuter1"></feGaussianBlur>
            <feColorMatrix values="0 0 0 0 0   0 0 0 0 0   0 0 0 0 0  0 0 0 0.5 0" type="matrix" in="shadowBlurOuter1"></feColorMatrix>
        </filter>
    </defs>
    <g id="redis-managed-service" stroke="none" stroke-width="1" fill="none" fill-rule="evenodd">
        <text id="Redis" fill="url(#linearGradient-1)" font-family="Futura-Bold, Futura" font-size="60" font-weight="bold">
            <tspan x="292.4" y="113">Redis</tspan>
        </text>
        <text id="Redis-Dashboard" fill="url(#linearGradient-2)" fill-rule="nonzero" font-family="Futura-Bold, Futura" font-size="50" font-weight="bold">
            <tspan x="292.25" y="208">Redis Dashboard</tspan>
        </text>
        <g id="Combined-Shape" fill-rule="nonzero">
            <use fill="black" fill-opacity="1" filter="url(#filter-5)" xlink:href="#path-4"></use>
            <use fill="url(#linearGradient-3)" xlink:href="#path-4"></use>
        </g>
        <g id="Oval-Copy-20">
            <use fill="black" fill-opacity="1" filter="url(#filter-8)" xlink:href="#path-7"></use>
            <use fill="url(#linearGradient-6)" fill-rule="evenodd" xlink:href="#path-7"></use>
        </g>
        <g id="redis" transform="translate(171.000000, 167.000000)" fill-rule="nonzero">
            <path d="M57.6492188,46.1935388 C54.4471875,48.1509315 37.86,56.1495513 34.3286719,58.3087031 C30.7973437,60.4681298 28.835625,60.4472392 26.0458594,58.8831942 C23.2563281,57.3191491 5.60460937,48.9568683 2.42484375,47.1742967 C0.83578125,46.2836981 0,45.5316371 0,44.8213573 L0,37.7086632 C0,37.7086632 22.9804688,31.8414327 26.6903906,30.2804113 C30.4000781,28.7193899 31.6872656,28.6630403 34.8442969,30.019279 C38.0017969,31.3760675 56.8797656,35.370567 60,36.7108629 L59.9985937,43.7229523 C59.9990625,44.4260854 59.2790625,45.1973878 57.6492188,46.1935388" id="Path" fill="#BBBBBB"></path>
            <path d="M57.6480521,39.1872446 C54.4462521,41.1394803 37.8595167,49.120663 34.328185,51.2747595 C30.7970877,53.4296789 28.835367,53.4085603 26.045833,51.8479785 C23.2560645,50.2884938 5.60503121,41.9433581 2.42549677,40.1658308 C-0.754037665,38.3872064 -0.820600232,37.1631508 2.30268415,35.7320232 C5.42596853,34.3003472 22.9802049,26.2409982 26.6905992,24.6834334 C30.4002904,23.1264171 31.6872449,23.0696437 34.8442793,24.4234278 C38.0015481,25.7766634 54.4893771,33.4564262 57.6091459,34.79348 C60.7300865,36.1321794 60.8498522,37.2344603 57.6480521,39.1872446" id="Path" fill="#FEFEFE"></path>
            <path d="M57.6492188,34.6445471 C54.4471875,36.6022201 37.86,44.6005869 34.3286719,46.7605693 C30.7973437,48.9191773 28.835625,48.8982866 26.0458594,47.3342373 C23.2560937,45.7710126 5.60460937,37.4078842 2.42484375,35.6253077 C0.83578125,34.7347067 0,33.9837431 0,33.2731864 L0,26.1596482 C0,26.1596482 22.9804688,20.2926765 26.6903906,18.7316509 C30.4000781,17.1706252 31.6872656,17.1140005 34.8442969,18.4705178 C38.0020313,19.8270351 56.88,23.820721 60,25.1612955 L59.9985937,32.1742288 C59.9990625,32.8770889 59.2790625,33.6483934 57.6492188,34.6445471" id="Path" fill="#BBBBBB"></path>
            <path d="M57.6480521,27.6382649 C54.4462521,29.5910528 37.8595167,37.5717021 34.328185,39.7266255 C30.7970877,41.8807261 28.835367,41.8596075 26.045833,40.2990227 C23.2560645,38.7395351 5.60503121,30.394658 2.42549677,28.616853 C-0.754037665,26.8387738 -0.820600232,25.6144416 2.30268415,24.1827628 C5.42596853,22.7519069 22.9804393,14.6919941 26.6905992,13.1347006 C30.4002904,11.5774071 31.6872449,11.5209079 34.8442793,12.8744203 C38.0015481,14.2276585 54.4893771,21.9068872 57.6091459,23.2444921 C60.7300865,24.5829198 60.8498522,25.685477 57.6480521,27.6382649" id="Path" fill="#FEFEFE"></path>
            <path d="M57.6492188,22.7344699 C54.4471875,24.6916226 37.86,32.6906596 34.3286719,34.8506745 C30.7973437,37.0095899 28.835625,36.9884241 26.0458594,35.4243512 C23.2560937,33.8611029 5.60460937,25.4975737 2.42484375,23.715795 C0.83578125,22.824356 0,22.0731062 0,21.3633634 L0,14.2494432 C0,14.2494432 22.9804688,8.38265803 26.6903906,6.82188372 C30.4000781,5.26055965 31.6872656,5.20448392 34.8442969,6.56074677 C38.0020313,7.9172845 56.88,11.9110305 60,13.2516252 L59.9985937,20.2643892 C59.9990625,20.9667102 59.2790625,21.7380262 57.6492188,22.7344699" id="Path" fill="#BBBBBB"></path>
            <path d="M34.8442301,0.964884275 C38.0015051,2.31841835 54.4893663,9.99777002 57.6091412,11.3353963 C60.7300879,12.6727483 60.8498539,13.7755974 57.6480476,15.7284166 C54.4462412,17.6812358 37.8594734,25.6625613 34.3281349,27.8166964 C30.7970307,29.9708315 28.8353061,29.9497125 26.0457666,28.3899256 C24.7153709,27.6456348 20.0045837,25.3583187 15.0954969,22.976192 L13.6675908,22.2832557 C8.74992458,19.8963415 3.94190323,17.5547667 2.4256187,16.7067461 C-0.754156326,14.9289127 -0.820484647,13.7042866 2.30257146,12.2728592 C5.42586194,10.8417061 22.980367,2.78276144 26.6905342,1.22489447 C30.4002326,-0.332698237 31.6871896,-0.388649797 34.8442301,0.964884275 Z M34.8690439,17.4603494 L21.073541,19.9380685 L30.7010957,24.6102212 L34.8690439,17.4603494 Z M43.4412393,9.69205623 L34.4016227,13.888384 L42.5619056,17.6737496 L43.4482759,17.2669164 L43.4412393,9.69205623 Z M17.3532553,10.6439481 C13.2809335,10.6439481 9.97971602,12.1412747 9.97971602,13.9879776 C9.97971602,15.8349547 13.2809335,17.3322813 17.3532553,17.3322813 C21.4255771,17.3322813 24.7267945,15.8352289 24.7267945,13.9879776 C24.7267945,12.1412747 21.4255771,10.6439481 17.3532553,10.6439481 Z M43.4482759,9.69205623 L43.455298,17.2461589 L51.6024341,13.471029 L43.4482759,9.69205623 Z M26.2983006,3.7057862 L27.6319127,6.58471204 L23.1871639,8.46020964 L29.1438867,9.08656386 L31.0090687,12.7147015 L32.1638503,9.46336364 L37.3225152,8.83673518 L33.3223819,7.08409516 L34.382709,4.10726719 L30.4596861,5.61007855 L26.2983006,3.7057862 Z" id="Combined-Shape" fill="#FEFEFE"></path>
        </g>
    </g>
</svg>