<?xml version="1.0" encoding="UTF-8"?>
<svg width="889px" height="390px" viewBox="0 0 889 390" version="1.1" xmlns="http://www.w3.org/2000/svg" xmlns:xlink="http://www.w3.org/1999/xlink">
    <title>secret_docker</title>
    <defs>
        <filter x="-4.2%" y="-6.0%" width="108.3%" height="112.1%" filterUnits="objectBoundingBox" id="filter-1">
            <feOffset dx="0" dy="2" in="SourceAlpha" result="shadowOffsetOuter1"></feOffset>
            <feGaussianBlur stdDeviation="2" in="shadowOffsetOuter1" result="shadowBlurOuter1"></feGaussianBlur>
            <feColorMatrix values="0 0 0 0 0   0 0 0 0 0   0 0 0 0 0  0 0 0 0.5 0" type="matrix" in="shadowBlurOuter1" result="shadowMatrixOuter1"></feColorMatrix>
            <feMerge>
                <feMergeNode in="shadowMatrixOuter1"></feMergeNode>
                <feMergeNode in="SourceGraphic"></feMergeNode>
            </feMerge>
        </filter>
        <linearGradient x1="18.535272%" y1="35.4583839%" x2="177.398425%" y2="104.750682%" id="linearGradient-2">
            <stop stop-color="#1A0FC7" offset="0%"></stop>
            <stop stop-color="#53A0FD" offset="47.5247532%"></stop>
            <stop stop-color="#51D4EC" offset="100%"></stop>
        </linearGradient>
        <filter x="-7.3%" y="-10.6%" width="114.5%" height="121.1%" filterUnits="objectBoundingBox" id="filter-3">
            <feOffset dx="0" dy="2" in="SourceAlpha" result="shadowOffsetOuter1"></feOffset>
            <feGaussianBlur stdDeviation="2" in="shadowOffsetOuter1" result="shadowBlurOuter1"></feGaussianBlur>
            <feColorMatrix values="0 0 0 0 0   0 0 0 0 0   0 0 0 0 0  0 0 0 0.5 0" type="matrix" in="shadowBlurOuter1" result="shadowMatrixOuter1"></feColorMatrix>
            <feMerge>
                <feMergeNode in="shadowMatrixOuter1"></feMergeNode>
                <feMergeNode in="SourceGraphic"></feMergeNode>
            </feMerge>
        </filter>
        <filter x="-4.2%" y="-6.0%" width="108.3%" height="112.1%" filterUnits="objectBoundingBox" id="filter-4">
            <feOffset dx="0" dy="2" in="SourceAlpha" result="shadowOffsetOuter1"></feOffset>
            <feGaussianBlur stdDeviation="2" in="shadowOffsetOuter1" result="shadowBlurOuter1"></feGaussianBlur>
            <feColorMatrix values="0 0 0 0 0   0 0 0 0 0   0 0 0 0 0  0 0 0 0.5 0" type="matrix" in="shadowBlurOuter1" result="shadowMatrixOuter1"></feColorMatrix>
            <feMerge>
                <feMergeNode in="shadowMatrixOuter1"></feMergeNode>
                <feMergeNode in="SourceGraphic"></feMergeNode>
            </feMerge>
        </filter>
        <linearGradient x1="0.25781251%" y1="49.9231199%" x2="133.446935%" y2="58.7361702%" id="linearGradient-5">
            <stop stop-color="#1A0FC7" offset="0%"></stop>
            <stop stop-color="#53A0FD" offset="47.5247532%"></stop>
            <stop stop-color="#51D4EC" offset="100%"></stop>
        </linearGradient>
        <linearGradient x1="0.25781251%" y1="49.7500002%" x2="473.410086%" y2="49.7500002%" id="linearGradient-6">
            <stop stop-color="#1A0FC7" offset="0%"></stop>
            <stop stop-color="#53A0FD" offset="47.5247532%"></stop>
            <stop stop-color="#51D4EC" offset="100%"></stop>
        </linearGradient>
        <linearGradient x1="0.25781251%" y1="49.7500002%" x2="226.757914%" y2="49.7500002%" id="linearGradient-7">
            <stop stop-color="#1A0FC7" offset="0%"></stop>
            <stop stop-color="#53A0FD" offset="59.3146802%"></stop>
            <stop stop-color="#51D4EC" offset="100%"></stop>
        </linearGradient>
        <linearGradient x1="-65.3578558%" y1="78.4083986%" x2="133.446935%" y2="78.4083986%" id="linearGradient-8">
            <stop stop-color="#1A0FC7" offset="0%"></stop>
            <stop stop-color="#53A0FD" offset="30.623371%"></stop>
            <stop stop-color="#51D4EC" offset="100%"></stop>
        </linearGradient>
        <linearGradient x1="-65.3578558%" y1="78.4083986%" x2="133.446935%" y2="78.4083986%" id="linearGradient-9">
            <stop stop-color="#1A0FC7" offset="0%"></stop>
            <stop stop-color="#53A0FD" offset="39.0680167%"></stop>
            <stop stop-color="#51D4EC" offset="100%"></stop>
        </linearGradient>
        <linearGradient x1="-65.3578558%" y1="78.4083986%" x2="133.446935%" y2="78.4083986%" id="linearGradient-10">
            <stop stop-color="#1A0FC7" offset="0%"></stop>
            <stop stop-color="#53A0FD" offset="35.8395686%"></stop>
            <stop stop-color="#51D4EC" offset="100%"></stop>
        </linearGradient>
        <linearGradient x1="-63.15822%" y1="51.9429273%" x2="258.249948%" y2="51.9429273%" id="linearGradient-11">
            <stop stop-color="#1A0FC7" offset="0%"></stop>
            <stop stop-color="#53A0FD" offset="36.1395368%"></stop>
            <stop stop-color="#51D4EC" offset="100%"></stop>
        </linearGradient>
        <linearGradient x1="0.25781251%" y1="49.7500002%" x2="226.757914%" y2="49.7500002%" id="linearGradient-12">
            <stop stop-color="#1A0FC7" offset="0%"></stop>
            <stop stop-color="#53A0FD" offset="55.1111782%"></stop>
            <stop stop-color="#51D4EC" offset="100%"></stop>
        </linearGradient>
        <linearGradient x1="-65.3578558%" y1="78.4083986%" x2="133.446935%" y2="78.4083986%" id="linearGradient-13">
            <stop stop-color="#1A0FC7" offset="0%"></stop>
            <stop stop-color="#53A0FD" offset="35.7859844%"></stop>
            <stop stop-color="#51D4EC" offset="100%"></stop>
        </linearGradient>
        <linearGradient x1="-63.15822%" y1="51.9429273%" x2="258.249948%" y2="51.9429273%" id="linearGradient-14">
            <stop stop-color="#1A0FC7" offset="0%"></stop>
            <stop stop-color="#53A0FD" offset="35.4849401%"></stop>
            <stop stop-color="#51D4EC" offset="100%"></stop>
        </linearGradient>
    </defs>
    <g id="secret_docker" stroke="none" stroke-width="1" fill="none" fill-rule="evenodd">
        <g id="secret-email" filter="url(#filter-1)" transform="translate(57.000000, 96.000000)" fill="url(#linearGradient-2)" fill-rule="nonzero">
            <path d="M266.21476,0 L22.78463,0 C10.197573,0 0,10.2632954 0,22.9252686 L0,176.075959 C0,188.736705 10.197573,199 22.78463,199 L266.21476,199 C278.801817,199 289,188.736705 289,176.075959 L289,22.9252686 C289,10.2632954 278.801817,0 266.21476,0 Z M157.105978,107.865596 L157.105978,125.820991 C157.105978,132.824246 151.470702,138.501382 144.5,138.501382 C137.537843,138.501382 131.893412,132.824246 131.893412,125.820991 L131.893412,107.865596 C126.794626,104.005118 123.464607,97.9289183 123.464607,91.0214387 C123.464607,79.3387056 132.880943,69.8520488 144.5,69.8520488 C156.118446,69.8520488 165.535393,79.3387056 165.535393,91.0214387 C165.535393,97.9295322 162.204764,104.005118 157.105978,107.865596 Z M102.259538,111.517946 L36.0021689,174.428135 C34.1387987,176.198134 31.7596905,177.073618 29.3891271,177.073618 C26.8305787,177.073618 24.2805751,176.056313 22.3799741,174.036439 C18.7301365,170.14158 18.9089663,164.009511 22.7754749,160.338743 L88.2235325,98.1941419 L22.7754749,36.0507691 C18.9089663,32.3787724 18.7295261,26.2460896 22.3799741,22.3524592 C26.0395771,18.467424 32.1271156,18.2832409 36.0021689,21.9601492 L109.042255,91.3142898 C109.108172,99.783642 112.090297,107.742193 117.443595,114.044938 L117.443595,125.821605 C117.443595,125.869492 117.453361,125.907557 117.453361,125.95483 L102.259538,111.517946 Z M266.23307,160.338129 C270.100189,164.008898 270.278408,170.14158 266.62796,174.035825 C264.72797,176.055699 262.177966,177.073004 259.620028,177.073004 C257.248854,177.073004 254.869136,176.19752 253.006376,174.427521 L186.748396,111.516718 L171.546029,125.953603 C171.546029,125.91124 171.555794,125.868264 171.555794,125.820377 L171.555794,114.04371 C174.500688,110.585366 176.654581,106.59596 178.083999,102.328438 C179.25097,98.8277317 179.928449,95.1360888 179.956524,91.322885 C179.956524,91.3179734 179.956524,91.3179734 179.956524,91.3179734 L253.005766,21.9589213 C256.881429,18.2826269 262.968357,18.46681 266.62735,22.3512313 C270.277188,26.2448617 270.098968,32.3775445 266.23246,36.0495412 L200.785012,98.192914 L266.23307,160.338129 Z" id="Shape"></path>
        </g>
        <g id="docker-copy" filter="url(#filter-3)" transform="translate(543.000000, 96.000000)">
            <g id="Group" filter="url(#filter-4)">
                <path d="M283.232302,91.9569233 C269.713214,108.208997 243.223617,106.939914 243.223617,106.939914 C226.886788,176.406785 128.225704,211.762248 59.7248224,194.393699 C-8.76925573,177.031255 0.653102056,96.3959663 0.653102056,96.3959663 L201.122036,96.3959663 C217.665433,96.3959663 218.92587,91.4337853 218.92587,91.4337853 C204.262616,57.1117791 226.887407,38.7103834 226.887407,38.7103834 C244.484673,41.8168589 248.878887,71.5844509 248.878887,71.5844509 C263.321967,69.0267515 274.92195,72.0691319 282.017632,74.9967515 C290.913907,80.3653846 290.913907,80.3653846 283.232302,91.9569233 Z" id="Path" fill="url(#linearGradient-5)"></path>
                <rect id="Rectangle" fill="url(#linearGradient-6)" x="22.0174557" y="64.9698374" width="28.072256" height="25.2229448"></rect>
                <rect id="Rectangle" fill="url(#linearGradient-7)" x="57.2954807" y="64.9698374" width="28.072256" height="25.2229448"></rect>
                <rect id="Rectangle" fill="url(#linearGradient-8)" x="163.116568" y="64.9698374" width="28.072256" height="25.2229448"></rect>
                <rect id="Rectangle" fill="url(#linearGradient-9)" x="127.844727" y="64.9698374" width="28.072256" height="25.2229448"></rect>
                <rect id="Rectangle" fill="url(#linearGradient-10)" x="127.844727" y="0.465757669" width="28.072256" height="25.2229448"></rect>
                <rect id="Rectangle" fill="url(#linearGradient-11)" x="92.5667025" y="64.9698374" width="28.072256" height="25.2229448"></rect>
                <rect id="Rectangle" fill="url(#linearGradient-12)" x="57.2954807" y="32.7147454" width="28.072256" height="25.2229448"></rect>
                <rect id="Rectangle" fill="url(#linearGradient-13)" x="127.844727" y="32.7147454" width="28.072256" height="25.2229448"></rect>
                <rect id="Rectangle" fill="url(#linearGradient-14)" x="92.5667025" y="32.7147454" width="28.072256" height="25.2229448"></rect>
            </g>
        </g>
    </g>
</svg>