<?xml version="1.0" encoding="UTF-8"?>
<svg width="756px" height="377px" viewBox="0 0 756 377" version="1.1" xmlns="http://www.w3.org/2000/svg" xmlns:xlink="http://www.w3.org/1999/xlink">
    <title>secret</title>
    <defs>
        <rect id="path-1" x="0" y="0" width="140" height="179"></rect>
        <filter x="-5.0%" y="-2.8%" width="110.0%" height="107.8%" filterUnits="objectBoundingBox" id="filter-2">
            <feOffset dx="0" dy="2" in="SourceAlpha" result="shadowOffsetOuter1"></feOffset>
            <feGaussianBlur stdDeviation="2" in="shadowOffsetOuter1" result="shadowBlurOuter1"></feGaussianBlur>
            <feColorMatrix values="0 0 0 0 0   0 0 0 0 0   0 0 0 0 0  0 0 0 0.5 0" type="matrix" in="shadowBlurOuter1"></feColorMatrix>
        </filter>
        <rect id="path-3" x="0" y="0" width="140" height="179"></rect>
        <filter x="-5.0%" y="-2.8%" width="110.0%" height="107.8%" filterUnits="objectBoundingBox" id="filter-4">
            <feOffset dx="0" dy="2" in="SourceAlpha" result="shadowOffsetOuter1"></feOffset>
            <feGaussianBlur stdDeviation="2" in="shadowOffsetOuter1" result="shadowBlurOuter1"></feGaussianBlur>
            <feColorMatrix values="0 0 0 0 0   0 0 0 0 0   0 0 0 0 0  0 0 0 0.5 0" type="matrix" in="shadowBlurOuter1"></feColorMatrix>
        </filter>
        <rect id="path-5" x="0" y="0" width="140" height="179"></rect>
        <filter x="-5.0%" y="-2.8%" width="110.0%" height="107.8%" filterUnits="objectBoundingBox" id="filter-6">
            <feOffset dx="0" dy="2" in="SourceAlpha" result="shadowOffsetOuter1"></feOffset>
            <feGaussianBlur stdDeviation="2" in="shadowOffsetOuter1" result="shadowBlurOuter1"></feGaussianBlur>
            <feColorMatrix values="0 0 0 0 0   0 0 0 0 0   0 0 0 0 0  0 0 0 0.5 0" type="matrix" in="shadowBlurOuter1"></feColorMatrix>
        </filter>
        <rect id="path-7" x="0" y="0" width="140" height="179"></rect>
        <filter x="-5.0%" y="-2.8%" width="110.0%" height="107.8%" filterUnits="objectBoundingBox" id="filter-8">
            <feOffset dx="0" dy="2" in="SourceAlpha" result="shadowOffsetOuter1"></feOffset>
            <feGaussianBlur stdDeviation="2" in="shadowOffsetOuter1" result="shadowBlurOuter1"></feGaussianBlur>
            <feColorMatrix values="0 0 0 0 0   0 0 0 0 0   0 0 0 0 0  0 0 0 0.5 0" type="matrix" in="shadowBlurOuter1"></feColorMatrix>
        </filter>
        <filter x="-4.9%" y="-7.1%" width="109.8%" height="114.2%" filterUnits="objectBoundingBox" id="filter-9">
            <feOffset dx="0" dy="2" in="SourceAlpha" result="shadowOffsetOuter1"></feOffset>
            <feGaussianBlur stdDeviation="2" in="shadowOffsetOuter1" result="shadowBlurOuter1"></feGaussianBlur>
            <feColorMatrix values="0 0 0 0 0   0 0 0 0 0   0 0 0 0 0  0 0 0 0.5 0" type="matrix" in="shadowBlurOuter1" result="shadowMatrixOuter1"></feColorMatrix>
            <feMerge>
                <feMergeNode in="shadowMatrixOuter1"></feMergeNode>
                <feMergeNode in="SourceGraphic"></feMergeNode>
            </feMerge>
        </filter>
        <linearGradient x1="18.535272%" y1="35.4070381%" x2="177.398425%" y2="104.944004%" id="linearGradient-10">
            <stop stop-color="#1A0FC7" offset="0%"></stop>
            <stop stop-color="#53A0FD" offset="47.5247532%"></stop>
            <stop stop-color="#51D4EC" offset="100%"></stop>
        </linearGradient>
    </defs>
    <g id="secret" stroke="none" stroke-width="1" fill="none" fill-rule="evenodd">
        <g id="Group-Copy-2" transform="translate(454.000000, 94.000000)">
            <g id="Rectangle">
                <use fill="black" fill-opacity="1" filter="url(#filter-2)" xlink:href="#path-1"></use>
                <use fill="#FFFFFF" fill-rule="evenodd" xlink:href="#path-1"></use>
            </g>
            <line x1="22.8557908" y1="68.0978261" x2="118.45262" y2="68.0978261" id="Line" stroke="#4A4A4A" stroke-linecap="square"></line>
            <line x1="22.8557908" y1="79.7717391" x2="118.45262" y2="79.7717391" id="Line-Copy" stroke="#4A4A4A" stroke-linecap="square"></line>
            <line x1="22.8557908" y1="56.423913" x2="118.45262" y2="56.423913" id="Line-Copy-2" stroke="#4A4A4A" stroke-linecap="square"></line>
            <line x1="89.6" y1="20.1050725" x2="119.745794" y2="20.1050725" id="Line-Copy-3" stroke="#4A4A4A" stroke-linecap="square"></line>
            <line x1="60.787717" y1="43.4528986" x2="118.464619" y2="43.4528986" id="Line-Copy-5" stroke="#4A4A4A" stroke-linecap="square"></line>
            <line x1="75.1806012" y1="31.7789855" x2="118.464259" y2="31.7789855" id="Line-Copy-4" stroke="#4A4A4A" stroke-linecap="square"></line>
        </g>
        <g id="Group-Copy-3" transform="translate(486.000000, 94.000000)">
            <g id="Rectangle">
                <use fill="black" fill-opacity="1" filter="url(#filter-4)" xlink:href="#path-3"></use>
                <use fill="#FFFFFF" fill-rule="evenodd" xlink:href="#path-3"></use>
            </g>
            <line x1="22.8557908" y1="68.0978261" x2="118.45262" y2="68.0978261" id="Line" stroke="#4A4A4A" stroke-linecap="square"></line>
            <line x1="22.8557908" y1="79.7717391" x2="118.45262" y2="79.7717391" id="Line-Copy" stroke="#4A4A4A" stroke-linecap="square"></line>
            <line x1="22.8557908" y1="56.423913" x2="118.45262" y2="56.423913" id="Line-Copy-2" stroke="#4A4A4A" stroke-linecap="square"></line>
            <line x1="89.6" y1="20.1050725" x2="119.745794" y2="20.1050725" id="Line-Copy-3" stroke="#4A4A4A" stroke-linecap="square"></line>
            <line x1="60.787717" y1="43.4528986" x2="118.464619" y2="43.4528986" id="Line-Copy-5" stroke="#4A4A4A" stroke-linecap="square"></line>
            <line x1="75.1806012" y1="31.7789855" x2="118.464259" y2="31.7789855" id="Line-Copy-4" stroke="#4A4A4A" stroke-linecap="square"></line>
        </g>
        <g id="Group-Copy-4" transform="translate(519.000000, 94.000000)">
            <g id="Rectangle">
                <use fill="black" fill-opacity="1" filter="url(#filter-6)" xlink:href="#path-5"></use>
                <use fill="#FFFFFF" fill-rule="evenodd" xlink:href="#path-5"></use>
            </g>
            <line x1="22.8557908" y1="68.0978261" x2="118.45262" y2="68.0978261" id="Line" stroke="#4A4A4A" stroke-linecap="square"></line>
            <line x1="22.8557908" y1="79.7717391" x2="118.45262" y2="79.7717391" id="Line-Copy" stroke="#4A4A4A" stroke-linecap="square"></line>
            <line x1="22.8557908" y1="56.423913" x2="118.45262" y2="56.423913" id="Line-Copy-2" stroke="#4A4A4A" stroke-linecap="square"></line>
            <line x1="89.6" y1="20.1050725" x2="119.745794" y2="20.1050725" id="Line-Copy-3" stroke="#4A4A4A" stroke-linecap="square"></line>
            <line x1="60.787717" y1="43.4528986" x2="118.464619" y2="43.4528986" id="Line-Copy-5" stroke="#4A4A4A" stroke-linecap="square"></line>
            <line x1="75.1806012" y1="31.7789855" x2="118.464259" y2="31.7789855" id="Line-Copy-4" stroke="#4A4A4A" stroke-linecap="square"></line>
        </g>
        <g id="Group-Copy-5" transform="translate(551.000000, 94.000000)">
            <g id="Rectangle">
                <use fill="black" fill-opacity="1" filter="url(#filter-8)" xlink:href="#path-7"></use>
                <use fill="#FFFFFF" fill-rule="evenodd" xlink:href="#path-7"></use>
            </g>
            <line x1="22.8557908" y1="68.0978261" x2="118.45262" y2="68.0978261" id="Line" stroke="#4A4A4A" stroke-linecap="square"></line>
            <line x1="22.8557908" y1="79.7717391" x2="118.45262" y2="79.7717391" id="Line-Copy" stroke="#4A4A4A" stroke-linecap="square"></line>
            <line x1="22.8557908" y1="56.423913" x2="118.45262" y2="56.423913" id="Line-Copy-2" stroke="#4A4A4A" stroke-linecap="square"></line>
            <line x1="89.6" y1="20.1050725" x2="119.745794" y2="20.1050725" id="Line-Copy-3" stroke="#4A4A4A" stroke-linecap="square"></line>
            <line x1="60.787717" y1="43.4528986" x2="118.464619" y2="43.4528986" id="Line-Copy-5" stroke="#4A4A4A" stroke-linecap="square"></line>
            <line x1="75.1806012" y1="31.7789855" x2="118.464259" y2="31.7789855" id="Line-Copy-4" stroke="#4A4A4A" stroke-linecap="square"></line>
        </g>
        <g id="secret-email" filter="url(#filter-9)" transform="translate(65.000000, 104.000000)" fill="url(#linearGradient-10)" fill-rule="nonzero">
            <path d="M225.683793,0 L19.3156898,0 C8.64500133,0 0,8.71606496 0,19.4691979 L0,149.531845 C0,160.283935 8.64500133,169 19.3156898,169 L225.683793,169 C236.354481,169 245,160.283935 245,149.531845 L245,19.4691979 C245,8.71606496 236.354481,0 225.683793,0 Z M133.186728,91.6044506 L133.186728,106.853002 C133.186728,112.80049 128.409418,117.621777 122.5,117.621777 C116.597826,117.621777 111.812754,112.80049 111.812754,106.853002 L111.812754,91.6044506 C107.490254,88.3259547 104.667227,83.1657648 104.667227,77.2996137 C104.667227,67.3780967 112.649935,59.3215892 122.5,59.3215892 C132.349548,59.3215892 140.332773,67.3780967 140.332773,77.2996137 C140.332773,83.1662862 137.509229,88.3259547 133.186728,91.6044506 Z M86.6906122,94.7061956 L30.5208699,148.132436 C28.9411961,149.635601 26.9243051,150.379102 24.9146579,150.379102 C22.7456463,150.379102 20.5838786,149.51516 18.9726424,147.79979 C15.8784894,144.492096 16.0300925,139.28446 19.3079285,136.167073 L74.791576,83.391005 L19.3079285,30.6159798 C16.0300925,27.4975504 15.877972,22.2893927 18.9726424,18.9827417 C22.075074,15.6833902 27.23579,15.5269734 30.5208699,18.6495739 L92.440666,77.5483164 C92.496547,84.7408819 95.0246459,91.4996514 99.5629094,96.852234 L99.5629094,106.853524 C99.5629094,106.894192 99.5711881,106.926518 99.5711881,106.966665 L86.6906122,94.7061956 Z M225.699315,136.166551 C228.977669,139.283938 229.128754,144.492096 226.034084,147.799268 C224.423365,149.514639 222.261598,150.378581 220.093103,150.378581 C218.082939,150.378581 216.06553,149.63508 214.486374,148.131915 L158.316114,94.7051528 L145.428294,106.965622 C145.428294,106.929646 145.436573,106.893149 145.436573,106.852481 L145.436573,96.8511912 C147.93311,93.9142052 149.759074,90.5262176 150.970864,86.9020405 C151.960165,83.9290787 152.534498,80.7939648 152.558299,77.5556159 C152.558299,77.5514448 152.558299,77.5514448 152.558299,77.5514448 L214.485857,18.6485312 C217.771454,15.526452 222.931652,15.6828688 226.033567,18.9816989 C229.12772,22.2883499 228.976634,27.4965076 225.698798,30.614937 L170.215668,83.3899622 L225.699315,136.166551 Z" id="Shape"></path>
        </g>
    </g>
</svg>