<?xml version="1.0" encoding="UTF-8"?>
<svg width="1323px" height="368px" viewBox="0 0 1323 368" version="1.1" xmlns="http://www.w3.org/2000/svg" xmlns:xlink="http://www.w3.org/1999/xlink">
    <title>service-archive-procedure</title>
    <defs>
        <filter x="-6.4%" y="-6.4%" width="112.8%" height="112.8%" filterUnits="objectBoundingBox" id="filter-1">
            <feOffset dx="0" dy="2" in="SourceAlpha" result="shadowOffsetOuter1"></feOffset>
            <feGaussianBlur stdDeviation="2" in="shadowOffsetOuter1" result="shadowBlurOuter1"></feGaussianBlur>
            <feColorMatrix values="0 0 0 0 0   0 0 0 0 0   0 0 0 0 0  0 0 0 0.5 0" type="matrix" in="shadowBlurOuter1" result="shadowMatrixOuter1"></feColorMatrix>
            <feMerge>
                <feMergeNode in="shadowMatrixOuter1"></feMergeNode>
                <feMergeNode in="SourceGraphic"></feMergeNode>
            </feMerge>
        </filter>
    </defs>
    <g id="service-archive-procedure" stroke="none" stroke-width="1" fill="none" fill-rule="evenodd">
        <g id="Group-2" filter="url(#filter-1)" transform="translate(1055.000000, 75.000000)" fill="#DB0A3D" fill-opacity="0.3" stroke="#DB0A3D" stroke-width="3">
            <path d="M97.6096758,0.663933713 C105.813675,-0.246241267 114.064937,-0.216907069 122.244491,0.72912082 C125.45585,1.10313185 127.809977,3.90373293 127.618485,7.12479085 C127.036676,17.3795376 132.981887,26.9327081 142.409804,30.8985287 C151.469406,34.6785661 163.193596,31.9920425 169.720616,24.7636071 C171.884881,22.3671661 175.546857,22.0884912 178.04277,24.0913651 C184.416596,29.1971453 190.254246,35.08843 195.390301,41.6104001 C197.364704,44.1127702 197.078689,47.7151727 194.724562,49.867162 C187.245786,56.7272902 184.785727,67.6119074 188.600897,76.9450714 C192.335395,86.0574141 201.240173,91.9495137 211.275161,91.9495137 C214.378959,91.9495137 217.968412,94.2628412 218.314727,97.3413023 C219.242037,105.634732 219.230629,114.009646 218.265836,122.243592 C217.885297,125.448353 214.996622,127.866795 211.85697,127.61175 L211.85697,127.61175 L210.502675,127.576712 C200.822966,127.576712 191.823664,133.539703 188.101388,142.420631 C184.141989,151.854835 186.615086,162.835604 194.236461,169.737288 C196.626442,171.899871 196.911643,175.550349 194.890793,178.059237 C189.683029,184.545355 183.726411,190.436639 177.17576,195.573383 C174.653772,197.521663 171.076541,197.237284 168.911461,194.8824 C162.396664,187.725671 150.803666,185.031813 141.792141,188.71244 C132.470155,192.529146 126.442644,201.915274 126.810145,212.063277 C126.916892,215.249297 124.564394,217.983896 121.388889,218.334277 C117.382227,218.779994 113.374751,219 109.36809,219 C105.147121,219 100.93756,218.756363 96.7532591,218.268275 C93.5549378,217.899968 91.1894024,215.094477 91.3792645,211.87179 C91.9610738,201.611339 86.0158631,192.058984 76.5643146,188.105386 C67.5405669,184.318015 55.8171917,186.999649 49.265726,194.246011 C47.0908675,196.642452 43.4402996,196.927646 40.931349,194.90603 C34.5347065,189.757879 28.6962423,183.86089 23.6082633,177.380477 C21.6338601,174.878107 21.9312836,171.281408 24.274003,169.129419 C31.7641862,162.263587 34.2250601,151.385488 30.3968529,142.052324 C26.5564228,132.706938 17.4014829,126.80343 7.86600383,127.047067 C4.72798214,127.047067 1.02933752,124.75411 0.685467054,121.662612 C-0.241842393,113.369182 -0.230434369,104.986935 0.732728871,96.7603222 C1.11245313,93.6036366 3.58554994,91.2731975 7.05766379,91.3848304 C17.7575762,91.3848304 27.104008,85.5839928 30.8841385,76.583283 C34.843538,67.1425602 32.3826641,56.1634217 24.7612886,49.2617368 C22.3835303,47.0983397 22.0861068,43.4535655 24.1077718,40.9389729 C29.2910893,34.4707822 35.2599309,28.5746084 41.8228046,23.4256418 C44.3309404,21.4708434 47.9334316,21.760926 50.0862889,24.1206993 C56.6002711,31.2847624 68.2421604,33.9484705 77.1933856,30.2922887 C86.5275945,26.4690648 92.5445128,17.0829363 92.1876046,6.92922953 C92.0808581,3.74891355 94.4349855,1.01431441 97.6096758,0.663933713 Z M110.486486,40.7747748 C71.9857712,40.7747748 40.7747748,71.9857712 40.7747748,110.486486 C40.7747748,148.987202 71.9857712,180.198198 110.486486,180.198198 C148.987202,180.198198 180.198198,148.987202 180.198198,110.486486 C180.198198,71.9857712 148.987202,40.7747748 110.486486,40.7747748 Z" id="Combined-Shape" fill-rule="nonzero"></path>
            <circle id="Oval-Copy-2" cx="110" cy="110" r="48"></circle>
        </g>
        <path id="Line-4" d="M1017,198 L1031,205 L1017,212 L1017,206 L791,206 L791,204 L1017,204 L1017,198 Z" fill="#DB0A6C" fill-rule="nonzero"></path>
        <path id="Line-4-Copy" d="M584,198 L598,205 L584,212 L584,206 L358,206 L358,204 L584,204 L584,198 Z" fill="#0FD11B" fill-rule="nonzero"></path>
        <path id="Line-4-Copy-2" d="M1017,126 L1031,133 L1017,140 L1017,134 L358,134 L358,132 L1017,132 L1017,126 Z" fill="#DB0A6C" fill-rule="nonzero"></path>
        <text id="Destroy-Request" font-family="Helvetica" font-size="18" font-weight="normal" fill="#A5A5A5">
            <tspan x="119.470215" y="339">Destroy Request</tspan>
        </text>
        <text id="Archive" font-family="Helvetica" font-size="18" font-weight="normal" fill="#A5A5A5">
            <tspan x="665.489746" y="345">Archive</tspan>
        </text>
        <text id="Archive-First" font-family="Helvetica" font-size="18" font-weight="normal" fill="#A5A5A5">
            <tspan x="428.494629" y="237">Archive First</tspan>
        </text>
        <text id="Destroy-Then" font-family="Helvetica" font-size="18" font-weight="normal" fill="#A5A5A5">
            <tspan x="857.63623" y="237">Destroy Then</tspan>
        </text>
        <text id="SVC" font-family="Helvetica" font-size="18" font-weight="normal" fill="#A5A5A5">
            <tspan x="1145.99463" y="343">SVC</tspan>
        </text>
        <g id="Group-4" transform="translate(24.000000, 80.000000)" fill="#A5A5A5">
            <text id="CLIENT" font-family="Helvetica-Bold, Helvetica" font-size="90" font-weight="bold">
                <tspan x="0.0122070312" y="87">CLIENT</tspan>
            </text>
            <text id="REQUEST" font-family="Helvetica" font-size="60" font-weight="normal">
                <tspan x="17.4804688" y="155">REQUEST</tspan>
            </text>
        </g>
        <g id="folder-copy-4" transform="translate(609.000000, 153.000000)" fill="#1757FF" fill-opacity="0.5" fill-rule="nonzero" stroke="#1757FF" stroke-width="3">
            <path d="M92,103.639893 L92,79 L82,79 L82,103.639893 C82,106.361451 79.7613333,108.567871 77,108.567871 L72,108.567871 L72,114.144043 L87,124 L102,114.144043 L102,108.567871 L97,108.567871 C94.2386667,108.567871 92,106.361451 92,103.639893 Z" id="Path"></path>
            <path d="M157.115385,32.7712 L88.7794538,32.7712 L69.9715846,2.34800851 C69.0695769,0.889268085 67.4673308,0 65.7403846,0 L14.8846154,0 C6.67723846,0 0,6.61446383 0,14.7446809 L0,139.255319 C0,147.385536 6.67723846,154 14.8846154,154 L157.115385,154 C165.322762,154 172,147.385536 172,139.255319 L172,47.5158809 C172,39.3853362 165.322762,32.7712 157.115385,32.7712 Z M110.807692,116.226749 C110.807692,117.870289 109.978454,119.404719 108.598154,120.31594 L88.752,133.422323 C87.9184615,133.972791 86.9592308,134.248026 86,134.248026 C85.0407692,134.248026 84.0812077,133.972791 83.248,133.422323 L63.4018462,120.31594 C62.0215462,119.404719 61.1923077,117.869962 61.1923077,116.226749 L61.1923077,103.120366 C61.1923077,100.406034 63.4137538,98.2054723 66.1538462,98.2054723 L71.1153846,98.2054723 L71.1153846,73.6310043 C71.1153846,70.9166723 73.3368308,68.7161106 76.0769231,68.7161106 L95.9230769,68.7161106 C98.6631692,68.7161106 100.884615,70.9166723 100.884615,73.6310043 L100.884615,98.2054723 L105.846154,98.2054723 C108.586246,98.2054723 110.807692,100.406034 110.807692,103.120366 L110.807692,116.226749 Z" id="Shape"></path>
            <path d="M155,22 L155,20.4956814 C155,13.0541627 148.405934,7 140.300789,7 L83,7 L93.0052627,22 L155,22 Z" id="Path"></path>
        </g>
        <text id="Destroy-Without-Arch" font-family="Helvetica" font-size="18" font-weight="normal" fill="#A5A5A5">
            <tspan x="598.461914" y="101">Destroy Without Archive</tspan>
        </text>
    </g>
</svg>