<?xml version="1.0" encoding="UTF-8"?>
<svg width="794px" height="292px" viewBox="0 0 794 292" version="1.1" xmlns="http://www.w3.org/2000/svg" xmlns:xlink="http://www.w3.org/1999/xlink">
    <title>service-archive-banner</title>
    <defs>
        <path d="M179.068332,164.389918 C178.113162,164.500428 177.157925,164.591442 176.202666,164.663133 C178.474642,164.190553 180.572373,163.241212 182.384071,161.925313 C181.784462,163.24945 180.558889,164.21887 179.068332,164.389918 Z M179.653834,9.51903346 C181.851418,9.78521933 183.462384,11.7784238 183.331344,14.0708699 C182.933202,21.3692342 187.001604,28.1682825 193.453277,30.9907807 C199.652905,33.6810558 207.675953,31.7690409 212.142496,26.6245204 C213.623537,24.9189591 216.129485,24.7206245 217.837477,26.1460818 C222.199187,29.7798959 226.193983,33.9727584 229.708667,38.6144833 C231.059782,40.3954349 230.864057,42.9592862 229.253091,44.4908699 C224.135247,49.3732639 222.45179,57.1199108 225.06257,63.7623792 C227.618147,70.2476877 233.711827,74.4411301 240.578927,74.4411301 C242.702905,74.4411301 245.159225,76.087539 245.396213,78.2784981 C246.030786,84.1809814 246.022979,90.1414572 245.362756,96.0016059 C245.110238,98.2133369 243.243809,99.8988426 241.171872,99.8334533 L240.977068,99.8221561 L240.050303,99.7972193 C233.426325,99.7972193 227.267961,104.041115 224.720749,110.361725 C222.011269,117.076104 223.703648,124.891182 228.919076,129.803152 C230.554578,131.342275 230.749745,133.940342 229.366845,135.725933 C225.803091,140.342141 221.726883,144.535004 217.244169,148.190855 C215.518332,149.577457 213.070377,149.375063 211.588779,147.699078 C207.1306,142.605591 199.197329,140.688357 193.0306,143.307881 C191.558356,143.934789 190.206192,144.772823 189.000191,145.779922 L189.000758,118.562505 C200.308985,112.239341 207.998444,99.8050712 207.998444,85.5 C207.998444,71.1949288 200.308985,58.7606591 189.000758,52.437495 L189,49.5269617 L188.996939,49.2127813 C188.827843,40.5403157 181.673606,33.5376 172.903846,33.5376 L172.903846,33.5376 L116.341672,33.5373295 C118.901427,30.7101785 121.673211,28.0767556 124.620005,25.6722825 C124.986628,25.3751057 125.387421,25.1508275 125.805416,24.9982325 L128.577589,24.9982315 C129.208577,25.2283033 129.794447,25.6193202 130.274838,26.1669591 C134.732459,31.2656654 142.699187,33.1614424 148.824652,30.559316 C151.619397,29.3687913 153.979575,27.4203551 155.729997,24.9998609 L171,25 L171,23.1948177 L170.996972,22.8766127 C170.888621,17.1876079 167.881323,12.2077728 163.418436,9.40499917 L162.795842,9.47263941 C168.409968,8.82486245 174.056437,8.84573978 179.653834,9.51903346 Z" id="path-1"></path>
        <filter x="8.9%" y="-3.2%" width="95.8%" height="109.0%" filterUnits="objectBoundingBox" id="filter-2">
            <feOffset dx="0" dy="2" in="SourceAlpha" result="shadowOffsetOuter1"></feOffset>
            <feGaussianBlur stdDeviation="2" in="shadowOffsetOuter1" result="shadowBlurOuter1"></feGaussianBlur>
            <feColorMatrix values="0 0 0 0 0   0 0 0 0 0   0 0 0 0 0  0 0 0 0.5 0" type="matrix" in="shadowBlurOuter1"></feColorMatrix>
        </filter>
    </defs>
    <g id="service-archive-banner" stroke="none" stroke-width="1" fill="none" fill-rule="evenodd">
        <g id="Group" transform="translate(19.000000, 65.000000)" fill-rule="nonzero">
            <g id="Combined-Shape">
                <use fill="black" fill-opacity="1" filter="url(#filter-2)" xlink:href="#path-1"></use>
                <use fill="#1757FF" xlink:href="#path-1"></use>
            </g>
            <g id="folder-copy-4" transform="translate(0.000000, 0.000000)" fill="#1757FF" fill-opacity="0.5" stroke="#1757FF" stroke-width="3">
                <path d="M99.4137931,112.959873 L99.4137931,86.6126374 L88.7241379,86.6126374 L88.7241379,112.959873 C88.7241379,115.870013 86.3310805,118.22932 83.3793103,118.22932 L78.0344828,118.22932 L78.0344828,124.191875 L94.0689655,134.730769 L110.103448,124.191875 L110.103448,118.22932 L104.758621,118.22932 C101.806851,118.22932 99.4137931,115.870013 99.4137931,112.959873 Z" id="Path"></path>
                <path d="M169.903846,35.4970667 L96.0056885,35.4970667 L75.6669462,2.54331287 C74.6915192,0.963236272 72.9588577,0 71.0913462,0 L16.0961538,0 C7.22073462,0 0,7.1646465 0,15.9711246 L0,150.838399 C0,159.644877 7.22073462,166.809524 16.0961538,166.809524 L169.903846,166.809524 C178.779265,166.809524 186,159.644877 186,150.838399 L186,51.4681913 C186,42.6613583 178.779265,35.4970667 169.903846,35.4970667 Z M119.826923,125.894342 C119.826923,127.67459 118.930188,129.336652 117.437538,130.323667 L95.976,144.520222 C95.0746154,145.116478 94.0373077,145.414605 93,145.414605 C91.9626923,145.414605 90.9250269,145.116478 90.024,144.520222 L68.5624615,130.323667 C67.0698115,129.336652 66.1730769,127.674235 66.1730769,125.894342 L66.1730769,111.697787 C66.1730769,108.75768 68.5753385,106.374078 71.5384615,106.374078 L76.9038462,106.374078 L76.9038462,79.7555374 C76.9038462,76.8154308 79.3061077,74.4318292 82.2692308,74.4318292 L103.730769,74.4318292 C106.693892,74.4318292 109.096154,76.8154308 109.096154,79.7555374 L109.096154,106.374078 L114.461538,106.374078 C117.424662,106.374078 119.826923,108.75768 119.826923,111.697787 L119.826923,125.894342 Z" id="Shape"></path>
                <path d="M168.896552,25.6630037 L168.896552,23.947211 C168.896552,15.4595789 161.651922,8.55433455 152.747132,8.55433455 L89.7931034,8.55433455 L100.785475,25.6630037 L168.896552,25.6630037 Z" id="Path"></path>
            </g>
        </g>
        <text id="Service-Archive" stroke="#1757FF" fill-opacity="0.6" fill="#1757FF" fill-rule="nonzero" font-family="Futura-Bold, Futura" font-size="60" font-weight="bold">
            <tspan x="281.38" y="169">Service Archive</tspan>
        </text>
    </g>
</svg>