<?xml version="1.0" encoding="UTF-8"?>
<svg width="1355px" height="500px" viewBox="0 0 1355 500" version="1.1" xmlns="http://www.w3.org/2000/svg" xmlns:xlink="http://www.w3.org/1999/xlink">
    <title>service_relation</title>
    <g id="service_relation" stroke="none" stroke-width="1" fill="none" fill-rule="evenodd">
        <g id="Group_2669" transform="translate(353.000000, 313.000000)" fill="#0F50C7" fill-opacity="0.4" fill-rule="nonzero" stroke="#0F50C7" stroke-width="2">
            <path d="M131.586819,58.6713197 C132.147346,63.6592378 132.137528,68.694791 131.557553,73.6804853 C131.328582,75.6110046 129.635246,77.0289456 127.694502,76.9152697 L126.878968,76.8938085 C120.997645,76.9245556 115.694471,80.4400455 113.375847,85.8450696 C111.003216,91.5647794 112.48782,98.1586944 117.082816,102.309693 C118.521727,103.614059 118.692907,105.814561 117.473023,107.325755 C114.328777,111.241196 110.74605,114.7833 106.795002,117.882702 C105.279731,119.062225 103.112867,118.881443 101.814006,117.467136 C97.5972364,113.064209 91.1612976,111.599731 85.4545673,113.744597 C79.8036749,116.093565 76.2046325,121.703596 76.4251716,127.819226 C76.492183,129.737743 75.0707865,131.384403 73.163039,131.598344 C68.2276956,132.146631 63.246096,132.133541 58.3137023,131.559324 C56.3827877,131.336076 54.961775,129.644575 55.0749821,127.704116 C55.4299549,121.52064 51.8533566,115.783452 46.1450893,113.379757 C40.4155184,111.177291 33.9234595,112.639971 29.6920008,117.086688 C28.3853863,118.527562 26.1815123,118.698735 24.6680825,117.476891 C20.7993007,114.363402 17.2968356,110.820392 14.2280877,106.916042 C13.0395674,105.407656 13.2157029,103.237893 14.6319522,101.940951 C19.1469635,97.8038382 20.6184451,91.2981215 18.3233127,85.6207028 C16.0886948,80.0975449 10.6979508,76.5078826 4.74019849,76.5757929 C2.72089756,76.6253857 0.931158231,75.2834986 0.412800132,73.3312534 C-0.147219281,68.3433075 -0.137400847,63.3078121 0.442065676,58.3220879 C0.625756498,56.3886394 2.31456026,54.9523497 4.25243943,55.0814504 C10.4003227,55.2738038 16.0626085,51.7561617 18.6140171,46.1594546 C20.9917978,40.4428295 19.5142965,33.848445 14.9246076,29.6928801 C13.4894573,28.3866713 13.3185165,26.1892507 14.5344004,24.6768181 C17.6777498,20.7611499 21.2605836,17.2195952 25.2124216,14.121822 C26.7278112,12.9403829 28.8969605,13.1230552 30.1934171,14.5412904 C34.409597,18.9295639 40.8308093,20.3918429 46.5313945,18.2618778 C52.1842192,15.9092674 55.7841765,10.296347 55.5646922,4.17749376 C55.4989935,2.25769883 56.9233701,0.611391681 58.8326779,0.400326912 C63.7681171,-0.146187274 68.7495159,-0.133097412 73.6820147,0.43934723 C75.6131312,0.660709729 77.0348667,2.35221482 76.9207348,4.29260369 C76.5697083,10.4753047 80.1415374,16.2117245 85.8447745,18.6247667 C91.5771648,20.8225231 98.068738,19.3606456 102.305667,14.9178365 C103.608991,13.4913723 105.794542,13.3182696 107.306173,14.5217802 C111.181732,17.6321821 114.689632,21.1747384 117.761776,25.0806784 C118.952992,26.5886093 118.777606,28.7604674 117.359863,30.0577201 C112.876505,34.1282277 111.377317,40.5469754 113.593749,46.1822791 C115.81018,51.8175828 121.280401,55.4952369 127.335511,55.4209272 C129.337268,55.3802668 131.101251,56.7289427 131.586819,58.6713197 L131.586819,58.6713197 Z M66.5939,108.617328 C89.8000722,108.617328 108.612392,89.8052038 108.612392,66.599273 C108.612392,43.3933422 89.8000722,24.5812184 66.5939,24.5812184 C63.4692134,24.5946198 60.3547919,24.9399363 57.3030655,25.6113548 C36.4368362,30.3462064 22.4598005,50.0032394 24.8398952,71.2669304 C27.2199899,92.5306214 45.1971995,108.611015 66.5939,108.615377 L66.5939,108.617328 Z" id="Path_1309-2"></path>
            <g id="Group_2378-2" transform="translate(34.813187, 34.813187)">
                <path d="M31.5019855,63.5104842 C44.1303594,63.5104842 55.5149665,55.9101374 60.3461673,44.254155 C65.1773681,32.5981727 62.5035147,19.182544 53.5716591,10.2641515 C44.6398035,1.34575893 31.2093389,-1.31865611 19.5440673,3.51355643 C7.87879572,8.34576898 0.276537444,19.7227619 0.282887363,32.3384469 C0.291563391,49.5568257 14.2662883,63.5104842 31.5019855,63.5104842 Z" id="Path_1312-2"></path>
            </g>
        </g>
        <g id="Group_2669-Copy" transform="translate(353.000000, 28.000000)" fill="#0F50C7" fill-opacity="0.4" fill-rule="nonzero" stroke="#0F50C7" stroke-width="2">
            <path d="M131.586819,58.6713197 C132.147346,63.6592378 132.137528,68.694791 131.557553,73.6804853 C131.328582,75.6110046 129.635246,77.0289456 127.694502,76.9152697 L126.878968,76.8938085 C120.997645,76.9245556 115.694471,80.4400455 113.375847,85.8450696 C111.003216,91.5647794 112.48782,98.1586944 117.082816,102.309693 C118.521727,103.614059 118.692907,105.814561 117.473023,107.325755 C114.328777,111.241196 110.74605,114.7833 106.795002,117.882702 C105.279731,119.062225 103.112867,118.881443 101.814006,117.467136 C97.5972364,113.064209 91.1612976,111.599731 85.4545673,113.744597 C79.8036749,116.093565 76.2046325,121.703596 76.4251716,127.819226 C76.492183,129.737743 75.0707865,131.384403 73.163039,131.598344 C68.2276956,132.146631 63.246096,132.133541 58.3137023,131.559324 C56.3827877,131.336076 54.961775,129.644575 55.0749821,127.704116 C55.4299549,121.52064 51.8533566,115.783452 46.1450893,113.379757 C40.4155184,111.177291 33.9234595,112.639971 29.6920008,117.086688 C28.3853863,118.527562 26.1815123,118.698735 24.6680825,117.476891 C20.7993007,114.363402 17.2968356,110.820392 14.2280877,106.916042 C13.0395674,105.407656 13.2157029,103.237893 14.6319522,101.940951 C19.1469635,97.8038382 20.6184451,91.2981215 18.3233127,85.6207028 C16.0886948,80.0975449 10.6979508,76.5078826 4.74019849,76.5757929 C2.72089756,76.6253857 0.931158231,75.2834986 0.412800132,73.3312534 C-0.147219281,68.3433075 -0.137400847,63.3078121 0.442065676,58.3220879 C0.625756498,56.3886394 2.31456026,54.9523497 4.25243943,55.0814504 C10.4003227,55.2738038 16.0626085,51.7561617 18.6140171,46.1594546 C20.9917978,40.4428295 19.5142965,33.848445 14.9246076,29.6928801 C13.4894573,28.3866713 13.3185165,26.1892507 14.5344004,24.6768181 C17.6777498,20.7611499 21.2605836,17.2195952 25.2124216,14.121822 C26.7278112,12.9403829 28.8969605,13.1230552 30.1934171,14.5412904 C34.409597,18.9295639 40.8308093,20.3918429 46.5313945,18.2618778 C52.1842192,15.9092674 55.7841765,10.296347 55.5646922,4.17749376 C55.4989935,2.25769883 56.9233701,0.611391681 58.8326779,0.400326912 C63.7681171,-0.146187274 68.7495159,-0.133097412 73.6820147,0.43934723 C75.6131312,0.660709729 77.0348667,2.35221482 76.9207348,4.29260369 C76.5697083,10.4753047 80.1415374,16.2117245 85.8447745,18.6247667 C91.5771648,20.8225231 98.068738,19.3606456 102.305667,14.9178365 C103.608991,13.4913723 105.794542,13.3182696 107.306173,14.5217802 C111.181732,17.6321821 114.689632,21.1747384 117.761776,25.0806784 C118.952992,26.5886093 118.777606,28.7604674 117.359863,30.0577201 C112.876505,34.1282277 111.377317,40.5469754 113.593749,46.1822791 C115.81018,51.8175828 121.280401,55.4952369 127.335511,55.4209272 C129.337268,55.3802668 131.101251,56.7289427 131.586819,58.6713197 L131.586819,58.6713197 Z M66.5939,108.617328 C89.8000722,108.617328 108.612392,89.8052038 108.612392,66.599273 C108.612392,43.3933422 89.8000722,24.5812184 66.5939,24.5812184 C63.4692134,24.5946198 60.3547919,24.9399363 57.3030655,25.6113548 C36.4368362,30.3462064 22.4598005,50.0032394 24.8398952,71.2669304 C27.2199899,92.5306214 45.1971995,108.611015 66.5939,108.615377 L66.5939,108.617328 Z" id="Path_1309-2"></path>
            <g id="Group_2378-2" transform="translate(34.813187, 34.813187)">
                <path d="M31.5019855,63.5104842 C44.1303594,63.5104842 55.5149665,55.9101374 60.3461673,44.254155 C65.1773681,32.5981727 62.5035147,19.182544 53.5716591,10.2641515 C44.6398035,1.34575893 31.2093389,-1.31865611 19.5440673,3.51355643 C7.87879572,8.34576898 0.276537444,19.7227619 0.282887363,32.3384469 C0.291563391,49.5568257 14.2662883,63.5104842 31.5019855,63.5104842 Z" id="Path_1312-2"></path>
            </g>
        </g>
        <g id="Group_2669-Copy-2" transform="translate(869.000000, 28.000000)" fill="#0F50C7" fill-opacity="0.4" fill-rule="nonzero" stroke="#0F50C7" stroke-width="2">
            <path d="M131.586819,58.6713197 C132.147346,63.6592378 132.137528,68.694791 131.557553,73.6804853 C131.328582,75.6110046 129.635246,77.0289456 127.694502,76.9152697 L126.878968,76.8938085 C120.997645,76.9245556 115.694471,80.4400455 113.375847,85.8450696 C111.003216,91.5647794 112.48782,98.1586944 117.082816,102.309693 C118.521727,103.614059 118.692907,105.814561 117.473023,107.325755 C114.328777,111.241196 110.74605,114.7833 106.795002,117.882702 C105.279731,119.062225 103.112867,118.881443 101.814006,117.467136 C97.5972364,113.064209 91.1612976,111.599731 85.4545673,113.744597 C79.8036749,116.093565 76.2046325,121.703596 76.4251716,127.819226 C76.492183,129.737743 75.0707865,131.384403 73.163039,131.598344 C68.2276956,132.146631 63.246096,132.133541 58.3137023,131.559324 C56.3827877,131.336076 54.961775,129.644575 55.0749821,127.704116 C55.4299549,121.52064 51.8533566,115.783452 46.1450893,113.379757 C40.4155184,111.177291 33.9234595,112.639971 29.6920008,117.086688 C28.3853863,118.527562 26.1815123,118.698735 24.6680825,117.476891 C20.7993007,114.363402 17.2968356,110.820392 14.2280877,106.916042 C13.0395674,105.407656 13.2157029,103.237893 14.6319522,101.940951 C19.1469635,97.8038382 20.6184451,91.2981215 18.3233127,85.6207028 C16.0886948,80.0975449 10.6979508,76.5078826 4.74019849,76.5757929 C2.72089756,76.6253857 0.931158231,75.2834986 0.412800132,73.3312534 C-0.147219281,68.3433075 -0.137400847,63.3078121 0.442065676,58.3220879 C0.625756498,56.3886394 2.31456026,54.9523497 4.25243943,55.0814504 C10.4003227,55.2738038 16.0626085,51.7561617 18.6140171,46.1594546 C20.9917978,40.4428295 19.5142965,33.848445 14.9246076,29.6928801 C13.4894573,28.3866713 13.3185165,26.1892507 14.5344004,24.6768181 C17.6777498,20.7611499 21.2605836,17.2195952 25.2124216,14.121822 C26.7278112,12.9403829 28.8969605,13.1230552 30.1934171,14.5412904 C34.409597,18.9295639 40.8308093,20.3918429 46.5313945,18.2618778 C52.1842192,15.9092674 55.7841765,10.296347 55.5646922,4.17749376 C55.4989935,2.25769883 56.9233701,0.611391681 58.8326779,0.400326912 C63.7681171,-0.146187274 68.7495159,-0.133097412 73.6820147,0.43934723 C75.6131312,0.660709729 77.0348667,2.35221482 76.9207348,4.29260369 C76.5697083,10.4753047 80.1415374,16.2117245 85.8447745,18.6247667 C91.5771648,20.8225231 98.068738,19.3606456 102.305667,14.9178365 C103.608991,13.4913723 105.794542,13.3182696 107.306173,14.5217802 C111.181732,17.6321821 114.689632,21.1747384 117.761776,25.0806784 C118.952992,26.5886093 118.777606,28.7604674 117.359863,30.0577201 C112.876505,34.1282277 111.377317,40.5469754 113.593749,46.1822791 C115.81018,51.8175828 121.280401,55.4952369 127.335511,55.4209272 C129.337268,55.3802668 131.101251,56.7289427 131.586819,58.6713197 L131.586819,58.6713197 Z M66.5939,108.617328 C89.8000722,108.617328 108.612392,89.8052038 108.612392,66.599273 C108.612392,43.3933422 89.8000722,24.5812184 66.5939,24.5812184 C63.4692134,24.5946198 60.3547919,24.9399363 57.3030655,25.6113548 C36.4368362,30.3462064 22.4598005,50.0032394 24.8398952,71.2669304 C27.2199899,92.5306214 45.1971995,108.611015 66.5939,108.615377 L66.5939,108.617328 Z" id="Path_1309-2"></path>
            <g id="Group_2378-2" transform="translate(34.813187, 34.813187)">
                <path d="M31.5019855,63.5104842 C44.1303594,63.5104842 55.5149665,55.9101374 60.3461673,44.254155 C65.1773681,32.5981727 62.5035147,19.182544 53.5716591,10.2641515 C44.6398035,1.34575893 31.2093389,-1.31865611 19.5440673,3.51355643 C7.87879572,8.34576898 0.276537444,19.7227619 0.282887363,32.3384469 C0.291563391,49.5568257 14.2662883,63.5104842 31.5019855,63.5104842 Z" id="Path_1312-2"></path>
            </g>
        </g>
        <g id="Group_2669-Copy-3" transform="translate(869.000000, 313.000000)" fill="#0F50C7" fill-opacity="0.4" fill-rule="nonzero" stroke="#0F50C7" stroke-width="2">
            <path d="M131.586819,58.6713197 C132.147346,63.6592378 132.137528,68.694791 131.557553,73.6804853 C131.328582,75.6110046 129.635246,77.0289456 127.694502,76.9152697 L126.878968,76.8938085 C120.997645,76.9245556 115.694471,80.4400455 113.375847,85.8450696 C111.003216,91.5647794 112.48782,98.1586944 117.082816,102.309693 C118.521727,103.614059 118.692907,105.814561 117.473023,107.325755 C114.328777,111.241196 110.74605,114.7833 106.795002,117.882702 C105.279731,119.062225 103.112867,118.881443 101.814006,117.467136 C97.5972364,113.064209 91.1612976,111.599731 85.4545673,113.744597 C79.8036749,116.093565 76.2046325,121.703596 76.4251716,127.819226 C76.492183,129.737743 75.0707865,131.384403 73.163039,131.598344 C68.2276956,132.146631 63.246096,132.133541 58.3137023,131.559324 C56.3827877,131.336076 54.961775,129.644575 55.0749821,127.704116 C55.4299549,121.52064 51.8533566,115.783452 46.1450893,113.379757 C40.4155184,111.177291 33.9234595,112.639971 29.6920008,117.086688 C28.3853863,118.527562 26.1815123,118.698735 24.6680825,117.476891 C20.7993007,114.363402 17.2968356,110.820392 14.2280877,106.916042 C13.0395674,105.407656 13.2157029,103.237893 14.6319522,101.940951 C19.1469635,97.8038382 20.6184451,91.2981215 18.3233127,85.6207028 C16.0886948,80.0975449 10.6979508,76.5078826 4.74019849,76.5757929 C2.72089756,76.6253857 0.931158231,75.2834986 0.412800132,73.3312534 C-0.147219281,68.3433075 -0.137400847,63.3078121 0.442065676,58.3220879 C0.625756498,56.3886394 2.31456026,54.9523497 4.25243943,55.0814504 C10.4003227,55.2738038 16.0626085,51.7561617 18.6140171,46.1594546 C20.9917978,40.4428295 19.5142965,33.848445 14.9246076,29.6928801 C13.4894573,28.3866713 13.3185165,26.1892507 14.5344004,24.6768181 C17.6777498,20.7611499 21.2605836,17.2195952 25.2124216,14.121822 C26.7278112,12.9403829 28.8969605,13.1230552 30.1934171,14.5412904 C34.409597,18.9295639 40.8308093,20.3918429 46.5313945,18.2618778 C52.1842192,15.9092674 55.7841765,10.296347 55.5646922,4.17749376 C55.4989935,2.25769883 56.9233701,0.611391681 58.8326779,0.400326912 C63.7681171,-0.146187274 68.7495159,-0.133097412 73.6820147,0.43934723 C75.6131312,0.660709729 77.0348667,2.35221482 76.9207348,4.29260369 C76.5697083,10.4753047 80.1415374,16.2117245 85.8447745,18.6247667 C91.5771648,20.8225231 98.068738,19.3606456 102.305667,14.9178365 C103.608991,13.4913723 105.794542,13.3182696 107.306173,14.5217802 C111.181732,17.6321821 114.689632,21.1747384 117.761776,25.0806784 C118.952992,26.5886093 118.777606,28.7604674 117.359863,30.0577201 C112.876505,34.1282277 111.377317,40.5469754 113.593749,46.1822791 C115.81018,51.8175828 121.280401,55.4952369 127.335511,55.4209272 C129.337268,55.3802668 131.101251,56.7289427 131.586819,58.6713197 L131.586819,58.6713197 Z M66.5939,108.617328 C89.8000722,108.617328 108.612392,89.8052038 108.612392,66.599273 C108.612392,43.3933422 89.8000722,24.5812184 66.5939,24.5812184 C63.4692134,24.5946198 60.3547919,24.9399363 57.3030655,25.6113548 C36.4368362,30.3462064 22.4598005,50.0032394 24.8398952,71.2669304 C27.2199899,92.5306214 45.1971995,108.611015 66.5939,108.615377 L66.5939,108.617328 Z" id="Path_1309-2"></path>
            <g id="Group_2378-2" transform="translate(34.813187, 34.813187)">
                <path d="M31.5019855,63.5104842 C44.1303594,63.5104842 55.5149665,55.9101374 60.3461673,44.254155 C65.1773681,32.5981727 62.5035147,19.182544 53.5716591,10.2641515 C44.6398035,1.34575893 31.2093389,-1.31865611 19.5440673,3.51355643 C7.87879572,8.34576898 0.276537444,19.7227619 0.282887363,32.3384469 C0.291563391,49.5568257 14.2662883,63.5104842 31.5019855,63.5104842 Z" id="Path_1312-2"></path>
            </g>
        </g>
        <path id="Path-11" d="M839.898451,144.560926 C840.123624,145.021684 839.962369,145.570934 839.540898,145.841201 L839.439074,145.898451 L498.017,312.751 L500.651831,318.142128 L485,318 L494.504801,305.563812 L497.139,310.954 L838.560926,144.101549 C839.057127,143.859055 839.655957,144.064726 839.898451,144.560926 Z" fill="#A5A5A5" fill-rule="nonzero"></path>
        <path id="Path-11-Copy-2" d="M498.31408,144.050503 L498.422618,144.093692 L856.734,311.177 L859.270015,305.739193 L869,318 L853.353363,318.427504 L855.889,312.989 L497.577382,145.906308 C497.076842,145.672902 496.860287,145.077922 497.093692,144.577382 C497.310426,144.112595 497.838926,143.892672 498.31408,144.050503 Z" fill="#A5A5A5" fill-rule="nonzero"></path>
        <path id="Path-11-Copy" d="M842.005018,372.115688 L856,379.125715 L841.994989,386.115684 L841.999,380.115 L504.999284,379.874285 C504.446999,379.873889 503.999605,379.425854 504,378.873569 C504.000396,378.321284 504.448432,377.87389 505.000716,377.874286 L842,378.115 L842.005018,372.115688 Z" fill="#A5A5A5" fill-rule="nonzero"></path>
        <path id="Path-11-Copy-3" d="M842.005018,87.115688 L856,94.1257147 L841.994989,101.115684 L841.999,95.115 L504.999284,94.874285 C504.446999,94.8738894 503.999605,94.4258535 504,93.8735689 C504.000396,93.3212843 504.448432,92.8738899 505.000716,92.8742855 L842,93.115 L842.005018,87.115688 Z" fill="#A5A5A5" fill-rule="nonzero"></path>
        <path id="Path-11-Copy-4" d="M935.035326,196.046795 C935.548157,196.048977 935.969182,196.436812 936.024831,196.934392 L936.031062,197.051041 L935.652,285.957 L941.652719,285.983125 L934.593214,299.953214 L927.652845,285.923557 L933.652,285.949 L934.03108,197.042531 C934.03343,196.490251 934.483046,196.044445 935.035326,196.046795 Z" fill="#A5A5A5" fill-rule="nonzero"></path>
        <text id="Namespace" font-family="Helvetica" font-size="22" font-weight="normal" fill="#A5A5A5">
            <tspan x="621.304688" y="458">Namespace</tspan>
        </text>
        <text id="10.0.0.2" font-family="Helvetica" font-size="17" font-weight="normal" fill="#A5A5A5">
            <tspan x="387.778809" y="469">10.0.0.2</tspan>
        </text>
        <text id="10.0.0.4" font-family="Helvetica" font-size="17" font-weight="normal" fill="#A5A5A5">
            <tspan x="904.778809" y="466">10.0.0.4</tspan>
        </text>
        <text id="10.0.0.1" font-family="Helvetica" font-size="17" font-weight="normal" fill="#A5A5A5">
            <tspan x="387.778809" y="181">10.0.0.1</tspan>
        </text>
        <text id="10.0.0.3" font-family="Helvetica" font-size="17" font-weight="normal" fill="#A5A5A5">
            <tspan x="904.778809" y="181">10.0.0.3</tspan>
        </text>
    </g>
</svg>