<?xml version="1.0" encoding="UTF-8"?>
<svg width="1355px" height="500px" viewBox="0 0 1355 500" version="1.1" xmlns="http://www.w3.org/2000/svg" xmlns:xlink="http://www.w3.org/1999/xlink">
    <title>shared_storage</title>
    <g id="shared_storage" stroke="none" stroke-width="1" fill="none" fill-rule="evenodd">
        <g id="Group-5" transform="translate(272.000000, 28.000000)">
            <g id="Group-4" transform="translate(253.000000, 275.000000)">
                <g id="Group_2669" fill="#0F50C7" fill-opacity="0.4" fill-rule="nonzero" stroke="#0F50C7" stroke-width="2">
                    <path d="M131.586819,58.6713197 C132.147346,63.6592378 132.137528,68.694791 131.557553,73.6804853 C131.328582,75.6110046 129.635246,77.0289456 127.694502,76.9152697 L126.878968,76.8938085 C120.997645,76.9245556 115.694471,80.4400455 113.375847,85.8450696 C111.003216,91.5647794 112.48782,98.1586944 117.082816,102.309693 C118.521727,103.614059 118.692907,105.814561 117.473023,107.325755 C114.328777,111.241196 110.74605,114.7833 106.795002,117.882702 C105.279731,119.062225 103.112867,118.881443 101.814006,117.467136 C97.5972364,113.064209 91.1612976,111.599731 85.4545673,113.744597 C79.8036749,116.093565 76.2046325,121.703596 76.4251716,127.819226 C76.492183,129.737743 75.0707865,131.384403 73.163039,131.598344 C68.2276956,132.146631 63.246096,132.133541 58.3137023,131.559324 C56.3827877,131.336076 54.961775,129.644575 55.0749821,127.704116 C55.4299549,121.52064 51.8533566,115.783452 46.1450893,113.379757 C40.4155184,111.177291 33.9234595,112.639971 29.6920008,117.086688 C28.3853863,118.527562 26.1815123,118.698735 24.6680825,117.476891 C20.7993007,114.363402 17.2968356,110.820392 14.2280877,106.916042 C13.0395674,105.407656 13.2157029,103.237893 14.6319522,101.940951 C19.1469635,97.8038382 20.6184451,91.2981215 18.3233127,85.6207028 C16.0886948,80.0975449 10.6979508,76.5078826 4.74019849,76.5757929 C2.72089756,76.6253857 0.931158231,75.2834986 0.412800132,73.3312534 C-0.147219281,68.3433075 -0.137400847,63.3078121 0.442065676,58.3220879 C0.625756498,56.3886394 2.31456026,54.9523497 4.25243943,55.0814504 C10.4003227,55.2738038 16.0626085,51.7561617 18.6140171,46.1594546 C20.9917978,40.4428295 19.5142965,33.848445 14.9246076,29.6928801 C13.4894573,28.3866713 13.3185165,26.1892507 14.5344004,24.6768181 C17.6777498,20.7611499 21.2605836,17.2195952 25.2124216,14.121822 C26.7278112,12.9403829 28.8969605,13.1230552 30.1934171,14.5412904 C34.409597,18.9295639 40.8308093,20.3918429 46.5313945,18.2618778 C52.1842192,15.9092674 55.7841765,10.296347 55.5646922,4.17749376 C55.4989935,2.25769883 56.9233701,0.611391681 58.8326779,0.400326912 C63.7681171,-0.146187274 68.7495159,-0.133097412 73.6820147,0.43934723 C75.6131312,0.660709729 77.0348667,2.35221482 76.9207348,4.29260369 C76.5697083,10.4753047 80.1415374,16.2117245 85.8447745,18.6247667 C91.5771648,20.8225231 98.068738,19.3606456 102.305667,14.9178365 C103.608991,13.4913723 105.794542,13.3182696 107.306173,14.5217802 C111.181732,17.6321821 114.689632,21.1747384 117.761776,25.0806784 C118.952992,26.5886093 118.777606,28.7604674 117.359863,30.0577201 C112.876505,34.1282277 111.377317,40.5469754 113.593749,46.1822791 C115.81018,51.8175828 121.280401,55.4952369 127.335511,55.4209272 C129.337268,55.3802668 131.101251,56.7289427 131.586819,58.6713197 L131.586819,58.6713197 Z M66.5939,108.617328 C89.8000722,108.617328 108.612392,89.8052038 108.612392,66.599273 C108.612392,43.3933422 89.8000722,24.5812184 66.5939,24.5812184 C63.4692134,24.5946198 60.3547919,24.9399363 57.3030655,25.6113548 C36.4368362,30.3462064 22.4598005,50.0032394 24.8398952,71.2669304 C27.2199899,92.5306214 45.1971995,108.611015 66.5939,108.615377 L66.5939,108.617328 Z" id="Path_1309-2"></path>
                    <g id="Group_2378-2" transform="translate(34.813187, 34.813187)">
                        <path d="M31.5019855,63.5104842 C44.1303594,63.5104842 55.5149665,55.9101374 60.3461673,44.254155 C65.1773681,32.5981727 62.5035147,19.182544 53.5716591,10.2641515 C44.6398035,1.34575893 31.2093389,-1.31865611 19.5440673,3.51355643 C7.87879572,8.34576898 0.276537444,19.7227619 0.282887363,32.3384469 C0.291563391,49.5568257 14.2662883,63.5104842 31.5019855,63.5104842 Z" id="Path_1312-2"></path>
                    </g>
                </g>
                <text id="10.0.0.2" font-family="Helvetica" font-size="17" font-weight="normal" fill="#A5A5A5">
                    <tspan x="34.7788086" y="156">10.0.0.2</tspan>
                </text>
            </g>
            <g id="Group" transform="translate(303.000000, 0.000000)">
                <g id="Group_2669-Copy" fill="#0F50C7" fill-opacity="0.4" fill-rule="nonzero" stroke="#0F50C7" stroke-width="2">
                    <path d="M131.586819,58.6713197 C132.147346,63.6592378 132.137528,68.694791 131.557553,73.6804853 C131.328582,75.6110046 129.635246,77.0289456 127.694502,76.9152697 L126.878968,76.8938085 C120.997645,76.9245556 115.694471,80.4400455 113.375847,85.8450696 C111.003216,91.5647794 112.48782,98.1586944 117.082816,102.309693 C118.521727,103.614059 118.692907,105.814561 117.473023,107.325755 C114.328777,111.241196 110.74605,114.7833 106.795002,117.882702 C105.279731,119.062225 103.112867,118.881443 101.814006,117.467136 C97.5972364,113.064209 91.1612976,111.599731 85.4545673,113.744597 C79.8036749,116.093565 76.2046325,121.703596 76.4251716,127.819226 C76.492183,129.737743 75.0707865,131.384403 73.163039,131.598344 C68.2276956,132.146631 63.246096,132.133541 58.3137023,131.559324 C56.3827877,131.336076 54.961775,129.644575 55.0749821,127.704116 C55.4299549,121.52064 51.8533566,115.783452 46.1450893,113.379757 C40.4155184,111.177291 33.9234595,112.639971 29.6920008,117.086688 C28.3853863,118.527562 26.1815123,118.698735 24.6680825,117.476891 C20.7993007,114.363402 17.2968356,110.820392 14.2280877,106.916042 C13.0395674,105.407656 13.2157029,103.237893 14.6319522,101.940951 C19.1469635,97.8038382 20.6184451,91.2981215 18.3233127,85.6207028 C16.0886948,80.0975449 10.6979508,76.5078826 4.74019849,76.5757929 C2.72089756,76.6253857 0.931158231,75.2834986 0.412800132,73.3312534 C-0.147219281,68.3433075 -0.137400847,63.3078121 0.442065676,58.3220879 C0.625756498,56.3886394 2.31456026,54.9523497 4.25243943,55.0814504 C10.4003227,55.2738038 16.0626085,51.7561617 18.6140171,46.1594546 C20.9917978,40.4428295 19.5142965,33.848445 14.9246076,29.6928801 C13.4894573,28.3866713 13.3185165,26.1892507 14.5344004,24.6768181 C17.6777498,20.7611499 21.2605836,17.2195952 25.2124216,14.121822 C26.7278112,12.9403829 28.8969605,13.1230552 30.1934171,14.5412904 C34.409597,18.9295639 40.8308093,20.3918429 46.5313945,18.2618778 C52.1842192,15.9092674 55.7841765,10.296347 55.5646922,4.17749376 C55.4989935,2.25769883 56.9233701,0.611391681 58.8326779,0.400326912 C63.7681171,-0.146187274 68.7495159,-0.133097412 73.6820147,0.43934723 C75.6131312,0.660709729 77.0348667,2.35221482 76.9207348,4.29260369 C76.5697083,10.4753047 80.1415374,16.2117245 85.8447745,18.6247667 C91.5771648,20.8225231 98.068738,19.3606456 102.305667,14.9178365 C103.608991,13.4913723 105.794542,13.3182696 107.306173,14.5217802 C111.181732,17.6321821 114.689632,21.1747384 117.761776,25.0806784 C118.952992,26.5886093 118.777606,28.7604674 117.359863,30.0577201 C112.876505,34.1282277 111.377317,40.5469754 113.593749,46.1822791 C115.81018,51.8175828 121.280401,55.4952369 127.335511,55.4209272 C129.337268,55.3802668 131.101251,56.7289427 131.586819,58.6713197 L131.586819,58.6713197 Z M66.5939,108.617328 C89.8000722,108.617328 108.612392,89.8052038 108.612392,66.599273 C108.612392,43.3933422 89.8000722,24.5812184 66.5939,24.5812184 C63.4692134,24.5946198 60.3547919,24.9399363 57.3030655,25.6113548 C36.4368362,30.3462064 22.4598005,50.0032394 24.8398952,71.2669304 C27.2199899,92.5306214 45.1971995,108.611015 66.5939,108.615377 L66.5939,108.617328 Z" id="Path_1309-2"></path>
                    <g id="Group_2378-2" transform="translate(34.813187, 34.813187)">
                        <path d="M31.5019855,63.5104842 C44.1303594,63.5104842 55.5149665,55.9101374 60.3461673,44.254155 C65.1773681,32.5981727 62.5035147,19.182544 53.5716591,10.2641515 C44.6398035,1.34575893 31.2093389,-1.31865611 19.5440673,3.51355643 C7.87879572,8.34576898 0.276537444,19.7227619 0.282887363,32.3384469 C0.291563391,49.5568257 14.2662883,63.5104842 31.5019855,63.5104842 Z" id="Path_1312-2"></path>
                    </g>
                </g>
                <text id="10.0.0.1" font-family="Helvetica" font-size="17" font-weight="normal" fill="#A5A5A5">
                    <tspan x="34.7788086" y="153">10.0.0.1</tspan>
                </text>
            </g>
            <g id="Group-2" transform="translate(679.000000, 40.000000)">
                <g id="Group_2669-Copy-2" fill="#0F50C7" fill-opacity="0.4" fill-rule="nonzero" stroke="#0F50C7" stroke-width="2">
                    <path d="M131.586819,58.6713197 C132.147346,63.6592378 132.137528,68.694791 131.557553,73.6804853 C131.328582,75.6110046 129.635246,77.0289456 127.694502,76.9152697 L126.878968,76.8938085 C120.997645,76.9245556 115.694471,80.4400455 113.375847,85.8450696 C111.003216,91.5647794 112.48782,98.1586944 117.082816,102.309693 C118.521727,103.614059 118.692907,105.814561 117.473023,107.325755 C114.328777,111.241196 110.74605,114.7833 106.795002,117.882702 C105.279731,119.062225 103.112867,118.881443 101.814006,117.467136 C97.5972364,113.064209 91.1612976,111.599731 85.4545673,113.744597 C79.8036749,116.093565 76.2046325,121.703596 76.4251716,127.819226 C76.492183,129.737743 75.0707865,131.384403 73.163039,131.598344 C68.2276956,132.146631 63.246096,132.133541 58.3137023,131.559324 C56.3827877,131.336076 54.961775,129.644575 55.0749821,127.704116 C55.4299549,121.52064 51.8533566,115.783452 46.1450893,113.379757 C40.4155184,111.177291 33.9234595,112.639971 29.6920008,117.086688 C28.3853863,118.527562 26.1815123,118.698735 24.6680825,117.476891 C20.7993007,114.363402 17.2968356,110.820392 14.2280877,106.916042 C13.0395674,105.407656 13.2157029,103.237893 14.6319522,101.940951 C19.1469635,97.8038382 20.6184451,91.2981215 18.3233127,85.6207028 C16.0886948,80.0975449 10.6979508,76.5078826 4.74019849,76.5757929 C2.72089756,76.6253857 0.931158231,75.2834986 0.412800132,73.3312534 C-0.147219281,68.3433075 -0.137400847,63.3078121 0.442065676,58.3220879 C0.625756498,56.3886394 2.31456026,54.9523497 4.25243943,55.0814504 C10.4003227,55.2738038 16.0626085,51.7561617 18.6140171,46.1594546 C20.9917978,40.4428295 19.5142965,33.848445 14.9246076,29.6928801 C13.4894573,28.3866713 13.3185165,26.1892507 14.5344004,24.6768181 C17.6777498,20.7611499 21.2605836,17.2195952 25.2124216,14.121822 C26.7278112,12.9403829 28.8969605,13.1230552 30.1934171,14.5412904 C34.409597,18.9295639 40.8308093,20.3918429 46.5313945,18.2618778 C52.1842192,15.9092674 55.7841765,10.296347 55.5646922,4.17749376 C55.4989935,2.25769883 56.9233701,0.611391681 58.8326779,0.400326912 C63.7681171,-0.146187274 68.7495159,-0.133097412 73.6820147,0.43934723 C75.6131312,0.660709729 77.0348667,2.35221482 76.9207348,4.29260369 C76.5697083,10.4753047 80.1415374,16.2117245 85.8447745,18.6247667 C91.5771648,20.8225231 98.068738,19.3606456 102.305667,14.9178365 C103.608991,13.4913723 105.794542,13.3182696 107.306173,14.5217802 C111.181732,17.6321821 114.689632,21.1747384 117.761776,25.0806784 C118.952992,26.5886093 118.777606,28.7604674 117.359863,30.0577201 C112.876505,34.1282277 111.377317,40.5469754 113.593749,46.1822791 C115.81018,51.8175828 121.280401,55.4952369 127.335511,55.4209272 C129.337268,55.3802668 131.101251,56.7289427 131.586819,58.6713197 L131.586819,58.6713197 Z M66.5939,108.617328 C89.8000722,108.617328 108.612392,89.8052038 108.612392,66.599273 C108.612392,43.3933422 89.8000722,24.5812184 66.5939,24.5812184 C63.4692134,24.5946198 60.3547919,24.9399363 57.3030655,25.6113548 C36.4368362,30.3462064 22.4598005,50.0032394 24.8398952,71.2669304 C27.2199899,92.5306214 45.1971995,108.611015 66.5939,108.615377 L66.5939,108.617328 Z" id="Path_1309-2"></path>
                    <g id="Group_2378-2" transform="translate(34.813187, 34.813187)">
                        <path d="M31.5019855,63.5104842 C44.1303594,63.5104842 55.5149665,55.9101374 60.3461673,44.254155 C65.1773681,32.5981727 62.5035147,19.182544 53.5716591,10.2641515 C44.6398035,1.34575893 31.2093389,-1.31865611 19.5440673,3.51355643 C7.87879572,8.34576898 0.276537444,19.7227619 0.282887363,32.3384469 C0.291563391,49.5568257 14.2662883,63.5104842 31.5019855,63.5104842 Z" id="Path_1312-2"></path>
                    </g>
                </g>
                <text id="10.0.0.3" font-family="Helvetica" font-size="17" font-weight="normal" fill="#A5A5A5">
                    <tspan x="35.7788086" y="153">10.0.0.3</tspan>
                </text>
            </g>
            <g id="Group-3" transform="translate(679.000000, 245.000000)">
                <g id="Group_2669-Copy-3" fill="#0F50C7" fill-opacity="0.4" fill-rule="nonzero" stroke="#0F50C7" stroke-width="2">
                    <path d="M131.586819,58.6713197 C132.147346,63.6592378 132.137528,68.694791 131.557553,73.6804853 C131.328582,75.6110046 129.635246,77.0289456 127.694502,76.9152697 L126.878968,76.8938085 C120.997645,76.9245556 115.694471,80.4400455 113.375847,85.8450696 C111.003216,91.5647794 112.48782,98.1586944 117.082816,102.309693 C118.521727,103.614059 118.692907,105.814561 117.473023,107.325755 C114.328777,111.241196 110.74605,114.7833 106.795002,117.882702 C105.279731,119.062225 103.112867,118.881443 101.814006,117.467136 C97.5972364,113.064209 91.1612976,111.599731 85.4545673,113.744597 C79.8036749,116.093565 76.2046325,121.703596 76.4251716,127.819226 C76.492183,129.737743 75.0707865,131.384403 73.163039,131.598344 C68.2276956,132.146631 63.246096,132.133541 58.3137023,131.559324 C56.3827877,131.336076 54.961775,129.644575 55.0749821,127.704116 C55.4299549,121.52064 51.8533566,115.783452 46.1450893,113.379757 C40.4155184,111.177291 33.9234595,112.639971 29.6920008,117.086688 C28.3853863,118.527562 26.1815123,118.698735 24.6680825,117.476891 C20.7993007,114.363402 17.2968356,110.820392 14.2280877,106.916042 C13.0395674,105.407656 13.2157029,103.237893 14.6319522,101.940951 C19.1469635,97.8038382 20.6184451,91.2981215 18.3233127,85.6207028 C16.0886948,80.0975449 10.6979508,76.5078826 4.74019849,76.5757929 C2.72089756,76.6253857 0.931158231,75.2834986 0.412800132,73.3312534 C-0.147219281,68.3433075 -0.137400847,63.3078121 0.442065676,58.3220879 C0.625756498,56.3886394 2.31456026,54.9523497 4.25243943,55.0814504 C10.4003227,55.2738038 16.0626085,51.7561617 18.6140171,46.1594546 C20.9917978,40.4428295 19.5142965,33.848445 14.9246076,29.6928801 C13.4894573,28.3866713 13.3185165,26.1892507 14.5344004,24.6768181 C17.6777498,20.7611499 21.2605836,17.2195952 25.2124216,14.121822 C26.7278112,12.9403829 28.8969605,13.1230552 30.1934171,14.5412904 C34.409597,18.9295639 40.8308093,20.3918429 46.5313945,18.2618778 C52.1842192,15.9092674 55.7841765,10.296347 55.5646922,4.17749376 C55.4989935,2.25769883 56.9233701,0.611391681 58.8326779,0.400326912 C63.7681171,-0.146187274 68.7495159,-0.133097412 73.6820147,0.43934723 C75.6131312,0.660709729 77.0348667,2.35221482 76.9207348,4.29260369 C76.5697083,10.4753047 80.1415374,16.2117245 85.8447745,18.6247667 C91.5771648,20.8225231 98.068738,19.3606456 102.305667,14.9178365 C103.608991,13.4913723 105.794542,13.3182696 107.306173,14.5217802 C111.181732,17.6321821 114.689632,21.1747384 117.761776,25.0806784 C118.952992,26.5886093 118.777606,28.7604674 117.359863,30.0577201 C112.876505,34.1282277 111.377317,40.5469754 113.593749,46.1822791 C115.81018,51.8175828 121.280401,55.4952369 127.335511,55.4209272 C129.337268,55.3802668 131.101251,56.7289427 131.586819,58.6713197 L131.586819,58.6713197 Z M66.5939,108.617328 C89.8000722,108.617328 108.612392,89.8052038 108.612392,66.599273 C108.612392,43.3933422 89.8000722,24.5812184 66.5939,24.5812184 C63.4692134,24.5946198 60.3547919,24.9399363 57.3030655,25.6113548 C36.4368362,30.3462064 22.4598005,50.0032394 24.8398952,71.2669304 C27.2199899,92.5306214 45.1971995,108.611015 66.5939,108.615377 L66.5939,108.617328 Z" id="Path_1309-2"></path>
                    <g id="Group_2378-2" transform="translate(34.813187, 34.813187)">
                        <path d="M31.5019855,63.5104842 C44.1303594,63.5104842 55.5149665,55.9101374 60.3461673,44.254155 C65.1773681,32.5981727 62.5035147,19.182544 53.5716591,10.2641515 C44.6398035,1.34575893 31.2093389,-1.31865611 19.5440673,3.51355643 C7.87879572,8.34576898 0.276537444,19.7227619 0.282887363,32.3384469 C0.291563391,49.5568257 14.2662883,63.5104842 31.5019855,63.5104842 Z" id="Path_1312-2"></path>
                    </g>
                </g>
                <text id="10.0.0.4" font-family="Helvetica" font-size="17" font-weight="normal" fill="#A5A5A5">
                    <tspan x="35.7788086" y="153">10.0.0.4</tspan>
                </text>
            </g>
            <g id="Group-56" transform="translate(0.000000, 133.000000)" fill="#2979FF" fill-opacity="0.4" stroke="#2979FF" stroke-width="2">
                <g id="Group_2489" transform="translate(0.000000, 123.000000)">
                    <path d="M1.23568773,-2.57951753e-15 C7.41412639,21.9145769 36.6504981,38.5037692 71.7563866,38.5037692 C106.862275,38.5037692 136.080112,21.9145769 142.295621,-2.57951753e-15 C143.109165,2.8347137 143.525051,5.76912667 143.531309,8.71876923 C143.531309,34.7945769 111.403428,55.9351154 71.7749219,55.9351154 C32.1464164,55.9351154 0,34.7945769 0,8.71876923 C0.00625711942,5.76912667 0.422143584,2.8347137 1.23568773,-2.57951753e-15 Z" id="Path_1386"></path>
                </g>
                <g id="Group_2491" transform="translate(0.000000, 95.000000)">
                    <path d="M1.23568773,-2.57951753e-15 C7.41412639,21.9145769 36.6504981,38.5037692 71.7563866,38.5037692 C106.862275,38.5037692 136.080112,21.9145769 142.295621,-2.57951753e-15 C143.109165,2.8347137 143.525051,5.76912667 143.531309,8.71876923 C143.531309,34.7945769 111.403428,55.9351154 71.7749219,55.9351154 C32.1464164,55.9351154 0,34.7945769 0,8.71876923 C0.00625711942,5.76912667 0.422143584,2.8347137 1.23568773,-2.57951753e-15 Z" id="Path_1389"></path>
                </g>
                <g id="Group_2493" transform="translate(0.000000, 68.000000)">
                    <path d="M1.23568773,-2.57951753e-15 C7.41412639,21.9145769 36.6504981,38.5037692 71.7563866,38.5037692 C106.862275,38.5037692 136.080112,21.9145769 142.295621,-2.57951753e-15 C143.109165,2.8347137 143.525051,5.76912667 143.531309,8.71876923 C143.531309,34.7945769 111.403428,55.9351154 71.7749219,55.9351154 C32.1464164,55.9351154 0,34.7945769 0,8.71876923 C0.00625711942,5.76912667 0.422143584,2.8347137 1.23568773,-2.57951753e-15 Z" id="Path_1392"></path>
                </g>
                <g id="Group_2495">
                    <path d="M71.7563866,95.4908333 C111.384892,95.4908333 143.512773,74.111 143.512773,47.7423333 C143.512773,21.3736667 111.384892,0 71.7563866,0 C32.127881,0 0,21.3798333 0,47.7485 C0,74.1171667 32.127881,95.4908333 71.7563866,95.4908333 Z" id="Path_1395"></path>
                </g>
            </g>
            <line x1="240" y1="314" x2="160" y2="275" id="Path-11-Copy-5" stroke="#A5A5A5" stroke-width="2" stroke-linecap="round"></line>
            <line x1="303" y1="119" x2="160" y2="180" id="Path-11-Copy-6" stroke="#A5A5A5" stroke-width="2" stroke-linecap="round"></line>
            <line x1="661" y1="133" x2="160" y2="212" id="Path-11-Copy-7" stroke="#A5A5A5" stroke-width="2" stroke-linecap="round"></line>
            <line x1="661" y1="296" x2="160" y2="240" id="Path-11-Copy-8" stroke="#A5A5A5" stroke-width="2" stroke-linecap="round"></line>
        </g>
        <text id="Namespace" font-family="Helvetica" font-size="22" font-weight="normal" fill="#A5A5A5">
            <tspan x="618.304688" y="488">Namespace</tspan>
        </text>
    </g>
</svg>