<?xml version="1.0" encoding="UTF-8"?>
<svg width="1323px" height="486px" viewBox="0 0 1323 486" version="1.1" xmlns="http://www.w3.org/2000/svg" xmlns:xlink="http://www.w3.org/1999/xlink">
    <title>single-multi-cluster-fandoghpaas</title>
    <defs>
        <filter x="-90.9%" y="-90.9%" width="281.8%" height="281.8%" filterUnits="objectBoundingBox" id="filter-1">
            <feOffset dx="0" dy="4" in="SourceAlpha" result="shadowOffsetOuter1"></feOffset>
            <feGaussianBlur stdDeviation="3" in="shadowOffsetOuter1" result="shadowBlurOuter1"></feGaussianBlur>
            <feColorMatrix values="0 0 0 0 0   0 0 0 0 0   0 0 0 0 0  0 0 0 0.5 0" type="matrix" in="shadowBlurOuter1" result="shadowMatrixOuter1"></feColorMatrix>
            <feMerge>
                <feMergeNode in="shadowMatrixOuter1"></feMergeNode>
                <feMergeNode in="SourceGraphic"></feMergeNode>
            </feMerge>
        </filter>
        <filter x="-90.9%" y="-90.9%" width="281.8%" height="281.8%" filterUnits="objectBoundingBox" id="filter-2">
            <feOffset dx="0" dy="4" in="SourceAlpha" result="shadowOffsetOuter1"></feOffset>
            <feGaussianBlur stdDeviation="3" in="shadowOffsetOuter1" result="shadowBlurOuter1"></feGaussianBlur>
            <feColorMatrix values="0 0 0 0 0   0 0 0 0 0   0 0 0 0 0  0 0 0 0.5 0" type="matrix" in="shadowBlurOuter1" result="shadowMatrixOuter1"></feColorMatrix>
            <feMerge>
                <feMergeNode in="shadowMatrixOuter1"></feMergeNode>
                <feMergeNode in="SourceGraphic"></feMergeNode>
            </feMerge>
        </filter>
        <filter x="-90.9%" y="-90.9%" width="281.8%" height="281.8%" filterUnits="objectBoundingBox" id="filter-3">
            <feOffset dx="0" dy="4" in="SourceAlpha" result="shadowOffsetOuter1"></feOffset>
            <feGaussianBlur stdDeviation="3" in="shadowOffsetOuter1" result="shadowBlurOuter1"></feGaussianBlur>
            <feColorMatrix values="0 0 0 0 0   0 0 0 0 0   0 0 0 0 0  0 0 0 0.5 0" type="matrix" in="shadowBlurOuter1" result="shadowMatrixOuter1"></feColorMatrix>
            <feMerge>
                <feMergeNode in="shadowMatrixOuter1"></feMergeNode>
                <feMergeNode in="SourceGraphic"></feMergeNode>
            </feMerge>
        </filter>
        <filter x="-90.9%" y="-90.9%" width="281.8%" height="281.8%" filterUnits="objectBoundingBox" id="filter-4">
            <feOffset dx="0" dy="4" in="SourceAlpha" result="shadowOffsetOuter1"></feOffset>
            <feGaussianBlur stdDeviation="3" in="shadowOffsetOuter1" result="shadowBlurOuter1"></feGaussianBlur>
            <feColorMatrix values="0 0 0 0 0   0 0 0 0 0   0 0 0 0 0  0 0 0 0.5 0" type="matrix" in="shadowBlurOuter1" result="shadowMatrixOuter1"></feColorMatrix>
            <feMerge>
                <feMergeNode in="shadowMatrixOuter1"></feMergeNode>
                <feMergeNode in="SourceGraphic"></feMergeNode>
            </feMerge>
        </filter>
        <filter x="-90.9%" y="-90.9%" width="281.8%" height="281.8%" filterUnits="objectBoundingBox" id="filter-5">
            <feOffset dx="0" dy="4" in="SourceAlpha" result="shadowOffsetOuter1"></feOffset>
            <feGaussianBlur stdDeviation="3" in="shadowOffsetOuter1" result="shadowBlurOuter1"></feGaussianBlur>
            <feColorMatrix values="0 0 0 0 0   0 0 0 0 0   0 0 0 0 0  0 0 0 0.5 0" type="matrix" in="shadowBlurOuter1" result="shadowMatrixOuter1"></feColorMatrix>
            <feMerge>
                <feMergeNode in="shadowMatrixOuter1"></feMergeNode>
                <feMergeNode in="SourceGraphic"></feMergeNode>
            </feMerge>
        </filter>
        <filter x="-90.9%" y="-90.9%" width="281.8%" height="281.8%" filterUnits="objectBoundingBox" id="filter-6">
            <feOffset dx="0" dy="4" in="SourceAlpha" result="shadowOffsetOuter1"></feOffset>
            <feGaussianBlur stdDeviation="3" in="shadowOffsetOuter1" result="shadowBlurOuter1"></feGaussianBlur>
            <feColorMatrix values="0 0 0 0 0   0 0 0 0 0   0 0 0 0 0  0 0 0 0.5 0" type="matrix" in="shadowBlurOuter1" result="shadowMatrixOuter1"></feColorMatrix>
            <feMerge>
                <feMergeNode in="shadowMatrixOuter1"></feMergeNode>
                <feMergeNode in="SourceGraphic"></feMergeNode>
            </feMerge>
        </filter>
    </defs>
    <g id="single-multi-cluster-fandoghpaas" stroke="none" stroke-width="1" fill="none" fill-rule="evenodd">
        <line x1="662" y1="45" x2="662" y2="441" id="Line-8" stroke="#979797" stroke-linecap="square"></line>
        <g id="world" transform="translate(35.000000, 80.000000)" fill="#D5D5D5" fill-rule="nonzero">
            <path d="M201.478703,210.389447 C200.84259,209.959085 190.215759,200.397579 187.577761,197.010823 C184.99589,193.586644 180.01924,192.688498 177.41866,191.322569 C174.799371,189.975351 157.512061,184.268385 153.358617,187.224781 C149.2613,190.181176 143.611119,191.977467 141.422142,187.224781 C139.270583,182.434672 138.185448,181.761063 135.154557,181.087454 C132.123665,180.413845 133.639111,176.802552 133.433309,173.621621 C133.19009,170.421978 131.468842,167.01651 129.298574,169.299296 C127.128306,171.582082 119.756877,177.494872 118.690453,174.501055 C117.605318,171.563371 112.385449,159.307429 120.205898,157.005931 C127.988929,154.760568 134.499734,156.089074 136.464201,158.147324 C138.409959,160.168151 139.906696,165.875117 142.320184,165.182796 C144.714962,164.490476 143.405318,160.14944 144.265941,156.556858 C145.126565,152.945566 150.795455,148.155457 153.358617,143.178235 C155.959197,138.144878 156.389509,135.207194 159.626202,133.841265 C162.919023,132.494047 164.64027,130.679045 167.671162,128.396259 C170.720763,126.113473 175.454193,124.092646 177.231568,122.932541 C178.971524,121.772437 186.754555,117.917896 189.336426,118.610216 C191.937006,119.302537 193.658253,118.38568 191.506694,114.53114 C189.336426,110.676599 186.530045,99.0755546 182.414019,93.873796 C178.297993,88.6720374 177.848972,87.2686853 175.903214,82.3101744 C173.957456,77.276818 171.768479,72.9732048 170.253033,76.3786726 C168.737587,79.7841405 165.500894,84.3310014 163.760937,80.0086768 C162.03969,75.6863522 162.245491,75.8921772 160.075223,73.8713501 C157.923664,71.8318117 156.164998,71.3640276 153.152816,70.4471709 C150.121924,69.5303142 147.091032,70.6904186 147.296833,73.6281024 C147.502635,76.5844976 144.453033,81.8423903 146.43621,85.7156422 C148.381967,89.5888941 150.121924,93.667971 147.502635,95.0339005 C144.920764,96.3811185 147.502635,104.576695 144.920764,104.333447 C142.320184,104.127622 141.029248,104.576695 141.029248,101.601588 C141.029248,98.682616 142.320184,94.1357551 137.530626,94.1357551 C132.778487,94.1357551 129.953396,91.6471439 126.492193,89.1211101 C123.01228,86.632499 120.205898,87.979717 121.066522,82.3288857 C121.927146,76.6219203 120.654919,74.6010932 124.527726,71.4201617 C128.43795,68.2579416 129.317283,66.4055167 132.123665,67.7901575 C134.948755,69.1560869 136.875804,69.1560869 138.653179,67.5656212 C140.374426,65.9751554 143.611119,66.6300531 143.611119,64.609226 C143.611119,62.5696875 139.925405,62.5696875 140.374426,59.182931 C140.786029,55.7213291 142.544694,57.5737539 143.180807,51.8854999 C143.81692,46.1972459 139.064781,37.571308 134.293933,38.7127011 C129.504375,39.8353828 122.170365,46.4404936 120.654919,43.465387 C119.120764,40.5277032 116.089872,41.8749213 110.23389,43.9331711 C104.377908,45.9914209 80.1120633,41.912344 78.3908161,39.8353828 C78.3908161,39.8353828 74.2560809,36.897699 72.0858126,38.4881647 C69.9342536,40.0786305 61.2531805,39.3863101 58.6526005,38.9559488 C56.0333112,38.4881647 53.6572416,41.8936326 50.4392576,40.7709509 C47.1464368,39.6295578 35.6776916,37.3467717 33.0958208,35.5317696 C30.4578223,33.6980561 26.5475976,33.6980561 24.8637688,32.7999107 C23.1238123,31.883054 16.8188088,31.4339813 15.5465826,33.2489834 C14.236938,35.0639855 9.46608966,38.2262057 7.07131089,40.5089918 C4.69524133,42.791778 1.90756917,42.3427053 4.26492952,47.1141026 C6.64099908,51.8854999 -1.79685423,54.8418951 0.354704817,60.0436537 C2.50626387,65.2454123 -0.0756069932,79.3350678 8.58675683,82.0669266 C17.2678299,84.7987855 24.4147478,86.3892512 29.3913974,82.3288857 C34.4054654,78.2123861 41.9826951,78.2123861 44.3587647,82.759247 C46.7348342,87.306108 48.0444789,94.1170437 55.8275099,97.9715843 C63.6105409,101.844836 70.3458562,112.978097 69.9155443,117.936607 C69.5039417,122.951252 70.1587641,139.510808 78.1288871,149.053602 C86.1738471,158.596397 94.4058991,175.885695 95.023303,171.769196 C95.6781253,167.671407 95.6781253,163.573619 97.436791,166.548726 C99.139329,169.505121 103.704376,178.598843 111.075804,180.189309 C118.465942,181.779774 122.151656,182.228847 124.939328,184.979417 C127.74571,187.711276 130.159198,189.28303 133.17138,190.667671 C136.202272,192.014889 143.573701,196.131389 145.089147,198.844536 C146.623302,201.576395 145.968479,205.206399 144.434324,209.304188 C142.937588,213.401976 141.197631,217.481053 143.34919,221.354305 C145.538168,225.208845 150.084505,236.342106 153.788929,238.830717 C157.474643,241.356751 161.122939,245.435828 160.262315,251.10537 C159.401692,256.774913 155.285666,281.080972 155.715977,286.54469 C156.164998,291.970985 150.758037,309.915181 155.079864,317.1939 C159.401692,324.453909 166.810538,326.736695 170.047232,325.801127 C173.283925,324.921693 170.702054,324.659734 169.167899,321.272977 C167.652453,317.848798 167.858254,313.526474 169.598211,310.364253 C171.356876,307.183322 171.356876,305.36832 170.477543,301.738316 C169.598211,298.108311 170.047232,296.050062 172.198791,293.336914 C174.387768,290.605055 183.480444,283.345047 186.305534,280.164115 C189.093206,276.983184 206.904374,255.165736 209.280443,253.350734 C211.656513,251.535732 217.063474,247.213407 218.82214,240.421183 C220.562096,233.628958 226.829681,220.212912 222.507854,216.788732 C218.167317,213.364553 202.133525,210.838519 201.478703,210.389447 Z" id="Path"></path>
            <path d="M244.219074,19.7952598 C245.441962,17.3762002 248.40654,11.3191749 250,8 L182,8 C182.815259,11.6567181 185.761308,25.2334559 185.20545,30.7279092 C184.556948,37.1037253 186.502452,34.8346848 188.207084,37.3475065 C189.930245,39.8603281 189.504087,43.742075 188.429428,46.6674494 C187.33624,49.6303287 186.706267,56.249926 190.171117,63.9946673 C193.580381,71.7206562 197.656676,81.5094092 201.084469,81.9782192 C204.549319,82.4095244 203.678474,87.4351677 206.050136,85.5974325 C208.40327,83.7596972 208.810899,79.7091788 210.774932,73.7646679 C212.701907,67.8764142 212.701907,63.5258573 217.649046,60.5629781 C222.596185,57.6000988 236.307357,48.055127 239.308992,44.6234378 C242.329155,41.1917485 245.756948,39.8415757 244.682289,33.9345696 C243.570572,28.0088111 242.514441,23.226949 244.219074,19.7952598 Z" id="Path"></path>
            <path d="M582.832813,47.4802808 C580.239988,45.6744941 564.701697,33.2573834 557.986469,34.8397738 C551.327201,36.4221643 539.426325,31.209584 537.467717,30.0926026 C535.527762,28.9570047 519.560442,24.0609026 511.129101,23.7630409 C506.932083,23.61411 489.30461,19.6860585 481.955166,16.539894 C474.587069,13.3564968 468.356829,-2.22539474 454.310811,0.269197222 C452.50143,0.604291664 435.526826,2.98718547 431.199235,6.84077156 C426.90895,10.6943576 424.931688,15.1808999 422.562705,16.0931014 C420.193722,17.005303 413.273307,16.539894 413.273307,19.9466875 C413.273307,23.3348647 415.660943,33.7414087 412.862931,31.6936093 C410.046266,29.6644263 407.229601,24.9172551 405.961169,28.5474449 C404.674084,32.1776347 402.454328,34.1882013 401.185896,32.8292072 C399.917464,31.4702131 393.38877,32.8292072 392.549367,35.0817865 C391.672657,37.3529821 383.259968,42.5283296 379.6039,43.2357512 C375.929178,43.9059401 374.399598,45.7117268 372.459643,46.6239284 C370.519689,47.5175136 355.802147,54.3124842 353.022789,51.8178922 C350.206124,49.3419166 349.348067,50.9243071 347.6133,51.3710996 C347.6133,51.3710996 342.427652,50.4588981 339.200611,46.4005321 C335.936265,42.3421661 335.302049,43.6825438 331.627327,39.8475741 C327.971258,36.0126044 327.094548,32.1776347 323.438479,33.7600251 C319.782411,35.3237991 304.225466,51.3524833 298.163107,58.5942465 C292.138055,65.8360097 281.319077,73.2825529 286.709913,78.4579004 C292.138055,83.6518642 294.917414,82.9816753 295.588936,85.9044435 C296.260459,88.8272117 296.894675,92.0106089 297.752732,93.1462068 C298.610789,94.3004209 303.777784,98.3401706 306.389261,92.9228105 C309.019392,87.486834 309.411114,83.6518642 312.432967,84.5640658 C315.454819,85.4576509 316.089035,87.5054503 314.559455,91.5638163 C313.048529,95.6594151 311.985285,101.97036 306.799637,101.728348 C301.632642,101.504951 296.017965,98.3401706 294.264544,99.0289758 C292.548431,99.6991647 291.503839,101.281555 289.526578,102.863946 C287.586623,104.446336 281.524265,111.874263 277.420514,113.028477 C273.335417,114.164075 268.37361,113.233257 271.171621,116.621434 C273.969633,120.009611 278.073384,127.474771 274.193474,127.232758 C270.313565,127.009362 263.822178,126.339173 263.393149,130.174143 C262.964121,134.009112 261.248007,136.280308 262.106064,138.97968 C262.964121,141.697668 265.780786,146.910248 269.213013,145.085845 C272.719855,143.261442 279.397776,141.492888 281.11389,137.397289 C282.848657,133.320307 284.807265,128.833765 289.116203,129.057161 C293.425141,129.280557 303.815091,134.921314 303.143568,136.969113 C302.509352,138.97968 300.36421,143.745468 302.93838,142.163077 C305.531205,140.56207 307.676347,138.756284 309.187273,138.086095 C310.698199,137.397289 312.694114,140.35729 313.309677,141.492888 C313.943893,142.647102 318.290138,144.881065 319.129541,141.232259 C320.006252,137.639302 320.864308,140.35729 323.438479,141.492888 C326.049957,142.647102 333.809776,143.503455 334.854367,144.415656 C335.973571,145.327858 338.342555,148.02723 335.302049,151.65742 C332.280196,155.250377 328.810661,156.646604 323.848854,153.928615 C318.868393,151.210627 313.458904,156.199811 307.900188,153.463206 C302.248204,150.763834 304.859682,146.928865 298.163107,144.210876 C291.503839,141.492888 276.35727,144.881065 271.581997,146.240059 C266.825377,147.580437 266.620189,148.045846 264.680234,150.298425 C262.74028,152.569621 250,167.239311 250,175.598056 C250,183.938184 254.737966,206.575675 270.07107,204.30448 C285.422827,202.033284 294.712226,203.373662 292.996112,207.87882 C291.242692,212.421212 292.138055,213.55681 294.936067,218.732157 C297.734079,223.926121 304.244119,258.515314 305.307364,264.137454 C306.426568,269.796827 304.46796,277.001357 311.593563,275.884376 C318.756473,274.748778 326.292451,272.961608 329.29565,266.40865 C332.336156,259.837075 332.802491,252.409149 336.682401,248.574179 C340.580964,244.720593 345.31893,244.720593 345.729305,239.303233 C346.13968,233.867256 344.647407,221.003353 347.240232,218.024736 C349.851709,215.120584 361.920466,201.530642 363.207551,196.113282 C364.51329,190.695922 366.229404,189.336928 361.267597,189.336928 C356.305789,189.336928 347.874448,188.685355 345.468158,184.16158 C343.099174,179.693655 337.465844,171.111514 337.465844,169.082331 C337.465844,167.071764 340.935379,167.276544 342.632839,171.558306 C344.38626,175.840069 350.392658,188.759821 357.313074,186.0046 C364.233489,183.286612 373.97057,180.140447 374.175757,175.840069 C374.380945,171.558306 371.153904,166.587739 367.68437,166.829751 C364.196182,167.071764 360.540114,164.558556 360.540114,162.08258 C360.540114,159.606604 361.17433,160.518806 365.296733,162.08258 C369.419137,163.66497 370.687569,166.364342 376.973769,166.829751 C383.241315,167.276544 390.366918,173.382709 393.799145,176.100698 C397.26868,178.818686 403.293732,197.360578 404.823311,199.147749 C406.315584,200.972152 408.106312,200.972152 409.598585,197.341962 C411.109511,193.711772 417.582244,182.206863 421.27562,179.023466 C424.931688,175.858685 425.155529,171.576923 427.282018,174.294911 C429.445814,177.012899 438.735213,183.770637 439.388082,187.847619 C440.040951,191.924602 438.959053,200.730139 440.899008,198.012151 C442.838963,195.294163 444.368543,189.672022 446.04735,192.166614 C447.80077,194.661206 447.80077,198.496176 451.885867,195.554792 C456.008271,192.65064 463.133874,191.496426 459.253965,185.166864 C455.374055,178.837302 457.966879,175.002332 460.373169,174.76032 C462.742153,174.518307 478.951967,171.595539 479.380995,162.771385 C479.810024,153.965848 473.747665,149.218677 476.62029,144.694902 C479.380995,140.171127 483.503399,136.112761 484.380109,138.812133 C485.238166,141.530121 482.216314,150.335658 486.096223,148.976664 C489.994786,147.636286 494.527565,147.636286 494.527565,144.899682 C494.527565,142.163077 493.650855,135.386723 495.404275,133.599552 C497.139042,131.793766 509.860669,119.842064 511.371595,115.094893 C512.882521,110.329105 515.699186,106.270739 513.31155,102.677782 C510.923913,99.0662086 506.838816,100.164574 510.065856,95.6780314 C513.31155,91.1542565 518.721039,86.9655759 522.824789,86.6304815 C535.938137,85.4762673 532.244762,101.672499 532.468603,105.284072 C532.711097,108.895646 532.711097,117.943195 534.632399,113.419421 C536.572353,108.914262 538.829416,103.347971 542.727979,99.5130012 C546.626542,95.6966478 548.771684,93.1834395 549.014178,89.8138787 C549.238019,86.4257016 549.4059,85.2901037 553.117929,83.484317 C556.792651,81.6599139 572.983812,75.3303522 574.494738,71.0672063 C576.005664,66.785444 572.554783,62.9132415 576.434693,63.1738705 C580.314602,63.3786505 583.989324,67.6604128 585.947932,65.4078335 C587.887887,63.1738705 592.215478,59.0968882 591.991637,56.8256925 C591.73049,54.4800314 585.462944,49.2860676 582.832813,47.4802808 Z" id="Path"></path>
            <path d="M512.209032,122.891758 C510.893497,125.860569 510.254523,126.327363 508.300013,132.451702 C506.307916,138.538698 506.965684,136.951597 504.992381,140.797981 C503.037871,144.663037 499.805413,145.092487 496.535368,147.613175 C493.227736,150.115192 492.363242,155.081882 492.363242,155.081882 C489.544237,158.928265 503.902366,149.629726 508.9014,146.698259 C513.919228,143.74812 512.622486,140.349859 513.054733,135.588559 C513.486981,130.808587 514.840103,130.136403 516.963753,128.101181 C519.124989,126.065958 517.396,121.976842 516.362365,119.045374 C515.234763,116.113907 513.486981,119.978963 512.209032,122.891758 Z" id="Path"></path>
            <path d="M467.29556,225.691369 C468.78125,224.519728 467.69908,222.025266 470.028495,222.459907 C472.376252,222.913445 474.485565,224.330753 477.291868,222.724471 C480.024804,221.099291 482.372561,221.779599 481.950698,219.03947 C481.547178,216.299341 481.950698,212.633238 481.327075,210.346647 C480.685111,208.04116 476.870006,207.341954 474.100386,209.893109 C471.330767,212.444263 467.534004,216.337136 467.534004,214.938725 C467.534004,213.57811 469.203112,209.893109 468.359387,207.606519 C467.534004,205.319928 468.78125,203.260107 464.544282,205.074262 C460.288973,206.926211 457.959558,206.453775 456.473868,208.986032 C455.00652,211.537186 453.282386,215.8647 450.751211,213.124571 C448.220035,210.384442 440.754902,204.658518 440.754902,204.658518 C440.149621,203.959313 431.657344,196.834978 434.628724,201.672722 C437.581762,206.49157 442.057173,214.749751 444.184828,217.716649 C446.275799,220.702445 448.623556,224.160676 451.191415,222.554394 C453.740932,220.929214 454.162795,220.494573 457.574379,222.554394 C460.894254,224.538625 465.80987,226.844113 467.29556,225.691369 Z" id="Path"></path>
            <path d="M520.43136,219.630161 C516.344724,217.884161 518.056693,216.354161 513.141685,215.508161 C508.226676,214.662161 504.213673,215.508161 502.888277,214.644161 C501.599698,213.762161 495.230436,211.584161 496.077216,214.644161 C496.942405,217.722161 502.685786,218.568161 504.176856,219.432161 C505.667926,220.314161 502.041497,222.294161 504.784329,223.806161 C507.54557,225.318161 509.496847,228.180161 513.104868,227.298161 C516.731298,226.398161 518.019877,228.396161 520.9652,228.828161 C523.965749,229.242161 526.947889,228.396161 525.714535,227.046161 C524.425956,225.768161 523.597583,223.986161 523.800074,222.474161 C524.020974,220.944161 524.462772,221.394161 520.43136,219.630161 Z" id="Path"></path>
            <path d="M518.306208,239.84991 C516.788332,235.340254 513.096709,227.044713 512.253445,231.071855 C511.372703,235.117555 505.526072,238.031201 503.314846,237.808502 C501.328491,237.585803 502.452843,235.562953 502.452843,233.725685 C502.452843,231.925535 501.309751,230.143942 496.362602,231.498695 C491.340496,232.834889 490.30984,237.567244 488.960617,237.140404 C487.686351,236.695006 484.182121,235.785652 482.045852,238.272458 C479.872104,240.759264 477.885749,245.491619 475.318478,246.400974 C472.69499,247.310328 464,248.405266 464,252.042684 C464,255.642985 466.192487,261.043438 465.967616,263.975642 C465.742746,266.907847 461.788774,273.644493 467.05449,275.70446 C470.090241,276.87363 472.245249,277.040654 475.768219,275.259062 C479.234971,273.458911 494.188855,268.726556 496.17521,270.285449 C498.124087,271.862901 501.272273,275.555994 502.677713,276.353999 C505.432376,277.987125 506.181944,281.754451 509.873567,282.663806 C513.508972,283.57316 516.37607,284 517.875206,284 C519.411821,284 524.808711,282.199849 526.120455,279.044946 C527.432199,275.871484 529.812078,268.448182 530.898951,264.84788 C532.042043,261.247579 533.05396,257.201879 529.812078,254.028417 C526.570196,250.892072 519.824083,244.359566 518.306208,239.84991 Z" id="Path"></path>
        </g>
        <g id="Group-2" transform="translate(697.000000, 80.000000)">
            <g id="world-copy" fill="#D5D5D5" fill-rule="nonzero">
                <path d="M201.478703,210.389447 C200.84259,209.959085 190.215759,200.397579 187.577761,197.010823 C184.99589,193.586644 180.01924,192.688498 177.41866,191.322569 C174.799371,189.975351 157.512061,184.268385 153.358617,187.224781 C149.2613,190.181176 143.611119,191.977467 141.422142,187.224781 C139.270583,182.434672 138.185448,181.761063 135.154557,181.087454 C132.123665,180.413845 133.639111,176.802552 133.433309,173.621621 C133.19009,170.421978 131.468842,167.01651 129.298574,169.299296 C127.128306,171.582082 119.756877,177.494872 118.690453,174.501055 C117.605318,171.563371 112.385449,159.307429 120.205898,157.005931 C127.988929,154.760568 134.499734,156.089074 136.464201,158.147324 C138.409959,160.168151 139.906696,165.875117 142.320184,165.182796 C144.714962,164.490476 143.405318,160.14944 144.265941,156.556858 C145.126565,152.945566 150.795455,148.155457 153.358617,143.178235 C155.959197,138.144878 156.389509,135.207194 159.626202,133.841265 C162.919023,132.494047 164.64027,130.679045 167.671162,128.396259 C170.720763,126.113473 175.454193,124.092646 177.231568,122.932541 C178.971524,121.772437 186.754555,117.917896 189.336426,118.610216 C191.937006,119.302537 193.658253,118.38568 191.506694,114.53114 C189.336426,110.676599 186.530045,99.0755546 182.414019,93.873796 C178.297993,88.6720374 177.848972,87.2686853 175.903214,82.3101744 C173.957456,77.276818 171.768479,72.9732048 170.253033,76.3786726 C168.737587,79.7841405 165.500894,84.3310014 163.760937,80.0086768 C162.03969,75.6863522 162.245491,75.8921772 160.075223,73.8713501 C157.923664,71.8318117 156.164998,71.3640276 153.152816,70.4471709 C150.121924,69.5303142 147.091032,70.6904186 147.296833,73.6281024 C147.502635,76.5844976 144.453033,81.8423903 146.43621,85.7156422 C148.381967,89.5888941 150.121924,93.667971 147.502635,95.0339005 C144.920764,96.3811185 147.502635,104.576695 144.920764,104.333447 C142.320184,104.127622 141.029248,104.576695 141.029248,101.601588 C141.029248,98.682616 142.320184,94.1357551 137.530626,94.1357551 C132.778487,94.1357551 129.953396,91.6471439 126.492193,89.1211101 C123.01228,86.632499 120.205898,87.979717 121.066522,82.3288857 C121.927146,76.6219203 120.654919,74.6010932 124.527726,71.4201617 C128.43795,68.2579416 129.317283,66.4055167 132.123665,67.7901575 C134.948755,69.1560869 136.875804,69.1560869 138.653179,67.5656212 C140.374426,65.9751554 143.611119,66.6300531 143.611119,64.609226 C143.611119,62.5696875 139.925405,62.5696875 140.374426,59.182931 C140.786029,55.7213291 142.544694,57.5737539 143.180807,51.8854999 C143.81692,46.1972459 139.064781,37.571308 134.293933,38.7127011 C129.504375,39.8353828 122.170365,46.4404936 120.654919,43.465387 C119.120764,40.5277032 116.089872,41.8749213 110.23389,43.9331711 C104.377908,45.9914209 80.1120633,41.912344 78.3908161,39.8353828 C78.3908161,39.8353828 74.2560809,36.897699 72.0858126,38.4881647 C69.9342536,40.0786305 61.2531805,39.3863101 58.6526005,38.9559488 C56.0333112,38.4881647 53.6572416,41.8936326 50.4392576,40.7709509 C47.1464368,39.6295578 35.6776916,37.3467717 33.0958208,35.5317696 C30.4578223,33.6980561 26.5475976,33.6980561 24.8637688,32.7999107 C23.1238123,31.883054 16.8188088,31.4339813 15.5465826,33.2489834 C14.236938,35.0639855 9.46608966,38.2262057 7.07131089,40.5089918 C4.69524133,42.791778 1.90756917,42.3427053 4.26492952,47.1141026 C6.64099908,51.8854999 -1.79685423,54.8418951 0.354704817,60.0436537 C2.50626387,65.2454123 -0.0756069932,79.3350678 8.58675683,82.0669266 C17.2678299,84.7987855 24.4147478,86.3892512 29.3913974,82.3288857 C34.4054654,78.2123861 41.9826951,78.2123861 44.3587647,82.759247 C46.7348342,87.306108 48.0444789,94.1170437 55.8275099,97.9715843 C63.6105409,101.844836 70.3458562,112.978097 69.9155443,117.936607 C69.5039417,122.951252 70.1587641,139.510808 78.1288871,149.053602 C86.1738471,158.596397 94.4058991,175.885695 95.023303,171.769196 C95.6781253,167.671407 95.6781253,163.573619 97.436791,166.548726 C99.139329,169.505121 103.704376,178.598843 111.075804,180.189309 C118.465942,181.779774 122.151656,182.228847 124.939328,184.979417 C127.74571,187.711276 130.159198,189.28303 133.17138,190.667671 C136.202272,192.014889 143.573701,196.131389 145.089147,198.844536 C146.623302,201.576395 145.968479,205.206399 144.434324,209.304188 C142.937588,213.401976 141.197631,217.481053 143.34919,221.354305 C145.538168,225.208845 150.084505,236.342106 153.788929,238.830717 C157.474643,241.356751 161.122939,245.435828 160.262315,251.10537 C159.401692,256.774913 155.285666,281.080972 155.715977,286.54469 C156.164998,291.970985 150.758037,309.915181 155.079864,317.1939 C159.401692,324.453909 166.810538,326.736695 170.047232,325.801127 C173.283925,324.921693 170.702054,324.659734 169.167899,321.272977 C167.652453,317.848798 167.858254,313.526474 169.598211,310.364253 C171.356876,307.183322 171.356876,305.36832 170.477543,301.738316 C169.598211,298.108311 170.047232,296.050062 172.198791,293.336914 C174.387768,290.605055 183.480444,283.345047 186.305534,280.164115 C189.093206,276.983184 206.904374,255.165736 209.280443,253.350734 C211.656513,251.535732 217.063474,247.213407 218.82214,240.421183 C220.562096,233.628958 226.829681,220.212912 222.507854,216.788732 C218.167317,213.364553 202.133525,210.838519 201.478703,210.389447 Z" id="Path"></path>
                <path d="M244.219074,19.7952598 C245.441962,17.3762002 248.40654,11.3191749 250,8 L182,8 C182.815259,11.6567181 185.761308,25.2334559 185.20545,30.7279092 C184.556948,37.1037253 186.502452,34.8346848 188.207084,37.3475065 C189.930245,39.8603281 189.504087,43.742075 188.429428,46.6674494 C187.33624,49.6303287 186.706267,56.249926 190.171117,63.9946673 C193.580381,71.7206562 197.656676,81.5094092 201.084469,81.9782192 C204.549319,82.4095244 203.678474,87.4351677 206.050136,85.5974325 C208.40327,83.7596972 208.810899,79.7091788 210.774932,73.7646679 C212.701907,67.8764142 212.701907,63.5258573 217.649046,60.5629781 C222.596185,57.6000988 236.307357,48.055127 239.308992,44.6234378 C242.329155,41.1917485 245.756948,39.8415757 244.682289,33.9345696 C243.570572,28.0088111 242.514441,23.226949 244.219074,19.7952598 Z" id="Path"></path>
                <path d="M582.832813,47.4802808 C580.239988,45.6744941 564.701697,33.2573834 557.986469,34.8397738 C551.327201,36.4221643 539.426325,31.209584 537.467717,30.0926026 C535.527762,28.9570047 519.560442,24.0609026 511.129101,23.7630409 C506.932083,23.61411 489.30461,19.6860585 481.955166,16.539894 C474.587069,13.3564968 468.356829,-2.22539474 454.310811,0.269197222 C452.50143,0.604291664 435.526826,2.98718547 431.199235,6.84077156 C426.90895,10.6943576 424.931688,15.1808999 422.562705,16.0931014 C420.193722,17.005303 413.273307,16.539894 413.273307,19.9466875 C413.273307,23.3348647 415.660943,33.7414087 412.862931,31.6936093 C410.046266,29.6644263 407.229601,24.9172551 405.961169,28.5474449 C404.674084,32.1776347 402.454328,34.1882013 401.185896,32.8292072 C399.917464,31.4702131 393.38877,32.8292072 392.549367,35.0817865 C391.672657,37.3529821 383.259968,42.5283296 379.6039,43.2357512 C375.929178,43.9059401 374.399598,45.7117268 372.459643,46.6239284 C370.519689,47.5175136 355.802147,54.3124842 353.022789,51.8178922 C350.206124,49.3419166 349.348067,50.9243071 347.6133,51.3710996 C347.6133,51.3710996 342.427652,50.4588981 339.200611,46.4005321 C335.936265,42.3421661 335.302049,43.6825438 331.627327,39.8475741 C327.971258,36.0126044 327.094548,32.1776347 323.438479,33.7600251 C319.782411,35.3237991 304.225466,51.3524833 298.163107,58.5942465 C292.138055,65.8360097 281.319077,73.2825529 286.709913,78.4579004 C292.138055,83.6518642 294.917414,82.9816753 295.588936,85.9044435 C296.260459,88.8272117 296.894675,92.0106089 297.752732,93.1462068 C298.610789,94.3004209 303.777784,98.3401706 306.389261,92.9228105 C309.019392,87.486834 309.411114,83.6518642 312.432967,84.5640658 C315.454819,85.4576509 316.089035,87.5054503 314.559455,91.5638163 C313.048529,95.6594151 311.985285,101.97036 306.799637,101.728348 C301.632642,101.504951 296.017965,98.3401706 294.264544,99.0289758 C292.548431,99.6991647 291.503839,101.281555 289.526578,102.863946 C287.586623,104.446336 281.524265,111.874263 277.420514,113.028477 C273.335417,114.164075 268.37361,113.233257 271.171621,116.621434 C273.969633,120.009611 278.073384,127.474771 274.193474,127.232758 C270.313565,127.009362 263.822178,126.339173 263.393149,130.174143 C262.964121,134.009112 261.248007,136.280308 262.106064,138.97968 C262.964121,141.697668 265.780786,146.910248 269.213013,145.085845 C272.719855,143.261442 279.397776,141.492888 281.11389,137.397289 C282.848657,133.320307 284.807265,128.833765 289.116203,129.057161 C293.425141,129.280557 303.815091,134.921314 303.143568,136.969113 C302.509352,138.97968 300.36421,143.745468 302.93838,142.163077 C305.531205,140.56207 307.676347,138.756284 309.187273,138.086095 C310.698199,137.397289 312.694114,140.35729 313.309677,141.492888 C313.943893,142.647102 318.290138,144.881065 319.129541,141.232259 C320.006252,137.639302 320.864308,140.35729 323.438479,141.492888 C326.049957,142.647102 333.809776,143.503455 334.854367,144.415656 C335.973571,145.327858 338.342555,148.02723 335.302049,151.65742 C332.280196,155.250377 328.810661,156.646604 323.848854,153.928615 C318.868393,151.210627 313.458904,156.199811 307.900188,153.463206 C302.248204,150.763834 304.859682,146.928865 298.163107,144.210876 C291.503839,141.492888 276.35727,144.881065 271.581997,146.240059 C266.825377,147.580437 266.620189,148.045846 264.680234,150.298425 C262.74028,152.569621 250,167.239311 250,175.598056 C250,183.938184 254.737966,206.575675 270.07107,204.30448 C285.422827,202.033284 294.712226,203.373662 292.996112,207.87882 C291.242692,212.421212 292.138055,213.55681 294.936067,218.732157 C297.734079,223.926121 304.244119,258.515314 305.307364,264.137454 C306.426568,269.796827 304.46796,277.001357 311.593563,275.884376 C318.756473,274.748778 326.292451,272.961608 329.29565,266.40865 C332.336156,259.837075 332.802491,252.409149 336.682401,248.574179 C340.580964,244.720593 345.31893,244.720593 345.729305,239.303233 C346.13968,233.867256 344.647407,221.003353 347.240232,218.024736 C349.851709,215.120584 361.920466,201.530642 363.207551,196.113282 C364.51329,190.695922 366.229404,189.336928 361.267597,189.336928 C356.305789,189.336928 347.874448,188.685355 345.468158,184.16158 C343.099174,179.693655 337.465844,171.111514 337.465844,169.082331 C337.465844,167.071764 340.935379,167.276544 342.632839,171.558306 C344.38626,175.840069 350.392658,188.759821 357.313074,186.0046 C364.233489,183.286612 373.97057,180.140447 374.175757,175.840069 C374.380945,171.558306 371.153904,166.587739 367.68437,166.829751 C364.196182,167.071764 360.540114,164.558556 360.540114,162.08258 C360.540114,159.606604 361.17433,160.518806 365.296733,162.08258 C369.419137,163.66497 370.687569,166.364342 376.973769,166.829751 C383.241315,167.276544 390.366918,173.382709 393.799145,176.100698 C397.26868,178.818686 403.293732,197.360578 404.823311,199.147749 C406.315584,200.972152 408.106312,200.972152 409.598585,197.341962 C411.109511,193.711772 417.582244,182.206863 421.27562,179.023466 C424.931688,175.858685 425.155529,171.576923 427.282018,174.294911 C429.445814,177.012899 438.735213,183.770637 439.388082,187.847619 C440.040951,191.924602 438.959053,200.730139 440.899008,198.012151 C442.838963,195.294163 444.368543,189.672022 446.04735,192.166614 C447.80077,194.661206 447.80077,198.496176 451.885867,195.554792 C456.008271,192.65064 463.133874,191.496426 459.253965,185.166864 C455.374055,178.837302 457.966879,175.002332 460.373169,174.76032 C462.742153,174.518307 478.951967,171.595539 479.380995,162.771385 C479.810024,153.965848 473.747665,149.218677 476.62029,144.694902 C479.380995,140.171127 483.503399,136.112761 484.380109,138.812133 C485.238166,141.530121 482.216314,150.335658 486.096223,148.976664 C489.994786,147.636286 494.527565,147.636286 494.527565,144.899682 C494.527565,142.163077 493.650855,135.386723 495.404275,133.599552 C497.139042,131.793766 509.860669,119.842064 511.371595,115.094893 C512.882521,110.329105 515.699186,106.270739 513.31155,102.677782 C510.923913,99.0662086 506.838816,100.164574 510.065856,95.6780314 C513.31155,91.1542565 518.721039,86.9655759 522.824789,86.6304815 C535.938137,85.4762673 532.244762,101.672499 532.468603,105.284072 C532.711097,108.895646 532.711097,117.943195 534.632399,113.419421 C536.572353,108.914262 538.829416,103.347971 542.727979,99.5130012 C546.626542,95.6966478 548.771684,93.1834395 549.014178,89.8138787 C549.238019,86.4257016 549.4059,85.2901037 553.117929,83.484317 C556.792651,81.6599139 572.983812,75.3303522 574.494738,71.0672063 C576.005664,66.785444 572.554783,62.9132415 576.434693,63.1738705 C580.314602,63.3786505 583.989324,67.6604128 585.947932,65.4078335 C587.887887,63.1738705 592.215478,59.0968882 591.991637,56.8256925 C591.73049,54.4800314 585.462944,49.2860676 582.832813,47.4802808 Z" id="Path"></path>
                <path d="M512.209032,122.891758 C510.893497,125.860569 510.254523,126.327363 508.300013,132.451702 C506.307916,138.538698 506.965684,136.951597 504.992381,140.797981 C503.037871,144.663037 499.805413,145.092487 496.535368,147.613175 C493.227736,150.115192 492.363242,155.081882 492.363242,155.081882 C489.544237,158.928265 503.902366,149.629726 508.9014,146.698259 C513.919228,143.74812 512.622486,140.349859 513.054733,135.588559 C513.486981,130.808587 514.840103,130.136403 516.963753,128.101181 C519.124989,126.065958 517.396,121.976842 516.362365,119.045374 C515.234763,116.113907 513.486981,119.978963 512.209032,122.891758 Z" id="Path"></path>
                <path d="M467.29556,225.691369 C468.78125,224.519728 467.69908,222.025266 470.028495,222.459907 C472.376252,222.913445 474.485565,224.330753 477.291868,222.724471 C480.024804,221.099291 482.372561,221.779599 481.950698,219.03947 C481.547178,216.299341 481.950698,212.633238 481.327075,210.346647 C480.685111,208.04116 476.870006,207.341954 474.100386,209.893109 C471.330767,212.444263 467.534004,216.337136 467.534004,214.938725 C467.534004,213.57811 469.203112,209.893109 468.359387,207.606519 C467.534004,205.319928 468.78125,203.260107 464.544282,205.074262 C460.288973,206.926211 457.959558,206.453775 456.473868,208.986032 C455.00652,211.537186 453.282386,215.8647 450.751211,213.124571 C448.220035,210.384442 440.754902,204.658518 440.754902,204.658518 C440.149621,203.959313 431.657344,196.834978 434.628724,201.672722 C437.581762,206.49157 442.057173,214.749751 444.184828,217.716649 C446.275799,220.702445 448.623556,224.160676 451.191415,222.554394 C453.740932,220.929214 454.162795,220.494573 457.574379,222.554394 C460.894254,224.538625 465.80987,226.844113 467.29556,225.691369 Z" id="Path"></path>
                <path d="M520.43136,219.630161 C516.344724,217.884161 518.056693,216.354161 513.141685,215.508161 C508.226676,214.662161 504.213673,215.508161 502.888277,214.644161 C501.599698,213.762161 495.230436,211.584161 496.077216,214.644161 C496.942405,217.722161 502.685786,218.568161 504.176856,219.432161 C505.667926,220.314161 502.041497,222.294161 504.784329,223.806161 C507.54557,225.318161 509.496847,228.180161 513.104868,227.298161 C516.731298,226.398161 518.019877,228.396161 520.9652,228.828161 C523.965749,229.242161 526.947889,228.396161 525.714535,227.046161 C524.425956,225.768161 523.597583,223.986161 523.800074,222.474161 C524.020974,220.944161 524.462772,221.394161 520.43136,219.630161 Z" id="Path"></path>
                <path d="M518.306208,239.84991 C516.788332,235.340254 513.096709,227.044713 512.253445,231.071855 C511.372703,235.117555 505.526072,238.031201 503.314846,237.808502 C501.328491,237.585803 502.452843,235.562953 502.452843,233.725685 C502.452843,231.925535 501.309751,230.143942 496.362602,231.498695 C491.340496,232.834889 490.30984,237.567244 488.960617,237.140404 C487.686351,236.695006 484.182121,235.785652 482.045852,238.272458 C479.872104,240.759264 477.885749,245.491619 475.318478,246.400974 C472.69499,247.310328 464,248.405266 464,252.042684 C464,255.642985 466.192487,261.043438 465.967616,263.975642 C465.742746,266.907847 461.788774,273.644493 467.05449,275.70446 C470.090241,276.87363 472.245249,277.040654 475.768219,275.259062 C479.234971,273.458911 494.188855,268.726556 496.17521,270.285449 C498.124087,271.862901 501.272273,275.555994 502.677713,276.353999 C505.432376,277.987125 506.181944,281.754451 509.873567,282.663806 C513.508972,283.57316 516.37607,284 517.875206,284 C519.411821,284 524.808711,282.199849 526.120455,279.044946 C527.432199,275.871484 529.812078,268.448182 530.898951,264.84788 C532.042043,261.247579 533.05396,257.201879 529.812078,254.028417 C526.570196,250.892072 519.824083,244.359566 518.306208,239.84991 Z" id="Path"></path>
            </g>
            <g id="Group-Copy" filter="url(#filter-1)" transform="translate(118.000000, 117.000000)" fill="#1A0FC7">
                <circle id="Oval-Copy-2" fill-opacity="0.4" cx="11" cy="11" r="11"></circle>
                <circle id="Oval" fill-opacity="0.5" cx="11" cy="11" r="8"></circle>
                <circle id="Oval-Copy" cx="11" cy="11" r="4"></circle>
            </g>
            <g id="Group-Copy-2" filter="url(#filter-2)" transform="translate(274.000000, 174.000000)" fill="#1A0FC7">
                <circle id="Oval-Copy-2" fill-opacity="0.4" cx="11" cy="11" r="11"></circle>
                <circle id="Oval" fill-opacity="0.5" cx="11" cy="11" r="8"></circle>
                <circle id="Oval-Copy" cx="11" cy="11" r="4"></circle>
            </g>
            <g id="Group-Copy-3" filter="url(#filter-3)" transform="translate(498.000000, 60.000000)" fill="#1A0FC7">
                <circle id="Oval-Copy-2" fill-opacity="0.4" cx="11" cy="11" r="11"></circle>
                <circle id="Oval" fill-opacity="0.5" cx="11" cy="11" r="8"></circle>
                <circle id="Oval-Copy" cx="11" cy="11" r="4"></circle>
            </g>
            <g id="Group-Copy-4" filter="url(#filter-4)" transform="translate(369.000000, 128.000000)" fill="#1A0FC7">
                <circle id="Oval-Copy-2" fill-opacity="0.4" cx="11" cy="11" r="11"></circle>
                <circle id="Oval" fill-opacity="0.5" cx="11" cy="11" r="8"></circle>
                <circle id="Oval-Copy" cx="11" cy="11" r="4"></circle>
            </g>
            <g id="Group-Copy-5" filter="url(#filter-5)" transform="translate(487.000000, 246.000000)" fill="#1A0FC7">
                <circle id="Oval-Copy-2" fill-opacity="0.4" cx="11" cy="11" r="11"></circle>
                <circle id="Oval" fill-opacity="0.5" cx="11" cy="11" r="8"></circle>
                <circle id="Oval-Copy" cx="11" cy="11" r="4"></circle>
            </g>
            <path d="M129,128 C164.983838,109.237027 196.650504,105.57036 224,117 C251.349496,128.42964 271.682829,151.096307 285,185 C299.152338,161.354703 311.819005,147.354703 323,143 C334.180995,138.645297 353.180995,137.311963 380,139 C397.466868,108.094915 413.466868,89.0949146 428,82 C442.533132,74.9050854 469.533132,71.2384187 509,71 L498,257" id="Path-9" stroke="#1A0FC7" stroke-dasharray="3"></path>
        </g>
        <g id="Group" filter="url(#filter-6)" transform="translate(308.000000, 254.000000)" fill="#1A0FC7">
            <circle id="Oval-Copy-2" fill-opacity="0.4" cx="11" cy="11" r="11"></circle>
            <circle id="Oval" fill-opacity="0.5" cx="11" cy="11" r="8"></circle>
            <circle id="Oval-Copy" cx="11" cy="11" r="4"></circle>
        </g>
        <text id="Single-Cluster" font-family="HelveticaNeue-Medium, Helvetica Neue" font-size="22" font-weight="400" fill="#9D9D9D">
            <tspan x="260.292" y="452">Single Cluster</tspan>
        </text>
        <text id="Multi-Cluster" font-family="HelveticaNeue-Medium, Helvetica Neue" font-size="22" font-weight="400" fill="#9D9D9D">
            <tspan x="929.117" y="452">Multi Cluster</tspan>
        </text>
    </g>
</svg>