<?xml version="1.0" encoding="UTF-8"?>
<svg width="794px" height="209px" viewBox="0 0 794 209" version="1.1" xmlns="http://www.w3.org/2000/svg" xmlns:xlink="http://www.w3.org/1999/xlink">
    <title>spring-boot-banner</title>
    <defs>
        <linearGradient x1="0%" y1="36.4587672%" x2="100%" y2="63.1593908%" id="linearGradient-1">
            <stop stop-color="#1A0FC7" offset="0%"></stop>
            <stop stop-color="#2979FF" offset="100%"></stop>
        </linearGradient>
        <path d="M293.656305,123.060974 C301.632666,123.060974 309.008622,125.643706 315.000897,130.022209 L315.001219,150.573165 C311.537214,142.062547 303.213774,136.066335 293.496403,136.066335 C280.670205,136.066335 270.272518,146.512941 270.272518,159.399483 C270.272518,169.157481 276.234427,177.516448 284.698164,181.000025 L264.252721,180.999661 C259.897133,174.980178 257.328058,167.571589 257.328058,159.560138 C257.328058,139.402206 273.592768,123.060974 293.656305,123.060974 Z M298.669583,28 C307.688639,28 315,36.8799133 315,47.8338843 L315.000312,111.865176 C314.496801,111.722796 314.002485,111.550986 313.520561,111.348962 C307.784091,108.924583 304.166693,103.084554 304.520698,96.8156393 C304.637213,94.8465475 303.204831,93.1344886 301.250861,92.9058488 C296.273965,92.3275246 291.253438,92.3095921 286.261667,92.8659988 C284.330009,93.0801929 282.897627,94.7519035 282.962577,96.6960891 C283.17974,102.903236 279.518712,108.641149 273.839259,110.978356 C268.392835,113.213447 261.309261,111.585073 257.345792,107.20555 C256.035873,105.762977 253.843917,105.585644 252.317828,106.780649 C248.32461,109.928306 244.692834,113.532746 241.539015,117.486869 C240.308921,119.024086 240.48989,121.252203 241.936651,122.574728 C246.57392,126.793854 248.071253,133.505603 245.662134,139.27689 C243.362092,144.779189 237.675202,148.325348 231.164779,148.325348 C229.052152,148.257104 227.547382,149.681745 227.316337,151.611485 C226.730294,156.640564 226.723353,161.764785 227.28758,166.834711 C227.49681,168.724601 229.747271,170.126327 231.656618,170.126327 C237.458535,169.977388 243.02891,173.58631 245.365642,179.299316 C245.593755,179.858072 245.785168,180.425886 245.940601,180.999568 L37.3304172,181 C28.3113611,181 21,172.120087 21,161.166116 L21,47.8338843 C21,36.8799133 28.3113611,28 37.3304172,28 L298.669583,28 Z M157.29277,46.7843503 C152.953708,45.1620531 136.656705,46.542488 127.037354,46.6471426 C124.138372,46.6786824 120.592731,46.6592663 116.949085,46.6879689 L115.953346,46.6970644 C115.620898,46.7005435 115.288052,46.7044947 114.95522,46.7089925 L113.957181,46.7241999 C106.478398,46.8516692 99.2156216,47.2935111 96.8641998,48.8975991 C96.6734734,49.0277085 96.4889088,49.1523887 96.3087121,49.2750208 L96.0944579,49.4214126 C96.0236622,49.4700264 95.9534506,49.518529 95.8837082,49.5671366 L95.6757739,49.7134912 L95.6757739,49.7134912 L95.4699664,49.8617746 L95.4699664,49.8617746 L95.2655967,50.0132854 C92.3772918,52.1886782 89.7144717,55.7264669 78.4638729,77.2381148 C75.1647558,83.5461749 72.2750552,89.1780434 70.0577654,93.5955584 L69.7041404,94.3011827 C67.560312,98.5858438 66.1031101,101.627061 65.5955288,102.886674 C64.5529293,105.473986 64.9772625,108.925462 66.1110941,111.82609 C67.2449257,114.726718 88.4825133,154.699929 95.4812099,159.484567 C100.924641,163.205952 110.033365,163.083749 119.649835,162.95223 L120.829685,162.93634 C123.193602,162.90551 125.58024,162.883507 127.943224,162.926648 C132.741488,162.776113 137.27473,162.793758 141.410594,162.797156 L143.158392,162.797208 C151.197645,162.788417 157.571758,162.618391 161.221894,160.827709 C166.957823,158.013779 166.386223,157.795014 179.622221,132.487197 C186.39879,119.530097 191.500957,109.672392 192.490565,106.838634 C193.480174,104.004876 192.830927,100.325683 192.201867,98.459124 C191.572806,96.5925647 185.251291,86.2237655 177.599288,73.7712503 C165.194188,53.5837665 162.809535,49.7853772 159.521033,47.8579513 L159.281583,47.7216752 C158.678257,47.388117 158.036813,47.10424 157.29277,46.7843503 Z M110.630896,73.1439234 C113.497104,73.1443483 115.623687,75.9315438 114.917112,78.761637 C114.76827,79.3577993 112.969996,81.5504227 110.920945,83.6341376 C105.328206,89.3214759 102.917078,94.971656 102.928591,102.363242 C102.946336,113.758813 109.473004,123.369526 119.929977,127.398287 C123.938108,128.942496 130.187369,129.310302 134.618909,128.262816 C146.285668,125.50513 154.717501,114.747307 154.72077,102.615685 C154.72276,95.231191 151.994505,88.936886 146.321585,83.2380748 C142.850817,79.7514663 142.565555,79.3256487 142.566021,77.631837 C142.566714,75.0699516 144.465002,73.1489467 146.995546,73.1493275 C148.446209,73.1495455 149.254115,73.5297428 151.206502,75.1309748 C155.263612,78.4583844 159.099552,83.7606016 161.179673,88.916353 C167.176025,103.778825 162.800986,120.791379 150.469196,130.564539 C146.819317,133.457131 141.280527,136.231626 137.144852,137.238973 C133.36338,138.160051 127.283242,138.484683 123.874647,137.947475 C109.726434,135.717725 98.4625557,125.442021 94.7644362,111.391102 C93.4621598,106.443178 93.464241,98.7699768 94.7691689,93.822442 C96.6602905,86.652431 100.887423,79.7949603 106.112771,75.4202915 C108.378205,73.5236632 109.132356,73.1436981 110.630896,73.1439234 Z M123.703339,68.600079 C124.989898,66.0976959 128.245027,65.2012656 130.713659,66.669471 C133.12956,68.1063113 133.357848,68.6579152 133.374021,83.3812328 L133.374991,84.8508159 C133.375039,85.0191308 133.375071,85.1891405 133.375088,85.3608635 L133.375033,86.4119126 L133.375033,86.4119126 L133.374911,86.9531386 L133.374911,86.9531386 L133.374276,88.5120208 C133.374177,88.6801367 133.374065,88.8465733 133.37394,89.0113492 L133.373002,89.9802225 C133.35722,103.111367 133.214781,105.05583 131.698096,106.376468 L131.586045,106.470997 C131.414325,106.611603 131.226094,106.747868 131.01976,106.893258 C130.46765,107.282289 129.194014,107.600455 128.189455,107.600318 C126.075665,107.600004 124.635496,106.728908 123.683384,104.874779 C123.209687,103.952344 122.962563,96.3178692 122.938535,88.2804799 L122.936679,87.2527276 C122.931202,78.5064929 123.188236,69.6019603 123.703339,68.600079 Z" id="path-2"></path>
        <filter x="-2.4%" y="-3.3%" width="104.8%" height="109.2%" filterUnits="objectBoundingBox" id="filter-3">
            <feOffset dx="0" dy="2" in="SourceAlpha" result="shadowOffsetOuter1"></feOffset>
            <feGaussianBlur stdDeviation="2" in="shadowOffsetOuter1" result="shadowBlurOuter1"></feGaussianBlur>
            <feColorMatrix values="0 0 0 0 0   0 0 0 0 0   0 0 0 0 0  0 0 0 0.5 0" type="matrix" in="shadowBlurOuter1"></feColorMatrix>
        </filter>
        <linearGradient x1="0.25781251%" y1="49.9960759%" x2="133.446935%" y2="50.4459058%" id="linearGradient-4">
            <stop stop-color="#1A0FC7" offset="0%"></stop>
            <stop stop-color="#53A0FD" offset="47.5247532%"></stop>
            <stop stop-color="#51D4EC" offset="100%"></stop>
        </linearGradient>
        <linearGradient x1="0.25781251%" y1="49.9926853%" x2="133.446935%" y2="50.8312014%" id="linearGradient-5">
            <stop stop-color="#1A0FC7" offset="0%"></stop>
            <stop stop-color="#53A0FD" offset="47.5247532%"></stop>
            <stop stop-color="#51D4EC" offset="100%"></stop>
        </linearGradient>
        <linearGradient x1="0%" y1="49.9989382%" x2="100%" y2="50.0010319%" id="linearGradient-6">
            <stop stop-color="#1A0FC7" offset="0%"></stop>
            <stop stop-color="#2979FF" offset="100%"></stop>
        </linearGradient>
    </defs>
    <g id="spring-boot-banner" stroke="none" stroke-width="1" fill="none" fill-rule="evenodd">
        <g id="Combined-Shape" fill-rule="nonzero">
            <use fill="black" fill-opacity="1" filter="url(#filter-3)" xlink:href="#path-2"></use>
            <use fill="url(#linearGradient-1)" xlink:href="#path-2"></use>
        </g>
        <text id="Source-Deployment" fill="url(#linearGradient-4)" font-family="Futura-Bold, Futura" font-size="42" font-weight="bold">
            <tspan x="334.646" y="169">Source Deployment</tspan>
        </text>
        <text id="SPRING-BOOT" fill="url(#linearGradient-5)" font-family="Futura-Bold, Futura" font-size="50" font-weight="bold">
            <tspan x="364.3" y="88">SPRING BOOT</tspan>
        </text>
        <line x1="340" y1="117" x2="773" y2="117" id="Line-6" stroke="url(#linearGradient-6)" stroke-width="2" stroke-linecap="round"></line>
    </g>
</svg>