<?xml version="1.0" encoding="UTF-8"?>
<svg width="794px" height="314px" viewBox="0 0 794 314" version="1.1" xmlns="http://www.w3.org/2000/svg" xmlns:xlink="http://www.w3.org/1999/xlink">
    <title>SSL </title>
    <defs>
        <rect id="path-1" x="0" y="0" width="362" height="243" rx="3"></rect>
        <filter x="-1.9%" y="-2.1%" width="103.9%" height="105.8%" filterUnits="objectBoundingBox" id="filter-2">
            <feOffset dx="0" dy="2" in="SourceAlpha" result="shadowOffsetOuter1"></feOffset>
            <feGaussianBlur stdDeviation="2" in="shadowOffsetOuter1" result="shadowBlurOuter1"></feGaussianBlur>
            <feColorMatrix values="0 0 0 0 0   0 0 0 0 0   0 0 0 0 0  0 0 0 0.5 0" type="matrix" in="shadowBlurOuter1"></feColorMatrix>
        </filter>
        <rect id="path-3" x="0" y="0" width="362" height="243" rx="3"></rect>
        <filter x="-1.9%" y="-2.1%" width="103.9%" height="105.8%" filterUnits="objectBoundingBox" id="filter-4">
            <feOffset dx="0" dy="2" in="SourceAlpha" result="shadowOffsetOuter1"></feOffset>
            <feGaussianBlur stdDeviation="2" in="shadowOffsetOuter1" result="shadowBlurOuter1"></feGaussianBlur>
            <feColorMatrix values="0 0 0 0 0   0 0 0 0 0   0 0 0 0 0  0 0 0 0.5 0" type="matrix" in="shadowBlurOuter1"></feColorMatrix>
        </filter>
        <rect id="path-5" x="0" y="0" width="362" height="243" rx="3"></rect>
        <filter x="-1.9%" y="-2.1%" width="103.9%" height="105.8%" filterUnits="objectBoundingBox" id="filter-6">
            <feOffset dx="0" dy="2" in="SourceAlpha" result="shadowOffsetOuter1"></feOffset>
            <feGaussianBlur stdDeviation="2" in="shadowOffsetOuter1" result="shadowBlurOuter1"></feGaussianBlur>
            <feColorMatrix values="0 0 0 0 0   0 0 0 0 0   0 0 0 0 0  0 0 0 0.5 0" type="matrix" in="shadowBlurOuter1"></feColorMatrix>
        </filter>
        <filter x="-5.8%" y="-4.9%" width="111.7%" height="109.9%" filterUnits="objectBoundingBox" id="filter-7">
            <feOffset dx="0" dy="2" in="SourceAlpha" result="shadowOffsetOuter1"></feOffset>
            <feGaussianBlur stdDeviation="2" in="shadowOffsetOuter1" result="shadowBlurOuter1"></feGaussianBlur>
            <feColorMatrix values="0 0 0 0 0   0 0 0 0 0   0 0 0 0 0  0 0 0 0.5 0" type="matrix" in="shadowBlurOuter1" result="shadowMatrixOuter1"></feColorMatrix>
            <feMerge>
                <feMergeNode in="shadowMatrixOuter1"></feMergeNode>
                <feMergeNode in="SourceGraphic"></feMergeNode>
            </feMerge>
        </filter>
    </defs>
    <g id="SSL-" stroke="none" stroke-width="1" fill="none" fill-rule="evenodd">
        <g id="Group-4" transform="translate(148.000000, 34.000000)">
            <g id="Rectangle">
                <use fill="black" fill-opacity="1" filter="url(#filter-2)" xlink:href="#path-1"></use>
                <use fill="#4A4A4A" fill-rule="evenodd" xlink:href="#path-1"></use>
            </g>
            <path d="M3,0 L359,0 C360.656854,3.01547776e-14 362,1.34314575 362,3 L362,36 L362,36 L0,36 L0,3 C-6.46995335e-16,1.34314575 1.34314575,-1.39730022e-16 3,0 Z" id="Rectangle" fill="#9B9B9B"></path>
            <rect id="Rectangle-Copy-2" fill="#9B9B9B" x="7" y="43" width="350" height="195" rx="2"></rect>
            <path d="M3,0 L359,0 C360.656854,-3.04359188e-16 362,1.34314575 362,3 L362,12 L362,12 L0,12 L0,3 C-2.02906125e-16,1.34314575 1.34314575,3.04359188e-16 3,0 Z" id="Rectangle-Copy" fill="#000000"></path>
            <circle id="Oval" fill="#D0021B" cx="5.5" cy="4.5" r="2.5"></circle>
            <circle id="Oval-Copy" fill="#F8E71C" cx="16.5" cy="4.5" r="2.5"></circle>
            <circle id="Oval-Copy-2" fill="#7ED321" cx="28.5" cy="4.5" r="2.5"></circle>
            <g id="Group-3" transform="translate(36.000000, 16.000000)">
                <rect id="Rectangle" fill="#D8D8D8" x="0.577946768" y="0" width="302.844106" height="16" rx="8"></rect>
                <g id="Glyphs/Search" transform="translate(21.384030, 5.714286)" fill="#8E8E93">
                    <path d="M5.67341224,4.10581411 L4.09107655,2.85373248 C4.37471248,2.54774183 4.52665514,2.17780644 4.52453663,1.79838554 C4.5191247,0.807971091 3.50636863,0.00573859257 2.25423788,1.81935759e-05 C1.65502273,-0.0021262279 1.07961118,0.185375441 0.656188639,0.520753131 C0.232766096,0.856130821 -0.00349448437,1.31152531 3.90734204e-05,1.78548758 C0.00545101266,2.7759922 1.01829949,3.57829779 2.27054423,3.58401819 C2.75218451,3.58566935 3.22158722,3.46408332 3.60869741,3.23740595 L3.61034869,3.23642636 L5.19123951,4.4875284 C5.27671324,4.55845525 5.40407492,4.58716477 5.52397787,4.56253337 C5.64388082,4.53790196 5.7374848,4.46379994 5.76852264,4.36893837 C5.79956048,4.27407679 5.76315524,4.17336118 5.67341224,4.10581411 L5.67341224,4.10581411 Z M2.26889296,3.22548758 C1.26715189,3.22092954 0.456886281,2.57915377 0.452488829,1.7867937 C0.449785108,1.40767299 0.638809122,1.04343057 0.97748338,0.775148234 C1.31615764,0.506865899 1.77637265,0.356810708 2.25568275,0.358385541 C3.25742382,0.362943577 4.06768942,1.00471935 4.07208687,1.79707942 C4.07479059,2.17620013 3.88576658,2.54044255 3.54709232,2.80872489 C3.20841806,3.07700722 2.74820305,3.22706241 2.26889296,3.22548758 Z" id="Search"></path>
                </g>
                <rect id="Rectangle" fill="#FFFFFF" x="32.9429658" y="1.71428571" width="261.231939" height="12.5714286" rx="3"></rect>
                <text id="https://serviceName-" font-family="ArialMT, Arial" font-size="5" font-weight="normal">
                    <tspan x="54.904943" y="9.71428571" fill="#1A0FC7">https://</tspan>
                    <tspan x="69.9122672" y="9.71428571" fill="#4A4A4A">serviceName-NameSpace.fandogh.cloud</tspan>
                </text>
                <g id="shield" transform="translate(38.722433, 4.000000)">
                    <path d="M6.56901642,5.34234477 C6.35011542,5.92510875 6.01906104,6.4318229 5.58492497,6.84826598 C5.09076665,7.32226526 4.44369451,7.69891342 3.66166552,7.96759031 C3.63600384,7.97637938 3.60922372,7.98358154 3.58231935,7.98889159 C3.54677821,7.99578858 3.51061574,7.99951172 3.47476395,8 L3.4677427,8 C3.42952979,8 3.39113046,7.99621581 3.35304181,7.98889159 C3.32613743,7.98358154 3.29973011,7.97637938 3.27419271,7.96777342 C2.4912317,7.69952376 1.8433518,7.32305872 1.3486964,6.84905945 C0.91437393,6.43261635 0.583381677,5.92620739 0.364791347,5.34344341 C-0.0326851838,4.28387253 -0.0100680891,3.11663558 0.00813741263,2.1786468 L0.00844808281,2.16424249 C0.0121140419,2.08678884 0.0144751575,2.00542892 0.0157800009,1.91558513 C0.022428416,1.47448383 0.379455167,1.10955443 0.828565732,1.08495725 C1.76493764,1.03362666 2.48930552,0.733638699 3.10823057,0.141048054 L3.11363631,0.136165239 C3.21640731,0.043574846 3.3458963,-0.0018353345 3.47476395,0 C3.59903361,0.00164368298 3.7228062,0.0469928166 3.82191126,0.136165239 L3.82719271,0.141048054 C4.44624205,0.733638699 5.17060991,1.03362666 6.10698183,1.08495725 C6.55609238,1.10955443 6.91311913,1.47448383 6.91976756,1.91558513 C6.92107239,2.00603928 6.9234335,2.08727712 6.92709946,2.16424249 L6.92728587,2.17034601 C6.94542924,3.11010481 6.96792206,4.27966111 6.56901642,5.34234477 Z" id="Path" fill="#463CE6"></path>
                    <path d="M6.56826657,5.34232591 C6.34891751,5.92509403 6.01718551,6.43181177 5.58216082,6.84825781 C5.08699104,7.32226045 4.43859443,7.69891128 3.65496474,7.96759008 C3.62925054,7.97637921 3.6024156,7.98358142 3.57545616,7.98889151 C3.53984227,7.99578855 3.50360579,7.99951172 3.46768061,8 L3.46768061,0 C3.59220463,0.00158693008 3.71623056,0.0469363854 3.81553848,0.136109441 L3.82083074,0.140992291 C4.44114718,0.73358714 5.16699772,1.03357723 6.10528626,1.08490818 C6.55531607,1.10950554 6.9130736,1.47443753 6.91973564,1.91554195 C6.92104314,2.00599675 6.92340909,2.08723517 6.92708255,2.16420109 L6.92726934,2.17030465 C6.94544985,3.11007011 6.96798871,4.27963471 6.56826657,5.34232591 Z" id="Path" fill="#1A0FC7"></path>
                    <path d="M5.33489324,4.12900065 C5.33489324,5.26489058 4.44117839,6.1895036 3.34138182,6.19354839 L3.3343389,6.19354839 C2.23129646,6.19354839 1.33372331,5.26735537 1.33372331,4.12900065 C1.33372331,2.99070913 2.23129646,2.06451613 3.3343389,2.06451613 L3.34138182,2.06451613 C4.44117839,2.06856092 5.33489324,2.99317392 5.33489324,4.12900065 Z" id="Path" fill="#FFFFFF"></path>
                    <path d="M5.60163791,4.12900065 C5.60163791,5.26489058 4.6449595,6.1895036 3.46768061,6.19354839 L3.46768061,2.06451613 C4.6449595,2.06856092 5.60163791,2.99317392 5.60163791,4.12900065 Z" id="Path" fill="#E1EBF0"></path>
                    <path d="M4.4605105,3.7521749 L3.49213358,4.64268244 L3.28288464,4.83507903 C3.23345213,4.88053039 3.16861722,4.90322581 3.10384813,4.90322581 C3.03901322,4.90322581 2.97424412,4.88053039 2.92474579,4.83507903 L2.47485072,4.42123572 C2.37598571,4.33033301 2.37598571,4.18308517 2.47485072,4.09212194 C2.57358409,4.00121925 2.73392709,4.00121925 2.8327921,4.09212194 L3.10384813,4.34134786 L4.1025691,3.42306112 C4.20143413,3.33209791 4.36177713,3.33209791 4.4605105,3.42306112 C4.55937551,3.51396383 4.55937551,3.66139324 4.4605105,3.7521749 Z" id="Path" fill-opacity="0.570114357" fill="#463CE6"></path>
                    <path d="M4.4587713,3.75293969 L3.46768061,4.64516129 L3.46768061,3.98548488 L4.09243421,3.42319243 C4.19361816,3.33205414 4.35772209,3.33205414 4.4587713,3.42319243 C4.55995524,3.51427011 4.55995524,3.6619833 4.4587713,3.75293969 Z" id="Path" fill-opacity="0.928442029" fill="#463CE6"></path>
                </g>
                <line x1="50.8593156" y1="4" x2="50.8593156" y2="11.4285714" id="Line" stroke="#979797" stroke-linecap="square"></line>
                <g id="Icon-24px" transform="translate(5.201521, 4.571429)">
                    <polygon id="Shape" fill="#000000" points="4.45307985 4.68754286 3.12958175 3.42857143 4.45307985 2.1696 4.04562738 1.78285714 2.31178707 3.42857143 4.04562738 5.07428571"></polygon>
                    <polygon id="Shape" points="0 0.137142857 6.93536122 0.137142857 6.93536122 6.72 0 6.72"></polygon>
                </g>
                <g id="Icon-24px" transform="translate(15.572243, 7.928571) rotate(-180.000000) translate(-15.572243, -7.928571) translate(12.072243, 4.428571)">
                    <polygon id="Shape" fill="#9B9B9B" points="4.45307985 4.68754286 3.12958175 3.42857143 4.45307985 2.1696 4.04562738 1.78285714 2.31178707 3.42857143 4.04562738 5.07428571"></polygon>
                    <polygon id="Shape" points="0 0.137142857 6.93536122 0.137142857 6.93536122 6.72 0 6.72"></polygon>
                </g>
            </g>
        </g>
        <g id="Group-4-Copy" transform="translate(268.000000, 34.000000)">
            <g id="Rectangle">
                <use fill="black" fill-opacity="1" filter="url(#filter-4)" xlink:href="#path-3"></use>
                <use fill="#4A4A4A" fill-rule="evenodd" xlink:href="#path-3"></use>
            </g>
            <path d="M3,0 L359,0 C360.656854,3.01547776e-14 362,1.34314575 362,3 L362,36 L362,36 L0,36 L0,3 C-6.46995335e-16,1.34314575 1.34314575,-1.39730022e-16 3,0 Z" id="Rectangle" fill="#9B9B9B"></path>
            <rect id="Rectangle-Copy-2" fill="#9B9B9B" x="7" y="43" width="350" height="195" rx="2"></rect>
            <path d="M3,0 L359,0 C360.656854,-3.04359188e-16 362,1.34314575 362,3 L362,12 L362,12 L0,12 L0,3 C-2.02906125e-16,1.34314575 1.34314575,3.04359188e-16 3,0 Z" id="Rectangle-Copy" fill="#000000"></path>
            <circle id="Oval" fill="#D0021B" cx="5.5" cy="4.5" r="2.5"></circle>
            <circle id="Oval-Copy" fill="#F8E71C" cx="16.5" cy="4.5" r="2.5"></circle>
            <circle id="Oval-Copy-2" fill="#7ED321" cx="28.5" cy="4.5" r="2.5"></circle>
            <g id="Group-3" transform="translate(36.000000, 16.000000)">
                <rect id="Rectangle" fill="#D8D8D8" x="0.577946768" y="0" width="302.844106" height="16" rx="8"></rect>
                <g id="Glyphs/Search" transform="translate(21.384030, 5.714286)" fill="#8E8E93">
                    <path d="M5.67341224,4.10581411 L4.09107655,2.85373248 C4.37471248,2.54774183 4.52665514,2.17780644 4.52453663,1.79838554 C4.5191247,0.807971091 3.50636863,0.00573859257 2.25423788,1.81935759e-05 C1.65502273,-0.0021262279 1.07961118,0.185375441 0.656188639,0.520753131 C0.232766096,0.856130821 -0.00349448437,1.31152531 3.90734204e-05,1.78548758 C0.00545101266,2.7759922 1.01829949,3.57829779 2.27054423,3.58401819 C2.75218451,3.58566935 3.22158722,3.46408332 3.60869741,3.23740595 L3.61034869,3.23642636 L5.19123951,4.4875284 C5.27671324,4.55845525 5.40407492,4.58716477 5.52397787,4.56253337 C5.64388082,4.53790196 5.7374848,4.46379994 5.76852264,4.36893837 C5.79956048,4.27407679 5.76315524,4.17336118 5.67341224,4.10581411 L5.67341224,4.10581411 Z M2.26889296,3.22548758 C1.26715189,3.22092954 0.456886281,2.57915377 0.452488829,1.7867937 C0.449785108,1.40767299 0.638809122,1.04343057 0.97748338,0.775148234 C1.31615764,0.506865899 1.77637265,0.356810708 2.25568275,0.358385541 C3.25742382,0.362943577 4.06768942,1.00471935 4.07208687,1.79707942 C4.07479059,2.17620013 3.88576658,2.54044255 3.54709232,2.80872489 C3.20841806,3.07700722 2.74820305,3.22706241 2.26889296,3.22548758 Z" id="Search"></path>
                </g>
                <rect id="Rectangle" fill="#FFFFFF" x="32.9429658" y="1.71428571" width="261.231939" height="12.5714286" rx="3"></rect>
                <text id="https://serviceName-" font-family="ArialMT, Arial" font-size="5" font-weight="normal">
                    <tspan x="54.904943" y="9.71428571" fill="#1A0FC7">https://</tspan>
                    <tspan x="69.9122672" y="9.71428571" fill="#4A4A4A">serviceName-NameSpace.fandogh.cloud</tspan>
                </text>
                <g id="shield" transform="translate(38.722433, 4.000000)">
                    <path d="M6.56901642,5.34234477 C6.35011542,5.92510875 6.01906104,6.4318229 5.58492497,6.84826598 C5.09076665,7.32226526 4.44369451,7.69891342 3.66166552,7.96759031 C3.63600384,7.97637938 3.60922372,7.98358154 3.58231935,7.98889159 C3.54677821,7.99578858 3.51061574,7.99951172 3.47476395,8 L3.4677427,8 C3.42952979,8 3.39113046,7.99621581 3.35304181,7.98889159 C3.32613743,7.98358154 3.29973011,7.97637938 3.27419271,7.96777342 C2.4912317,7.69952376 1.8433518,7.32305872 1.3486964,6.84905945 C0.91437393,6.43261635 0.583381677,5.92620739 0.364791347,5.34344341 C-0.0326851838,4.28387253 -0.0100680891,3.11663558 0.00813741263,2.1786468 L0.00844808281,2.16424249 C0.0121140419,2.08678884 0.0144751575,2.00542892 0.0157800009,1.91558513 C0.022428416,1.47448383 0.379455167,1.10955443 0.828565732,1.08495725 C1.76493764,1.03362666 2.48930552,0.733638699 3.10823057,0.141048054 L3.11363631,0.136165239 C3.21640731,0.043574846 3.3458963,-0.0018353345 3.47476395,0 C3.59903361,0.00164368298 3.7228062,0.0469928166 3.82191126,0.136165239 L3.82719271,0.141048054 C4.44624205,0.733638699 5.17060991,1.03362666 6.10698183,1.08495725 C6.55609238,1.10955443 6.91311913,1.47448383 6.91976756,1.91558513 C6.92107239,2.00603928 6.9234335,2.08727712 6.92709946,2.16424249 L6.92728587,2.17034601 C6.94542924,3.11010481 6.96792206,4.27966111 6.56901642,5.34234477 Z" id="Path" fill="#463CE6"></path>
                    <path d="M6.56826657,5.34232591 C6.34891751,5.92509403 6.01718551,6.43181177 5.58216082,6.84825781 C5.08699104,7.32226045 4.43859443,7.69891128 3.65496474,7.96759008 C3.62925054,7.97637921 3.6024156,7.98358142 3.57545616,7.98889151 C3.53984227,7.99578855 3.50360579,7.99951172 3.46768061,8 L3.46768061,0 C3.59220463,0.00158693008 3.71623056,0.0469363854 3.81553848,0.136109441 L3.82083074,0.140992291 C4.44114718,0.73358714 5.16699772,1.03357723 6.10528626,1.08490818 C6.55531607,1.10950554 6.9130736,1.47443753 6.91973564,1.91554195 C6.92104314,2.00599675 6.92340909,2.08723517 6.92708255,2.16420109 L6.92726934,2.17030465 C6.94544985,3.11007011 6.96798871,4.27963471 6.56826657,5.34232591 Z" id="Path" fill="#1A0FC7"></path>
                    <path d="M5.33489324,4.12900065 C5.33489324,5.26489058 4.44117839,6.1895036 3.34138182,6.19354839 L3.3343389,6.19354839 C2.23129646,6.19354839 1.33372331,5.26735537 1.33372331,4.12900065 C1.33372331,2.99070913 2.23129646,2.06451613 3.3343389,2.06451613 L3.34138182,2.06451613 C4.44117839,2.06856092 5.33489324,2.99317392 5.33489324,4.12900065 Z" id="Path" fill="#FFFFFF"></path>
                    <path d="M5.60163791,4.12900065 C5.60163791,5.26489058 4.6449595,6.1895036 3.46768061,6.19354839 L3.46768061,2.06451613 C4.6449595,2.06856092 5.60163791,2.99317392 5.60163791,4.12900065 Z" id="Path" fill="#E1EBF0"></path>
                    <path d="M4.4605105,3.7521749 L3.49213358,4.64268244 L3.28288464,4.83507903 C3.23345213,4.88053039 3.16861722,4.90322581 3.10384813,4.90322581 C3.03901322,4.90322581 2.97424412,4.88053039 2.92474579,4.83507903 L2.47485072,4.42123572 C2.37598571,4.33033301 2.37598571,4.18308517 2.47485072,4.09212194 C2.57358409,4.00121925 2.73392709,4.00121925 2.8327921,4.09212194 L3.10384813,4.34134786 L4.1025691,3.42306112 C4.20143413,3.33209791 4.36177713,3.33209791 4.4605105,3.42306112 C4.55937551,3.51396383 4.55937551,3.66139324 4.4605105,3.7521749 Z" id="Path" fill-opacity="0.570114357" fill="#463CE6"></path>
                    <path d="M4.4587713,3.75293969 L3.46768061,4.64516129 L3.46768061,3.98548488 L4.09243421,3.42319243 C4.19361816,3.33205414 4.35772209,3.33205414 4.4587713,3.42319243 C4.55995524,3.51427011 4.55995524,3.6619833 4.4587713,3.75293969 Z" id="Path" fill-opacity="0.928442029" fill="#463CE6"></path>
                </g>
                <line x1="50.8593156" y1="4" x2="50.8593156" y2="11.4285714" id="Line" stroke="#979797" stroke-linecap="square"></line>
                <g id="Icon-24px" transform="translate(5.201521, 4.571429)">
                    <polygon id="Shape" fill="#000000" points="4.45307985 4.68754286 3.12958175 3.42857143 4.45307985 2.1696 4.04562738 1.78285714 2.31178707 3.42857143 4.04562738 5.07428571"></polygon>
                    <polygon id="Shape" points="0 0.137142857 6.93536122 0.137142857 6.93536122 6.72 0 6.72"></polygon>
                </g>
                <g id="Icon-24px" transform="translate(15.572243, 7.928571) rotate(-180.000000) translate(-15.572243, -7.928571) translate(12.072243, 4.428571)">
                    <polygon id="Shape" fill="#9B9B9B" points="4.45307985 4.68754286 3.12958175 3.42857143 4.45307985 2.1696 4.04562738 1.78285714 2.31178707 3.42857143 4.04562738 5.07428571"></polygon>
                    <polygon id="Shape" points="0 0.137142857 6.93536122 0.137142857 6.93536122 6.72 0 6.72"></polygon>
                </g>
            </g>
        </g>
        <g id="Group-4-Copy-2" transform="translate(388.000000, 34.000000)">
            <g id="Rectangle">
                <use fill="black" fill-opacity="1" filter="url(#filter-6)" xlink:href="#path-5"></use>
                <use fill="#4A4A4A" fill-rule="evenodd" xlink:href="#path-5"></use>
            </g>
            <path d="M3,0 L359,0 C360.656854,3.01547776e-14 362,1.34314575 362,3 L362,36 L362,36 L0,36 L0,3 C-6.46995335e-16,1.34314575 1.34314575,-1.39730022e-16 3,0 Z" id="Rectangle" fill="#9B9B9B"></path>
            <rect id="Rectangle-Copy-2" fill="#9B9B9B" x="7" y="43" width="350" height="195" rx="2"></rect>
            <path d="M3,0 L359,0 C360.656854,-3.04359188e-16 362,1.34314575 362,3 L362,12 L362,12 L0,12 L0,3 C-2.02906125e-16,1.34314575 1.34314575,3.04359188e-16 3,0 Z" id="Rectangle-Copy" fill="#000000"></path>
            <circle id="Oval" fill="#D0021B" cx="5.5" cy="4.5" r="2.5"></circle>
            <circle id="Oval-Copy" fill="#F8E71C" cx="16.5" cy="4.5" r="2.5"></circle>
            <circle id="Oval-Copy-2" fill="#7ED321" cx="28.5" cy="4.5" r="2.5"></circle>
            <g id="Group-3" transform="translate(36.000000, 16.000000)">
                <rect id="Rectangle" fill="#D8D8D8" x="0.577946768" y="0" width="302.844106" height="16" rx="8"></rect>
                <g id="Glyphs/Search" transform="translate(21.384030, 5.714286)" fill="#8E8E93">
                    <path d="M5.67341224,4.10581411 L4.09107655,2.85373248 C4.37471248,2.54774183 4.52665514,2.17780644 4.52453663,1.79838554 C4.5191247,0.807971091 3.50636863,0.00573859257 2.25423788,1.81935759e-05 C1.65502273,-0.0021262279 1.07961118,0.185375441 0.656188639,0.520753131 C0.232766096,0.856130821 -0.00349448437,1.31152531 3.90734204e-05,1.78548758 C0.00545101266,2.7759922 1.01829949,3.57829779 2.27054423,3.58401819 C2.75218451,3.58566935 3.22158722,3.46408332 3.60869741,3.23740595 L3.61034869,3.23642636 L5.19123951,4.4875284 C5.27671324,4.55845525 5.40407492,4.58716477 5.52397787,4.56253337 C5.64388082,4.53790196 5.7374848,4.46379994 5.76852264,4.36893837 C5.79956048,4.27407679 5.76315524,4.17336118 5.67341224,4.10581411 L5.67341224,4.10581411 Z M2.26889296,3.22548758 C1.26715189,3.22092954 0.456886281,2.57915377 0.452488829,1.7867937 C0.449785108,1.40767299 0.638809122,1.04343057 0.97748338,0.775148234 C1.31615764,0.506865899 1.77637265,0.356810708 2.25568275,0.358385541 C3.25742382,0.362943577 4.06768942,1.00471935 4.07208687,1.79707942 C4.07479059,2.17620013 3.88576658,2.54044255 3.54709232,2.80872489 C3.20841806,3.07700722 2.74820305,3.22706241 2.26889296,3.22548758 Z" id="Search"></path>
                </g>
                <rect id="Rectangle" fill="#FFFFFF" x="32.9429658" y="1.71428571" width="261.231939" height="12.5714286" rx="3"></rect>
                <text id="https://serviceName-" font-family="ArialMT, Arial" font-size="5" font-weight="normal">
                    <tspan x="54.904943" y="9.71428571" fill="#1A0FC7">https://</tspan>
                    <tspan x="69.9122672" y="9.71428571" fill="#4A4A4A">serviceName-NameSpace.fandogh.cloud</tspan>
                </text>
                <g id="shield" transform="translate(38.722433, 4.000000)">
                    <path d="M6.56901642,5.34234477 C6.35011542,5.92510875 6.01906104,6.4318229 5.58492497,6.84826598 C5.09076665,7.32226526 4.44369451,7.69891342 3.66166552,7.96759031 C3.63600384,7.97637938 3.60922372,7.98358154 3.58231935,7.98889159 C3.54677821,7.99578858 3.51061574,7.99951172 3.47476395,8 L3.4677427,8 C3.42952979,8 3.39113046,7.99621581 3.35304181,7.98889159 C3.32613743,7.98358154 3.29973011,7.97637938 3.27419271,7.96777342 C2.4912317,7.69952376 1.8433518,7.32305872 1.3486964,6.84905945 C0.91437393,6.43261635 0.583381677,5.92620739 0.364791347,5.34344341 C-0.0326851838,4.28387253 -0.0100680891,3.11663558 0.00813741263,2.1786468 L0.00844808281,2.16424249 C0.0121140419,2.08678884 0.0144751575,2.00542892 0.0157800009,1.91558513 C0.022428416,1.47448383 0.379455167,1.10955443 0.828565732,1.08495725 C1.76493764,1.03362666 2.48930552,0.733638699 3.10823057,0.141048054 L3.11363631,0.136165239 C3.21640731,0.043574846 3.3458963,-0.0018353345 3.47476395,0 C3.59903361,0.00164368298 3.7228062,0.0469928166 3.82191126,0.136165239 L3.82719271,0.141048054 C4.44624205,0.733638699 5.17060991,1.03362666 6.10698183,1.08495725 C6.55609238,1.10955443 6.91311913,1.47448383 6.91976756,1.91558513 C6.92107239,2.00603928 6.9234335,2.08727712 6.92709946,2.16424249 L6.92728587,2.17034601 C6.94542924,3.11010481 6.96792206,4.27966111 6.56901642,5.34234477 Z" id="Path" fill="#463CE6"></path>
                    <path d="M6.56826657,5.34232591 C6.34891751,5.92509403 6.01718551,6.43181177 5.58216082,6.84825781 C5.08699104,7.32226045 4.43859443,7.69891128 3.65496474,7.96759008 C3.62925054,7.97637921 3.6024156,7.98358142 3.57545616,7.98889151 C3.53984227,7.99578855 3.50360579,7.99951172 3.46768061,8 L3.46768061,0 C3.59220463,0.00158693008 3.71623056,0.0469363854 3.81553848,0.136109441 L3.82083074,0.140992291 C4.44114718,0.73358714 5.16699772,1.03357723 6.10528626,1.08490818 C6.55531607,1.10950554 6.9130736,1.47443753 6.91973564,1.91554195 C6.92104314,2.00599675 6.92340909,2.08723517 6.92708255,2.16420109 L6.92726934,2.17030465 C6.94544985,3.11007011 6.96798871,4.27963471 6.56826657,5.34232591 Z" id="Path" fill="#1A0FC7"></path>
                    <path d="M5.33489324,4.12900065 C5.33489324,5.26489058 4.44117839,6.1895036 3.34138182,6.19354839 L3.3343389,6.19354839 C2.23129646,6.19354839 1.33372331,5.26735537 1.33372331,4.12900065 C1.33372331,2.99070913 2.23129646,2.06451613 3.3343389,2.06451613 L3.34138182,2.06451613 C4.44117839,2.06856092 5.33489324,2.99317392 5.33489324,4.12900065 Z" id="Path" fill="#FFFFFF"></path>
                    <path d="M5.60163791,4.12900065 C5.60163791,5.26489058 4.6449595,6.1895036 3.46768061,6.19354839 L3.46768061,2.06451613 C4.6449595,2.06856092 5.60163791,2.99317392 5.60163791,4.12900065 Z" id="Path" fill="#E1EBF0"></path>
                    <path d="M4.4605105,3.7521749 L3.49213358,4.64268244 L3.28288464,4.83507903 C3.23345213,4.88053039 3.16861722,4.90322581 3.10384813,4.90322581 C3.03901322,4.90322581 2.97424412,4.88053039 2.92474579,4.83507903 L2.47485072,4.42123572 C2.37598571,4.33033301 2.37598571,4.18308517 2.47485072,4.09212194 C2.57358409,4.00121925 2.73392709,4.00121925 2.8327921,4.09212194 L3.10384813,4.34134786 L4.1025691,3.42306112 C4.20143413,3.33209791 4.36177713,3.33209791 4.4605105,3.42306112 C4.55937551,3.51396383 4.55937551,3.66139324 4.4605105,3.7521749 Z" id="Path" fill-opacity="0.570114357" fill="#463CE6"></path>
                    <path d="M4.4587713,3.75293969 L3.46768061,4.64516129 L3.46768061,3.98548488 L4.09243421,3.42319243 C4.19361816,3.33205414 4.35772209,3.33205414 4.4587713,3.42319243 C4.55995524,3.51427011 4.55995524,3.6619833 4.4587713,3.75293969 Z" id="Path" fill-opacity="0.928442029" fill="#463CE6"></path>
                </g>
                <line x1="50.8593156" y1="4" x2="50.8593156" y2="11.4285714" id="Line" stroke="#979797" stroke-linecap="square"></line>
                <g id="Icon-24px" transform="translate(5.201521, 4.571429)">
                    <polygon id="Shape" fill="#000000" points="4.45307985 4.68754286 3.12958175 3.42857143 4.45307985 2.1696 4.04562738 1.78285714 2.31178707 3.42857143 4.04562738 5.07428571"></polygon>
                    <polygon id="Shape" points="0 0.137142857 6.93536122 0.137142857 6.93536122 6.72 0 6.72"></polygon>
                </g>
                <g id="Icon-24px" transform="translate(15.572243, 7.928571) rotate(-180.000000) translate(-15.572243, -7.928571) translate(12.072243, 4.428571)">
                    <polygon id="Shape" fill="#9B9B9B" points="4.45307985 4.68754286 3.12958175 3.42857143 4.45307985 2.1696 4.04562738 1.78285714 2.31178707 3.42857143 4.04562738 5.07428571"></polygon>
                    <polygon id="Shape" points="0 0.137142857 6.93536122 0.137142857 6.93536122 6.72 0 6.72"></polygon>
                </g>
            </g>
        </g>
        <g id="shield" filter="url(#filter-7)" transform="translate(46.000000, 34.000000)">
            <path d="M195.118515,162.273722 C188.616531,179.975178 178.783272,195.366621 165.888193,208.016079 C151.210283,222.413807 131.990395,233.854495 108.761905,242.015556 C107.99968,242.282524 107.204234,242.501289 106.405097,242.662582 C105.349424,242.872078 104.275296,242.985168 103.210395,243 L103.001844,243 C101.866812,243 100.726242,242.885055 99.5949008,242.662582 C98.7957641,242.501289 98.0113915,242.282524 97.2528578,242.021118 C73.9966837,233.873034 54.7528038,222.437909 40.0601279,208.040181 C27.1595125,195.390722 17.328099,180.00855 10.835343,162.307094 C-0.97084314,130.122628 -0.299050949,94.6678058 0.241704354,66.1763965 L0.250932144,65.7388657 C0.359821579,63.3862111 0.429953445,60.9149036 0.468711014,58.1858982 C0.666187896,44.7874463 11.2709003,33.7027158 24.6107644,32.9555763 C52.4236795,31.3964097 73.9394705,22.2842755 92.3233091,4.28433465 L92.4838749,4.13601914 C95.5364667,1.32358595 99.3826588,-0.0557482856 103.210395,0 C106.901559,0.0499268704 110.577957,1.4274068 113.52166,4.13601914 L113.678534,4.28433465 C132.066064,22.2842755 153.581855,31.3964097 181.394771,32.9555763 C194.734634,33.7027158 205.339347,44.7874463 205.536824,58.1858982 C205.575581,60.9334433 205.645713,63.4010427 205.754602,65.7388657 L205.760139,65.9242601 C206.299049,94.4694336 206.96715,129.994706 195.118515,162.273722 Z" id="Path" fill="#463CE6"></path>
            <path d="M195.096242,162.27315 C188.58095,179.974731 178.727564,195.366283 165.80609,208.015831 C151.098136,222.413661 131.838908,233.85443 108.562873,242.015549 C107.799087,242.282519 107.002013,242.501286 106.201241,242.66258 C105.143407,242.872077 104.06708,242.985168 103,243 L103,0 C106.698719,0.0482030011 110.382642,1.42569271 113.33237,4.13432426 L113.489566,4.28264082 C131.914732,22.2827094 153.474563,31.3949082 181.344407,32.954086 C194.711576,33.7012307 205.337994,44.7860399 205.535876,58.1845869 C205.574712,60.9321514 205.644988,63.3997683 205.7541,65.737608 L205.759648,65.9230037 C206.299661,94.4683797 206.969129,129.993904 195.096242,162.27315 Z" id="Path" fill="#1A0FC7"></path>
            <path d="M163,121.999066 C163,155.561064 136.196394,182.880489 103.212144,183 L103.000919,183 C69.919321,183 43,155.633891 43,121.999066 C43,88.3661087 69.919321,61 103.000919,61 L103.212144,61 C136.196394,61.1195108 163,88.4389357 163,121.999066 Z" id="Path" fill="#FFFFFF"></path>
            <path d="M163,121.999066 C163,155.561064 136.101287,182.880489 103,183 L103,61 C136.101287,61.1195108 163,88.4389357 163,121.999066 Z" id="Path" fill="#E1EBF0"></path>
            <path d="M128.915176,113.317422 L101.687539,140.923156 L95.8041332,146.88745 C94.4142503,148.296442 92.5913016,149 90.7702035,149 C88.9472548,149 87.1261567,148.296442 85.7344232,146.88745 L73.084824,134.058307 C70.3050587,131.240323 70.3050587,126.67564 73.084824,123.85578 C75.8608882,121.037797 80.3692164,121.037797 83.1489817,123.85578 L90.7702035,131.581784 L118.851018,103.114895 C121.630784,100.295035 126.139112,100.295035 128.915176,103.114895 C131.694941,105.932879 131.694941,110.50319 128.915176,113.317422 Z" id="Path" fill-opacity="0.570114357" fill="#463CE6"></path>
            <path d="M129.008524,113 L103,139.5 L103,119 L119,103.065991 C121.655302,100.311336 126.356757,100.311336 129.008524,103.065991 C131.663825,105.818814 131.663825,110.250843 129.008524,113 Z" id="Path" fill-opacity="0.928442029" fill="#463CE6"></path>
        </g>
    </g>
</svg>