<?xml version="1.0" encoding="UTF-8"?>
<svg width="794px" height="230px" viewBox="0 0 794 230" version="1.1" xmlns="http://www.w3.org/2000/svg" xmlns:xlink="http://www.w3.org/1999/xlink">
    <title>Volume Resize</title>
    <g id="Volume-Resize" stroke="none" stroke-width="1" fill="none" fill-rule="evenodd">
        <text id="Volume-Expansion" fill-rule="nonzero" font-family="HelveticaNeue-Bold, Helvetica Neue" font-size="60" font-weight="bold" fill="#A5A5A5">
            <tspan x="16.79" y="138">Volume Expansion</tspan>
        </text>
        <g id="Group" transform="translate(556.000000, 25.000000)">
            <path d="M107.21916,1.56618283 C109.308298,-0.522578059 112.692608,-0.521543763 114.781746,1.56618283 L114.781746,1.56618283 L130.171229,16.952371 C132.259849,19.0400976 132.259849,22.4248314 130.171229,24.5135923 C129.126401,25.557197 127.757263,26.0795165 126.389677,26.0795165 C125.020022,26.0795165 123.651401,25.5577142 122.607091,24.5135923 L122.607091,24.5135923 L116.347953,18.2550669 L116.347953,35.7672505 L185.175711,60.8365184 C187.289159,61.6060346 188.69347,63.6136033 188.69347,65.8611286 L188.69347,65.8611286 L188.69347,145.556226 L206.767435,153.034186 L203.377953,144.859627 C202.246746,142.129603 203.541918,139.002409 206.268297,137.871406 C208.998297,136.741437 212.126573,138.036376 213.258297,140.763298 L213.258297,140.763298 L221.592608,160.862773 C222.135711,162.172709 222.135711,163.645546 221.593125,164.956517 C221.049504,166.26697 220.008815,167.307989 218.698642,167.850477 L218.698642,167.850477 L198.593987,176.182766 C197.924159,176.460475 197.231056,176.59183 196.548297,176.59183 C194.450884,176.59183 192.459504,175.349641 191.606056,173.28984 C190.475884,170.562401 191.770022,167.43469 194.49847,166.30317 L194.49847,166.30317 L202.675539,162.914299 L183.444504,154.956425 L112.82916,180.676782 C112.82916,180.676782 111.838125,181 111.007435,181 C110.176746,181 109.170711,180.676782 109.170711,180.676782 L109.170711,180.676782 L38.5553665,154.956425 L19.3243321,162.914299 L27.5008838,166.30317 C30.2303666,167.43469 31.5245045,170.563436 30.3932976,173.28984 C29.5403666,175.350158 27.54847,176.59183 25.4510562,176.59183 C24.7688148,176.59183 24.0751941,176.460475 23.4058838,176.182766 L23.4058838,176.182766 L3.30122865,167.850477 C1.990539,167.307989 0.949849345,166.266453 0.406745897,164.956517 C-0.135840309,163.646064 -0.135840309,162.172709 0.408297621,160.862773 L0.408297621,160.862773 L8.74260796,140.763298 C9.87381485,138.035342 13.000539,136.739886 15.7320907,137.871406 C18.4595045,139.002409 19.7546769,142.130637 18.6229528,144.859627 L18.6229528,144.859627 L15.23347,153.034186 L33.3074355,145.556226 L33.3074355,65.8616458 C33.3074355,63.6141204 34.7122631,61.6065518 36.8251941,60.8370355 L36.8251941,60.8370355 L105.652435,35.7672505 L105.652435,18.2550669 L99.3938148,24.5135923 C97.3041596,26.601836 93.917263,26.6008017 91.8291596,24.5135923 C89.7410561,22.4248314 89.7410561,19.0400976 91.8291596,16.952371 L91.8291596,16.952371 Z M116.347953,47.1496787 L116.347779,63.6829356 C114.603925,63.5904917 112.818044,63.5425532 111,63.5425532 C109.181609,63.5425532 107.395394,63.59051 105.651223,63.6829888 L105.651918,47.1496787 L53.1627803,66.2681241 L75.769,75.391 L75.769,86.923 L44.0029527,74.1044682 L44.0029527,140.982568 L75.769,128.163 L75.769,139.749 L53.18347,148.906828 L105.651918,168.015964 L105.650901,149.722591 C107.395174,149.776637 109.181497,149.804664 111,149.804664 C112.818156,149.804664 114.604143,149.776648 116.348104,149.722623 L116.347953,168.015964 L168.816401,148.906828 L146.23,139.75 L146.23,128.163 L177.996401,140.982568 L177.997435,140.982568 L177.997435,74.1049853 L146.23,86.923 L146.23,75.391 L168.837608,66.2681241 L116.347953,47.1496787 Z" id="Combined-Shape" stroke="#0F50C7" stroke-width="5" fill-opacity="0.5" fill="#0F50C7" fill-rule="nonzero" stroke-linejoin="round"></path>
            <g id="Group-98-Copy" transform="translate(81.000000, 70.000000)">
                <g id="Group-97-Copy-2" transform="translate(0.000000, 41.382998)">
                    <path d="M1.50091142,11.4578163 C3.38780499,12.3614605 5.73434858,13.0707833 8.63787404,13.6576241 C14.1229229,14.7662247 21.6581104,15.4649447 30.0005236,15.492006 C38.9708632,15.4928265 46.639763,14.7999117 52.2216536,13.6858374 C55.1801766,13.0953539 57.5701768,12.3787206 59.2216351,11.5941061 L59.2216351,11.5941061 L59.497,11.458 L59.4999887,27.0147213 C59.4195331,27.4512366 58.7275117,27.7061579 58.04649,28.0159179 L57.8898098,28.088482 C56.3941334,28.7959709 54.2336191,29.4209269 51.5746921,29.9525766 C46.1468138,31.0378753 38.7069048,31.7026377 30.5,31.7026377 C22.2927978,31.7026377 14.8526483,31.0378293 9.42533469,29.9524382 C6.76697714,29.4208017 4.60713822,28.7958869 3.11232211,28.088418 C2.38625949,27.7447859 1.59000638,27.4859385 1.50490278,27.0158045 L1.50490278,27.0158045 Z" id="Combined-Shape" stroke="#0F50C7" stroke-width="3" fill-opacity="0.5" fill="#0F50C7"></path>
                    <ellipse id="Oval-Copy-52" cx="30.5" cy="6.2113778" rx="30.5" ry="6.2113778"></ellipse>
                </g>
                <g id="Group-97-Copy" transform="translate(0.000000, 20.691499)" fill="#0F50C7" fill-opacity="0.5" stroke="#0F50C7" stroke-width="3">
                    <path d="M1.50091142,11.4578163 C3.38780499,12.3614605 5.73434858,13.0707833 8.63787404,13.6576241 C14.1229229,14.7662247 21.6581104,15.4649447 30.0005236,15.492006 C38.9708632,15.4928265 46.639763,14.7999117 52.2216536,13.6858374 C55.1801766,13.0953539 57.5701768,12.3787206 59.2216351,11.5941061 L59.2216351,11.5941061 L59.497,11.458 L59.4999887,27.0147213 C59.4195331,27.4512366 58.7275117,27.7061579 58.04649,28.0159179 L57.8898098,28.088482 C56.3941334,28.7959709 54.2336191,29.4209269 51.5746921,29.9525766 C46.1468138,31.0378753 38.7069048,31.7026377 30.5,31.7026377 C22.2927978,31.7026377 14.8526483,31.0378293 9.42533469,29.9524382 C6.76697714,29.4208017 4.60713822,28.7958869 3.11232211,28.088418 C2.38625949,27.7447859 1.59000638,27.4859385 1.50490278,27.0158045 L1.50490278,27.0158045 Z" id="Combined-Shape"></path>
                </g>
                <g id="Group-97" fill="#0F50C7" fill-opacity="0.5" stroke="#0F50C7" stroke-width="3">
                    <path d="M1.50091142,11.4578163 C3.38780499,12.3614605 5.73434858,13.0707833 8.63787404,13.6576241 C14.1229229,14.7662247 21.6581104,15.4649447 30.0005236,15.492006 C38.9708632,15.4928265 46.639763,14.7999117 52.2216536,13.6858374 C55.1801766,13.0953539 57.5701768,12.3787206 59.2216351,11.5941061 L59.2216351,11.5941061 L59.497,11.458 L59.4999887,27.0147213 C59.4195331,27.4512366 58.7275117,27.7061579 58.04649,28.0159179 L57.8898098,28.088482 C56.3941334,28.7959709 54.2336191,29.4209269 51.5746921,29.9525766 C46.1468138,31.0378753 38.7069048,31.7026377 30.5,31.7026377 C22.2927978,31.7026377 14.8526483,31.0378293 9.42533469,29.9524382 C6.76697714,29.4208017 4.60713822,28.7958869 3.11232211,28.088418 C2.38625949,27.7447859 1.59000638,27.4859385 1.50490278,27.0158045 L1.50490278,27.0158045 Z" id="Combined-Shape"></path>
                    <ellipse id="Oval-Copy-52" cx="30.5" cy="6.2113778" rx="29" ry="4.7113778"></ellipse>
                </g>
            </g>
        </g>
    </g>
</svg>