<?xml version="1.0" encoding="UTF-8"?>
<svg width="1323px" height="368px" viewBox="0 0 1323 368" version="1.1" xmlns="http://www.w3.org/2000/svg" xmlns:xlink="http://www.w3.org/1999/xlink">
    <title>volume-attachment-limit</title>
    <defs>
        <filter x="-5.5%" y="-5.5%" width="111.0%" height="111.0%" filterUnits="objectBoundingBox" id="filter-1">
            <feOffset dx="0" dy="2" in="SourceAlpha" result="shadowOffsetOuter1"></feOffset>
            <feGaussianBlur stdDeviation="2" in="shadowOffsetOuter1" result="shadowBlurOuter1"></feGaussianBlur>
            <feColorMatrix values="0 0 0 0 0   0 0 0 0 0   0 0 0 0 0  0 0 0 0.5 0" type="matrix" in="shadowBlurOuter1" result="shadowMatrixOuter1"></feColorMatrix>
            <feMerge>
                <feMergeNode in="shadowMatrixOuter1"></feMergeNode>
                <feMergeNode in="SourceGraphic"></feMergeNode>
            </feMerge>
        </filter>
        <linearGradient x1="8.1951296%" y1="8.94480373%" x2="90.4349662%" y2="90.4959647%" id="linearGradient-2">
            <stop stop-color="#1A0FC7" offset="0%"></stop>
            <stop stop-color="#53A0FD" offset="47.5247532%"></stop>
            <stop stop-color="#51D4EC" offset="100%"></stop>
        </linearGradient>
        <linearGradient x1="-37.5770621%" y1="-39.4770408%" x2="139.437181%" y2="139.732143%" id="linearGradient-3">
            <stop stop-color="#1A0FC7" offset="0%"></stop>
            <stop stop-color="#53A0FD" offset="40.5366666%"></stop>
            <stop stop-color="#51D4EC" offset="100%"></stop>
        </linearGradient>
        <filter x="-5.5%" y="-5.5%" width="111.0%" height="111.0%" filterUnits="objectBoundingBox" id="filter-4">
            <feOffset dx="0" dy="2" in="SourceAlpha" result="shadowOffsetOuter1"></feOffset>
            <feGaussianBlur stdDeviation="2" in="shadowOffsetOuter1" result="shadowBlurOuter1"></feGaussianBlur>
            <feColorMatrix values="0 0 0 0 0   0 0 0 0 0   0 0 0 0 0  0 0 0 0.5 0" type="matrix" in="shadowBlurOuter1" result="shadowMatrixOuter1"></feColorMatrix>
            <feMerge>
                <feMergeNode in="shadowMatrixOuter1"></feMergeNode>
                <feMergeNode in="SourceGraphic"></feMergeNode>
            </feMerge>
        </filter>
        <linearGradient x1="0.25781251%" y1="49.9625034%" x2="133.446935%" y2="54.2608742%" id="linearGradient-5">
            <stop stop-color="#1A0FC7" offset="0%"></stop>
            <stop stop-color="#53A0FD" offset="47.5247532%"></stop>
            <stop stop-color="#51D4EC" offset="100%"></stop>
        </linearGradient>
        <path d="M171.528705,151.999839 C172.494828,155.384158 173,158.874538 173,162.442065 C173,193.67815 134.272631,219 86.5,219 C38.7273691,219 0,193.67815 0,162.442065 C0,158.874538 0.505172006,155.384158 1.47129521,151.999839 C8.96370856,178.248725 44.1832513,198.11707 86.5,198.11707 C128.539915,198.11707 163.57518,178.507829 171.378268,152.515094 Z" id="path-6"></path>
        <filter x="-4.0%" y="-7.5%" width="108.1%" height="120.9%" filterUnits="objectBoundingBox" id="filter-7">
            <feOffset dx="0" dy="2" in="SourceAlpha" result="shadowOffsetOuter1"></feOffset>
            <feGaussianBlur stdDeviation="2" in="shadowOffsetOuter1" result="shadowBlurOuter1"></feGaussianBlur>
            <feColorMatrix values="0 0 0 0 0   0 0 0 0 0   0 0 0 0 0  0 0 0 0.5 0" type="matrix" in="shadowBlurOuter1"></feColorMatrix>
        </filter>
        <path d="M171.528705,116.999839 C172.494828,120.384158 173,123.874538 173,127.442065 C173,158.67815 134.272631,184 86.5,184 C38.7273691,184 0,158.67815 0,127.442065 C0,123.874538 0.505172006,120.384158 1.47129521,116.999839 C8.96370856,143.248725 44.1832513,163.11707 86.5,163.11707 C128.539915,163.11707 163.57518,143.507829 171.378268,117.515094 Z" id="path-8"></path>
        <filter x="-4.0%" y="-7.5%" width="108.1%" height="120.9%" filterUnits="objectBoundingBox" id="filter-9">
            <feOffset dx="0" dy="2" in="SourceAlpha" result="shadowOffsetOuter1"></feOffset>
            <feGaussianBlur stdDeviation="2" in="shadowOffsetOuter1" result="shadowBlurOuter1"></feGaussianBlur>
            <feColorMatrix values="0 0 0 0 0   0 0 0 0 0   0 0 0 0 0  0 0 0 0.5 0" type="matrix" in="shadowBlurOuter1"></feColorMatrix>
        </filter>
        <path d="M171.528705,81.9998394 C172.494828,85.3841582 173,88.8745378 173,92.4420646 C173,123.67815 134.272631,149 86.5,149 C38.7273691,149 0,123.67815 0,92.4420646 C0,88.8745378 0.505172006,85.3841582 1.47129521,81.9998394 C8.96370856,108.248725 44.1832513,128.11707 86.5,128.11707 C128.539915,128.11707 163.57518,108.507829 171.378268,82.5150939 Z" id="path-10"></path>
        <filter x="-4.0%" y="-7.5%" width="108.1%" height="120.9%" filterUnits="objectBoundingBox" id="filter-11">
            <feOffset dx="0" dy="2" in="SourceAlpha" result="shadowOffsetOuter1"></feOffset>
            <feGaussianBlur stdDeviation="2" in="shadowOffsetOuter1" result="shadowBlurOuter1"></feGaussianBlur>
            <feColorMatrix values="0 0 0 0 0   0 0 0 0 0   0 0 0 0 0  0 0 0 0.5 0" type="matrix" in="shadowBlurOuter1"></feColorMatrix>
        </filter>
        <linearGradient x1="0.25781251%" y1="49.8914432%" x2="133.446935%" y2="62.3357128%" id="linearGradient-12">
            <stop stop-color="#1A0FC7" offset="0%"></stop>
            <stop stop-color="#53A0FD" offset="47.5247532%"></stop>
            <stop stop-color="#51D4EC" offset="100%"></stop>
        </linearGradient>
        <ellipse id="path-13" cx="86.5" cy="57" rx="86.5" ry="57"></ellipse>
        <filter x="-4.0%" y="-4.4%" width="108.1%" height="112.3%" filterUnits="objectBoundingBox" id="filter-14">
            <feOffset dx="0" dy="2" in="SourceAlpha" result="shadowOffsetOuter1"></feOffset>
            <feGaussianBlur stdDeviation="2" in="shadowOffsetOuter1" result="shadowBlurOuter1"></feGaussianBlur>
            <feColorMatrix values="0 0 0 0 0   0 0 0 0 0   0 0 0 0 0  0 0 0 0.5 0" type="matrix" in="shadowBlurOuter1"></feColorMatrix>
        </filter>
    </defs>
    <g id="volume-attachment-limit" stroke="none" stroke-width="1" fill="none" fill-rule="evenodd">
        <g id="Group-2" filter="url(#filter-1)" transform="translate(1055.000000, 75.000000)">
            <path d="M97.6096758,0.663933713 C105.813675,-0.246241267 114.064937,-0.216907069 122.244491,0.72912082 C125.45585,1.10313185 127.809977,3.90373293 127.618485,7.12479085 C127.036676,17.3795376 132.981887,26.9327081 142.409804,30.8985287 C151.469406,34.6785661 163.193596,31.9920425 169.720616,24.7636071 C171.884881,22.3671661 175.546857,22.0884912 178.04277,24.0913651 C184.416596,29.1971453 190.254246,35.08843 195.390301,41.6104001 C197.364704,44.1127702 197.078689,47.7151727 194.724562,49.867162 C187.245786,56.7272902 184.785727,67.6119074 188.600897,76.9450714 C192.335395,86.0574141 201.240173,91.9495137 211.275161,91.9495137 C214.378959,91.9495137 217.968412,94.2628412 218.314727,97.3413023 C219.242037,105.634732 219.230629,114.009646 218.265836,122.243592 C217.885297,125.448353 214.996622,127.866795 211.85697,127.61175 L211.85697,127.61175 L210.502675,127.576712 C200.822966,127.576712 191.823664,133.539703 188.101388,142.420631 C184.141989,151.854835 186.615086,162.835604 194.236461,169.737288 C196.626442,171.899871 196.911643,175.550349 194.890793,178.059237 C189.683029,184.545355 183.726411,190.436639 177.17576,195.573383 C174.653772,197.521663 171.076541,197.237284 168.911461,194.8824 C162.396664,187.725671 150.803666,185.031813 141.792141,188.71244 C132.470155,192.529146 126.442644,201.915274 126.810145,212.063277 C126.916892,215.249297 124.564394,217.983896 121.388889,218.334277 C117.382227,218.779994 113.374751,219 109.36809,219 C105.147121,219 100.93756,218.756363 96.7532591,218.268275 C93.5549378,217.899968 91.1894024,215.094477 91.3792645,211.87179 C91.9610738,201.611339 86.0158631,192.058984 76.5643146,188.105386 C67.5405669,184.318015 55.8171917,186.999649 49.265726,194.246011 C47.0908675,196.642452 43.4402996,196.927646 40.931349,194.90603 C34.5347065,189.757879 28.6962423,183.86089 23.6082633,177.380477 C21.6338601,174.878107 21.9312836,171.281408 24.274003,169.129419 C31.7641862,162.263587 34.2250601,151.385488 30.3968529,142.052324 C26.5564228,132.706938 17.4014829,126.80343 7.86600383,127.047067 C4.72798214,127.047067 1.02933752,124.75411 0.685467054,121.662612 C-0.241842393,113.369182 -0.230434369,104.986935 0.732728871,96.7603222 C1.11245313,93.6036366 3.58554994,91.2731975 7.05766379,91.3848304 C17.7575762,91.3848304 27.104008,85.5839928 30.8841385,76.583283 C34.843538,67.1425602 32.3826641,56.1634217 24.7612886,49.2617368 C22.3835303,47.0983397 22.0861068,43.4535655 24.1077718,40.9389729 C29.2910893,34.4707822 35.2599309,28.5746084 41.8228046,23.4256418 C44.3309404,21.4708434 47.9334316,21.760926 50.0862889,24.1206993 C56.6002711,31.2847624 68.2421604,33.9484705 77.1933856,30.2922887 C86.5275945,26.4690648 92.5445128,17.0829363 92.1876046,6.92922953 C92.0808581,3.74891355 94.4349855,1.01431441 97.6096758,0.663933713 Z M110.486486,40.7747748 C71.9857712,40.7747748 40.7747748,71.9857712 40.7747748,110.486486 C40.7747748,148.987202 71.9857712,180.198198 110.486486,180.198198 C148.987202,180.198198 180.198198,148.987202 180.198198,110.486486 C180.198198,71.9857712 148.987202,40.7747748 110.486486,40.7747748 Z" id="Combined-Shape" fill="url(#linearGradient-2)" fill-rule="nonzero"></path>
            <circle id="Oval-Copy-2" fill="url(#linearGradient-3)" cx="110" cy="110" r="48"></circle>
        </g>
        <g id="Group-2-Copy" filter="url(#filter-4)" transform="translate(49.000000, 75.000000)">
            <path d="M97.6096758,0.663933713 C105.813675,-0.246241267 114.064937,-0.216907069 122.244491,0.72912082 C125.45585,1.10313185 127.809977,3.90373293 127.618485,7.12479085 C127.036676,17.3795376 132.981887,26.9327081 142.409804,30.8985287 C151.469406,34.6785661 163.193596,31.9920425 169.720616,24.7636071 C171.884881,22.3671661 175.546857,22.0884912 178.04277,24.0913651 C184.416596,29.1971453 190.254246,35.08843 195.390301,41.6104001 C197.364704,44.1127702 197.078689,47.7151727 194.724562,49.867162 C187.245786,56.7272902 184.785727,67.6119074 188.600897,76.9450714 C192.335395,86.0574141 201.240173,91.9495137 211.275161,91.9495137 C214.378959,91.9495137 217.968412,94.2628412 218.314727,97.3413023 C219.242037,105.634732 219.230629,114.009646 218.265836,122.243592 C217.885297,125.448353 214.996622,127.866795 211.85697,127.61175 L211.85697,127.61175 L210.502675,127.576712 C200.822966,127.576712 191.823664,133.539703 188.101388,142.420631 C184.141989,151.854835 186.615086,162.835604 194.236461,169.737288 C196.626442,171.899871 196.911643,175.550349 194.890793,178.059237 C189.683029,184.545355 183.726411,190.436639 177.17576,195.573383 C174.653772,197.521663 171.076541,197.237284 168.911461,194.8824 C162.396664,187.725671 150.803666,185.031813 141.792141,188.71244 C132.470155,192.529146 126.442644,201.915274 126.810145,212.063277 C126.916892,215.249297 124.564394,217.983896 121.388889,218.334277 C117.382227,218.779994 113.374751,219 109.36809,219 C105.147121,219 100.93756,218.756363 96.7532591,218.268275 C93.5549378,217.899968 91.1894024,215.094477 91.3792645,211.87179 C91.9610738,201.611339 86.0158631,192.058984 76.5643146,188.105386 C67.5405669,184.318015 55.8171917,186.999649 49.265726,194.246011 C47.0908675,196.642452 43.4402996,196.927646 40.931349,194.90603 C34.5347065,189.757879 28.6962423,183.86089 23.6082633,177.380477 C21.6338601,174.878107 21.9312836,171.281408 24.274003,169.129419 C31.7641862,162.263587 34.2250601,151.385488 30.3968529,142.052324 C26.5564228,132.706938 17.4014829,126.80343 7.86600383,127.047067 C4.72798214,127.047067 1.02933752,124.75411 0.685467054,121.662612 C-0.241842393,113.369182 -0.230434369,104.986935 0.732728871,96.7603222 C1.11245313,93.6036366 3.58554994,91.2731975 7.05766379,91.3848304 C17.7575762,91.3848304 27.104008,85.5839928 30.8841385,76.583283 C34.843538,67.1425602 32.3826641,56.1634217 24.7612886,49.2617368 C22.3835303,47.0983397 22.0861068,43.4535655 24.1077718,40.9389729 C29.2910893,34.4707822 35.2599309,28.5746084 41.8228046,23.4256418 C44.3309404,21.4708434 47.9334316,21.760926 50.0862889,24.1206993 C56.6002711,31.2847624 68.2421604,33.9484705 77.1933856,30.2922887 C86.5275945,26.4690648 92.5445128,17.0829363 92.1876046,6.92922953 C92.0808581,3.74891355 94.4349855,1.01431441 97.6096758,0.663933713 Z M110.486486,40.7747748 C71.9857712,40.7747748 40.7747748,71.9857712 40.7747748,110.486486 C40.7747748,148.987202 71.9857712,180.198198 110.486486,180.198198 C148.987202,180.198198 180.198198,148.987202 180.198198,110.486486 C180.198198,71.9857712 148.987202,40.7747748 110.486486,40.7747748 Z" id="Combined-Shape" fill="url(#linearGradient-2)" fill-rule="nonzero"></path>
            <circle id="Oval-Copy-2" fill="url(#linearGradient-3)" cx="110" cy="110" r="48"></circle>
        </g>
        <g id="Group" transform="translate(782.000000, 173.000000)" fill="#A5A5A5" fill-rule="nonzero">
            <path id="Line-4-Copy" d="M13.985325,-6.02927332 L13.997,-0.029 L238.997908,-0.499997812 L239.997906,-0.502089857 L240.00209,1.49790577 L239.002092,1.49999781 L14.002,1.97 L14.0146137,7.97069604 L0,1 L13.985325,-6.02927332 Z"></path>
            <path id="Line-4" d="M225,15 L239,22 L225,29 L225,23 L-1,23 L-1,21 L225,21 L225,15 Z"></path>
        </g>
        <g id="Group-Copy" transform="translate(302.000000, 173.000000)" fill="#A5A5A5" fill-rule="nonzero">
            <path id="Line-4-Copy" d="M13.985325,-6.02927332 L13.997,-0.029 L238.997908,-0.499997812 L239.997906,-0.502089857 L240.00209,1.49790577 L239.002092,1.49999781 L14.002,1.97 L14.0146137,7.97069604 L0,1 L13.985325,-6.02927332 Z"></path>
            <path id="Line-4" d="M225,15 L239,22 L225,29 L225,23 L-1,23 L-1,21 L225,21 L225,15 Z"></path>
        </g>
        <g id="Group-5" transform="translate(575.000000, 75.000000)">
            <g id="Combined-Shape">
                <use fill="black" fill-opacity="1" filter="url(#filter-7)" xlink:href="#path-6"></use>
                <use fill="url(#linearGradient-5)" fill-rule="evenodd" xlink:href="#path-6"></use>
            </g>
            <g id="Combined-Shape">
                <use fill="black" fill-opacity="1" filter="url(#filter-9)" xlink:href="#path-8"></use>
                <use fill="url(#linearGradient-5)" fill-rule="evenodd" xlink:href="#path-8"></use>
            </g>
            <g id="Combined-Shape">
                <use fill="black" fill-opacity="1" filter="url(#filter-11)" xlink:href="#path-10"></use>
                <use fill="url(#linearGradient-5)" fill-rule="evenodd" xlink:href="#path-10"></use>
            </g>
            <g id="Oval-Copy-28">
                <use fill="black" fill-opacity="1" filter="url(#filter-14)" xlink:href="#path-13"></use>
                <use fill="url(#linearGradient-12)" fill-rule="evenodd" xlink:href="#path-13"></use>
            </g>
        </g>
        <text id="Dedicated-Volume" font-family="Helvetica" font-size="18" font-weight="normal" fill="#A5A5A5">
            <tspan x="588.949707" y="335">Dedicated Volume</tspan>
        </text>
        <text id="SVC-1" font-family="Helvetica" font-size="18" font-weight="normal" fill="#A5A5A5">
            <tspan x="132.48877" y="335">SVC 1</tspan>
        </text>
        <text id="SVC-2" font-family="Helvetica" font-size="18" font-weight="normal" fill="#A5A5A5">
            <tspan x="1138.48877" y="335">SVC 2</tspan>
        </text>
        <g id="close" transform="translate(878.000000, 109.000000)" fill-rule="nonzero">
            <path d="M24,0 C10.809375,0 0,10.809375 0,24 C0,37.190625 10.809375,48 24,48 C37.190625,48 48,37.190625 48,24 C48,10.809375 37.190625,0 24,0 Z" id="Path" fill="#FF3636"></path>
            <polygon id="Path" fill="#FEFEFE" points="27.9655312 24 35.925 31.9594688 31.9594688 35.925 24 27.9655312 16.0405312 35.925 12.075 31.9594688 20.0344687 24 12.075 16.0405312 16.0405312 12.075 24 20.0344687 31.9594688 12.075 35.925 16.0405312"></polygon>
        </g>
        <g id="tick" transform="translate(398.000000, 109.000000)" fill-rule="nonzero">
            <path d="M24,0 C10.809375,0 0,10.809375 0,24 C0,37.190625 10.809375,48 24,48 C37.190625,48 48,37.190625 48,24 C48,10.809375 37.190625,0 24,0 Z" id="Path" fill="#77DD00"></path>
            <polygon id="Path" fill="#FEFEFE" points="37.66875 19.921875 21.1875 36.4030312 9.34678125 24.5905312 13.3407188 20.5967813 21.1875 28.4717813 24 25.6592813 33.703125 15.95625"></polygon>
        </g>
    </g>
</svg>