<?xml version="1.0" encoding="UTF-8"?>
<svg width="1355px" height="728px" viewBox="0 0 1355 728" version="1.1" xmlns="http://www.w3.org/2000/svg" xmlns:xlink="http://www.w3.org/1999/xlink">
    <title>volume_attachment</title>
    <defs>
        <filter x="-14.0%" y="-14.0%" width="127.9%" height="127.9%" filterUnits="objectBoundingBox" id="filter-1">
            <feOffset dx="0" dy="2" in="SourceAlpha" result="shadowOffsetOuter1"></feOffset>
            <feGaussianBlur stdDeviation="2" in="shadowOffsetOuter1" result="shadowBlurOuter1"></feGaussianBlur>
            <feColorMatrix values="0 0 0 0 0   0 0 0 0 0   0 0 0 0 0  0 0 0 0.5 0" type="matrix" in="shadowBlurOuter1" result="shadowMatrixOuter1"></feColorMatrix>
            <feMerge>
                <feMergeNode in="shadowMatrixOuter1"></feMergeNode>
                <feMergeNode in="SourceGraphic"></feMergeNode>
            </feMerge>
        </filter>
        <filter x="-14.0%" y="-14.0%" width="127.9%" height="127.9%" filterUnits="objectBoundingBox" id="filter-2">
            <feOffset dx="0" dy="2" in="SourceAlpha" result="shadowOffsetOuter1"></feOffset>
            <feGaussianBlur stdDeviation="2" in="shadowOffsetOuter1" result="shadowBlurOuter1"></feGaussianBlur>
            <feColorMatrix values="0 0 0 0 0   0 0 0 0 0   0 0 0 0 0  0 0 0 0.5 0" type="matrix" in="shadowBlurOuter1" result="shadowMatrixOuter1"></feColorMatrix>
            <feMerge>
                <feMergeNode in="shadowMatrixOuter1"></feMergeNode>
                <feMergeNode in="SourceGraphic"></feMergeNode>
            </feMerge>
        </filter>
        <filter x="-14.0%" y="-14.0%" width="127.9%" height="127.9%" filterUnits="objectBoundingBox" id="filter-3">
            <feOffset dx="0" dy="2" in="SourceAlpha" result="shadowOffsetOuter1"></feOffset>
            <feGaussianBlur stdDeviation="2" in="shadowOffsetOuter1" result="shadowBlurOuter1"></feGaussianBlur>
            <feColorMatrix values="0 0 0 0 0   0 0 0 0 0   0 0 0 0 0  0 0 0 0.5 0" type="matrix" in="shadowBlurOuter1" result="shadowMatrixOuter1"></feColorMatrix>
            <feMerge>
                <feMergeNode in="shadowMatrixOuter1"></feMergeNode>
                <feMergeNode in="SourceGraphic"></feMergeNode>
            </feMerge>
        </filter>
        <rect id="path-4" x="0" y="0" width="242" height="197" rx="10"></rect>
        <filter x="-2.9%" y="-2.5%" width="105.8%" height="107.1%" filterUnits="objectBoundingBox" id="filter-5">
            <feOffset dx="0" dy="2" in="SourceAlpha" result="shadowOffsetOuter1"></feOffset>
            <feGaussianBlur stdDeviation="2" in="shadowOffsetOuter1" result="shadowBlurOuter1"></feGaussianBlur>
            <feColorMatrix values="0 0 0 0 0   0 0 0 0 0   0 0 0 0 0  0 0 0 0.5 0" type="matrix" in="shadowBlurOuter1"></feColorMatrix>
        </filter>
        <rect id="path-6" x="0" y="0" width="200" height="99" rx="10"></rect>
        <filter x="-3.5%" y="-5.1%" width="107.0%" height="114.1%" filterUnits="objectBoundingBox" id="filter-7">
            <feOffset dx="0" dy="2" in="SourceAlpha" result="shadowOffsetOuter1"></feOffset>
            <feGaussianBlur stdDeviation="2" in="shadowOffsetOuter1" result="shadowBlurOuter1"></feGaussianBlur>
            <feColorMatrix values="0 0 0 0 0   0 0 0 0 0   0 0 0 0 0  0 0 0 0.5 0" type="matrix" in="shadowBlurOuter1"></feColorMatrix>
        </filter>
    </defs>
    <g id="volume_attachment" stroke="none" stroke-width="1" fill="none" fill-rule="evenodd">
        <g id="Group" transform="translate(152.000000, 329.000000)" fill="#2979FF">
            <rect id="Rectangle" x="0" y="0" width="242" height="64" rx="5"></rect>
            <rect id="Rectangle-Copy" x="0" y="70" width="242" height="64" rx="5"></rect>
            <rect id="Rectangle-Copy-2" x="0" y="140" width="242" height="64" rx="5"></rect>
            <rect id="Rectangle-Copy-3" x="0" y="210" width="242" height="64" rx="5"></rect>
        </g>
        <g id="Group-4" transform="translate(937.896970, 314.000000)">
            <g id="Group-2" filter="url(#filter-1)" transform="translate(27.103030, 57.000000)" fill="#3ED4FF">
                <path d="M38.3307403,0.260722828 C41.5524022,-0.096697484 44.7926236,-0.0851781185 48.0046858,0.286321418 C49.2657674,0.433193328 50.1902193,1.53297275 50.1150216,2.79786307 C49.8865485,6.82484125 52.2211975,10.5763146 55.9234848,12.1336688 C59.4811365,13.6180671 64.0851563,12.5630852 66.6482783,9.72452153 C67.4981724,8.78345337 68.9362087,8.67401939 69.9163388,9.46053607 C72.4193026,11.4655456 74.7117129,13.7790182 76.7286115,16.3401571 C77.5039479,17.322823 77.3916313,18.7374651 76.4671794,19.5825385 C73.5303088,22.2764701 72.5642582,26.5507947 74.0624526,30.2158728 C75.528968,33.7942357 79.0258215,36.1080282 82.9665016,36.1080282 C84.1853445,36.1080282 85.5949016,37.0164582 85.7308974,38.2253516 C86.0950464,41.4821322 86.0905665,44.770911 85.711698,48.0043329 C85.5622626,49.2628236 84.4278971,50.2125313 83.1949746,50.1123768 L83.1949746,50.1123768 L82.6631508,50.0986176 C78.8619865,50.0986176 75.3280141,52.4402486 73.8662986,55.9277365 C72.3114659,59.6324924 73.2826364,63.9445749 76.2755053,66.6548256 C77.2140367,67.5040588 77.3260333,68.9375799 76.5324574,69.9228056 C74.4873997,72.4698653 72.1482709,74.7833379 69.5758692,76.8005067 C68.5854993,77.5655846 67.1807421,77.4539107 66.330528,76.5291617 C63.7722058,73.7187565 59.2197044,72.6608948 55.6809321,74.1062552 C52.0202436,75.6050526 49.6532756,79.2909296 49.7975912,83.27599 C49.83951,84.5271211 48.9156981,85.600982 47.668696,85.7385744 C46.0953039,85.9136048 44.5215918,86 42.9481997,86 C41.2906502,86 39.6375805,85.9043253 37.9944305,85.7126558 C36.7384687,85.5680238 35.809537,84.4663245 35.8840947,83.2007942 C36.1125678,79.1715761 33.7779189,75.4204228 30.0663518,73.8678683 C26.5227797,72.3805902 21.9190798,73.4336522 19.3463581,76.2792555 C18.4923041,77.2203236 17.0587478,77.3323174 16.0734978,76.5384412 C13.5615742,74.5167925 11.268844,72.2010801 9.27082484,69.6562603 C8.49548844,68.6735944 8.61228488,67.2611922 9.53225688,66.4161188 C12.4736073,63.7199473 13.4399779,59.4481826 11.9366637,55.7831045 C10.4285496,52.1132266 6.83345903,49.7949543 3.08893301,49.890629 C1.85665052,49.890629 0.404214733,48.9901986 0.269178843,47.7761855 C-0.0949700723,44.5194049 -0.0904902087,41.2277462 0.287738278,37.9972042 C0.436853739,36.7575924 1.40802418,35.8424429 2.77150267,35.8862804 C6.97329477,35.8862804 10.6435831,33.6083259 12.1280179,30.0738006 C13.6828505,26.3664848 12.71648,22.0550423 9.72361106,19.3447916 C8.78987948,18.4952384 8.67308303,17.0639572 9.46697887,16.0764916 C11.5024369,13.5364716 13.8463656,11.2210791 16.4235671,9.19911047 C17.4084971,8.43147275 18.8231741,8.54538648 19.6685883,9.47205543 C22.2265905,12.2853405 26.7982913,13.3313629 30.3133843,11.8956019 C33.9788727,10.3942446 36.3416808,6.70836767 36.2015251,2.7210673 C36.1596064,1.4721761 37.0840582,0.398315249 38.3307403,0.260722828 Z M43.3873874,16.012012 C28.268385,16.012012 16.012012,28.268385 16.012012,43.3873874 C16.012012,58.5063897 28.268385,70.7627628 43.3873874,70.7627628 C58.5063897,70.7627628 70.7627628,58.5063897 70.7627628,43.3873874 C70.7627628,28.268385 58.5063897,16.012012 43.3873874,16.012012 Z" id="Combined-Shape" fill-rule="nonzero"></path>
                <circle id="Oval-Copy-2" cx="43" cy="43" r="18.7864078"></circle>
            </g>
            <g id="Group-2-Copy" filter="url(#filter-2)" transform="translate(70.103030, 129.000000)" fill="#3ED4FF">
                <path d="M38.3307403,0.260722828 C41.5524022,-0.096697484 44.7926236,-0.0851781185 48.0046858,0.286321418 C49.2657674,0.433193328 50.1902193,1.53297275 50.1150216,2.79786307 C49.8865485,6.82484125 52.2211975,10.5763146 55.9234848,12.1336688 C59.4811365,13.6180671 64.0851563,12.5630852 66.6482783,9.72452153 C67.4981724,8.78345337 68.9362087,8.67401939 69.9163388,9.46053607 C72.4193026,11.4655456 74.7117129,13.7790182 76.7286115,16.3401571 C77.5039479,17.322823 77.3916313,18.7374651 76.4671794,19.5825385 C73.5303088,22.2764701 72.5642582,26.5507947 74.0624526,30.2158728 C75.528968,33.7942357 79.0258215,36.1080282 82.9665016,36.1080282 C84.1853445,36.1080282 85.5949016,37.0164582 85.7308974,38.2253516 C86.0950464,41.4821322 86.0905665,44.770911 85.711698,48.0043329 C85.5622626,49.2628236 84.4278971,50.2125313 83.1949746,50.1123768 L83.1949746,50.1123768 L82.6631508,50.0986176 C78.8619865,50.0986176 75.3280141,52.4402486 73.8662986,55.9277365 C72.3114659,59.6324924 73.2826364,63.9445749 76.2755053,66.6548256 C77.2140367,67.5040588 77.3260333,68.9375799 76.5324574,69.9228056 C74.4873997,72.4698653 72.1482709,74.7833379 69.5758692,76.8005067 C68.5854993,77.5655846 67.1807421,77.4539107 66.330528,76.5291617 C63.7722058,73.7187565 59.2197044,72.6608948 55.6809321,74.1062552 C52.0202436,75.6050526 49.6532756,79.2909296 49.7975912,83.27599 C49.83951,84.5271211 48.9156981,85.600982 47.668696,85.7385744 C46.0953039,85.9136048 44.5215918,86 42.9481997,86 C41.2906502,86 39.6375805,85.9043253 37.9944305,85.7126558 C36.7384687,85.5680238 35.809537,84.4663245 35.8840947,83.2007942 C36.1125678,79.1715761 33.7779189,75.4204228 30.0663518,73.8678683 C26.5227797,72.3805902 21.9190798,73.4336522 19.3463581,76.2792555 C18.4923041,77.2203236 17.0587478,77.3323174 16.0734978,76.5384412 C13.5615742,74.5167925 11.268844,72.2010801 9.27082484,69.6562603 C8.49548844,68.6735944 8.61228488,67.2611922 9.53225688,66.4161188 C12.4736073,63.7199473 13.4399779,59.4481826 11.9366637,55.7831045 C10.4285496,52.1132266 6.83345903,49.7949543 3.08893301,49.890629 C1.85665052,49.890629 0.404214733,48.9901986 0.269178843,47.7761855 C-0.0949700723,44.5194049 -0.0904902087,41.2277462 0.287738278,37.9972042 C0.436853739,36.7575924 1.40802418,35.8424429 2.77150267,35.8862804 C6.97329477,35.8862804 10.6435831,33.6083259 12.1280179,30.0738006 C13.6828505,26.3664848 12.71648,22.0550423 9.72361106,19.3447916 C8.78987948,18.4952384 8.67308303,17.0639572 9.46697887,16.0764916 C11.5024369,13.5364716 13.8463656,11.2210791 16.4235671,9.19911047 C17.4084971,8.43147275 18.8231741,8.54538648 19.6685883,9.47205543 C22.2265905,12.2853405 26.7982913,13.3313629 30.3133843,11.8956019 C33.9788727,10.3942446 36.3416808,6.70836767 36.2015251,2.7210673 C36.1596064,1.4721761 37.0840582,0.398315249 38.3307403,0.260722828 Z M43.3873874,16.012012 C28.268385,16.012012 16.012012,28.268385 16.012012,43.3873874 C16.012012,58.5063897 28.268385,70.7627628 43.3873874,70.7627628 C58.5063897,70.7627628 70.7627628,58.5063897 70.7627628,43.3873874 C70.7627628,28.268385 58.5063897,16.012012 43.3873874,16.012012 Z" id="Combined-Shape" fill-rule="nonzero"></path>
                <circle id="Oval-Copy-2" cx="43" cy="43" r="18.7864078"></circle>
            </g>
            <g id="Group-2-Copy-2" filter="url(#filter-3)" transform="translate(142.103030, 87.000000)" fill="#3ED4FF">
                <path d="M38.3307403,0.260722828 C41.5524022,-0.096697484 44.7926236,-0.0851781185 48.0046858,0.286321418 C49.2657674,0.433193328 50.1902193,1.53297275 50.1150216,2.79786307 C49.8865485,6.82484125 52.2211975,10.5763146 55.9234848,12.1336688 C59.4811365,13.6180671 64.0851563,12.5630852 66.6482783,9.72452153 C67.4981724,8.78345337 68.9362087,8.67401939 69.9163388,9.46053607 C72.4193026,11.4655456 74.7117129,13.7790182 76.7286115,16.3401571 C77.5039479,17.322823 77.3916313,18.7374651 76.4671794,19.5825385 C73.5303088,22.2764701 72.5642582,26.5507947 74.0624526,30.2158728 C75.528968,33.7942357 79.0258215,36.1080282 82.9665016,36.1080282 C84.1853445,36.1080282 85.5949016,37.0164582 85.7308974,38.2253516 C86.0950464,41.4821322 86.0905665,44.770911 85.711698,48.0043329 C85.5622626,49.2628236 84.4278971,50.2125313 83.1949746,50.1123768 L83.1949746,50.1123768 L82.6631508,50.0986176 C78.8619865,50.0986176 75.3280141,52.4402486 73.8662986,55.9277365 C72.3114659,59.6324924 73.2826364,63.9445749 76.2755053,66.6548256 C77.2140367,67.5040588 77.3260333,68.9375799 76.5324574,69.9228056 C74.4873997,72.4698653 72.1482709,74.7833379 69.5758692,76.8005067 C68.5854993,77.5655846 67.1807421,77.4539107 66.330528,76.5291617 C63.7722058,73.7187565 59.2197044,72.6608948 55.6809321,74.1062552 C52.0202436,75.6050526 49.6532756,79.2909296 49.7975912,83.27599 C49.83951,84.5271211 48.9156981,85.600982 47.668696,85.7385744 C46.0953039,85.9136048 44.5215918,86 42.9481997,86 C41.2906502,86 39.6375805,85.9043253 37.9944305,85.7126558 C36.7384687,85.5680238 35.809537,84.4663245 35.8840947,83.2007942 C36.1125678,79.1715761 33.7779189,75.4204228 30.0663518,73.8678683 C26.5227797,72.3805902 21.9190798,73.4336522 19.3463581,76.2792555 C18.4923041,77.2203236 17.0587478,77.3323174 16.0734978,76.5384412 C13.5615742,74.5167925 11.268844,72.2010801 9.27082484,69.6562603 C8.49548844,68.6735944 8.61228488,67.2611922 9.53225688,66.4161188 C12.4736073,63.7199473 13.4399779,59.4481826 11.9366637,55.7831045 C10.4285496,52.1132266 6.83345903,49.7949543 3.08893301,49.890629 C1.85665052,49.890629 0.404214733,48.9901986 0.269178843,47.7761855 C-0.0949700723,44.5194049 -0.0904902087,41.2277462 0.287738278,37.9972042 C0.436853739,36.7575924 1.40802418,35.8424429 2.77150267,35.8862804 C6.97329477,35.8862804 10.6435831,33.6083259 12.1280179,30.0738006 C13.6828505,26.3664848 12.71648,22.0550423 9.72361106,19.3447916 C8.78987948,18.4952384 8.67308303,17.0639572 9.46697887,16.0764916 C11.5024369,13.5364716 13.8463656,11.2210791 16.4235671,9.19911047 C17.4084971,8.43147275 18.8231741,8.54538648 19.6685883,9.47205543 C22.2265905,12.2853405 26.7982913,13.3313629 30.3133843,11.8956019 C33.9788727,10.3942446 36.3416808,6.70836767 36.2015251,2.7210673 C36.1596064,1.4721761 37.0840582,0.398315249 38.3307403,0.260722828 Z M43.3873874,16.012012 C28.268385,16.012012 16.012012,28.268385 16.012012,43.3873874 C16.012012,58.5063897 28.268385,70.7627628 43.3873874,70.7627628 C58.5063897,70.7627628 70.7627628,58.5063897 70.7627628,43.3873874 C70.7627628,28.268385 58.5063897,16.012012 43.3873874,16.012012 Z" id="Combined-Shape" fill-rule="nonzero"></path>
                <circle id="Oval-Copy-2" cx="43" cy="43" r="18.7864078"></circle>
            </g>
            <g id="Group-3" transform="translate(0.103030, 0.000000)" fill="#2979FF">
                <path d="M263,107.939394 C243.013817,35.979798 199.180484,0 131.5,0 C63.8195164,0 19.9861831,35.979798 0,107.939394 L263,107.939394 Z" id="Oval"></path>
                <path d="M263,274 C243.013817,202.040404 199.180484,166.060606 131.5,166.060606 C63.8195164,166.060606 19.9861831,202.040404 0,274 L263,274 Z" id="Oval-Copy" transform="translate(131.500000, 220.030303) rotate(-180.000000) translate(-131.500000, -220.030303) "></path>
            </g>
        </g>
        <g id="Group-2" transform="translate(436.000000, 472.000000)">
            <line x1="0" y1="64" x2="460" y2="64" id="Path-14" stroke="#3ED4FF" stroke-width="5" stroke-linecap="round"></line>
            <text id="I/O" font-family="Helvetica-Bold, Helvetica" font-size="40" font-weight="bold" fill="#A5A5A5">
                <tspan x="203.330078" y="39">I/O</tspan>
            </text>
        </g>
        <g id="Group-5" transform="translate(158.000000, 91.000000)">
            <g id="Rectangle">
                <use fill="black" fill-opacity="1" filter="url(#filter-5)" xlink:href="#path-4"></use>
                <use fill="#FEFEFE" fill-rule="evenodd" xlink:href="#path-4"></use>
            </g>
            <text id="Vol1-10Gi-SVC1" font-family="HelveticaNeue, Helvetica Neue" font-size="45" font-weight="normal" fill="#222222">
                <tspan x="77.57" y="62">Vol1</tspan>
                <tspan x="73.4075" y="115">10Gi</tspan>
                <tspan x="63.4175" y="168">SVC1</tspan>
            </text>
        </g>
        <g id="Group-6" transform="translate(970.000000, 189.000000)">
            <g id="Rectangle">
                <use fill="black" fill-opacity="1" filter="url(#filter-7)" xlink:href="#path-6"></use>
                <use fill="#FEFEFE" fill-rule="evenodd" xlink:href="#path-6"></use>
            </g>
            <text id="SVC1" font-family="HelveticaNeue, Helvetica Neue" font-size="45" font-weight="normal" fill="#222222">
                <tspan x="43.4175" y="66">SVC1</tspan>
            </text>
        </g>
        <text id="Mounted" font-family="Helvetica-Bold, Helvetica" font-size="40" font-weight="bold" fill="#A5A5A5">
            <tspan x="594.189453" y="694">Mounted</tspan>
        </text>
    </g>
</svg>