<?xml version="1.0" encoding="UTF-8"?>
<svg width="753px" height="153px" viewBox="0 0 753 153" version="1.1" xmlns="http://www.w3.org/2000/svg" xmlns:xlink="http://www.w3.org/1999/xlink">
    <title>vuejs-banner</title>
    <defs>
        <linearGradient x1="0.25781251%" y1="49.9673999%" x2="133.446935%" y2="53.7044901%" id="linearGradient-1">
            <stop stop-color="#1A0FC7" offset="0%"></stop>
            <stop stop-color="#53A0FD" offset="47.5247532%"></stop>
            <stop stop-color="#51D4EC" offset="100%"></stop>
        </linearGradient>
        <linearGradient x1="0%" y1="49.9989382%" x2="100%" y2="50.0010319%" id="linearGradient-2">
            <stop stop-color="#1A0FC7" offset="0%"></stop>
            <stop stop-color="#2979FF" offset="100%"></stop>
        </linearGradient>
        <linearGradient x1="0.25781251%" y1="49.9960759%" x2="133.446935%" y2="50.4459058%" id="linearGradient-3">
            <stop stop-color="#1A0FC7" offset="0%"></stop>
            <stop stop-color="#53A0FD" offset="47.5247532%"></stop>
            <stop stop-color="#51D4EC" offset="100%"></stop>
        </linearGradient>
        <linearGradient x1="0.457860274%" y1="2.01816869e-07%" x2="99.5421397%" y2="98.5900763%" id="linearGradient-4">
            <stop stop-color="#1A0FC7" offset="0%"></stop>
            <stop stop-color="#2979FF" offset="100%"></stop>
        </linearGradient>
        <linearGradient x1="0%" y1="36.458796%" x2="100%" y2="63.1593628%" id="linearGradient-5">
            <stop stop-color="#1A0FC7" offset="0%"></stop>
            <stop stop-color="#2979FF" offset="100%"></stop>
        </linearGradient>
        <linearGradient x1="-76.7729064%" y1="78.0847696%" x2="253.784064%" y2="78.0847696%" id="linearGradient-6">
            <stop stop-color="#0D0D6C" offset="0%"></stop>
            <stop stop-color="#A1BFFF" offset="100%"></stop>
        </linearGradient>
    </defs>
    <g id="vuejs-banner" stroke="none" stroke-width="1" fill="none" fill-rule="evenodd">
        <text id="Vue.JS" fill="url(#linearGradient-1)" fill-rule="nonzero" font-family="Futura-Bold, Futura" font-size="50" font-weight="bold">
            <tspan x="319" y="60">Vue.JS</tspan>
        </text>
        <line x1="319" y1="89.5" x2="752" y2="89.5" id="Line-6" stroke="url(#linearGradient-2)" stroke-width="2" stroke-linecap="round"></line>
        <text id="Source-Deployment" fill="url(#linearGradient-3)" fill-rule="nonzero" font-family="Futura-Bold, Futura" font-size="42" font-weight="bold">
            <tspan x="314" y="141">Source Deployment</tspan>
        </text>
        <g id="Group-2" fill-rule="nonzero">
            <path d="M272.656305,95.060974 C280.632666,95.060974 288.008622,97.643706 294.001219,102.022209 L294.001219,122.573165 C290.537214,114.062547 282.213774,108.066335 272.496403,108.066335 C259.670205,108.066335 249.272518,118.512941 249.272518,131.399483 C249.272518,141.157481 255.234427,149.516448 263.698164,153.000025 L243.252721,153.000025 C238.897133,146.980178 236.328058,139.571589 236.328058,131.560138 C236.328058,111.402206 252.592768,95.060974 272.656305,95.060974 Z" id="path-2-path" fill="url(#linearGradient-4)"></path>
            <path d="M277.669583,0 C286.688639,0 294.000312,8.8799133 294.000312,19.8338843 L294.000312,83.865176 C293.496801,83.722796 293.002485,83.550986 292.520561,83.348962 C286.784091,80.924583 283.166693,75.084554 283.520698,68.8156393 C283.637213,66.8465475 282.204831,65.1344886 280.250861,64.9058488 C275.273965,64.3275246 270.253438,64.3095921 265.261667,64.8659988 C263.330009,65.0801929 261.897627,66.7519035 261.962577,68.6960891 C262.17974,74.903236 258.518712,80.641149 252.839259,82.978356 C247.392835,85.213447 240.309261,83.585073 236.345792,79.20555 C235.035873,77.762977 232.843917,77.585644 231.317828,78.780649 C227.32461,81.928306 223.692834,85.532746 220.539015,89.486869 C219.308921,91.024086 219.48989,93.252203 220.936651,94.574728 C225.57392,98.793854 227.071253,105.505603 224.662134,111.27689 C222.362092,116.779189 216.675202,120.325348 210.164779,120.325348 C208.052152,120.257104 206.547382,121.681745 206.316337,123.611485 C205.730294,128.640564 205.723353,133.764785 206.28758,138.834711 C206.49681,140.724601 208.747271,142.126327 210.656618,142.126327 C216.458535,141.977388 222.02891,145.58631 224.365642,151.299316 C224.593755,151.858072 224.785168,152.425886 224.940601,153 L16.3304172,153 C7.3113611,153 5.68434189e-14,144.120087 5.68434189e-14,133.166116 L5.68434189e-14,19.8338843 C5.68434189e-14,8.8799133 7.3113611,0 16.3304172,0 L277.669583,0 Z M99.4529798,17.6663144 L44.1691667,17.6663144 L116.054015,142.274426 L187.938864,17.6663144 L132.655051,17.6663144 L116.054015,46.4430048 L99.4529798,17.6663144 Z" id="Combined-Shape" fill="url(#linearGradient-5)"></path>
            <g id="Vue.js_Logo_2-Copy-2" transform="translate(44.000000, 16.000000)" fill="url(#linearGradient-6)">
                <g id="Group" transform="translate(72.500000, 63.500000) scale(-1, 1) rotate(-180.000000) translate(-72.500000, -63.500000) ">
                    <g transform="translate(28.604545, 49.844711)" id="Path">
                        <polygon points="60.0505051 75.488975 43.4494697 46.7122846 26.8484343 75.488975 0.318560606 75.488975 43.4494697 0.725573643 86.5803788 75.488975"></polygon>
                    </g>
                </g>
            </g>
        </g>
    </g>
</svg>