<?xml version="1.0" encoding="UTF-8"?>
<svg width="90px" height="65px" viewBox="0 0 90 65" version="1.1" xmlns="http://www.w3.org/2000/svg" xmlns:xlink="http://www.w3.org/1999/xlink">
    <title>api</title>
    <defs>
        <linearGradient x1="100%" y1="50%" x2="0.409823474%" y2="57.4740174%" id="linearGradient-1">
            <stop stop-color="#1A0FC7" offset="0%"></stop>
            <stop stop-color="#53A0FD" offset="47.5247532%"></stop>
            <stop stop-color="#51D4EC" offset="100%"></stop>
        </linearGradient>
        <linearGradient x1="236.065287%" y1="0%" x2="-36.577771%" y2="78.3149119%" id="linearGradient-2">
            <stop stop-color="#1A0FC7" offset="0%"></stop>
            <stop stop-color="#53A0FD" offset="47.5247532%"></stop>
            <stop stop-color="#51D4EC" offset="100%"></stop>
        </linearGradient>
        <linearGradient x1="174.650373%" y1="0%" x2="-104.835992%" y2="100%" id="linearGradient-3">
            <stop stop-color="#1A0FC7" offset="0%"></stop>
            <stop stop-color="#53A0FD" offset="47.5247532%"></stop>
            <stop stop-color="#51D4EC" offset="100%"></stop>
        </linearGradient>
        <linearGradient x1="86.7094921%" y1="-26.3629427%" x2="-8.39908144%" y2="60.0207402%" id="linearGradient-4">
            <stop stop-color="#1A0FC7" offset="0%"></stop>
            <stop stop-color="#53A0FD" offset="30.7128413%"></stop>
            <stop stop-color="#51D4EC" offset="100%"></stop>
        </linearGradient>
    </defs>
    <g id="Page-1" stroke="none" stroke-width="1" fill="none" fill-rule="evenodd">
        <g id="api" fill-rule="nonzero">
            <path d="M82.0898438,0.51572327 L7.91015625,0.51572327 C3.54849609,0.51572327 0,4.05651602 0,8.40870756 L0,56.622739 C0,60.9749305 3.54849609,64.5157233 7.91015625,64.5157233 L82.0898438,64.5157233 C86.4515039,64.5157233 90,60.9749305 90,56.622739 L90,8.40870756 C90,4.05634062 86.4515039,0.51572327 82.0898438,0.51572327 Z M84.7265625,56.622739 C84.7265625,58.0734695 83.5437305,59.2537337 82.0898438,59.2537337 L7.91015625,59.2537337 C6.45626953,59.2537337 5.2734375,58.0734695 5.2734375,56.622739 L5.2734375,18.8283238 L84.7265625,18.8283238 L84.7265625,56.622739 Z M84.7265625,13.5663343 L5.2734375,13.5663343 L5.2734375,8.40870756 C5.2734375,6.95797705 6.45626953,5.7777128 7.91015625,5.7777128 L82.0898438,5.7777128 C83.5437305,5.7777128 84.7265625,6.95797705 84.7265625,8.40870756 L84.7265625,13.5663343 Z" id="Shape" fill="url(#linearGradient-1)"></path>
            <path d="M30.5000876,25.5157233 C25.8132299,25.5157233 22,29.3967604 22,34.1669604 L22,45.8407448 C22,47.3180462 23.1767519,48.5157233 24.6282428,48.5157233 C26.0797337,48.5157233 27.2564856,47.3180462 27.2564856,45.8407448 L27.2564856,40.7698772 L33.7435144,40.7698772 L33.7435144,45.8407448 C33.7435144,47.3180462 34.9202663,48.5157233 36.3717572,48.5157233 C37.8232481,48.5157233 39,47.3180462 39,45.8407448 L39,34.1669604 C39.0001752,29.3967604 35.1869454,25.5157233 30.5000876,25.5157233 Z M33.7436896,35.4200986 L27.2566608,35.4200986 L27.2566608,34.1671387 L27.2564856,34.1671387 C27.2564856,32.3467267 28.711656,30.8658586 30.5000876,30.8658586 C32.2885192,30.8658586 33.7436896,32.3467267 33.7436896,34.1671387 L33.7436896,35.4200986 Z" id="Shape" fill="url(#linearGradient-2)"></path>
            <path d="M51.5061582,25.5157233 L44.6281886,25.5157233 C43.1767276,25.5157233 42,26.7134003 42,28.1907018 L42,45.8407448 C42,47.3180462 43.1767276,48.5157233 44.6281886,48.5157233 C46.0796496,48.5157233 47.2563772,47.3180462 47.2563772,45.8407448 L47.2563772,40.7698772 L51.5061582,40.7698772 C55.6381963,40.7698772 59,37.3482231 59,33.1426219 C59,28.9371991 55.6381963,25.5157233 51.5061582,25.5157233 Z M51.5061582,35.4200986 L47.2563772,35.4200986 L47.2563772,30.8658586 L51.5061582,30.8658586 C52.7398299,30.8658586 53.7436228,31.887522 53.7436228,33.1431569 C53.7436228,34.3989702 52.7398299,35.4200986 51.5061582,35.4200986 Z" id="Shape" fill="url(#linearGradient-3)"></path>
            <path d="M65.5,25.5157233 C64.1193333,25.5157233 63,26.7134003 63,28.1907018 L63,45.8407448 C63,47.3180462 64.1193333,48.5157233 65.5,48.5157233 C66.8806667,48.5157233 68,47.3180462 68,45.8407448 L68,28.1907018 C68,26.7134003 66.8806667,25.5157233 65.5,25.5157233 Z" id="Path" fill="url(#linearGradient-4)"></path>
        </g>
    </g>
</svg>