<?xml version="1.0" encoding="UTF-8"?>
<svg width="46px" height="46px" viewBox="0 0 46 46" version="1.1" xmlns="http://www.w3.org/2000/svg" xmlns:xlink="http://www.w3.org/1999/xlink">
    <title>Artboard</title>
    <g id="Artboard" stroke="none" stroke-width="1" fill="none" fill-rule="evenodd">
        <g id="Group-55" fill-rule="nonzero">
            <path d="M23,0 C35.7025492,0 46,10.2974508 46,23 C46,35.7025492 35.7025492,46 23,46 C10.2974508,46 0,35.7025492 0,23 C0,10.2974508 10.2974508,0 23,0 Z" id="Path_1161" fill="#FFFFFF"></path>
            <g id="blog" transform="translate(12.000000, 11.000000)" fill="#000000">
                <path d="M23.83225,14.96525 C23.8245,13.18175 23.819,11.893 22.94175,10.75925 C21.948,9.47575 20.41525,9.25825 19.17275,9.22125 C19.382,8.3245 19.4425,7.33025 19.34575,6.2555 C19.31925,2.67625 16.656,0.1035 12.95975,0.0015 L12.9065,0 L7.253,0.0045 L7.19225,0.00425 C4.9935,0.00425 3.2555,0.66075 2.02625,1.95525 C1.2655,2.756 0.255,4.15475 0.148,6.4165 L0.1435,15.5365 C0.1325,15.70875 0.14975,15.88275 0.1475,16.0615 C0.1475,18.65625 0.56275,20.524 1.8595,21.90425 C3.15525,23.2845 5.07125,23.98425 7.5535,23.98425 C7.60725,23.98425 7.6615,23.984 7.71575,23.98325 L16.3525,23.98325 L16.373,23.98325 C18.5875,23.96475 20.45875,23.23375 21.7845,21.8695 C23.10775,20.50775 23.82025,18.5675 23.8445,16.25925 C23.84425,16.25925 23.83375,15.33 23.83225,14.96525 Z M7.7115,4.86425 L12.542,4.8585 C13.6805,4.8765 14.589,5.89625 14.5705,7.03475 C14.5525,8.162 13.63325,8.9845 12.51,8.9845 C12.499,8.9845 7.64625,8.9865 7.64625,8.9865 C6.50775,8.96825 5.59975,8.03075 5.618,6.89275 C5.636,5.75425 6.5715,4.85325 7.7115,4.86425 Z M16.791,18.433 L7.13025,18.433 C5.992,18.433 5.06875,17.51025 5.06875,16.3715 C5.06875,15.233 5.992,14.31 7.13025,14.31 L16.79125,14.31 C17.93,14.31 18.85275,15.233 18.85275,16.3715 C18.85275,17.51025 17.92975,18.433 16.791,18.433 Z" id="Shape"></path>
            </g>
        </g>
    </g>
</svg>