<?xml version="1.0" encoding="UTF-8"?>
<svg width="24px" height="24px" viewBox="0 0 24 24" version="1.1" xmlns="http://www.w3.org/2000/svg" xmlns:xlink="http://www.w3.org/1999/xlink">
    <title>brand-github</title>
    <g id="Page-1" stroke="none" stroke-width="1" fill="none" fill-rule="evenodd">
        <g id="brand-github" fill="#CDCDCD" fill-rule="nonzero">
            <path d="M8.02741935,18.8419355 C8.02741935,18.9387097 7.91612903,19.016129 7.77580645,19.016129 C7.61612903,19.0306452 7.50483871,18.9532258 7.50483871,18.8419355 C7.50483871,18.7451613 7.61612903,18.6677419 7.75645161,18.6677419 C7.9016129,18.6532258 8.02741935,18.7306452 8.02741935,18.8419355 Z M6.52258065,18.6241935 C6.48870968,18.7209677 6.58548387,18.8322581 6.73064516,18.8612903 C6.85645161,18.9096774 7.0016129,18.8612903 7.03064516,18.7645161 C7.05967742,18.6677419 6.96774194,18.5564516 6.82258065,18.5129032 C6.69677419,18.4790323 6.55645161,18.5274194 6.52258065,18.6241935 Z M8.66129032,18.5419355 C8.52096774,18.5758065 8.42419355,18.6677419 8.43870968,18.7790323 C8.45322581,18.8758065 8.57903226,18.9387097 8.72419355,18.9048387 C8.86451613,18.8709677 8.96129032,18.7790323 8.94677419,18.6822581 C8.93225806,18.5903226 8.8016129,18.5274194 8.66129032,18.5419355 Z M11.8451613,0 C5.13387097,0 0,5.09516129 0,11.8064516 C0,17.1725806 3.37741935,21.7645161 8.2016129,23.3806452 C8.82096774,23.4919355 9.03870968,23.1096774 9.03870968,22.7951613 C9.03870968,22.4951613 9.02419355,20.8403226 9.02419355,19.8241935 C9.02419355,19.8241935 5.63709677,20.55 4.92580645,18.3822581 C4.92580645,18.3822581 4.37419355,16.9741935 3.58064516,16.6112903 C3.58064516,16.6112903 2.47258065,15.8516129 3.65806452,15.866129 C3.65806452,15.866129 4.86290323,15.9629032 5.52580645,17.1145161 C6.58548387,18.9822581 8.36129032,18.4451613 9.05322581,18.1258065 C9.16451613,17.3516129 9.47903226,16.8145161 9.82741935,16.4951613 C7.12258065,16.1951613 4.39354839,15.8032258 4.39354839,11.1483871 C4.39354839,9.81774194 4.76129032,9.15 5.53548387,8.2983871 C5.40967742,7.98387097 4.9983871,6.68709677 5.66129032,5.01290323 C6.67258065,4.6983871 9,6.31935484 9,6.31935484 C9.96774194,6.0483871 11.0080645,5.90806452 12.0387097,5.90806452 C13.0693548,5.90806452 14.1096774,6.0483871 15.0774194,6.31935484 C15.0774194,6.31935484 17.4048387,4.69354839 18.416129,5.01290323 C19.0790323,6.69193548 18.6677419,7.98387097 18.5419355,8.2983871 C19.316129,9.15483871 19.7903226,9.82258065 19.7903226,11.1483871 C19.7903226,15.8177419 16.9403226,16.1903226 14.2354839,16.4951613 C14.6806452,16.8774194 15.0580645,17.6032258 15.0580645,18.7403226 C15.0580645,20.3709677 15.0435484,22.3887097 15.0435484,22.7854839 C15.0435484,23.1 15.266129,23.4822581 15.8806452,23.3709677 C20.7193548,21.7645161 24,17.1725806 24,11.8064516 C24,5.09516129 18.5564516,0 11.8451613,0 Z M4.70322581,16.6887097 C4.64032258,16.7370968 4.65483871,16.8483871 4.73709677,16.9403226 C4.81451613,17.0177419 4.92580645,17.0516129 4.98870968,16.9887097 C5.0516129,16.9403226 5.03709677,16.8290323 4.95483871,16.7370968 C4.87741935,16.6596774 4.76612903,16.6258065 4.70322581,16.6887097 Z M4.18064516,16.2967742 C4.14677419,16.3596774 4.19516129,16.4370968 4.29193548,16.4854839 C4.36935484,16.533871 4.46612903,16.5193548 4.5,16.4516129 C4.53387097,16.3887097 4.48548387,16.3112903 4.38870968,16.2629032 C4.29193548,16.233871 4.21451613,16.2483871 4.18064516,16.2967742 Z M5.7483871,18.0193548 C5.67096774,18.0822581 5.7,18.2274194 5.81129032,18.3193548 C5.92258065,18.4306452 6.06290323,18.4451613 6.12580645,18.3677419 C6.18870968,18.3048387 6.15967742,18.1596774 6.06290323,18.0677419 C5.95645161,17.9564516 5.81129032,17.9419355 5.7483871,18.0193548 Z M5.19677419,17.3080645 C5.11935484,17.3564516 5.11935484,17.4822581 5.19677419,17.5935484 C5.27419355,17.7048387 5.40483871,17.7532258 5.46774194,17.7048387 C5.54516129,17.6419355 5.54516129,17.516129 5.46774194,17.4048387 C5.4,17.2935484 5.27419355,17.2451613 5.19677419,17.3080645 Z" id="Shape"></path>
        </g>
    </g>
</svg>