<?xml version="1.0" encoding="UTF-8"?>
<svg width="156px" height="156px" viewBox="0 0 156 156" version="1.1" xmlns="http://www.w3.org/2000/svg" xmlns:xlink="http://www.w3.org/1999/xlink">
    <title>memcached-managed-service-thumbnail</title>
    <defs>
        <linearGradient x1="92.6698647%" y1="96.6822363%" x2="8.19699352%" y2="8.94420173%" id="linearGradient-1">
            <stop stop-color="#1A0FC7" offset="0%"></stop>
            <stop stop-color="#53A0FD" offset="47.5247532%"></stop>
            <stop stop-color="#51D4EC" offset="100%"></stop>
        </linearGradient>
        <path d="M48.0099107,0.326567869 C52.0450977,-0.121118245 56.1035306,-0.106689686 60.1266937,0.358631333 C61.7062201,0.542595457 62.8641119,1.92012202 62.7699255,3.50445793 C62.4837591,8.54844158 65.407947,13.2473422 70.0451255,15.1980032 C74.5011453,17.0572833 80.2677593,15.7358678 83.4781136,12.1804304 C84.5426206,11.0016974 86.3437857,10.8646261 87.5714156,11.849776 C90.7064208,14.3611468 93.5777039,17.2588823 96.1039041,20.4668319 C97.0750263,21.6976681 96.9343478,23.4695753 95.776456,24.5280704 C92.0979751,27.9023491 90.8879801,33.256146 92.7644943,37.8468324 C94.60133,42.3289039 98.9811992,45.2270402 103.916969,45.2270402 C105.44359,45.2270402 107.209085,46.3648924 107.379422,47.8790895 C107.835525,51.9583637 107.829914,56.0777172 107.355374,60.1277335 C107.266789,60.8737817 106.901871,61.5331951 106.378316,62.0075664 C100.592253,54.6491314 91.6094097,49.9233663 81.522805,49.9233663 C81.0238263,49.9233663 80.5275488,49.9349313 80.0342258,49.9578079 C78.6006388,37.0909517 67.6870452,27.0860457 54.4366806,27.0860457 C40.2107239,27.0860457 28.6783074,38.6184622 28.6783074,52.8444189 C28.6783074,65.5894081 37.9345834,76.1724782 50.0913237,78.2378175 C49.9795816,79.316743 49.9223266,80.4136076 49.9223266,81.5238448 C49.9223266,91.5071125 54.551757,100.409119 61.7809718,106.200218 C61.3021658,106.846947 60.5652957,107.296853 59.7058608,107.391684 C57.7351601,107.610918 55.7640587,107.719132 53.793358,107.719132 C51.7172487,107.719132 49.6467506,107.599295 47.588677,107.35922 C46.0155633,107.178061 44.8520603,105.79813 44.9454452,104.212992 C45.2316116,99.1662031 42.3074237,94.4677032 37.6586222,92.5230541 C33.2202373,90.6601669 27.4540241,91.9791776 24.231646,95.5434324 C23.1619286,96.7221655 21.3663747,96.8624432 20.1323321,95.868075 C16.9861047,93.335863 14.1144207,90.4353219 11.6118674,87.2478128 C10.6407452,86.0169765 10.7870348,84.2478749 11.9393155,83.1893798 C15.6234075,79.8122955 16.8338033,74.461705 14.9508764,69.8710185 C13.0619375,65.2743202 8.55902484,62.3705728 3.86894167,62.49041 C2.32548668,62.49041 0.506285898,61.3625776 0.337151126,59.8419678 C-0.118951647,55.7626937 -0.113340541,51.639733 0.360397137,47.5933239 C0.547166814,46.0406506 1.76357447,44.8943818 3.47135472,44.9492905 C8.73417151,44.9492905 13.3312706,42.096043 15.1905507,37.6688802 C17.1380054,33.0252891 15.9276096,27.6250002 12.1789899,24.2302809 C11.0094751,23.1661747 10.8631855,21.3734263 11.8575537,20.1365782 C14.4069998,16.955081 17.3428108,14.0549407 20.5708,11.5223279 C21.8044417,10.5608247 23.5763489,10.7035071 24.6352448,11.8642045 C27.8391864,15.3879792 33.5653203,16.6981725 37.9680347,14.899813 C42.5591219,13.0192908 45.5185796,8.40255282 45.3430321,3.40826754 C45.2905282,1.84397129 46.44842,0.498908987 48.0099107,0.326567869 Z" id="path-2"></path>
        <filter x="-6.5%" y="-4.6%" width="113.0%" height="113.0%" filterUnits="objectBoundingBox" id="filter-3">
            <feOffset dx="0" dy="2" in="SourceAlpha" result="shadowOffsetOuter1"></feOffset>
            <feGaussianBlur stdDeviation="2" in="shadowOffsetOuter1" result="shadowBlurOuter1"></feGaussianBlur>
            <feColorMatrix values="0 0 0 0 0   0 0 0 0 0   0 0 0 0 0  0 0 0 0.5 0" type="matrix" in="shadowBlurOuter1"></feColorMatrix>
        </filter>
        <linearGradient x1="80.8786136%" y1="91.4956164%" x2="-69.457174%" y2="-68.1707838%" id="linearGradient-4">
            <stop stop-color="#1A0FC7" offset="0%"></stop>
            <stop stop-color="#53A0FD" offset="47.5247532%"></stop>
            <stop stop-color="#51D4EC" offset="100%"></stop>
        </linearGradient>
        <path d="M81.7883553,52.5788687 C97.9208835,52.5788687 110.998882,65.6568668 110.998882,81.789395 C110.998882,97.9219232 97.9208835,110.999921 81.7883553,110.999921 C65.655827,110.999921 52.577829,97.9219232 52.577829,81.789395 C52.577829,65.6568668 65.655827,52.5788687 81.7883553,52.5788687 Z M78.3356027,94.004706 C77.3098675,94.004706 76.4773505,94.8384219 76.4773505,95.8641571 C76.4773505,96.8898924 77.3086686,97.7224094 78.3356027,97.7224094 C79.3625368,97.7224094 80.1950538,96.8909914 80.1950538,95.8641571 C80.1950538,94.8371231 79.361338,94.004706 78.3356027,94.004706 Z M85.2405084,94.004706 C84.2131641,94.004706 83.3816567,94.8384219 83.3816567,95.8641571 C83.3816567,96.8898924 84.2141633,97.7224094 85.2401087,97.7224094 C86.2660542,97.7224094 87.0985607,96.8909914 87.0985607,95.8641571 L87.0985607,95.8641571 C87.0993601,94.8371231 86.2678527,94.004706 85.2405084,94.004706 Z M96.6978156,65.8563807 L89.3679136,65.8563807 L89.2978572,65.8643128 C88.5921853,66.00928 87.0711129,68.1130022 85.5990514,70.2928505 L85.5990514,70.2928505 L85.235071,70.8345512 C83.7267651,73.0892626 82.3474645,75.2587065 82.0541213,75.2587065 C81.7607781,75.2587065 80.3814542,73.0895207 78.8731353,70.835066 L78.5091521,70.2934267 C76.9863187,68.0386661 75.4110491,65.8653501 74.740329,65.8573957 L74.740329,65.8573957 L67.4090174,65.8572942 L67.2864349,66.6599665 C66.1714777,74.1424582 65.8664709,81.3529729 65.8556431,86.8861742 L65.8556431,86.8861742 L65.8558434,87.593042 C65.8705183,93.4036322 66.201698,97.1913089 66.201698,97.1913089 L66.201698,97.1913089 L74.1185962,97.1913089 L74.0870377,97.0198394 C73.7611286,95.2278935 73.1306201,91.1426604 72.6542023,86.9456304 L72.6542023,86.9456304 L72.5737628,86.222116 C71.9438232,80.4317616 71.6563753,74.6669139 72.9110754,74.6330352 C73.4561051,74.7202804 74.8811387,77.9331264 76.2784427,81.4257941 L76.6084179,82.2568368 L76.6084179,82.2568368 L76.7177161,82.5347242 L76.9933873,83.2409808 C78.4062951,86.8797617 79.6207549,90.2917699 79.6207549,90.2917699 C79.6207549,90.2917699 80.833008,90.1395138 82.0528124,90.1395138 C83.2726168,90.1395138 84.4853733,90.2917699 84.4853733,90.2917699 C84.4853733,90.2917699 89.9908546,74.8255885 91.1950528,74.6330352 C92.5027931,74.6683255 92.136583,80.9221152 91.4529251,86.9456304 L91.3694492,87.6669342 C90.8887686,91.7433814 90.2863899,95.5940732 89.9888409,97.1913089 L89.9888409,97.1913089 L97.9060412,97.1913089 C97.9191667,97.0389825 98.2376392,93.2871618 98.2519713,87.5925472 L98.2521647,86.8856505 C98.2408879,81.1546048 97.9138705,73.6243198 96.6978156,65.8563807 L96.6978156,65.8563807 Z" id="path-5"></path>
        <filter x="-12.0%" y="-8.6%" width="124.0%" height="124.0%" filterUnits="objectBoundingBox" id="filter-6">
            <feOffset dx="0" dy="2" in="SourceAlpha" result="shadowOffsetOuter1"></feOffset>
            <feGaussianBlur stdDeviation="2" in="shadowOffsetOuter1" result="shadowBlurOuter1"></feGaussianBlur>
            <feColorMatrix values="0 0 0 0 0   0 0 0 0 0   0 0 0 0 0  0 0 0 0.5 0" type="matrix" in="shadowBlurOuter1"></feColorMatrix>
        </filter>
    </defs>
    <g id="memcached-managed-service-thumbnail" stroke="none" stroke-width="1" fill="none" fill-rule="evenodd">
        <g id="Group" transform="translate(23.000000, 23.000000)">
            <g id="Combined-Shape" fill-rule="nonzero">
                <use fill="black" fill-opacity="1" filter="url(#filter-3)" xlink:href="#path-2"></use>
                <use fill="url(#linearGradient-1)" xlink:href="#path-2"></use>
            </g>
            <g id="Combined-Shape">
                <use fill="black" fill-opacity="1" filter="url(#filter-6)" xlink:href="#path-5"></use>
                <use fill="url(#linearGradient-4)" fill-rule="evenodd" xlink:href="#path-5"></use>
            </g>
        </g>
    </g>
</svg>